%TF.GenerationSoftware,KiCad,Pcbnew,9.0.5+1*%
%TF.CreationDate,2026-03-24T20:05:24+00:00*%
%TF.ProjectId,txe8116-module,74786538-3131-4362-9d6d-6f64756c652e,v1.0.0*%
%TF.SameCoordinates,Original*%
%TF.FileFunction,OtherDrawing,Comment*%
%FSLAX46Y46*%
G04 Gerber Fmt 4.6, Leading zero omitted, Abs format (unit mm)*
G04 Created by KiCad (PCBNEW 9.0.5+1) date 2026-03-24 20:05:24*
%MOMM*%
%LPD*%
G01*
G04 APERTURE LIST*
%ADD10C,0.150000*%
%ADD11C,0.050000*%
%ADD12C,0.100000*%
G04 APERTURE END LIST*
D10*
X149759047Y-102904819D02*
X149187619Y-102904819D01*
X149473333Y-102904819D02*
X149473333Y-101904819D01*
X149473333Y-101904819D02*
X149378095Y-102047676D01*
X149378095Y-102047676D02*
X149282857Y-102142914D01*
X149282857Y-102142914D02*
X149187619Y-102190533D01*
X150140000Y-102000057D02*
X150187619Y-101952438D01*
X150187619Y-101952438D02*
X150282857Y-101904819D01*
X150282857Y-101904819D02*
X150520952Y-101904819D01*
X150520952Y-101904819D02*
X150616190Y-101952438D01*
X150616190Y-101952438D02*
X150663809Y-102000057D01*
X150663809Y-102000057D02*
X150711428Y-102095295D01*
X150711428Y-102095295D02*
X150711428Y-102190533D01*
X150711428Y-102190533D02*
X150663809Y-102333390D01*
X150663809Y-102333390D02*
X150092381Y-102904819D01*
X150092381Y-102904819D02*
X150711428Y-102904819D01*
X151140000Y-102809580D02*
X151187619Y-102857200D01*
X151187619Y-102857200D02*
X151140000Y-102904819D01*
X151140000Y-102904819D02*
X151092381Y-102857200D01*
X151092381Y-102857200D02*
X151140000Y-102809580D01*
X151140000Y-102809580D02*
X151140000Y-102904819D01*
X151520952Y-101904819D02*
X152187618Y-101904819D01*
X152187618Y-101904819D02*
X151759047Y-102904819D01*
X152520952Y-102000057D02*
X152568571Y-101952438D01*
X152568571Y-101952438D02*
X152663809Y-101904819D01*
X152663809Y-101904819D02*
X152901904Y-101904819D01*
X152901904Y-101904819D02*
X152997142Y-101952438D01*
X152997142Y-101952438D02*
X153044761Y-102000057D01*
X153044761Y-102000057D02*
X153092380Y-102095295D01*
X153092380Y-102095295D02*
X153092380Y-102190533D01*
X153092380Y-102190533D02*
X153044761Y-102333390D01*
X153044761Y-102333390D02*
X152473333Y-102904819D01*
X152473333Y-102904819D02*
X153092380Y-102904819D01*
D11*
X144780000Y-97020000D02*
X144780000Y-104186420D01*
X157500000Y-104186420D02*
X157500000Y-95960000D01*
X144780000Y-103600000D02*
X157500000Y-103600000D01*
X144780000Y-103600000D02*
X145906504Y-103013579D01*
X144780000Y-103600000D02*
X145906504Y-104186421D01*
X157500000Y-103600000D02*
X156373496Y-104186421D01*
X157500000Y-103600000D02*
X156373496Y-103013579D01*
D12*
X149749047Y-105529419D02*
X149177619Y-105529419D01*
X149463333Y-105529419D02*
X149463333Y-104529419D01*
X149463333Y-104529419D02*
X149368095Y-104672276D01*
X149368095Y-104672276D02*
X149272857Y-104767514D01*
X149272857Y-104767514D02*
X149177619Y-104815133D01*
X150653809Y-104529419D02*
X150177619Y-104529419D01*
X150177619Y-104529419D02*
X150130000Y-105005609D01*
X150130000Y-105005609D02*
X150177619Y-104957990D01*
X150177619Y-104957990D02*
X150272857Y-104910371D01*
X150272857Y-104910371D02*
X150510952Y-104910371D01*
X150510952Y-104910371D02*
X150606190Y-104957990D01*
X150606190Y-104957990D02*
X150653809Y-105005609D01*
X150653809Y-105005609D02*
X150701428Y-105100847D01*
X150701428Y-105100847D02*
X150701428Y-105338942D01*
X150701428Y-105338942D02*
X150653809Y-105434180D01*
X150653809Y-105434180D02*
X150606190Y-105481800D01*
X150606190Y-105481800D02*
X150510952Y-105529419D01*
X150510952Y-105529419D02*
X150272857Y-105529419D01*
X150272857Y-105529419D02*
X150177619Y-105481800D01*
X150177619Y-105481800D02*
X150130000Y-105434180D01*
X151130000Y-105434180D02*
X151177619Y-105481800D01*
X151177619Y-105481800D02*
X151130000Y-105529419D01*
X151130000Y-105529419D02*
X151082381Y-105481800D01*
X151082381Y-105481800D02*
X151130000Y-105434180D01*
X151130000Y-105434180D02*
X151130000Y-105529419D01*
X151558571Y-104624657D02*
X151606190Y-104577038D01*
X151606190Y-104577038D02*
X151701428Y-104529419D01*
X151701428Y-104529419D02*
X151939523Y-104529419D01*
X151939523Y-104529419D02*
X152034761Y-104577038D01*
X152034761Y-104577038D02*
X152082380Y-104624657D01*
X152082380Y-104624657D02*
X152129999Y-104719895D01*
X152129999Y-104719895D02*
X152129999Y-104815133D01*
X152129999Y-104815133D02*
X152082380Y-104957990D01*
X152082380Y-104957990D02*
X151510952Y-105529419D01*
X151510952Y-105529419D02*
X152129999Y-105529419D01*
X152987142Y-104862752D02*
X152987142Y-105529419D01*
X152749047Y-104481800D02*
X152510952Y-105196085D01*
X152510952Y-105196085D02*
X153129999Y-105196085D01*
X143510000Y-98290000D02*
X143510000Y-106758420D01*
X158750000Y-106758420D02*
X158750000Y-98290000D01*
X143510000Y-106172000D02*
X158750000Y-106172000D01*
X143510000Y-106172000D02*
X144636504Y-105585579D01*
X143510000Y-106172000D02*
X144636504Y-106758421D01*
X158750000Y-106172000D02*
X157623496Y-106758421D01*
X158750000Y-106172000D02*
X157623496Y-105585579D01*
M02*
