%TF.GenerationSoftware,KiCad,Pcbnew,9.0.5+1*%
%TF.CreationDate,2026-03-24T20:18:08+00:00*%
%TF.ProjectId,txe8116-module,74786538-3131-4362-9d6d-6f64756c652e,v1.0.0*%
%TF.SameCoordinates,Original*%
%TF.FileFunction,Soldermask,Top*%
%TF.FilePolarity,Negative*%
%FSLAX46Y46*%
G04 Gerber Fmt 4.6, Leading zero omitted, Abs format (unit mm)*
G04 Created by KiCad (PCBNEW 9.0.5+1) date 2026-03-24 20:18:08*
%MOMM*%
%LPD*%
G01*
G04 APERTURE LIST*
G04 Aperture macros list*
%AMRoundRect*
0 Rectangle with rounded corners*
0 $1 Rounding radius*
0 $2 $3 $4 $5 $6 $7 $8 $9 X,Y pos of 4 corners*
0 Add a 4 corners polygon primitive as box body*
4,1,4,$2,$3,$4,$5,$6,$7,$8,$9,$2,$3,0*
0 Add four circle primitives for the rounded corners*
1,1,$1+$1,$2,$3*
1,1,$1+$1,$4,$5*
1,1,$1+$1,$6,$7*
1,1,$1+$1,$8,$9*
0 Add four rect primitives between the rounded corners*
20,1,$1+$1,$2,$3,$4,$5,0*
20,1,$1+$1,$4,$5,$6,$7,0*
20,1,$1+$1,$6,$7,$8,$9,0*
20,1,$1+$1,$8,$9,$2,$3,0*%
%AMFreePoly0*
4,1,19,1.270000,-0.838200,-0.013951,-0.838200,-0.188651,-0.803455,-0.352371,-0.733074,-0.497855,-0.630155,-0.618729,-0.499208,-0.709699,-0.345969,-0.766779,-0.177150,-0.787400,-0.000741,-0.787400,0.000592,-0.770781,0.178542,-0.715922,0.349474,-0.625481,0.504547,-0.503717,0.636459,-0.356363,0.738996,-0.190360,0.807333,-0.013803,0.838200,1.270000,0.838200,1.270000,-0.838200,1.270000,-0.838200,
$1*%
%AMFreePoly1*
4,1,19,1.270000,-0.838200,-0.013803,-0.838200,-0.190360,-0.807333,-0.356363,-0.738996,-0.503717,-0.636459,-0.625481,-0.504547,-0.715922,-0.349474,-0.770781,-0.178542,-0.787400,-0.000592,-0.787400,0.000741,-0.766779,0.177150,-0.709699,0.345969,-0.618729,0.499208,-0.497855,0.630155,-0.352371,0.733074,-0.188651,0.803455,-0.013951,0.838200,1.270000,0.838200,1.270000,-0.838200,1.270000,-0.838200,
$1*%
G04 Aperture macros list end*
%ADD10RoundRect,0.225000X0.250000X-0.225000X0.250000X0.225000X-0.250000X0.225000X-0.250000X-0.225000X0*%
%ADD11RoundRect,0.062500X-0.117500X-0.062500X0.117500X-0.062500X0.117500X0.062500X-0.117500X0.062500X0*%
%ADD12RoundRect,0.062500X0.117500X0.062500X-0.117500X0.062500X-0.117500X-0.062500X0.117500X-0.062500X0*%
%ADD13RoundRect,0.200000X-0.275000X0.200000X-0.275000X-0.200000X0.275000X-0.200000X0.275000X0.200000X0*%
%ADD14R,1.676400X1.676400*%
%ADD15FreePoly0,0.000000*%
%ADD16RoundRect,0.075000X-0.675000X-0.075000X0.675000X-0.075000X0.675000X0.075000X-0.675000X0.075000X0*%
%ADD17FreePoly1,180.000000*%
G04 APERTURE END LIST*
D10*
%TO.C,C4*%
X149200000Y-77150000D03*
X149200000Y-75600000D03*
%TD*%
D11*
%TO.C,D16*%
X155845000Y-76200000D03*
X155005000Y-76200000D03*
%TD*%
D12*
%TO.C,D2*%
X146405000Y-71125000D03*
X147245000Y-71125000D03*
%TD*%
%TO.C,D7*%
X146405000Y-83825000D03*
X147245000Y-83825000D03*
%TD*%
D11*
%TO.C,D14*%
X155870000Y-71125000D03*
X155030000Y-71125000D03*
%TD*%
D12*
%TO.C,D5*%
X146405000Y-78750000D03*
X147245000Y-78750000D03*
%TD*%
%TO.C,D9*%
X146405000Y-88900000D03*
X147245000Y-88900000D03*
%TD*%
D11*
%TO.C,D22*%
X155870000Y-91450000D03*
X155030000Y-91450000D03*
%TD*%
D12*
%TO.C,D12*%
X146405000Y-96525000D03*
X147245000Y-96525000D03*
%TD*%
D13*
%TO.C,R2*%
X149510000Y-70485000D03*
X149510000Y-72135000D03*
%TD*%
D14*
%TO.C,J2*%
X158750000Y-68580000D03*
D15*
X157480000Y-68580000D03*
D14*
X158750000Y-71120000D03*
D15*
X157480000Y-71120000D03*
D14*
X158750000Y-73660000D03*
D15*
X157480000Y-73660000D03*
D14*
X158750000Y-76200000D03*
D15*
X157480000Y-76200000D03*
D14*
X158750000Y-78740000D03*
D15*
X157480000Y-78740000D03*
D14*
X158750000Y-81280000D03*
D15*
X157480000Y-81280000D03*
D14*
X158750000Y-83820000D03*
D15*
X157480000Y-83820000D03*
D14*
X158750000Y-86360000D03*
D15*
X157480000Y-86360000D03*
D14*
X158750000Y-88900000D03*
D15*
X157480000Y-88900000D03*
D14*
X158750000Y-91440000D03*
D15*
X157480000Y-91440000D03*
D14*
X158750000Y-93980000D03*
D15*
X157480000Y-93980000D03*
D14*
X158750000Y-96520000D03*
D15*
X157480000Y-96520000D03*
%TD*%
D11*
%TO.C,D15*%
X155870000Y-73650000D03*
X155030000Y-73650000D03*
%TD*%
%TO.C,D19*%
X155872500Y-83825000D03*
X155032500Y-83825000D03*
%TD*%
D16*
%TO.C,U1*%
X149200000Y-78500000D03*
X149200000Y-79000000D03*
X149200000Y-79500000D03*
X149200000Y-80000000D03*
X149200000Y-80500000D03*
X149200000Y-81000000D03*
X149200000Y-81500000D03*
X149200000Y-82000000D03*
X149200000Y-82500000D03*
X149200000Y-83000000D03*
X149200000Y-83500000D03*
X149200000Y-84000000D03*
X153500000Y-84000000D03*
X153500000Y-83500000D03*
X153500000Y-83000000D03*
X153500000Y-82500000D03*
X153500000Y-82000000D03*
X153500000Y-81500000D03*
X153500000Y-81000000D03*
X153500000Y-80500000D03*
X153500000Y-80000000D03*
X153500000Y-79500000D03*
X153500000Y-79000000D03*
X153500000Y-78500000D03*
%TD*%
D11*
%TO.C,D23*%
X155870000Y-93975000D03*
X155030000Y-93975000D03*
%TD*%
%TO.C,D17*%
X155870000Y-78750000D03*
X155030000Y-78750000D03*
%TD*%
%TO.C,D18*%
X155870000Y-81275000D03*
X155030000Y-81275000D03*
%TD*%
D17*
%TO.C,J1*%
X144780000Y-68580000D03*
D14*
X143510000Y-68580000D03*
D17*
X144780000Y-71120000D03*
D14*
X143510000Y-71120000D03*
D17*
X144780000Y-73660000D03*
D14*
X143510000Y-73660000D03*
D17*
X144780000Y-76200000D03*
D14*
X143510000Y-76200000D03*
D17*
X144780000Y-78740000D03*
D14*
X143510000Y-78740000D03*
D17*
X144780000Y-81280000D03*
D14*
X143510000Y-81280000D03*
D17*
X144780000Y-83820000D03*
D14*
X143510000Y-83820000D03*
D17*
X144780000Y-86360000D03*
D14*
X143510000Y-86360000D03*
D17*
X144780000Y-88900000D03*
D14*
X143510000Y-88900000D03*
D17*
X144780000Y-91440000D03*
D14*
X143510000Y-91440000D03*
D17*
X144780000Y-93980000D03*
D14*
X143510000Y-93980000D03*
D17*
X144780000Y-96520000D03*
D14*
X143510000Y-96520000D03*
%TD*%
D10*
%TO.C,C3*%
X150775000Y-77150000D03*
X150775000Y-75600000D03*
%TD*%
D11*
%TO.C,D21*%
X155870000Y-88900000D03*
X155030000Y-88900000D03*
%TD*%
D12*
%TO.C,D11*%
X146405000Y-93975000D03*
X147245000Y-93975000D03*
%TD*%
%TO.C,D4*%
X146405000Y-76200000D03*
X147245000Y-76200000D03*
%TD*%
%TO.C,D6*%
X146405000Y-81275000D03*
X147245000Y-81275000D03*
%TD*%
D13*
%TO.C,R1*%
X151110000Y-70485000D03*
X151110000Y-72135000D03*
%TD*%
D12*
%TO.C,D1*%
X146405000Y-68575000D03*
X147245000Y-68575000D03*
%TD*%
D11*
%TO.C,D20*%
X155870000Y-86350000D03*
X155030000Y-86350000D03*
%TD*%
%TO.C,D13*%
X155870000Y-68575000D03*
X155030000Y-68575000D03*
%TD*%
D12*
%TO.C,D3*%
X146405000Y-73675000D03*
X147245000Y-73675000D03*
%TD*%
%TO.C,D10*%
X146405000Y-91450000D03*
X147245000Y-91450000D03*
%TD*%
%TO.C,D8*%
X146402500Y-86375000D03*
X147242500Y-86375000D03*
%TD*%
M02*
