%TF.GenerationSoftware,KiCad,Pcbnew,9.0.5+1*%
%TF.CreationDate,2026-03-24T20:18:08+00:00*%
%TF.ProjectId,txe8116-module,74786538-3131-4362-9d6d-6f64756c652e,v1.0.0*%
%TF.SameCoordinates,Original*%
%TF.FileFunction,Copper,L4,Bot*%
%TF.FilePolarity,Positive*%
%FSLAX46Y46*%
G04 Gerber Fmt 4.6, Leading zero omitted, Abs format (unit mm)*
G04 Created by KiCad (PCBNEW 9.0.5+1) date 2026-03-24 20:18:08*
%MOMM*%
%LPD*%
G01*
G04 APERTURE LIST*
G04 Aperture macros list*
%AMFreePoly0*
4,1,19,1.270000,-0.838200,-0.013951,-0.838200,-0.188651,-0.803455,-0.352371,-0.733074,-0.497855,-0.630155,-0.618729,-0.499208,-0.709699,-0.345969,-0.766779,-0.177150,-0.787400,-0.000741,-0.787400,0.000592,-0.770781,0.178542,-0.715922,0.349474,-0.625481,0.504547,-0.503717,0.636459,-0.356363,0.738996,-0.190360,0.807333,-0.013803,0.838200,1.270000,0.838200,1.270000,-0.838200,1.270000,-0.838200,
$1*%
%AMFreePoly1*
4,1,19,1.270000,-0.838200,-0.013803,-0.838200,-0.190360,-0.807333,-0.356363,-0.738996,-0.503717,-0.636459,-0.625481,-0.504547,-0.715922,-0.349474,-0.770781,-0.178542,-0.787400,-0.000592,-0.787400,0.000741,-0.766779,0.177150,-0.709699,0.345969,-0.618729,0.499208,-0.497855,0.630155,-0.352371,0.733074,-0.188651,0.803455,-0.013951,0.838200,1.270000,0.838200,1.270000,-0.838200,1.270000,-0.838200,
$1*%
G04 Aperture macros list end*
%TA.AperFunction,CastellatedPad*%
%ADD10R,1.676400X1.676400*%
%TD*%
%TA.AperFunction,CastellatedPad*%
%ADD11FreePoly0,0.000000*%
%TD*%
%TA.AperFunction,CastellatedPad*%
%ADD12FreePoly1,180.000000*%
%TD*%
%TA.AperFunction,ViaPad*%
%ADD13C,0.400000*%
%TD*%
%TA.AperFunction,ViaPad*%
%ADD14C,0.600000*%
%TD*%
G04 APERTURE END LIST*
D10*
%TO.P,J2,1,Pin_1*%
%TO.N,/~{RESET}*%
X158750000Y-68580000D03*
D11*
X157480000Y-68580000D03*
D10*
%TO.P,J2,2,Pin_2*%
%TO.N,/SDO*%
X158750000Y-71120000D03*
D11*
X157480000Y-71120000D03*
D10*
%TO.P,J2,3,Pin_3*%
%TO.N,/SDI*%
X158750000Y-73660000D03*
D11*
X157480000Y-73660000D03*
D10*
%TO.P,J2,4,Pin_4*%
%TO.N,/SCLK*%
X158750000Y-76200000D03*
D11*
X157480000Y-76200000D03*
D10*
%TO.P,J2,5,Pin_5*%
%TO.N,/~{CS}*%
X158750000Y-78740000D03*
D11*
X157480000Y-78740000D03*
D10*
%TO.P,J2,6,Pin_6*%
%TO.N,/GPIO1.2*%
X158750000Y-81280000D03*
D11*
X157480000Y-81280000D03*
D10*
%TO.P,J2,7,Pin_7*%
%TO.N,/GPIO1.3*%
X158750000Y-83820000D03*
D11*
X157480000Y-83820000D03*
D10*
%TO.P,J2,8,Pin_8*%
%TO.N,/GPIO1.4*%
X158750000Y-86360000D03*
D11*
X157480000Y-86360000D03*
D10*
%TO.P,J2,9,Pin_9*%
%TO.N,/GPIO1.5*%
X158750000Y-88900000D03*
D11*
X157480000Y-88900000D03*
D10*
%TO.P,J2,10,Pin_10*%
%TO.N,/GPIO1.6*%
X158750000Y-91440000D03*
D11*
X157480000Y-91440000D03*
D10*
%TO.P,J2,11,Pin_11*%
%TO.N,/GPIO1.7*%
X158750000Y-93980000D03*
D11*
X157480000Y-93980000D03*
D10*
%TO.P,J2,12,Pin_12*%
%TO.N,GND*%
X158750000Y-96520000D03*
D11*
X157480000Y-96520000D03*
%TD*%
D12*
%TO.P,J1,1,Pin_1*%
%TO.N,VCC*%
X144780000Y-68580000D03*
D10*
X143510000Y-68580000D03*
D12*
%TO.P,J1,2,Pin_2*%
%TO.N,/~{INT}*%
X144780000Y-71120000D03*
D10*
X143510000Y-71120000D03*
D12*
%TO.P,J1,3,Pin_3*%
%TO.N,/GPIO0.0*%
X144780000Y-73660000D03*
D10*
X143510000Y-73660000D03*
D12*
%TO.P,J1,4,Pin_4*%
%TO.N,/GPIO0.1*%
X144780000Y-76200000D03*
D10*
X143510000Y-76200000D03*
D12*
%TO.P,J1,5,Pin_5*%
%TO.N,/GPIO0.2*%
X144780000Y-78740000D03*
D10*
X143510000Y-78740000D03*
D12*
%TO.P,J1,6,Pin_6*%
%TO.N,/GPIO0.3*%
X144780000Y-81280000D03*
D10*
X143510000Y-81280000D03*
D12*
%TO.P,J1,7,Pin_7*%
%TO.N,/GPIO0.4*%
X144780000Y-83820000D03*
D10*
X143510000Y-83820000D03*
D12*
%TO.P,J1,8,Pin_8*%
%TO.N,/GPIO0.5*%
X144780000Y-86360000D03*
D10*
X143510000Y-86360000D03*
D12*
%TO.P,J1,9,Pin_9*%
%TO.N,/GPIO0.6*%
X144780000Y-88900000D03*
D10*
X143510000Y-88900000D03*
D12*
%TO.P,J1,10,Pin_10*%
%TO.N,/GPIO0.7*%
X144780000Y-91440000D03*
D10*
X143510000Y-91440000D03*
D12*
%TO.P,J1,11,Pin_11*%
%TO.N,/GPIO1.0*%
X144780000Y-93980000D03*
D10*
X143510000Y-93980000D03*
D12*
%TO.P,J1,12,Pin_12*%
%TO.N,/GPIO1.1*%
X144780000Y-96520000D03*
D10*
X143510000Y-96520000D03*
%TD*%
D13*
%TO.N,GND*%
X151630000Y-95290000D03*
X147420000Y-69250000D03*
X154880000Y-76880000D03*
X146930000Y-73070000D03*
X147950000Y-96520000D03*
X156570000Y-95240000D03*
X147910000Y-93970000D03*
X147670000Y-76710000D03*
X150910000Y-88310000D03*
X146960000Y-75470000D03*
X153200000Y-72550000D03*
X156520000Y-84860000D03*
X147800000Y-74250000D03*
D14*
X149310000Y-73910000D03*
D13*
X154250000Y-68380000D03*
X154200000Y-85310000D03*
X147230000Y-78190000D03*
X147810000Y-91180000D03*
X147370000Y-71660000D03*
X147700000Y-86730000D03*
X148310000Y-70110000D03*
X145810000Y-77380000D03*
X145630000Y-85090000D03*
X155480000Y-68000000D03*
X147780000Y-81510000D03*
X153710000Y-93190000D03*
X154420000Y-90430000D03*
X155300000Y-78090000D03*
X154800000Y-80680000D03*
X154910000Y-79450000D03*
X154740000Y-74140000D03*
X147390000Y-84560000D03*
X151440000Y-79860000D03*
X153620000Y-76610000D03*
X156540000Y-80100000D03*
X154930000Y-70470000D03*
X155060000Y-71800000D03*
X155540000Y-96430000D03*
X146960000Y-80720000D03*
D14*
X150910000Y-73910000D03*
D13*
X155300000Y-72970000D03*
X147540000Y-83110000D03*
X151350000Y-81720000D03*
X148360000Y-68260000D03*
X155840000Y-89690000D03*
X154880000Y-75500000D03*
X147770000Y-88600000D03*
D14*
%TO.N,VCC*%
X146440000Y-69360000D03*
X149980000Y-77130000D03*
X150310000Y-70485000D03*
%TO.N,/SCLK*%
X152170000Y-79500000D03*
X155860000Y-75610000D03*
%TO.N,/SDO*%
X150580000Y-79010000D03*
X155920000Y-70470000D03*
%TO.N,/SDI*%
X152250000Y-78740000D03*
X155870000Y-74320000D03*
%TO.N,/GPIO1.5*%
X155880000Y-88250000D03*
X152240000Y-82890000D03*
%TO.N,/GPIO1.6*%
X155870000Y-90780000D03*
X152150000Y-83650000D03*
%TO.N,/GPIO1.4*%
X152270000Y-82100000D03*
X155870000Y-85730000D03*
%TD*%
%TA.AperFunction,Conductor*%
%TO.N,GND*%
G36*
X156666826Y-67809713D02*
G01*
X156703371Y-67860013D01*
X156703371Y-67922187D01*
X156688584Y-67950911D01*
X156674240Y-67970309D01*
X156583794Y-68125391D01*
X156565363Y-68166743D01*
X156565361Y-68166749D01*
X156510499Y-68337691D01*
X156501424Y-68382044D01*
X156501421Y-68382064D01*
X156484803Y-68560010D01*
X156483900Y-68579396D01*
X156483900Y-68580754D01*
X156485310Y-68604971D01*
X156496352Y-68699428D01*
X156505932Y-68781381D01*
X156515515Y-68823992D01*
X156515520Y-68824010D01*
X156572593Y-68992808D01*
X156572596Y-68992817D01*
X156590843Y-69032510D01*
X156669838Y-69165575D01*
X156681811Y-69185744D01*
X156707917Y-69220765D01*
X156707919Y-69220767D01*
X156828793Y-69351714D01*
X156828799Y-69351720D01*
X156861608Y-69380526D01*
X156861616Y-69380532D01*
X157007100Y-69483451D01*
X157007103Y-69483453D01*
X157007105Y-69483454D01*
X157045199Y-69504805D01*
X157045201Y-69504806D01*
X157045205Y-69504808D01*
X157208925Y-69575189D01*
X157208931Y-69575190D01*
X157208936Y-69575193D01*
X157248573Y-69587504D01*
X157250639Y-69588146D01*
X157425339Y-69622891D01*
X157466049Y-69626900D01*
X158148900Y-69626900D01*
X158208031Y-69646113D01*
X158244576Y-69696413D01*
X158249500Y-69727500D01*
X158249500Y-69972500D01*
X158230287Y-70031631D01*
X158179987Y-70068176D01*
X158148900Y-70073100D01*
X157466190Y-70073100D01*
X157430267Y-70076217D01*
X157430264Y-70076217D01*
X157430256Y-70076218D01*
X157430253Y-70076218D01*
X157430239Y-70076220D01*
X157253709Y-70107083D01*
X157253697Y-70107085D01*
X157210195Y-70119680D01*
X157210188Y-70119682D01*
X157044194Y-70188015D01*
X157044177Y-70188023D01*
X157004437Y-70209692D01*
X157004432Y-70209695D01*
X156857092Y-70312223D01*
X156857078Y-70312234D01*
X156822927Y-70341987D01*
X156822923Y-70341990D01*
X156701163Y-70473899D01*
X156674240Y-70510309D01*
X156674232Y-70510320D01*
X156602198Y-70633833D01*
X156555812Y-70675232D01*
X156493950Y-70681460D01*
X156440243Y-70650137D01*
X156415204Y-70593227D01*
X156418127Y-70557110D01*
X156419681Y-70551313D01*
X156423700Y-70536313D01*
X156423700Y-70403687D01*
X156389373Y-70275579D01*
X156323060Y-70160721D01*
X156229279Y-70066940D01*
X156229276Y-70066938D01*
X156114424Y-70000628D01*
X156114421Y-70000627D01*
X156080099Y-69991430D01*
X155986315Y-69966300D01*
X155986313Y-69966300D01*
X155853687Y-69966300D01*
X155853684Y-69966300D01*
X155725575Y-70000628D01*
X155610723Y-70066938D01*
X155610722Y-70066939D01*
X155610721Y-70066940D01*
X155516940Y-70160721D01*
X155516939Y-70160722D01*
X155516938Y-70160723D01*
X155450628Y-70275575D01*
X155416300Y-70403684D01*
X155416300Y-70536315D01*
X155450628Y-70664424D01*
X155516938Y-70779276D01*
X155516940Y-70779279D01*
X155610721Y-70873060D01*
X155610723Y-70873061D01*
X155725575Y-70939371D01*
X155725576Y-70939371D01*
X155725579Y-70939373D01*
X155853687Y-70973700D01*
X155986313Y-70973700D01*
X156114421Y-70939373D01*
X156229279Y-70873060D01*
X156323060Y-70779279D01*
X156345813Y-70739868D01*
X156392016Y-70698268D01*
X156453849Y-70691768D01*
X156507694Y-70722855D01*
X156532983Y-70779654D01*
X156528722Y-70820911D01*
X156510500Y-70877688D01*
X156501424Y-70922044D01*
X156501421Y-70922064D01*
X156484803Y-71100010D01*
X156483900Y-71119396D01*
X156483900Y-71120754D01*
X156485310Y-71144971D01*
X156496352Y-71239428D01*
X156505932Y-71321381D01*
X156515515Y-71363992D01*
X156515520Y-71364010D01*
X156572593Y-71532808D01*
X156572596Y-71532817D01*
X156590843Y-71572510D01*
X156681808Y-71725739D01*
X156681811Y-71725744D01*
X156707917Y-71760765D01*
X156707919Y-71760767D01*
X156828793Y-71891714D01*
X156828799Y-71891720D01*
X156861608Y-71920526D01*
X156861616Y-71920532D01*
X157007100Y-72023451D01*
X157007103Y-72023453D01*
X157007105Y-72023454D01*
X157045199Y-72044805D01*
X157045201Y-72044806D01*
X157045205Y-72044808D01*
X157208925Y-72115189D01*
X157208931Y-72115190D01*
X157208936Y-72115193D01*
X157248573Y-72127504D01*
X157250639Y-72128146D01*
X157425339Y-72162891D01*
X157466049Y-72166900D01*
X158148900Y-72166900D01*
X158208031Y-72186113D01*
X158244576Y-72236413D01*
X158249500Y-72267500D01*
X158249500Y-72512500D01*
X158230287Y-72571631D01*
X158179987Y-72608176D01*
X158148900Y-72613100D01*
X157466190Y-72613100D01*
X157430267Y-72616217D01*
X157430264Y-72616217D01*
X157430256Y-72616218D01*
X157430253Y-72616218D01*
X157430239Y-72616220D01*
X157253709Y-72647083D01*
X157253697Y-72647085D01*
X157210195Y-72659680D01*
X157210188Y-72659682D01*
X157044194Y-72728015D01*
X157044177Y-72728023D01*
X157004437Y-72749692D01*
X157004432Y-72749695D01*
X156857092Y-72852223D01*
X156857078Y-72852234D01*
X156822927Y-72881987D01*
X156822923Y-72881990D01*
X156701163Y-73013899D01*
X156674241Y-73050308D01*
X156583794Y-73205391D01*
X156565363Y-73246743D01*
X156565361Y-73246749D01*
X156510499Y-73417691D01*
X156501424Y-73462044D01*
X156501421Y-73462064D01*
X156484803Y-73640010D01*
X156483900Y-73659396D01*
X156483900Y-73660754D01*
X156485310Y-73684971D01*
X156496352Y-73779428D01*
X156505932Y-73861381D01*
X156515515Y-73903992D01*
X156515520Y-73904010D01*
X156572593Y-74072808D01*
X156572596Y-74072817D01*
X156590843Y-74112510D01*
X156674652Y-74253684D01*
X156681811Y-74265744D01*
X156707917Y-74300765D01*
X156786884Y-74386312D01*
X156828793Y-74431714D01*
X156828799Y-74431720D01*
X156861608Y-74460526D01*
X156861616Y-74460532D01*
X157007100Y-74563451D01*
X157007103Y-74563453D01*
X157007105Y-74563454D01*
X157045199Y-74584805D01*
X157045201Y-74584806D01*
X157045205Y-74584808D01*
X157208925Y-74655189D01*
X157208931Y-74655190D01*
X157208936Y-74655193D01*
X157248573Y-74667504D01*
X157250639Y-74668146D01*
X157425339Y-74702891D01*
X157466049Y-74706900D01*
X158148900Y-74706900D01*
X158208031Y-74726113D01*
X158244576Y-74776413D01*
X158249500Y-74807500D01*
X158249500Y-75052500D01*
X158230287Y-75111631D01*
X158179987Y-75148176D01*
X158148900Y-75153100D01*
X157466190Y-75153100D01*
X157430267Y-75156217D01*
X157430264Y-75156217D01*
X157430256Y-75156218D01*
X157430253Y-75156218D01*
X157430239Y-75156220D01*
X157253709Y-75187083D01*
X157253697Y-75187085D01*
X157210195Y-75199680D01*
X157210188Y-75199682D01*
X157044194Y-75268015D01*
X157044177Y-75268023D01*
X157004437Y-75289692D01*
X157004432Y-75289695D01*
X156857092Y-75392223D01*
X156857078Y-75392234D01*
X156822927Y-75421987D01*
X156822923Y-75421990D01*
X156701163Y-75553899D01*
X156674241Y-75590308D01*
X156583794Y-75745391D01*
X156565363Y-75786743D01*
X156565361Y-75786749D01*
X156510499Y-75957691D01*
X156501424Y-76002044D01*
X156501421Y-76002064D01*
X156484803Y-76180010D01*
X156483900Y-76199396D01*
X156483900Y-76200754D01*
X156485310Y-76224971D01*
X156496352Y-76319428D01*
X156505932Y-76401381D01*
X156515515Y-76443992D01*
X156515520Y-76444010D01*
X156572593Y-76612808D01*
X156572596Y-76612817D01*
X156590843Y-76652510D01*
X156635029Y-76726940D01*
X156681811Y-76805744D01*
X156707917Y-76840765D01*
X156707919Y-76840767D01*
X156828793Y-76971714D01*
X156828799Y-76971720D01*
X156861608Y-77000526D01*
X156861616Y-77000532D01*
X157007100Y-77103451D01*
X157007103Y-77103453D01*
X157007105Y-77103454D01*
X157045199Y-77124805D01*
X157045201Y-77124806D01*
X157045205Y-77124808D01*
X157208925Y-77195189D01*
X157208931Y-77195190D01*
X157208936Y-77195193D01*
X157248573Y-77207504D01*
X157250639Y-77208146D01*
X157425339Y-77242891D01*
X157466049Y-77246900D01*
X158148900Y-77246900D01*
X158208031Y-77266113D01*
X158244576Y-77316413D01*
X158249500Y-77347500D01*
X158249500Y-77592500D01*
X158230287Y-77651631D01*
X158179987Y-77688176D01*
X158148900Y-77693100D01*
X157466190Y-77693100D01*
X157430267Y-77696217D01*
X157430264Y-77696217D01*
X157430256Y-77696218D01*
X157430253Y-77696218D01*
X157430239Y-77696220D01*
X157253709Y-77727083D01*
X157253697Y-77727085D01*
X157210195Y-77739680D01*
X157210188Y-77739682D01*
X157044194Y-77808015D01*
X157044177Y-77808023D01*
X157004437Y-77829692D01*
X157004432Y-77829695D01*
X156857092Y-77932223D01*
X156857078Y-77932234D01*
X156822927Y-77961987D01*
X156822923Y-77961990D01*
X156701163Y-78093899D01*
X156674241Y-78130308D01*
X156583794Y-78285391D01*
X156565363Y-78326743D01*
X156565361Y-78326749D01*
X156510499Y-78497691D01*
X156501424Y-78542044D01*
X156501421Y-78542064D01*
X156484803Y-78720010D01*
X156483900Y-78739396D01*
X156483900Y-78740754D01*
X156485310Y-78764971D01*
X156496352Y-78859428D01*
X156505932Y-78941381D01*
X156505933Y-78941384D01*
X156515515Y-78983992D01*
X156515520Y-78984010D01*
X156572593Y-79152808D01*
X156572596Y-79152817D01*
X156590843Y-79192510D01*
X156666100Y-79319279D01*
X156681811Y-79345744D01*
X156707917Y-79380765D01*
X156707919Y-79380767D01*
X156828793Y-79511714D01*
X156828799Y-79511720D01*
X156861608Y-79540526D01*
X156861616Y-79540532D01*
X157007100Y-79643451D01*
X157007103Y-79643453D01*
X157007105Y-79643454D01*
X157045199Y-79664805D01*
X157045201Y-79664806D01*
X157045205Y-79664808D01*
X157208925Y-79735189D01*
X157208931Y-79735190D01*
X157208936Y-79735193D01*
X157248573Y-79747504D01*
X157250639Y-79748146D01*
X157425339Y-79782891D01*
X157466049Y-79786900D01*
X158148900Y-79786900D01*
X158208031Y-79806113D01*
X158244576Y-79856413D01*
X158249500Y-79887500D01*
X158249500Y-80132500D01*
X158230287Y-80191631D01*
X158179987Y-80228176D01*
X158148900Y-80233100D01*
X157466190Y-80233100D01*
X157430267Y-80236217D01*
X157430264Y-80236217D01*
X157430256Y-80236218D01*
X157430253Y-80236218D01*
X157430239Y-80236220D01*
X157253709Y-80267083D01*
X157253697Y-80267085D01*
X157210195Y-80279680D01*
X157210188Y-80279682D01*
X157044194Y-80348015D01*
X157044177Y-80348023D01*
X157004437Y-80369692D01*
X157004432Y-80369695D01*
X156857092Y-80472223D01*
X156857078Y-80472234D01*
X156822927Y-80501987D01*
X156822923Y-80501990D01*
X156701163Y-80633899D01*
X156674241Y-80670308D01*
X156583794Y-80825391D01*
X156565363Y-80866743D01*
X156565361Y-80866749D01*
X156510499Y-81037691D01*
X156501424Y-81082044D01*
X156501421Y-81082064D01*
X156484803Y-81260010D01*
X156483900Y-81279396D01*
X156483900Y-81280754D01*
X156485310Y-81304971D01*
X156496352Y-81399428D01*
X156505932Y-81481381D01*
X156515515Y-81523992D01*
X156515520Y-81524010D01*
X156572593Y-81692808D01*
X156572596Y-81692817D01*
X156590843Y-81732510D01*
X156681808Y-81885739D01*
X156681811Y-81885744D01*
X156707917Y-81920765D01*
X156707919Y-81920767D01*
X156828793Y-82051714D01*
X156828799Y-82051720D01*
X156861608Y-82080526D01*
X156861616Y-82080532D01*
X157007100Y-82183451D01*
X157007103Y-82183453D01*
X157007105Y-82183454D01*
X157045199Y-82204805D01*
X157045201Y-82204806D01*
X157045205Y-82204808D01*
X157208925Y-82275189D01*
X157208931Y-82275190D01*
X157208936Y-82275193D01*
X157248573Y-82287504D01*
X157250639Y-82288146D01*
X157425339Y-82322891D01*
X157466049Y-82326900D01*
X158148900Y-82326900D01*
X158208031Y-82346113D01*
X158244576Y-82396413D01*
X158249500Y-82427500D01*
X158249500Y-82672500D01*
X158230287Y-82731631D01*
X158179987Y-82768176D01*
X158148900Y-82773100D01*
X157466190Y-82773100D01*
X157430267Y-82776217D01*
X157430264Y-82776217D01*
X157430256Y-82776218D01*
X157430253Y-82776218D01*
X157430239Y-82776220D01*
X157253709Y-82807083D01*
X157253697Y-82807085D01*
X157210195Y-82819680D01*
X157210188Y-82819682D01*
X157044194Y-82888015D01*
X157044177Y-82888023D01*
X157004437Y-82909692D01*
X157004432Y-82909695D01*
X156857092Y-83012223D01*
X156857078Y-83012234D01*
X156822927Y-83041987D01*
X156822923Y-83041990D01*
X156701163Y-83173899D01*
X156674241Y-83210308D01*
X156674239Y-83210311D01*
X156613682Y-83314144D01*
X156583794Y-83365391D01*
X156565363Y-83406743D01*
X156565361Y-83406749D01*
X156510499Y-83577691D01*
X156501424Y-83622044D01*
X156501421Y-83622064D01*
X156484803Y-83800010D01*
X156483900Y-83819396D01*
X156483900Y-83820754D01*
X156485310Y-83844971D01*
X156496352Y-83939428D01*
X156505932Y-84021381D01*
X156513057Y-84053061D01*
X156515515Y-84063992D01*
X156515520Y-84064010D01*
X156572593Y-84232808D01*
X156572596Y-84232817D01*
X156590843Y-84272510D01*
X156681808Y-84425739D01*
X156681811Y-84425744D01*
X156707917Y-84460765D01*
X156707919Y-84460767D01*
X156828793Y-84591714D01*
X156828799Y-84591720D01*
X156861608Y-84620526D01*
X156861616Y-84620532D01*
X157007100Y-84723451D01*
X157007103Y-84723453D01*
X157007105Y-84723454D01*
X157045199Y-84744805D01*
X157045201Y-84744806D01*
X157045205Y-84744808D01*
X157208925Y-84815189D01*
X157208931Y-84815190D01*
X157208936Y-84815193D01*
X157248573Y-84827504D01*
X157250639Y-84828146D01*
X157425339Y-84862891D01*
X157466049Y-84866900D01*
X158148900Y-84866900D01*
X158208031Y-84886113D01*
X158244576Y-84936413D01*
X158249500Y-84967500D01*
X158249500Y-85212500D01*
X158230287Y-85271631D01*
X158179987Y-85308176D01*
X158148900Y-85313100D01*
X157466190Y-85313100D01*
X157430267Y-85316217D01*
X157430264Y-85316217D01*
X157430256Y-85316218D01*
X157430253Y-85316218D01*
X157430239Y-85316220D01*
X157253709Y-85347083D01*
X157253697Y-85347085D01*
X157210195Y-85359680D01*
X157210188Y-85359682D01*
X157044194Y-85428015D01*
X157044177Y-85428023D01*
X157004437Y-85449692D01*
X157004432Y-85449695D01*
X156857092Y-85552223D01*
X156857078Y-85552234D01*
X156822927Y-85581987D01*
X156822923Y-85581990D01*
X156701163Y-85713899D01*
X156674241Y-85750308D01*
X156674239Y-85750311D01*
X156647410Y-85796313D01*
X156583794Y-85905391D01*
X156565363Y-85946743D01*
X156565361Y-85946749D01*
X156510499Y-86117691D01*
X156501424Y-86162044D01*
X156501421Y-86162064D01*
X156484803Y-86340010D01*
X156483900Y-86359396D01*
X156483900Y-86360754D01*
X156485310Y-86384971D01*
X156496352Y-86479428D01*
X156505932Y-86561381D01*
X156515515Y-86603992D01*
X156515520Y-86604010D01*
X156572593Y-86772808D01*
X156572596Y-86772817D01*
X156590843Y-86812510D01*
X156681808Y-86965739D01*
X156681811Y-86965744D01*
X156707917Y-87000765D01*
X156707919Y-87000767D01*
X156828793Y-87131714D01*
X156828799Y-87131720D01*
X156861608Y-87160526D01*
X156861616Y-87160532D01*
X157007100Y-87263451D01*
X157007103Y-87263453D01*
X157007105Y-87263454D01*
X157045199Y-87284805D01*
X157045201Y-87284806D01*
X157045205Y-87284808D01*
X157208925Y-87355189D01*
X157208931Y-87355190D01*
X157208936Y-87355193D01*
X157248573Y-87367504D01*
X157250639Y-87368146D01*
X157425339Y-87402891D01*
X157466049Y-87406900D01*
X158148900Y-87406900D01*
X158208031Y-87426113D01*
X158244576Y-87476413D01*
X158249500Y-87507500D01*
X158249500Y-87752500D01*
X158230287Y-87811631D01*
X158179987Y-87848176D01*
X158148900Y-87853100D01*
X157466190Y-87853100D01*
X157430267Y-87856217D01*
X157430264Y-87856217D01*
X157430256Y-87856218D01*
X157430253Y-87856218D01*
X157430239Y-87856220D01*
X157253709Y-87887083D01*
X157253697Y-87887085D01*
X157210195Y-87899680D01*
X157210188Y-87899682D01*
X157044194Y-87968015D01*
X157044177Y-87968023D01*
X157004437Y-87989692D01*
X157004432Y-87989695D01*
X156857092Y-88092223D01*
X156857078Y-88092234D01*
X156822927Y-88121987D01*
X156822923Y-88121990D01*
X156701163Y-88253899D01*
X156674241Y-88290308D01*
X156583794Y-88445391D01*
X156565363Y-88486743D01*
X156565361Y-88486749D01*
X156510499Y-88657691D01*
X156501424Y-88702044D01*
X156501421Y-88702064D01*
X156484803Y-88880010D01*
X156483900Y-88899396D01*
X156483900Y-88900754D01*
X156485310Y-88924971D01*
X156496352Y-89019428D01*
X156505932Y-89101381D01*
X156515515Y-89143992D01*
X156515520Y-89144010D01*
X156572593Y-89312808D01*
X156572596Y-89312817D01*
X156590843Y-89352510D01*
X156681808Y-89505739D01*
X156681811Y-89505744D01*
X156707917Y-89540765D01*
X156707919Y-89540767D01*
X156828793Y-89671714D01*
X156828799Y-89671720D01*
X156861608Y-89700526D01*
X156861616Y-89700532D01*
X157007100Y-89803451D01*
X157007103Y-89803453D01*
X157007105Y-89803454D01*
X157045199Y-89824805D01*
X157045201Y-89824806D01*
X157045205Y-89824808D01*
X157208925Y-89895189D01*
X157208931Y-89895190D01*
X157208936Y-89895193D01*
X157248573Y-89907504D01*
X157250639Y-89908146D01*
X157425339Y-89942891D01*
X157466049Y-89946900D01*
X158148900Y-89946900D01*
X158208031Y-89966113D01*
X158244576Y-90016413D01*
X158249500Y-90047500D01*
X158249500Y-90292500D01*
X158230287Y-90351631D01*
X158179987Y-90388176D01*
X158148900Y-90393100D01*
X157466190Y-90393100D01*
X157430267Y-90396217D01*
X157430264Y-90396217D01*
X157430256Y-90396218D01*
X157430253Y-90396218D01*
X157430239Y-90396220D01*
X157253709Y-90427083D01*
X157253697Y-90427085D01*
X157210195Y-90439680D01*
X157210188Y-90439682D01*
X157044194Y-90508015D01*
X157044177Y-90508023D01*
X157004437Y-90529692D01*
X157004432Y-90529695D01*
X156857092Y-90632223D01*
X156857078Y-90632234D01*
X156822927Y-90661987D01*
X156822923Y-90661990D01*
X156701163Y-90793899D01*
X156674241Y-90830308D01*
X156674239Y-90830311D01*
X156664905Y-90846315D01*
X156583794Y-90985391D01*
X156565363Y-91026743D01*
X156565361Y-91026749D01*
X156510499Y-91197691D01*
X156501424Y-91242044D01*
X156501421Y-91242064D01*
X156484803Y-91420010D01*
X156483900Y-91439396D01*
X156483900Y-91440754D01*
X156485310Y-91464971D01*
X156496352Y-91559428D01*
X156505932Y-91641381D01*
X156515515Y-91683992D01*
X156515520Y-91684010D01*
X156572593Y-91852808D01*
X156572596Y-91852817D01*
X156590843Y-91892510D01*
X156681808Y-92045739D01*
X156681811Y-92045744D01*
X156707917Y-92080765D01*
X156707919Y-92080767D01*
X156828793Y-92211714D01*
X156828799Y-92211720D01*
X156861608Y-92240526D01*
X156861616Y-92240532D01*
X157007100Y-92343451D01*
X157007103Y-92343453D01*
X157007105Y-92343454D01*
X157045199Y-92364805D01*
X157045201Y-92364806D01*
X157045205Y-92364808D01*
X157208925Y-92435189D01*
X157208931Y-92435190D01*
X157208936Y-92435193D01*
X157248573Y-92447504D01*
X157250639Y-92448146D01*
X157425339Y-92482891D01*
X157466049Y-92486900D01*
X158148900Y-92486900D01*
X158208031Y-92506113D01*
X158244576Y-92556413D01*
X158249500Y-92587500D01*
X158249500Y-92832500D01*
X158230287Y-92891631D01*
X158179987Y-92928176D01*
X158148900Y-92933100D01*
X157466190Y-92933100D01*
X157430267Y-92936217D01*
X157430264Y-92936217D01*
X157430256Y-92936218D01*
X157430253Y-92936218D01*
X157430239Y-92936220D01*
X157253709Y-92967083D01*
X157253697Y-92967085D01*
X157210195Y-92979680D01*
X157210188Y-92979682D01*
X157044194Y-93048015D01*
X157044177Y-93048023D01*
X157004437Y-93069692D01*
X157004432Y-93069695D01*
X156857092Y-93172223D01*
X156857078Y-93172234D01*
X156822927Y-93201987D01*
X156822923Y-93201990D01*
X156701163Y-93333899D01*
X156674241Y-93370308D01*
X156583794Y-93525391D01*
X156565363Y-93566743D01*
X156565361Y-93566749D01*
X156510499Y-93737691D01*
X156501424Y-93782044D01*
X156501421Y-93782064D01*
X156484803Y-93960010D01*
X156483900Y-93979396D01*
X156483900Y-93980754D01*
X156485310Y-94004971D01*
X156496352Y-94099428D01*
X156505932Y-94181381D01*
X156515515Y-94223992D01*
X156515520Y-94224010D01*
X156572593Y-94392808D01*
X156572596Y-94392817D01*
X156590843Y-94432510D01*
X156681808Y-94585739D01*
X156681811Y-94585744D01*
X156707917Y-94620765D01*
X156707919Y-94620767D01*
X156828793Y-94751714D01*
X156828799Y-94751720D01*
X156861608Y-94780526D01*
X156861616Y-94780532D01*
X157007100Y-94883451D01*
X157007103Y-94883453D01*
X157007105Y-94883454D01*
X157045199Y-94904805D01*
X157045201Y-94904806D01*
X157045205Y-94904808D01*
X157208925Y-94975189D01*
X157208931Y-94975190D01*
X157208936Y-94975193D01*
X157248573Y-94987504D01*
X157250639Y-94988146D01*
X157425339Y-95022891D01*
X157466049Y-95026900D01*
X158148900Y-95026900D01*
X158208031Y-95046113D01*
X158244576Y-95096413D01*
X158249500Y-95127500D01*
X158249500Y-97188900D01*
X158230287Y-97248031D01*
X158179987Y-97284576D01*
X158148900Y-97289500D01*
X145656585Y-97289500D01*
X145597454Y-97270287D01*
X145560909Y-97219987D01*
X145560909Y-97157813D01*
X145575929Y-97128776D01*
X145576492Y-97128019D01*
X145578189Y-97125744D01*
X145669159Y-96972505D01*
X145687404Y-96932816D01*
X145744484Y-96763997D01*
X145754068Y-96721381D01*
X145774689Y-96544972D01*
X145776100Y-96520741D01*
X145776100Y-96519408D01*
X145776100Y-96519396D01*
X145775196Y-96500010D01*
X145775196Y-96500002D01*
X145758577Y-96322052D01*
X145749498Y-96277682D01*
X145694639Y-96106750D01*
X145676202Y-96065384D01*
X145585761Y-95910311D01*
X145558835Y-95873897D01*
X145437071Y-95741985D01*
X145402922Y-95712234D01*
X145402913Y-95712227D01*
X145402907Y-95712223D01*
X145255567Y-95609695D01*
X145255562Y-95609692D01*
X145215822Y-95588023D01*
X145215805Y-95588015D01*
X145049811Y-95519682D01*
X145049807Y-95519680D01*
X145049805Y-95519680D01*
X145028053Y-95513382D01*
X145006302Y-95507085D01*
X145006290Y-95507083D01*
X144829760Y-95476220D01*
X144829748Y-95476218D01*
X144829744Y-95476218D01*
X144827458Y-95476019D01*
X144793810Y-95473100D01*
X144793803Y-95473100D01*
X144111100Y-95473100D01*
X144051969Y-95453887D01*
X144015424Y-95403587D01*
X144010500Y-95372500D01*
X144010500Y-95127500D01*
X144029713Y-95068369D01*
X144080013Y-95031824D01*
X144111100Y-95026900D01*
X144793951Y-95026900D01*
X144834661Y-95022891D01*
X145009361Y-94988146D01*
X145032535Y-94980947D01*
X145051063Y-94975193D01*
X145051065Y-94975192D01*
X145051075Y-94975189D01*
X145214795Y-94904808D01*
X145252900Y-94883451D01*
X145398384Y-94780532D01*
X145431209Y-94751712D01*
X145552083Y-94620765D01*
X145578189Y-94585744D01*
X145669159Y-94432505D01*
X145687404Y-94392816D01*
X145744484Y-94223997D01*
X145754068Y-94181381D01*
X145774689Y-94004972D01*
X145776100Y-93980741D01*
X145776100Y-93979408D01*
X145776100Y-93979396D01*
X145775196Y-93960010D01*
X145775196Y-93960002D01*
X145758577Y-93782052D01*
X145749498Y-93737682D01*
X145694639Y-93566750D01*
X145676202Y-93525384D01*
X145585761Y-93370311D01*
X145558835Y-93333897D01*
X145437071Y-93201985D01*
X145402922Y-93172234D01*
X145402913Y-93172227D01*
X145402907Y-93172223D01*
X145255567Y-93069695D01*
X145255562Y-93069692D01*
X145215822Y-93048023D01*
X145215805Y-93048015D01*
X145049811Y-92979682D01*
X145049807Y-92979680D01*
X145049805Y-92979680D01*
X145028053Y-92973382D01*
X145006302Y-92967085D01*
X145006290Y-92967083D01*
X144829760Y-92936220D01*
X144829748Y-92936218D01*
X144829744Y-92936218D01*
X144827458Y-92936019D01*
X144793810Y-92933100D01*
X144793803Y-92933100D01*
X144111100Y-92933100D01*
X144051969Y-92913887D01*
X144015424Y-92863587D01*
X144010500Y-92832500D01*
X144010500Y-92587500D01*
X144029713Y-92528369D01*
X144080013Y-92491824D01*
X144111100Y-92486900D01*
X144793951Y-92486900D01*
X144834661Y-92482891D01*
X145009361Y-92448146D01*
X145032535Y-92440947D01*
X145051063Y-92435193D01*
X145051065Y-92435192D01*
X145051075Y-92435189D01*
X145214795Y-92364808D01*
X145252900Y-92343451D01*
X145398384Y-92240532D01*
X145431209Y-92211712D01*
X145552083Y-92080765D01*
X145578189Y-92045744D01*
X145669159Y-91892505D01*
X145687404Y-91852816D01*
X145744484Y-91683997D01*
X145754068Y-91641381D01*
X145774689Y-91464972D01*
X145776100Y-91440741D01*
X145776100Y-91439408D01*
X145776100Y-91439396D01*
X145775196Y-91420010D01*
X145775196Y-91420002D01*
X145758577Y-91242052D01*
X145749498Y-91197682D01*
X145694639Y-91026750D01*
X145676202Y-90985384D01*
X145585761Y-90830311D01*
X145558835Y-90793897D01*
X145484793Y-90713684D01*
X155366300Y-90713684D01*
X155366300Y-90846315D01*
X155400628Y-90974424D01*
X155430838Y-91026749D01*
X155466940Y-91089279D01*
X155560721Y-91183060D01*
X155560723Y-91183061D01*
X155675575Y-91249371D01*
X155675576Y-91249371D01*
X155675579Y-91249373D01*
X155803687Y-91283700D01*
X155936313Y-91283700D01*
X156064421Y-91249373D01*
X156179279Y-91183060D01*
X156273060Y-91089279D01*
X156339373Y-90974421D01*
X156373700Y-90846313D01*
X156373700Y-90713687D01*
X156339373Y-90585579D01*
X156337154Y-90581736D01*
X156273061Y-90470723D01*
X156273060Y-90470721D01*
X156179279Y-90376940D01*
X156179276Y-90376938D01*
X156064424Y-90310628D01*
X156064421Y-90310627D01*
X156030099Y-90301430D01*
X155936315Y-90276300D01*
X155936313Y-90276300D01*
X155803687Y-90276300D01*
X155803684Y-90276300D01*
X155675575Y-90310628D01*
X155560723Y-90376938D01*
X155560722Y-90376939D01*
X155560721Y-90376940D01*
X155466940Y-90470721D01*
X155466939Y-90470722D01*
X155466938Y-90470723D01*
X155400628Y-90585575D01*
X155366300Y-90713684D01*
X145484793Y-90713684D01*
X145437071Y-90661985D01*
X145402922Y-90632234D01*
X145402913Y-90632227D01*
X145402907Y-90632223D01*
X145255567Y-90529695D01*
X145255562Y-90529692D01*
X145215822Y-90508023D01*
X145215805Y-90508015D01*
X145049811Y-90439682D01*
X145049807Y-90439680D01*
X145049805Y-90439680D01*
X145028053Y-90433382D01*
X145006302Y-90427085D01*
X145006290Y-90427083D01*
X144829760Y-90396220D01*
X144829748Y-90396218D01*
X144829744Y-90396218D01*
X144827458Y-90396019D01*
X144793810Y-90393100D01*
X144793803Y-90393100D01*
X144111100Y-90393100D01*
X144051969Y-90373887D01*
X144015424Y-90323587D01*
X144010500Y-90292500D01*
X144010500Y-90047500D01*
X144029713Y-89988369D01*
X144080013Y-89951824D01*
X144111100Y-89946900D01*
X144793951Y-89946900D01*
X144834661Y-89942891D01*
X145009361Y-89908146D01*
X145032535Y-89900947D01*
X145051063Y-89895193D01*
X145051065Y-89895192D01*
X145051075Y-89895189D01*
X145214795Y-89824808D01*
X145252900Y-89803451D01*
X145398384Y-89700532D01*
X145431209Y-89671712D01*
X145552083Y-89540765D01*
X145578189Y-89505744D01*
X145669159Y-89352505D01*
X145687404Y-89312816D01*
X145744484Y-89143997D01*
X145754068Y-89101381D01*
X145774689Y-88924972D01*
X145776100Y-88900741D01*
X145776100Y-88899408D01*
X145776100Y-88899396D01*
X145775196Y-88880010D01*
X145775196Y-88880002D01*
X145758577Y-88702052D01*
X145749498Y-88657682D01*
X145694639Y-88486750D01*
X145676202Y-88445384D01*
X145585761Y-88290311D01*
X145558835Y-88253897D01*
X145494026Y-88183687D01*
X145494023Y-88183684D01*
X155376300Y-88183684D01*
X155376300Y-88316315D01*
X155410628Y-88444424D01*
X155476938Y-88559276D01*
X155476940Y-88559279D01*
X155570721Y-88653060D01*
X155570723Y-88653061D01*
X155685575Y-88719371D01*
X155685576Y-88719371D01*
X155685579Y-88719373D01*
X155813687Y-88753700D01*
X155946313Y-88753700D01*
X156074421Y-88719373D01*
X156189279Y-88653060D01*
X156283060Y-88559279D01*
X156349373Y-88444421D01*
X156383700Y-88316313D01*
X156383700Y-88183687D01*
X156349373Y-88055579D01*
X156283060Y-87940721D01*
X156189279Y-87846940D01*
X156189276Y-87846938D01*
X156074424Y-87780628D01*
X156074421Y-87780627D01*
X156040099Y-87771430D01*
X155946315Y-87746300D01*
X155946313Y-87746300D01*
X155813687Y-87746300D01*
X155813684Y-87746300D01*
X155685575Y-87780628D01*
X155570723Y-87846938D01*
X155570722Y-87846939D01*
X155570721Y-87846940D01*
X155476940Y-87940721D01*
X155476939Y-87940722D01*
X155476938Y-87940723D01*
X155410628Y-88055575D01*
X155376300Y-88183684D01*
X145494023Y-88183684D01*
X145437076Y-88121990D01*
X145437074Y-88121989D01*
X145437071Y-88121985D01*
X145402922Y-88092234D01*
X145402913Y-88092227D01*
X145402907Y-88092223D01*
X145255567Y-87989695D01*
X145255562Y-87989692D01*
X145215822Y-87968023D01*
X145215805Y-87968015D01*
X145049811Y-87899682D01*
X145049807Y-87899680D01*
X145049805Y-87899680D01*
X145028053Y-87893382D01*
X145006302Y-87887085D01*
X145006290Y-87887083D01*
X144829760Y-87856220D01*
X144829748Y-87856218D01*
X144829744Y-87856218D01*
X144827458Y-87856019D01*
X144793810Y-87853100D01*
X144793803Y-87853100D01*
X144111100Y-87853100D01*
X144051969Y-87833887D01*
X144015424Y-87783587D01*
X144010500Y-87752500D01*
X144010500Y-87507500D01*
X144029713Y-87448369D01*
X144080013Y-87411824D01*
X144111100Y-87406900D01*
X144793951Y-87406900D01*
X144834661Y-87402891D01*
X145009361Y-87368146D01*
X145032535Y-87360947D01*
X145051063Y-87355193D01*
X145051065Y-87355192D01*
X145051075Y-87355189D01*
X145214795Y-87284808D01*
X145252900Y-87263451D01*
X145398384Y-87160532D01*
X145431209Y-87131712D01*
X145552083Y-87000765D01*
X145578189Y-86965744D01*
X145669159Y-86812505D01*
X145687404Y-86772816D01*
X145744484Y-86603997D01*
X145754068Y-86561381D01*
X145774689Y-86384972D01*
X145776100Y-86360741D01*
X145776100Y-86359408D01*
X145776100Y-86359396D01*
X145775196Y-86340010D01*
X145775196Y-86340002D01*
X145758577Y-86162052D01*
X145749498Y-86117682D01*
X145694639Y-85946750D01*
X145676202Y-85905384D01*
X145585761Y-85750311D01*
X145558835Y-85713897D01*
X145512485Y-85663684D01*
X155366300Y-85663684D01*
X155366300Y-85796315D01*
X155400628Y-85924424D01*
X155466938Y-86039276D01*
X155466940Y-86039279D01*
X155560721Y-86133060D01*
X155560723Y-86133061D01*
X155675575Y-86199371D01*
X155675576Y-86199371D01*
X155675579Y-86199373D01*
X155803687Y-86233700D01*
X155936313Y-86233700D01*
X156064421Y-86199373D01*
X156179279Y-86133060D01*
X156273060Y-86039279D01*
X156339373Y-85924421D01*
X156373700Y-85796313D01*
X156373700Y-85663687D01*
X156339373Y-85535579D01*
X156273060Y-85420721D01*
X156179279Y-85326940D01*
X156163968Y-85318100D01*
X156064424Y-85260628D01*
X156064421Y-85260627D01*
X156030099Y-85251430D01*
X155936315Y-85226300D01*
X155936313Y-85226300D01*
X155803687Y-85226300D01*
X155803684Y-85226300D01*
X155675575Y-85260628D01*
X155560723Y-85326938D01*
X155560722Y-85326939D01*
X155560721Y-85326940D01*
X155466940Y-85420721D01*
X155466939Y-85420722D01*
X155466938Y-85420723D01*
X155400628Y-85535575D01*
X155366300Y-85663684D01*
X145512485Y-85663684D01*
X145437071Y-85581985D01*
X145402922Y-85552234D01*
X145402913Y-85552227D01*
X145402907Y-85552223D01*
X145255567Y-85449695D01*
X145255562Y-85449692D01*
X145215822Y-85428023D01*
X145215805Y-85428015D01*
X145049811Y-85359682D01*
X145049807Y-85359680D01*
X145049805Y-85359680D01*
X145028053Y-85353382D01*
X145006302Y-85347085D01*
X145006290Y-85347083D01*
X144829760Y-85316220D01*
X144829748Y-85316218D01*
X144829744Y-85316218D01*
X144827458Y-85316019D01*
X144793810Y-85313100D01*
X144793803Y-85313100D01*
X144111100Y-85313100D01*
X144051969Y-85293887D01*
X144015424Y-85243587D01*
X144010500Y-85212500D01*
X144010500Y-84967500D01*
X144029713Y-84908369D01*
X144080013Y-84871824D01*
X144111100Y-84866900D01*
X144793951Y-84866900D01*
X144834661Y-84862891D01*
X145009361Y-84828146D01*
X145032535Y-84820947D01*
X145051063Y-84815193D01*
X145051065Y-84815192D01*
X145051075Y-84815189D01*
X145214795Y-84744808D01*
X145252900Y-84723451D01*
X145398384Y-84620532D01*
X145431209Y-84591712D01*
X145552083Y-84460765D01*
X145578189Y-84425744D01*
X145669159Y-84272505D01*
X145687404Y-84232816D01*
X145744484Y-84063997D01*
X145754068Y-84021381D01*
X145774689Y-83844972D01*
X145776100Y-83820741D01*
X145776100Y-83819408D01*
X145776100Y-83819396D01*
X145775196Y-83800010D01*
X145775196Y-83800002D01*
X145758577Y-83622052D01*
X145750726Y-83583684D01*
X151646300Y-83583684D01*
X151646300Y-83716315D01*
X151668725Y-83800002D01*
X151673921Y-83819396D01*
X151680628Y-83844424D01*
X151746938Y-83959276D01*
X151746940Y-83959279D01*
X151840721Y-84053060D01*
X151840723Y-84053061D01*
X151955575Y-84119371D01*
X151955576Y-84119371D01*
X151955579Y-84119373D01*
X152083687Y-84153700D01*
X152216313Y-84153700D01*
X152344421Y-84119373D01*
X152459279Y-84053060D01*
X152553060Y-83959279D01*
X152619373Y-83844421D01*
X152653700Y-83716313D01*
X152653700Y-83583687D01*
X152619373Y-83455579D01*
X152572826Y-83374958D01*
X152559900Y-83314144D01*
X152585188Y-83257345D01*
X152588795Y-83253543D01*
X152643060Y-83199279D01*
X152709373Y-83084421D01*
X152743700Y-82956313D01*
X152743700Y-82823687D01*
X152709373Y-82695579D01*
X152696048Y-82672500D01*
X152643061Y-82580723D01*
X152643060Y-82580721D01*
X152643057Y-82580718D01*
X152639046Y-82575491D01*
X152640159Y-82574636D01*
X152615245Y-82525725D01*
X152624978Y-82464317D01*
X152643468Y-82438870D01*
X152673060Y-82409279D01*
X152739373Y-82294421D01*
X152773700Y-82166313D01*
X152773700Y-82033687D01*
X152739373Y-81905579D01*
X152727921Y-81885744D01*
X152673061Y-81790723D01*
X152673060Y-81790721D01*
X152579279Y-81696940D01*
X152572138Y-81692817D01*
X152464424Y-81630628D01*
X152464421Y-81630627D01*
X152430099Y-81621430D01*
X152336315Y-81596300D01*
X152336313Y-81596300D01*
X152203687Y-81596300D01*
X152203684Y-81596300D01*
X152075575Y-81630628D01*
X151960723Y-81696938D01*
X151960722Y-81696939D01*
X151960721Y-81696940D01*
X151866940Y-81790721D01*
X151866939Y-81790722D01*
X151866938Y-81790723D01*
X151800628Y-81905575D01*
X151766300Y-82033684D01*
X151766300Y-82166315D01*
X151800628Y-82294424D01*
X151866938Y-82409276D01*
X151870954Y-82414509D01*
X151869838Y-82415365D01*
X151894752Y-82464262D01*
X151885026Y-82525670D01*
X151866528Y-82551132D01*
X151836940Y-82580720D01*
X151836938Y-82580723D01*
X151770628Y-82695575D01*
X151736300Y-82823684D01*
X151736300Y-82956315D01*
X151770628Y-83084424D01*
X151817172Y-83165040D01*
X151830099Y-83225856D01*
X151804810Y-83282655D01*
X151801186Y-83286474D01*
X151746940Y-83340721D01*
X151746938Y-83340723D01*
X151680628Y-83455575D01*
X151646300Y-83583684D01*
X145750726Y-83583684D01*
X145749498Y-83577682D01*
X145694639Y-83406750D01*
X145676202Y-83365384D01*
X145585761Y-83210311D01*
X145558835Y-83173897D01*
X145437071Y-83041985D01*
X145402922Y-83012234D01*
X145402913Y-83012227D01*
X145402907Y-83012223D01*
X145255567Y-82909695D01*
X145255562Y-82909692D01*
X145215822Y-82888023D01*
X145215805Y-82888015D01*
X145049811Y-82819682D01*
X145049807Y-82819680D01*
X145049805Y-82819680D01*
X145028053Y-82813382D01*
X145006302Y-82807085D01*
X145006290Y-82807083D01*
X144829760Y-82776220D01*
X144829748Y-82776218D01*
X144829744Y-82776218D01*
X144827458Y-82776019D01*
X144793810Y-82773100D01*
X144793803Y-82773100D01*
X144111100Y-82773100D01*
X144051969Y-82753887D01*
X144015424Y-82703587D01*
X144010500Y-82672500D01*
X144010500Y-82427500D01*
X144029713Y-82368369D01*
X144080013Y-82331824D01*
X144111100Y-82326900D01*
X144793951Y-82326900D01*
X144834661Y-82322891D01*
X145009361Y-82288146D01*
X145032535Y-82280947D01*
X145051063Y-82275193D01*
X145051065Y-82275192D01*
X145051075Y-82275189D01*
X145214795Y-82204808D01*
X145252900Y-82183451D01*
X145398384Y-82080532D01*
X145431209Y-82051712D01*
X145552083Y-81920765D01*
X145578189Y-81885744D01*
X145669159Y-81732505D01*
X145687404Y-81692816D01*
X145744484Y-81523997D01*
X145754068Y-81481381D01*
X145774689Y-81304972D01*
X145776100Y-81280741D01*
X145776100Y-81279408D01*
X145776100Y-81279396D01*
X145775196Y-81260010D01*
X145775196Y-81260002D01*
X145758577Y-81082052D01*
X145749498Y-81037682D01*
X145694639Y-80866750D01*
X145676202Y-80825384D01*
X145585761Y-80670311D01*
X145558835Y-80633897D01*
X145437071Y-80501985D01*
X145402922Y-80472234D01*
X145402913Y-80472227D01*
X145402907Y-80472223D01*
X145255567Y-80369695D01*
X145255562Y-80369692D01*
X145215822Y-80348023D01*
X145215805Y-80348015D01*
X145049811Y-80279682D01*
X145049807Y-80279680D01*
X145049805Y-80279680D01*
X145028053Y-80273382D01*
X145006302Y-80267085D01*
X145006290Y-80267083D01*
X144829760Y-80236220D01*
X144829748Y-80236218D01*
X144829744Y-80236218D01*
X144827458Y-80236019D01*
X144793810Y-80233100D01*
X144793803Y-80233100D01*
X144111100Y-80233100D01*
X144051969Y-80213887D01*
X144015424Y-80163587D01*
X144010500Y-80132500D01*
X144010500Y-79887500D01*
X144029713Y-79828369D01*
X144080013Y-79791824D01*
X144111100Y-79786900D01*
X144793951Y-79786900D01*
X144834661Y-79782891D01*
X145009361Y-79748146D01*
X145032535Y-79740947D01*
X145051063Y-79735193D01*
X145051065Y-79735192D01*
X145051075Y-79735189D01*
X145214795Y-79664808D01*
X145252900Y-79643451D01*
X145398384Y-79540532D01*
X145431209Y-79511712D01*
X145552083Y-79380765D01*
X145578189Y-79345744D01*
X145669159Y-79192505D01*
X145687404Y-79152816D01*
X145744484Y-78983997D01*
X145753550Y-78943684D01*
X150076300Y-78943684D01*
X150076300Y-79076315D01*
X150097508Y-79155460D01*
X150107435Y-79192510D01*
X150110628Y-79204424D01*
X150169028Y-79305575D01*
X150176940Y-79319279D01*
X150270721Y-79413060D01*
X150270723Y-79413061D01*
X150385575Y-79479371D01*
X150385576Y-79479371D01*
X150385579Y-79479373D01*
X150513687Y-79513700D01*
X150646313Y-79513700D01*
X150774421Y-79479373D01*
X150853557Y-79433684D01*
X151666300Y-79433684D01*
X151666300Y-79566315D01*
X151700628Y-79694424D01*
X151756862Y-79791824D01*
X151766940Y-79809279D01*
X151860721Y-79903060D01*
X151860723Y-79903061D01*
X151975575Y-79969371D01*
X151975576Y-79969371D01*
X151975579Y-79969373D01*
X152103687Y-80003700D01*
X152236313Y-80003700D01*
X152364421Y-79969373D01*
X152479279Y-79903060D01*
X152573060Y-79809279D01*
X152639373Y-79694421D01*
X152673700Y-79566313D01*
X152673700Y-79433687D01*
X152639373Y-79305579D01*
X152589165Y-79218616D01*
X152576239Y-79157804D01*
X152601527Y-79101005D01*
X152605116Y-79097222D01*
X152653060Y-79049279D01*
X152719373Y-78934421D01*
X152753700Y-78806313D01*
X152753700Y-78673687D01*
X152719373Y-78545579D01*
X152696695Y-78506300D01*
X152653061Y-78430723D01*
X152653060Y-78430721D01*
X152559279Y-78336940D01*
X152559276Y-78336938D01*
X152444424Y-78270628D01*
X152444421Y-78270627D01*
X152410099Y-78261430D01*
X152316315Y-78236300D01*
X152316313Y-78236300D01*
X152183687Y-78236300D01*
X152183684Y-78236300D01*
X152055575Y-78270628D01*
X151940723Y-78336938D01*
X151940722Y-78336939D01*
X151940721Y-78336940D01*
X151846940Y-78430721D01*
X151846939Y-78430722D01*
X151846938Y-78430723D01*
X151780628Y-78545575D01*
X151746300Y-78673684D01*
X151746300Y-78806315D01*
X151780628Y-78934423D01*
X151830833Y-79021380D01*
X151843760Y-79082195D01*
X151818472Y-79138994D01*
X151814847Y-79142814D01*
X151766938Y-79190723D01*
X151700628Y-79305575D01*
X151666300Y-79433684D01*
X150853557Y-79433684D01*
X150889279Y-79413060D01*
X150983060Y-79319279D01*
X151049373Y-79204421D01*
X151083700Y-79076313D01*
X151083700Y-78943687D01*
X151049373Y-78815579D01*
X151044024Y-78806315D01*
X150983061Y-78700723D01*
X150983060Y-78700721D01*
X150889279Y-78606940D01*
X150889276Y-78606938D01*
X150774424Y-78540628D01*
X150774421Y-78540627D01*
X150740099Y-78531430D01*
X150646315Y-78506300D01*
X150646313Y-78506300D01*
X150513687Y-78506300D01*
X150513684Y-78506300D01*
X150385575Y-78540628D01*
X150270723Y-78606938D01*
X150270722Y-78606939D01*
X150270721Y-78606940D01*
X150176940Y-78700721D01*
X150176939Y-78700722D01*
X150176938Y-78700723D01*
X150110628Y-78815575D01*
X150076300Y-78943684D01*
X145753550Y-78943684D01*
X145754068Y-78941381D01*
X145774689Y-78764972D01*
X145776100Y-78740741D01*
X145776100Y-78739408D01*
X145776100Y-78739396D01*
X145775196Y-78720010D01*
X145775196Y-78720002D01*
X145758577Y-78542052D01*
X145749498Y-78497682D01*
X145694639Y-78326750D01*
X145676202Y-78285384D01*
X145585761Y-78130311D01*
X145558835Y-78093897D01*
X145437071Y-77961985D01*
X145402922Y-77932234D01*
X145402913Y-77932227D01*
X145402907Y-77932223D01*
X145255567Y-77829695D01*
X145255562Y-77829692D01*
X145215822Y-77808023D01*
X145215805Y-77808015D01*
X145049811Y-77739682D01*
X145049807Y-77739680D01*
X145049805Y-77739680D01*
X145028053Y-77733382D01*
X145006302Y-77727085D01*
X145006290Y-77727083D01*
X144829760Y-77696220D01*
X144829748Y-77696218D01*
X144829744Y-77696218D01*
X144827458Y-77696019D01*
X144793810Y-77693100D01*
X144793803Y-77693100D01*
X144111100Y-77693100D01*
X144051969Y-77673887D01*
X144015424Y-77623587D01*
X144010500Y-77592500D01*
X144010500Y-77347500D01*
X144029713Y-77288369D01*
X144080013Y-77251824D01*
X144111100Y-77246900D01*
X144793951Y-77246900D01*
X144834661Y-77242891D01*
X145009361Y-77208146D01*
X145032535Y-77200947D01*
X145051063Y-77195193D01*
X145051065Y-77195192D01*
X145051075Y-77195189D01*
X145214795Y-77124808D01*
X145252900Y-77103451D01*
X145309114Y-77063684D01*
X149476300Y-77063684D01*
X149476300Y-77196315D01*
X149510628Y-77324424D01*
X149576938Y-77439276D01*
X149576940Y-77439279D01*
X149670721Y-77533060D01*
X149670723Y-77533061D01*
X149785575Y-77599371D01*
X149785576Y-77599371D01*
X149785579Y-77599373D01*
X149913687Y-77633700D01*
X150046313Y-77633700D01*
X150174421Y-77599373D01*
X150289279Y-77533060D01*
X150383060Y-77439279D01*
X150449373Y-77324421D01*
X150483700Y-77196313D01*
X150483700Y-77063687D01*
X150449373Y-76935579D01*
X150383060Y-76820721D01*
X150289279Y-76726940D01*
X150289276Y-76726938D01*
X150174424Y-76660628D01*
X150174421Y-76660627D01*
X150140099Y-76651430D01*
X150046315Y-76626300D01*
X150046313Y-76626300D01*
X149913687Y-76626300D01*
X149913684Y-76626300D01*
X149785575Y-76660628D01*
X149670723Y-76726938D01*
X149670722Y-76726939D01*
X149670721Y-76726940D01*
X149576940Y-76820721D01*
X149576939Y-76820722D01*
X149576938Y-76820723D01*
X149510628Y-76935575D01*
X149476300Y-77063684D01*
X145309114Y-77063684D01*
X145398384Y-77000532D01*
X145431209Y-76971712D01*
X145552083Y-76840765D01*
X145578189Y-76805744D01*
X145669159Y-76652505D01*
X145687404Y-76612816D01*
X145744484Y-76443997D01*
X145754068Y-76401381D01*
X145774689Y-76224972D01*
X145776100Y-76200741D01*
X145776100Y-76199408D01*
X145776100Y-76199396D01*
X145775196Y-76180010D01*
X145775196Y-76180002D01*
X145758577Y-76002052D01*
X145749498Y-75957682D01*
X145694639Y-75786750D01*
X145676202Y-75745384D01*
X145585761Y-75590311D01*
X145558835Y-75553897D01*
X145549408Y-75543684D01*
X155356300Y-75543684D01*
X155356300Y-75676315D01*
X155390628Y-75804424D01*
X155456938Y-75919276D01*
X155456940Y-75919279D01*
X155550721Y-76013060D01*
X155550723Y-76013061D01*
X155665575Y-76079371D01*
X155665576Y-76079371D01*
X155665579Y-76079373D01*
X155793687Y-76113700D01*
X155926313Y-76113700D01*
X156054421Y-76079373D01*
X156169279Y-76013060D01*
X156263060Y-75919279D01*
X156329373Y-75804421D01*
X156363700Y-75676313D01*
X156363700Y-75543687D01*
X156329373Y-75415579D01*
X156315888Y-75392223D01*
X156263061Y-75300723D01*
X156263060Y-75300721D01*
X156169279Y-75206940D01*
X156156708Y-75199682D01*
X156054424Y-75140628D01*
X156054421Y-75140627D01*
X156020099Y-75131430D01*
X155926315Y-75106300D01*
X155926313Y-75106300D01*
X155793687Y-75106300D01*
X155793684Y-75106300D01*
X155665575Y-75140628D01*
X155550723Y-75206938D01*
X155550722Y-75206939D01*
X155550721Y-75206940D01*
X155456940Y-75300721D01*
X155456939Y-75300722D01*
X155456938Y-75300723D01*
X155390628Y-75415575D01*
X155356300Y-75543684D01*
X145549408Y-75543684D01*
X145437071Y-75421985D01*
X145402922Y-75392234D01*
X145402913Y-75392227D01*
X145402907Y-75392223D01*
X145255567Y-75289695D01*
X145255562Y-75289692D01*
X145215822Y-75268023D01*
X145215805Y-75268015D01*
X145049811Y-75199682D01*
X145049807Y-75199680D01*
X145049805Y-75199680D01*
X145028053Y-75193382D01*
X145006302Y-75187085D01*
X145006290Y-75187083D01*
X144829760Y-75156220D01*
X144829748Y-75156218D01*
X144829744Y-75156218D01*
X144827458Y-75156019D01*
X144793810Y-75153100D01*
X144793803Y-75153100D01*
X144111100Y-75153100D01*
X144051969Y-75133887D01*
X144015424Y-75083587D01*
X144010500Y-75052500D01*
X144010500Y-74807500D01*
X144029713Y-74748369D01*
X144080013Y-74711824D01*
X144111100Y-74706900D01*
X144793951Y-74706900D01*
X144834661Y-74702891D01*
X145009361Y-74668146D01*
X145032535Y-74660947D01*
X145051063Y-74655193D01*
X145051065Y-74655192D01*
X145051075Y-74655189D01*
X145214795Y-74584808D01*
X145252900Y-74563451D01*
X145398384Y-74460532D01*
X145431209Y-74431712D01*
X145552083Y-74300765D01*
X145578189Y-74265744D01*
X145585348Y-74253684D01*
X155366300Y-74253684D01*
X155366300Y-74386315D01*
X155400628Y-74514424D01*
X155466938Y-74629276D01*
X155466940Y-74629279D01*
X155560721Y-74723060D01*
X155560723Y-74723061D01*
X155675575Y-74789371D01*
X155675576Y-74789371D01*
X155675579Y-74789373D01*
X155803687Y-74823700D01*
X155936313Y-74823700D01*
X156064421Y-74789373D01*
X156179279Y-74723060D01*
X156273060Y-74629279D01*
X156339373Y-74514421D01*
X156373700Y-74386313D01*
X156373700Y-74253687D01*
X156339373Y-74125579D01*
X156308910Y-74072816D01*
X156273061Y-74010723D01*
X156273060Y-74010721D01*
X156179279Y-73916940D01*
X156179276Y-73916938D01*
X156064424Y-73850628D01*
X156064421Y-73850627D01*
X156030099Y-73841430D01*
X155936315Y-73816300D01*
X155936313Y-73816300D01*
X155803687Y-73816300D01*
X155803684Y-73816300D01*
X155675575Y-73850628D01*
X155560723Y-73916938D01*
X155560722Y-73916939D01*
X155560721Y-73916940D01*
X155466940Y-74010721D01*
X155466939Y-74010722D01*
X155466938Y-74010723D01*
X155400628Y-74125575D01*
X155366300Y-74253684D01*
X145585348Y-74253684D01*
X145669159Y-74112505D01*
X145687404Y-74072816D01*
X145744484Y-73903997D01*
X145754068Y-73861381D01*
X145774689Y-73684972D01*
X145776100Y-73660741D01*
X145776100Y-73659408D01*
X145776100Y-73659396D01*
X145775196Y-73640010D01*
X145775196Y-73640002D01*
X145758577Y-73462052D01*
X145749498Y-73417682D01*
X145694639Y-73246750D01*
X145676202Y-73205384D01*
X145585761Y-73050311D01*
X145558835Y-73013897D01*
X145437071Y-72881985D01*
X145402922Y-72852234D01*
X145402913Y-72852227D01*
X145402907Y-72852223D01*
X145255567Y-72749695D01*
X145255562Y-72749692D01*
X145215822Y-72728023D01*
X145215805Y-72728015D01*
X145049811Y-72659682D01*
X145049807Y-72659680D01*
X145049805Y-72659680D01*
X145028053Y-72653382D01*
X145006302Y-72647085D01*
X145006290Y-72647083D01*
X144829760Y-72616220D01*
X144829748Y-72616218D01*
X144829744Y-72616218D01*
X144827458Y-72616019D01*
X144793810Y-72613100D01*
X144793803Y-72613100D01*
X144111100Y-72613100D01*
X144051969Y-72593887D01*
X144015424Y-72543587D01*
X144010500Y-72512500D01*
X144010500Y-72267500D01*
X144029713Y-72208369D01*
X144080013Y-72171824D01*
X144111100Y-72166900D01*
X144793951Y-72166900D01*
X144834661Y-72162891D01*
X145009361Y-72128146D01*
X145032535Y-72120947D01*
X145051063Y-72115193D01*
X145051065Y-72115192D01*
X145051075Y-72115189D01*
X145214795Y-72044808D01*
X145252900Y-72023451D01*
X145398384Y-71920532D01*
X145431209Y-71891712D01*
X145552083Y-71760765D01*
X145578189Y-71725744D01*
X145669159Y-71572505D01*
X145687404Y-71532816D01*
X145744484Y-71363997D01*
X145754068Y-71321381D01*
X145774689Y-71144972D01*
X145776100Y-71120741D01*
X145776100Y-71119408D01*
X145776100Y-71119396D01*
X145775196Y-71100010D01*
X145775196Y-71100002D01*
X145758577Y-70922052D01*
X145749498Y-70877682D01*
X145694639Y-70706750D01*
X145676202Y-70665384D01*
X145585761Y-70510311D01*
X145558835Y-70473897D01*
X145507870Y-70418684D01*
X149806300Y-70418684D01*
X149806300Y-70551315D01*
X149831430Y-70645099D01*
X149836608Y-70664424D01*
X149840628Y-70679424D01*
X149898496Y-70779654D01*
X149906940Y-70794279D01*
X150000721Y-70888060D01*
X150000723Y-70888061D01*
X150115575Y-70954371D01*
X150115576Y-70954371D01*
X150115579Y-70954373D01*
X150243687Y-70988700D01*
X150376313Y-70988700D01*
X150504421Y-70954373D01*
X150619279Y-70888060D01*
X150713060Y-70794279D01*
X150779373Y-70679421D01*
X150813700Y-70551313D01*
X150813700Y-70418687D01*
X150779373Y-70290579D01*
X150770710Y-70275575D01*
X150728417Y-70202320D01*
X150713060Y-70175721D01*
X150619279Y-70081940D01*
X150609372Y-70076220D01*
X150504424Y-70015628D01*
X150504421Y-70015627D01*
X150448445Y-70000628D01*
X150376315Y-69981300D01*
X150376313Y-69981300D01*
X150243687Y-69981300D01*
X150243684Y-69981300D01*
X150115575Y-70015628D01*
X150000723Y-70081938D01*
X150000722Y-70081939D01*
X150000721Y-70081940D01*
X149906940Y-70175721D01*
X149906939Y-70175722D01*
X149906938Y-70175723D01*
X149840628Y-70290575D01*
X149806300Y-70418684D01*
X145507870Y-70418684D01*
X145437071Y-70341985D01*
X145402922Y-70312234D01*
X145402913Y-70312227D01*
X145402907Y-70312223D01*
X145255567Y-70209695D01*
X145255562Y-70209692D01*
X145215822Y-70188023D01*
X145215805Y-70188015D01*
X145049811Y-70119682D01*
X145049807Y-70119680D01*
X145049805Y-70119680D01*
X145028053Y-70113382D01*
X145006302Y-70107085D01*
X145006290Y-70107083D01*
X144829760Y-70076220D01*
X144829748Y-70076218D01*
X144829744Y-70076218D01*
X144827458Y-70076019D01*
X144793810Y-70073100D01*
X144793803Y-70073100D01*
X144111100Y-70073100D01*
X144051969Y-70053887D01*
X144015424Y-70003587D01*
X144010500Y-69972500D01*
X144010500Y-69727500D01*
X144029713Y-69668369D01*
X144080013Y-69631824D01*
X144111100Y-69626900D01*
X144793951Y-69626900D01*
X144834661Y-69622891D01*
X145009361Y-69588146D01*
X145032535Y-69580947D01*
X145051063Y-69575193D01*
X145051065Y-69575192D01*
X145051075Y-69575189D01*
X145214795Y-69504808D01*
X145252900Y-69483451D01*
X145398384Y-69380532D01*
X145431209Y-69351712D01*
X145484773Y-69293684D01*
X145936300Y-69293684D01*
X145936300Y-69426315D01*
X145970628Y-69554424D01*
X146036938Y-69669276D01*
X146036940Y-69669279D01*
X146130721Y-69763060D01*
X146130723Y-69763061D01*
X146245575Y-69829371D01*
X146245576Y-69829371D01*
X146245579Y-69829373D01*
X146373687Y-69863700D01*
X146506313Y-69863700D01*
X146634421Y-69829373D01*
X146749279Y-69763060D01*
X146843060Y-69669279D01*
X146909373Y-69554421D01*
X146943700Y-69426313D01*
X146943700Y-69293687D01*
X146909373Y-69165579D01*
X146843060Y-69050721D01*
X146749279Y-68956940D01*
X146749276Y-68956938D01*
X146634424Y-68890628D01*
X146634421Y-68890627D01*
X146600099Y-68881430D01*
X146506315Y-68856300D01*
X146506313Y-68856300D01*
X146373687Y-68856300D01*
X146373684Y-68856300D01*
X146245575Y-68890628D01*
X146130723Y-68956938D01*
X146130722Y-68956939D01*
X146130721Y-68956940D01*
X146036940Y-69050721D01*
X146036939Y-69050722D01*
X146036938Y-69050723D01*
X145970628Y-69165575D01*
X145936300Y-69293684D01*
X145484773Y-69293684D01*
X145552083Y-69220765D01*
X145578189Y-69185744D01*
X145669159Y-69032505D01*
X145687404Y-68992816D01*
X145744484Y-68823997D01*
X145754068Y-68781381D01*
X145774689Y-68604972D01*
X145776100Y-68580741D01*
X145776100Y-68579408D01*
X145776100Y-68579396D01*
X145775196Y-68560010D01*
X145775196Y-68560002D01*
X145758577Y-68382052D01*
X145749498Y-68337682D01*
X145694639Y-68166750D01*
X145676202Y-68125384D01*
X145585761Y-67970311D01*
X145571416Y-67950911D01*
X145551709Y-67891943D01*
X145570425Y-67832653D01*
X145620417Y-67795687D01*
X145652305Y-67790500D01*
X156607695Y-67790500D01*
X156666826Y-67809713D01*
G37*
%TD.AperFunction*%
%TD*%
M02*
