%TF.GenerationSoftware,KiCad,Pcbnew,9.0.5+1*%
%TF.CreationDate,2026-03-24T20:05:24+00:00*%
%TF.ProjectId,txe8116-module,74786538-3131-4362-9d6d-6f64756c652e,v1.0.0*%
%TF.SameCoordinates,Original*%
%TF.FileFunction,Copper,L1,Top*%
%TF.FilePolarity,Positive*%
%FSLAX46Y46*%
G04 Gerber Fmt 4.6, Leading zero omitted, Abs format (unit mm)*
G04 Created by KiCad (PCBNEW 9.0.5+1) date 2026-03-24 20:05:24*
%MOMM*%
%LPD*%
G01*
G04 APERTURE LIST*
G04 Aperture macros list*
%AMRoundRect*
0 Rectangle with rounded corners*
0 $1 Rounding radius*
0 $2 $3 $4 $5 $6 $7 $8 $9 X,Y pos of 4 corners*
0 Add a 4 corners polygon primitive as box body*
4,1,4,$2,$3,$4,$5,$6,$7,$8,$9,$2,$3,0*
0 Add four circle primitives for the rounded corners*
1,1,$1+$1,$2,$3*
1,1,$1+$1,$4,$5*
1,1,$1+$1,$6,$7*
1,1,$1+$1,$8,$9*
0 Add four rect primitives between the rounded corners*
20,1,$1+$1,$2,$3,$4,$5,0*
20,1,$1+$1,$4,$5,$6,$7,0*
20,1,$1+$1,$6,$7,$8,$9,0*
20,1,$1+$1,$8,$9,$2,$3,0*%
%AMFreePoly0*
4,1,19,1.270000,-0.838200,-0.013951,-0.838200,-0.188651,-0.803455,-0.352371,-0.733074,-0.497855,-0.630155,-0.618729,-0.499208,-0.709699,-0.345969,-0.766779,-0.177150,-0.787400,-0.000741,-0.787400,0.000592,-0.770781,0.178542,-0.715922,0.349474,-0.625481,0.504547,-0.503717,0.636459,-0.356363,0.738996,-0.190360,0.807333,-0.013803,0.838200,1.270000,0.838200,1.270000,-0.838200,1.270000,-0.838200,
$1*%
%AMFreePoly1*
4,1,19,1.270000,-0.838200,-0.013803,-0.838200,-0.190360,-0.807333,-0.356363,-0.738996,-0.503717,-0.636459,-0.625481,-0.504547,-0.715922,-0.349474,-0.770781,-0.178542,-0.787400,-0.000592,-0.787400,0.000741,-0.766779,0.177150,-0.709699,0.345969,-0.618729,0.499208,-0.497855,0.630155,-0.352371,0.733074,-0.188651,0.803455,-0.013951,0.838200,1.270000,0.838200,1.270000,-0.838200,1.270000,-0.838200,
$1*%
G04 Aperture macros list end*
%TA.AperFunction,SMDPad,CuDef*%
%ADD10RoundRect,0.225000X0.250000X-0.225000X0.250000X0.225000X-0.250000X0.225000X-0.250000X-0.225000X0*%
%TD*%
%TA.AperFunction,SMDPad,CuDef*%
%ADD11RoundRect,0.062500X-0.117500X-0.062500X0.117500X-0.062500X0.117500X0.062500X-0.117500X0.062500X0*%
%TD*%
%TA.AperFunction,SMDPad,CuDef*%
%ADD12RoundRect,0.062500X0.117500X0.062500X-0.117500X0.062500X-0.117500X-0.062500X0.117500X-0.062500X0*%
%TD*%
%TA.AperFunction,SMDPad,CuDef*%
%ADD13RoundRect,0.200000X-0.275000X0.200000X-0.275000X-0.200000X0.275000X-0.200000X0.275000X0.200000X0*%
%TD*%
%TA.AperFunction,CastellatedPad*%
%ADD14R,1.676400X1.676400*%
%TD*%
%TA.AperFunction,CastellatedPad*%
%ADD15FreePoly0,0.000000*%
%TD*%
%TA.AperFunction,SMDPad,CuDef*%
%ADD16RoundRect,0.075000X-0.675000X-0.075000X0.675000X-0.075000X0.675000X0.075000X-0.675000X0.075000X0*%
%TD*%
%TA.AperFunction,CastellatedPad*%
%ADD17FreePoly1,180.000000*%
%TD*%
%TA.AperFunction,ViaPad*%
%ADD18C,0.400000*%
%TD*%
%TA.AperFunction,ViaPad*%
%ADD19C,0.600000*%
%TD*%
%TA.AperFunction,Conductor*%
%ADD20C,0.152400*%
%TD*%
%TA.AperFunction,Conductor*%
%ADD21C,0.250000*%
%TD*%
G04 APERTURE END LIST*
D10*
%TO.P,C4,1*%
%TO.N,VCC*%
X149200000Y-77150000D03*
%TO.P,C4,2*%
%TO.N,GND*%
X149200000Y-75600000D03*
%TD*%
D11*
%TO.P,D16,1,A1*%
%TO.N,/SCLK*%
X155845000Y-76200000D03*
%TO.P,D16,2,A2*%
%TO.N,GND*%
X155005000Y-76200000D03*
%TD*%
D12*
%TO.P,D2,1,A1*%
%TO.N,/~{INT}*%
X146405000Y-71125000D03*
%TO.P,D2,2,A2*%
%TO.N,GND*%
X147245000Y-71125000D03*
%TD*%
%TO.P,D7,1,A1*%
%TO.N,/GPIO0.4*%
X146405000Y-83825000D03*
%TO.P,D7,2,A2*%
%TO.N,GND*%
X147245000Y-83825000D03*
%TD*%
D11*
%TO.P,D14,1,A1*%
%TO.N,/SDO*%
X155870000Y-71125000D03*
%TO.P,D14,2,A2*%
%TO.N,GND*%
X155030000Y-71125000D03*
%TD*%
D12*
%TO.P,D5,1,A1*%
%TO.N,/GPIO0.2*%
X146405000Y-78750000D03*
%TO.P,D5,2,A2*%
%TO.N,GND*%
X147245000Y-78750000D03*
%TD*%
%TO.P,D9,1,A1*%
%TO.N,/GPIO0.6*%
X146405000Y-88900000D03*
%TO.P,D9,2,A2*%
%TO.N,GND*%
X147245000Y-88900000D03*
%TD*%
D11*
%TO.P,D22,1,A1*%
%TO.N,/GPIO1.6*%
X155870000Y-91450000D03*
%TO.P,D22,2,A2*%
%TO.N,GND*%
X155030000Y-91450000D03*
%TD*%
D12*
%TO.P,D12,1,A1*%
%TO.N,/GPIO1.1*%
X146405000Y-96525000D03*
%TO.P,D12,2,A2*%
%TO.N,GND*%
X147245000Y-96525000D03*
%TD*%
D13*
%TO.P,R2,1*%
%TO.N,VCC*%
X149510000Y-70485000D03*
%TO.P,R2,2*%
%TO.N,/~{INT}*%
X149510000Y-72135000D03*
%TD*%
D14*
%TO.P,J2,1,Pin_1*%
%TO.N,/~{RESET}*%
X158750000Y-68580000D03*
D15*
X157480000Y-68580000D03*
D14*
%TO.P,J2,2,Pin_2*%
%TO.N,/SDO*%
X158750000Y-71120000D03*
D15*
X157480000Y-71120000D03*
D14*
%TO.P,J2,3,Pin_3*%
%TO.N,/SDI*%
X158750000Y-73660000D03*
D15*
X157480000Y-73660000D03*
D14*
%TO.P,J2,4,Pin_4*%
%TO.N,/SCLK*%
X158750000Y-76200000D03*
D15*
X157480000Y-76200000D03*
D14*
%TO.P,J2,5,Pin_5*%
%TO.N,/~{CS}*%
X158750000Y-78740000D03*
D15*
X157480000Y-78740000D03*
D14*
%TO.P,J2,6,Pin_6*%
%TO.N,/GPIO1.2*%
X158750000Y-81280000D03*
D15*
X157480000Y-81280000D03*
D14*
%TO.P,J2,7,Pin_7*%
%TO.N,/GPIO1.3*%
X158750000Y-83820000D03*
D15*
X157480000Y-83820000D03*
D14*
%TO.P,J2,8,Pin_8*%
%TO.N,/GPIO1.4*%
X158750000Y-86360000D03*
D15*
X157480000Y-86360000D03*
D14*
%TO.P,J2,9,Pin_9*%
%TO.N,/GPIO1.5*%
X158750000Y-88900000D03*
D15*
X157480000Y-88900000D03*
D14*
%TO.P,J2,10,Pin_10*%
%TO.N,/GPIO1.6*%
X158750000Y-91440000D03*
D15*
X157480000Y-91440000D03*
D14*
%TO.P,J2,11,Pin_11*%
%TO.N,/GPIO1.7*%
X158750000Y-93980000D03*
D15*
X157480000Y-93980000D03*
D14*
%TO.P,J2,12,Pin_12*%
%TO.N,GND*%
X158750000Y-96520000D03*
D15*
X157480000Y-96520000D03*
%TD*%
D11*
%TO.P,D15,1,A1*%
%TO.N,/SDI*%
X155870000Y-73650000D03*
%TO.P,D15,2,A2*%
%TO.N,GND*%
X155030000Y-73650000D03*
%TD*%
%TO.P,D19,1,A1*%
%TO.N,/GPIO1.3*%
X155872500Y-83825000D03*
%TO.P,D19,2,A2*%
%TO.N,GND*%
X155032500Y-83825000D03*
%TD*%
D16*
%TO.P,U1,1,~{INT}*%
%TO.N,/~{INT}*%
X149200000Y-78500000D03*
%TO.P,U1,2,SDO*%
%TO.N,/SDO*%
X149200000Y-79000000D03*
%TO.P,U1,3,VCC*%
%TO.N,VCC*%
X149200000Y-79500000D03*
%TO.P,U1,4,GND*%
%TO.N,GND*%
X149200000Y-80000000D03*
%TO.P,U1,5,P0.0*%
%TO.N,/GPIO0.0*%
X149200000Y-80500000D03*
%TO.P,U1,6,P0.1*%
%TO.N,/GPIO0.1*%
X149200000Y-81000000D03*
%TO.P,U1,7,P0.2*%
%TO.N,/GPIO0.2*%
X149200000Y-81500000D03*
%TO.P,U1,8,P0.3*%
%TO.N,/GPIO0.3*%
X149200000Y-82000000D03*
%TO.P,U1,9,P0.4*%
%TO.N,/GPIO0.4*%
X149200000Y-82500000D03*
%TO.P,U1,10,P0.5*%
%TO.N,/GPIO0.5*%
X149200000Y-83000000D03*
%TO.P,U1,11,P0.6*%
%TO.N,/GPIO0.6*%
X149200000Y-83500000D03*
%TO.P,U1,12,P0.7*%
%TO.N,/GPIO0.7*%
X149200000Y-84000000D03*
%TO.P,U1,13,P1.7*%
%TO.N,/GPIO1.7*%
X153500000Y-84000000D03*
%TO.P,U1,14,P1.6*%
%TO.N,/GPIO1.6*%
X153500000Y-83500000D03*
%TO.P,U1,15,P1.5*%
%TO.N,/GPIO1.5*%
X153500000Y-83000000D03*
%TO.P,U1,16,P1.4*%
%TO.N,/GPIO1.4*%
X153500000Y-82500000D03*
%TO.P,U1,17,P1.3*%
%TO.N,/GPIO1.3*%
X153500000Y-82000000D03*
%TO.P,U1,18,P1.2*%
%TO.N,/GPIO1.2*%
X153500000Y-81500000D03*
%TO.P,U1,19,P1.1*%
%TO.N,/GPIO1.1*%
X153500000Y-81000000D03*
%TO.P,U1,20,P1.0*%
%TO.N,/GPIO1.0*%
X153500000Y-80500000D03*
%TO.P,U1,21,~{CS}*%
%TO.N,/~{CS}*%
X153500000Y-80000000D03*
%TO.P,U1,22,SCLK*%
%TO.N,/SCLK*%
X153500000Y-79500000D03*
%TO.P,U1,23,SDI*%
%TO.N,/SDI*%
X153500000Y-79000000D03*
%TO.P,U1,24,~{RESET}*%
%TO.N,/~{RESET}*%
X153500000Y-78500000D03*
%TD*%
D11*
%TO.P,D23,1,A1*%
%TO.N,/GPIO1.7*%
X155870000Y-93975000D03*
%TO.P,D23,2,A2*%
%TO.N,GND*%
X155030000Y-93975000D03*
%TD*%
%TO.P,D17,1,A1*%
%TO.N,/~{CS}*%
X155870000Y-78750000D03*
%TO.P,D17,2,A2*%
%TO.N,GND*%
X155030000Y-78750000D03*
%TD*%
%TO.P,D18,1,A1*%
%TO.N,/GPIO1.2*%
X155870000Y-81275000D03*
%TO.P,D18,2,A2*%
%TO.N,GND*%
X155030000Y-81275000D03*
%TD*%
D17*
%TO.P,J1,1,Pin_1*%
%TO.N,VCC*%
X144780000Y-68580000D03*
D14*
X143510000Y-68580000D03*
D17*
%TO.P,J1,2,Pin_2*%
%TO.N,/~{INT}*%
X144780000Y-71120000D03*
D14*
X143510000Y-71120000D03*
D17*
%TO.P,J1,3,Pin_3*%
%TO.N,/GPIO0.0*%
X144780000Y-73660000D03*
D14*
X143510000Y-73660000D03*
D17*
%TO.P,J1,4,Pin_4*%
%TO.N,/GPIO0.1*%
X144780000Y-76200000D03*
D14*
X143510000Y-76200000D03*
D17*
%TO.P,J1,5,Pin_5*%
%TO.N,/GPIO0.2*%
X144780000Y-78740000D03*
D14*
X143510000Y-78740000D03*
D17*
%TO.P,J1,6,Pin_6*%
%TO.N,/GPIO0.3*%
X144780000Y-81280000D03*
D14*
X143510000Y-81280000D03*
D17*
%TO.P,J1,7,Pin_7*%
%TO.N,/GPIO0.4*%
X144780000Y-83820000D03*
D14*
X143510000Y-83820000D03*
D17*
%TO.P,J1,8,Pin_8*%
%TO.N,/GPIO0.5*%
X144780000Y-86360000D03*
D14*
X143510000Y-86360000D03*
D17*
%TO.P,J1,9,Pin_9*%
%TO.N,/GPIO0.6*%
X144780000Y-88900000D03*
D14*
X143510000Y-88900000D03*
D17*
%TO.P,J1,10,Pin_10*%
%TO.N,/GPIO0.7*%
X144780000Y-91440000D03*
D14*
X143510000Y-91440000D03*
D17*
%TO.P,J1,11,Pin_11*%
%TO.N,/GPIO1.0*%
X144780000Y-93980000D03*
D14*
X143510000Y-93980000D03*
D17*
%TO.P,J1,12,Pin_12*%
%TO.N,/GPIO1.1*%
X144780000Y-96520000D03*
D14*
X143510000Y-96520000D03*
%TD*%
D10*
%TO.P,C3,1*%
%TO.N,VCC*%
X150775000Y-77150000D03*
%TO.P,C3,2*%
%TO.N,GND*%
X150775000Y-75600000D03*
%TD*%
D11*
%TO.P,D21,1,A1*%
%TO.N,/GPIO1.5*%
X155870000Y-88900000D03*
%TO.P,D21,2,A2*%
%TO.N,GND*%
X155030000Y-88900000D03*
%TD*%
D12*
%TO.P,D11,1,A1*%
%TO.N,/GPIO1.0*%
X146405000Y-93975000D03*
%TO.P,D11,2,A2*%
%TO.N,GND*%
X147245000Y-93975000D03*
%TD*%
%TO.P,D4,1,A1*%
%TO.N,/GPIO0.1*%
X146405000Y-76200000D03*
%TO.P,D4,2,A2*%
%TO.N,GND*%
X147245000Y-76200000D03*
%TD*%
%TO.P,D6,1,A1*%
%TO.N,/GPIO0.3*%
X146405000Y-81275000D03*
%TO.P,D6,2,A2*%
%TO.N,GND*%
X147245000Y-81275000D03*
%TD*%
D13*
%TO.P,R1,1*%
%TO.N,VCC*%
X151110000Y-70485000D03*
%TO.P,R1,2*%
%TO.N,/~{RESET}*%
X151110000Y-72135000D03*
%TD*%
D12*
%TO.P,D1,1,A1*%
%TO.N,VCC*%
X146405000Y-68575000D03*
%TO.P,D1,2,A2*%
%TO.N,GND*%
X147245000Y-68575000D03*
%TD*%
D11*
%TO.P,D20,1,A1*%
%TO.N,/GPIO1.4*%
X155870000Y-86350000D03*
%TO.P,D20,2,A2*%
%TO.N,GND*%
X155030000Y-86350000D03*
%TD*%
%TO.P,D13,1,A1*%
%TO.N,/~{RESET}*%
X155870000Y-68575000D03*
%TO.P,D13,2,A2*%
%TO.N,GND*%
X155030000Y-68575000D03*
%TD*%
D12*
%TO.P,D3,1,A1*%
%TO.N,/GPIO0.0*%
X146405000Y-73675000D03*
%TO.P,D3,2,A2*%
%TO.N,GND*%
X147245000Y-73675000D03*
%TD*%
%TO.P,D10,1,A1*%
%TO.N,/GPIO0.7*%
X146405000Y-91450000D03*
%TO.P,D10,2,A2*%
%TO.N,GND*%
X147245000Y-91450000D03*
%TD*%
%TO.P,D8,1,A1*%
%TO.N,/GPIO0.5*%
X146402500Y-86375000D03*
%TO.P,D8,2,A2*%
%TO.N,GND*%
X147242500Y-86375000D03*
%TD*%
D18*
%TO.N,GND*%
X151630000Y-95290000D03*
X147420000Y-69250000D03*
X154880000Y-76880000D03*
X146930000Y-73070000D03*
X147950000Y-96520000D03*
X156570000Y-95240000D03*
X147910000Y-93970000D03*
X147670000Y-76710000D03*
X150910000Y-88310000D03*
X146960000Y-75470000D03*
X153200000Y-72550000D03*
X156520000Y-84860000D03*
X147800000Y-74250000D03*
D19*
X149310000Y-73910000D03*
D18*
X154250000Y-68380000D03*
X154200000Y-85310000D03*
X147230000Y-78190000D03*
X147810000Y-91180000D03*
X147370000Y-71660000D03*
X147700000Y-86730000D03*
X148310000Y-70110000D03*
X145810000Y-77380000D03*
X145630000Y-85090000D03*
X155480000Y-68000000D03*
X147780000Y-81510000D03*
X153710000Y-93190000D03*
X154420000Y-90430000D03*
X155300000Y-78090000D03*
X154800000Y-80680000D03*
X154910000Y-79450000D03*
X154740000Y-74140000D03*
X147390000Y-84560000D03*
X151440000Y-79860000D03*
X153620000Y-76610000D03*
X156540000Y-80100000D03*
X154930000Y-70470000D03*
X155060000Y-71800000D03*
X155540000Y-96430000D03*
X146960000Y-80720000D03*
D19*
X150910000Y-73910000D03*
D18*
X155300000Y-72970000D03*
X147540000Y-83110000D03*
X151350000Y-81720000D03*
X148360000Y-68260000D03*
X155840000Y-89690000D03*
X154880000Y-75500000D03*
X147770000Y-88600000D03*
D19*
%TO.N,VCC*%
X146440000Y-69360000D03*
X149980000Y-77130000D03*
X150310000Y-70485000D03*
%TO.N,/SCLK*%
X152170000Y-79500000D03*
X155860000Y-75610000D03*
%TO.N,/SDO*%
X150580000Y-79010000D03*
X155920000Y-70470000D03*
%TO.N,/SDI*%
X152250000Y-78740000D03*
X155870000Y-74320000D03*
%TO.N,/GPIO1.5*%
X155880000Y-88250000D03*
X152240000Y-82890000D03*
%TO.N,/GPIO1.6*%
X155870000Y-90780000D03*
X152150000Y-83650000D03*
%TO.N,/GPIO1.4*%
X152270000Y-82100000D03*
X155870000Y-85730000D03*
%TD*%
D20*
%TO.N,VCC*%
X150839381Y-79636200D02*
X151206200Y-79269381D01*
X150179600Y-78338548D02*
X150179600Y-77879600D01*
D21*
X144780000Y-68580000D02*
X146400000Y-68580000D01*
D20*
X149980000Y-77680000D02*
X149980000Y-77130000D01*
D21*
X146400000Y-68580000D02*
X146405000Y-68575000D01*
X150000000Y-77150000D02*
X149980000Y-77130000D01*
X146405000Y-69325000D02*
X146440000Y-69360000D01*
X150775000Y-77150000D02*
X150000000Y-77150000D01*
X146405000Y-68575000D02*
X146405000Y-69325000D01*
D20*
X150794129Y-78338548D02*
X150179600Y-78338548D01*
X150310000Y-70485000D02*
X150975419Y-70485000D01*
X151206200Y-78750619D02*
X150794129Y-78338548D01*
X151206200Y-79269381D02*
X151206200Y-78750619D01*
X149510000Y-70485000D02*
X150310000Y-70485000D01*
X150184419Y-79500000D02*
X150320619Y-79636200D01*
X149200000Y-79500000D02*
X150184419Y-79500000D01*
X150320619Y-79636200D02*
X150839381Y-79636200D01*
X150179600Y-77879600D02*
X149980000Y-77680000D01*
%TO.N,/~{CS}*%
X155870000Y-79540000D02*
X155870000Y-78750000D01*
D21*
X157470000Y-78750000D02*
X157480000Y-78740000D01*
D20*
X155430000Y-80000000D02*
X155880000Y-79550000D01*
X155880000Y-79550000D02*
X155870000Y-79540000D01*
D21*
X155870000Y-78750000D02*
X157470000Y-78750000D01*
D20*
X153500000Y-80000000D02*
X155430000Y-80000000D01*
%TO.N,/~{INT}*%
X148495400Y-77795400D02*
X148495400Y-72564600D01*
X148925000Y-72135000D02*
X148500000Y-72560000D01*
X148240000Y-72300000D02*
X147110000Y-72300000D01*
X146520000Y-71710000D02*
X146520000Y-71580000D01*
D21*
X146400000Y-71120000D02*
X146405000Y-71125000D01*
D20*
X147110000Y-72300000D02*
X146520000Y-71710000D01*
X148495400Y-72564600D02*
X148500000Y-72560000D01*
X146405000Y-71465000D02*
X146405000Y-71125000D01*
X148500000Y-72560000D02*
X148240000Y-72300000D01*
X149200000Y-78500000D02*
X148495400Y-77795400D01*
X149510000Y-72135000D02*
X148925000Y-72135000D01*
X146520000Y-71580000D02*
X146405000Y-71465000D01*
D21*
X144780000Y-71120000D02*
X146400000Y-71120000D01*
D20*
%TO.N,/SCLK*%
X153500000Y-79500000D02*
X152170000Y-79500000D01*
D21*
X155845000Y-76200000D02*
X157480000Y-76200000D01*
D20*
X155860000Y-75610000D02*
X155860000Y-76185000D01*
X155860000Y-76185000D02*
X155845000Y-76200000D01*
D21*
%TO.N,/SDO*%
X155870000Y-71125000D02*
X157475000Y-71125000D01*
D20*
X149200000Y-79000000D02*
X150570000Y-79000000D01*
X155920000Y-71075000D02*
X155870000Y-71125000D01*
X155920000Y-70470000D02*
X155920000Y-71075000D01*
D21*
X157475000Y-71125000D02*
X157480000Y-71120000D01*
D20*
X150570000Y-79000000D02*
X150580000Y-79010000D01*
D21*
%TO.N,/SDI*%
X157470000Y-73650000D02*
X157480000Y-73660000D01*
D20*
X152510000Y-79000000D02*
X152250000Y-78740000D01*
D21*
X155870000Y-73650000D02*
X157470000Y-73650000D01*
D20*
X155870000Y-74320000D02*
X155870000Y-73650000D01*
X153500000Y-79000000D02*
X152510000Y-79000000D01*
%TO.N,/~{RESET}*%
X152180000Y-77180000D02*
X152180000Y-71510000D01*
X152180000Y-70060000D02*
X152900000Y-69340000D01*
X152900000Y-69340000D02*
X155105000Y-69340000D01*
X152180000Y-71510000D02*
X152180000Y-70060000D01*
X150975419Y-72135000D02*
X151885000Y-72135000D01*
X153500000Y-78500000D02*
X152180000Y-77180000D01*
D21*
X155870000Y-68575000D02*
X157475000Y-68575000D01*
D20*
X151885000Y-72135000D02*
X152180000Y-71840000D01*
X152180000Y-71840000D02*
X152180000Y-71510000D01*
X155105000Y-69340000D02*
X155870000Y-68575000D01*
D21*
X157475000Y-68575000D02*
X157480000Y-68580000D01*
D20*
%TO.N,/GPIO0.0*%
X146860000Y-74830000D02*
X147830000Y-74830000D01*
X148180000Y-80162848D02*
X148517152Y-80500000D01*
X146405000Y-73675000D02*
X146405000Y-74375000D01*
X147830000Y-74830000D02*
X148180000Y-75180000D01*
X146405000Y-74375000D02*
X146860000Y-74830000D01*
D21*
X144780000Y-73660000D02*
X146390000Y-73660000D01*
D20*
X148180000Y-75180000D02*
X148180000Y-80162848D01*
X148517152Y-80500000D02*
X149200000Y-80500000D01*
D21*
X146390000Y-73660000D02*
X146405000Y-73675000D01*
D20*
%TO.N,/GPIO1.5*%
X152350000Y-83000000D02*
X152240000Y-82890000D01*
X153500000Y-83000000D02*
X152350000Y-83000000D01*
D21*
X155870000Y-88900000D02*
X157480000Y-88900000D01*
D20*
X155880000Y-88250000D02*
X155880000Y-88890000D01*
X155880000Y-88890000D02*
X155870000Y-88900000D01*
%TO.N,/GPIO0.4*%
X146530000Y-82500000D02*
X146330000Y-82700000D01*
X149200000Y-82500000D02*
X146530000Y-82500000D01*
X146330000Y-82700000D02*
X146330000Y-83750000D01*
D21*
X144785000Y-83825000D02*
X144780000Y-83820000D01*
D20*
X146330000Y-83750000D02*
X146405000Y-83825000D01*
D21*
X146405000Y-83825000D02*
X144785000Y-83825000D01*
D20*
%TO.N,/GPIO1.1*%
X146405000Y-95775000D02*
X146850000Y-95330000D01*
X146405000Y-96525000D02*
X146405000Y-95775000D01*
X149200000Y-85830000D02*
X150486400Y-84543600D01*
X150486400Y-81180000D02*
X150666400Y-81000000D01*
D21*
X144785000Y-96525000D02*
X144780000Y-96520000D01*
D20*
X150486400Y-84543600D02*
X150486400Y-81180000D01*
X148560000Y-95330000D02*
X149200000Y-94690000D01*
X150666400Y-81000000D02*
X153500000Y-81000000D01*
D21*
X146405000Y-96525000D02*
X144785000Y-96525000D01*
D20*
X146850000Y-95330000D02*
X148560000Y-95330000D01*
X149200000Y-94690000D02*
X149200000Y-85830000D01*
%TO.N,/GPIO0.6*%
X147330000Y-87790000D02*
X146630000Y-87790000D01*
D21*
X146405000Y-88900000D02*
X144780000Y-88900000D01*
D20*
X148220000Y-86900000D02*
X147330000Y-87790000D01*
X149200000Y-83500000D02*
X148450001Y-83500000D01*
X146405000Y-88015000D02*
X146405000Y-88900000D01*
X148220000Y-83730001D02*
X148220000Y-86900000D01*
X148450001Y-83500000D02*
X148220000Y-83730001D01*
X146630000Y-87790000D02*
X146405000Y-88015000D01*
%TO.N,/GPIO0.3*%
X149200000Y-82000000D02*
X146610000Y-82000000D01*
D21*
X146405000Y-81275000D02*
X144785000Y-81275000D01*
D20*
X146610000Y-82000000D02*
X146405000Y-81795000D01*
D21*
X144785000Y-81275000D02*
X144780000Y-81280000D01*
D20*
X146405000Y-81795000D02*
X146405000Y-81275000D01*
%TO.N,/GPIO1.6*%
X153500000Y-83500000D02*
X152300000Y-83500000D01*
D21*
X155870000Y-91450000D02*
X157470000Y-91450000D01*
D20*
X152300000Y-83500000D02*
X152150000Y-83650000D01*
X155870000Y-90780000D02*
X155870000Y-91450000D01*
D21*
X157470000Y-91450000D02*
X157480000Y-91440000D01*
D20*
%TO.N,/GPIO1.4*%
X153500000Y-82500000D02*
X152670000Y-82500000D01*
X155870000Y-85730000D02*
X155870000Y-86350000D01*
D21*
X157470000Y-86350000D02*
X157480000Y-86360000D01*
D20*
X152670000Y-82500000D02*
X152270000Y-82100000D01*
D21*
X155870000Y-86350000D02*
X157470000Y-86350000D01*
D20*
%TO.N,/GPIO1.7*%
X155870000Y-93140000D02*
X155870000Y-93975000D01*
X153500000Y-91390000D02*
X154760000Y-92650000D01*
D21*
X157475000Y-93975000D02*
X157480000Y-93980000D01*
D20*
X153500000Y-84000000D02*
X153500000Y-91390000D01*
X155380000Y-92650000D02*
X155870000Y-93140000D01*
D21*
X155870000Y-93975000D02*
X157475000Y-93975000D01*
D20*
X154760000Y-92650000D02*
X155380000Y-92650000D01*
D21*
%TO.N,/GPIO0.5*%
X144795000Y-86375000D02*
X144780000Y-86360000D01*
D20*
X149200000Y-83000000D02*
X148450001Y-83000000D01*
X148450001Y-83000000D02*
X147910000Y-83540001D01*
X147910000Y-84867500D02*
X146402500Y-86375000D01*
D21*
X146402500Y-86375000D02*
X144795000Y-86375000D01*
D20*
X147910000Y-83540001D02*
X147910000Y-84867500D01*
%TO.N,/GPIO1.0*%
X153500000Y-80500000D02*
X150382848Y-80500000D01*
X146340000Y-93910000D02*
X146405000Y-93975000D01*
X150382848Y-80500000D02*
X150179600Y-80703248D01*
X146700000Y-92590000D02*
X146340000Y-92950000D01*
X146710000Y-92600000D02*
X146700000Y-92590000D01*
X148880000Y-85710000D02*
X148880000Y-91240000D01*
X150179600Y-84410400D02*
X148880000Y-85710000D01*
X148880000Y-91240000D02*
X147520000Y-92600000D01*
X147520000Y-92600000D02*
X146710000Y-92600000D01*
D21*
X146405000Y-93975000D02*
X144785000Y-93975000D01*
D20*
X150179600Y-80703248D02*
X150179600Y-84410400D01*
X146340000Y-92950000D02*
X146340000Y-93910000D01*
D21*
X144785000Y-93975000D02*
X144780000Y-93980000D01*
D20*
%TO.N,/GPIO0.1*%
X146405000Y-76200000D02*
X147874800Y-77669800D01*
X147874800Y-77669800D02*
X147874800Y-80424799D01*
X148450001Y-81000000D02*
X149200000Y-81000000D01*
X147874800Y-80424799D02*
X148450001Y-81000000D01*
D21*
X144780000Y-76200000D02*
X146405000Y-76200000D01*
D20*
%TO.N,/GPIO0.7*%
X147660000Y-90120000D02*
X146730000Y-90120000D01*
X148540000Y-89240000D02*
X147660000Y-90120000D01*
X149200000Y-84000000D02*
X148540000Y-84660000D01*
X146405000Y-90925000D02*
X146405000Y-91450000D01*
X146420000Y-90910000D02*
X146405000Y-90925000D01*
X146420000Y-90430000D02*
X146420000Y-90910000D01*
X146730000Y-90120000D02*
X146420000Y-90430000D01*
D21*
X144790000Y-91450000D02*
X144780000Y-91440000D01*
D20*
X148540000Y-84660000D02*
X148540000Y-89240000D01*
D21*
X146405000Y-91450000D02*
X144790000Y-91450000D01*
D20*
%TO.N,/GPIO1.2*%
X154260000Y-81500000D02*
X154840000Y-82080000D01*
D21*
X155870000Y-81275000D02*
X157475000Y-81275000D01*
X157475000Y-81275000D02*
X157480000Y-81280000D01*
D20*
X155870000Y-81930000D02*
X155870000Y-81275000D01*
X155740000Y-82080000D02*
X155880000Y-81940000D01*
X154840000Y-82080000D02*
X155740000Y-82080000D01*
X155880000Y-81940000D02*
X155870000Y-81930000D01*
X153500000Y-81500000D02*
X154260000Y-81500000D01*
%TO.N,/GPIO0.2*%
X148450001Y-81500000D02*
X147570000Y-80619999D01*
D21*
X146405000Y-78750000D02*
X144790000Y-78750000D01*
D20*
X147570000Y-79915000D02*
X146405000Y-78750000D01*
X147570000Y-80619999D02*
X147570000Y-79915000D01*
X149200000Y-81500000D02*
X148450001Y-81500000D01*
D21*
X144790000Y-78750000D02*
X144780000Y-78740000D01*
D20*
%TO.N,/GPIO1.3*%
X154799999Y-82550000D02*
X155480000Y-82550000D01*
X153500000Y-82000000D02*
X154249999Y-82000000D01*
D21*
X157475000Y-83825000D02*
X157480000Y-83820000D01*
X155872500Y-83825000D02*
X157475000Y-83825000D01*
D20*
X154249999Y-82000000D02*
X154799999Y-82550000D01*
X155890000Y-82960000D02*
X155872500Y-82977500D01*
X155480000Y-82550000D02*
X155890000Y-82960000D01*
X155872500Y-82977500D02*
X155872500Y-83825000D01*
%TD*%
%TA.AperFunction,Conductor*%
%TO.N,VCC*%
G36*
X151053039Y-70254685D02*
G01*
X151098794Y-70307489D01*
X151110000Y-70359000D01*
X151110000Y-70611000D01*
X151090315Y-70678039D01*
X151037511Y-70723794D01*
X150986000Y-70735000D01*
X149634000Y-70735000D01*
X149566961Y-70715315D01*
X149521206Y-70662511D01*
X149510000Y-70611000D01*
X149510000Y-70359000D01*
X149529685Y-70291961D01*
X149582489Y-70246206D01*
X149634000Y-70235000D01*
X150986000Y-70235000D01*
X151053039Y-70254685D01*
G37*
%TD.AperFunction*%
%TD*%
%TA.AperFunction,Conductor*%
%TO.N,VCC*%
G36*
X151478531Y-76489213D02*
G01*
X151515076Y-76539513D01*
X151520000Y-76570600D01*
X151520000Y-77719400D01*
X151500787Y-77778531D01*
X151450487Y-77815076D01*
X151419400Y-77820000D01*
X148957508Y-77820000D01*
X148949787Y-77817491D01*
X148941771Y-77818761D01*
X148920782Y-77808066D01*
X148898377Y-77800787D01*
X148886373Y-77790535D01*
X148804765Y-77708927D01*
X148776539Y-77653529D01*
X148775300Y-77637792D01*
X148775300Y-76570600D01*
X148794513Y-76511469D01*
X148844813Y-76474924D01*
X148875900Y-76470000D01*
X151419400Y-76470000D01*
X151478531Y-76489213D01*
G37*
%TD.AperFunction*%
%TD*%
%TA.AperFunction,Conductor*%
%TO.N,GND*%
G36*
X152504831Y-81299113D02*
G01*
X152541376Y-81349413D01*
X152546300Y-81380500D01*
X152546300Y-81521462D01*
X152527087Y-81580593D01*
X152476787Y-81617138D01*
X152419663Y-81618633D01*
X152382306Y-81608624D01*
X152336315Y-81596300D01*
X152336313Y-81596300D01*
X152203687Y-81596300D01*
X152203684Y-81596300D01*
X152075575Y-81630628D01*
X151960723Y-81696938D01*
X151960722Y-81696939D01*
X151960721Y-81696940D01*
X151866940Y-81790721D01*
X151866939Y-81790722D01*
X151866938Y-81790723D01*
X151800628Y-81905575D01*
X151766300Y-82033684D01*
X151766300Y-82166315D01*
X151770891Y-82183448D01*
X151795697Y-82276024D01*
X151800628Y-82294424D01*
X151866938Y-82409276D01*
X151870954Y-82414509D01*
X151869838Y-82415365D01*
X151894752Y-82464262D01*
X151885026Y-82525670D01*
X151866528Y-82551132D01*
X151836940Y-82580720D01*
X151836938Y-82580723D01*
X151770628Y-82695575D01*
X151736300Y-82823684D01*
X151736300Y-82956315D01*
X151770628Y-83084424D01*
X151817172Y-83165040D01*
X151830099Y-83225856D01*
X151804810Y-83282655D01*
X151801186Y-83286474D01*
X151746940Y-83340721D01*
X151746938Y-83340723D01*
X151680628Y-83455575D01*
X151646300Y-83583684D01*
X151646300Y-83716315D01*
X151680628Y-83844424D01*
X151744151Y-83954448D01*
X151746940Y-83959279D01*
X151840721Y-84053060D01*
X151873036Y-84071717D01*
X151955575Y-84119371D01*
X151955576Y-84119371D01*
X151955579Y-84119373D01*
X152083687Y-84153700D01*
X152216313Y-84153700D01*
X152344421Y-84119373D01*
X152403312Y-84085372D01*
X152464125Y-84072446D01*
X152520924Y-84097734D01*
X152543341Y-84134140D01*
X152545946Y-84132991D01*
X152591089Y-84235231D01*
X152591090Y-84235232D01*
X152664768Y-84308910D01*
X152760086Y-84350997D01*
X152783385Y-84353700D01*
X153119500Y-84353699D01*
X153178631Y-84372912D01*
X153215176Y-84423212D01*
X153220100Y-84454299D01*
X153220100Y-91353150D01*
X153220100Y-91426850D01*
X153239175Y-91498037D01*
X153276024Y-91561862D01*
X154536024Y-92821862D01*
X154588138Y-92873976D01*
X154651963Y-92910825D01*
X154723150Y-92929900D01*
X155222392Y-92929900D01*
X155281523Y-92949113D01*
X155293527Y-92959365D01*
X155560635Y-93226473D01*
X155588861Y-93281871D01*
X155590100Y-93297608D01*
X155590100Y-93649392D01*
X155572255Y-93706593D01*
X155564307Y-93718090D01*
X155560581Y-93720581D01*
X155502368Y-93807700D01*
X155501906Y-93808370D01*
X155477787Y-93826775D01*
X155453970Y-93845551D01*
X155453139Y-93845583D01*
X155452479Y-93846088D01*
X155422140Y-93846801D01*
X155391843Y-93847992D01*
X155391152Y-93847530D01*
X155390322Y-93847550D01*
X155365354Y-93830292D01*
X155340148Y-93813449D01*
X155339301Y-93812284D01*
X155339177Y-93812198D01*
X155339118Y-93812032D01*
X155335506Y-93807060D01*
X155302435Y-93757567D01*
X155302433Y-93757565D01*
X155231349Y-93710068D01*
X155168664Y-93697600D01*
X155155000Y-93697600D01*
X155155000Y-94252399D01*
X155168664Y-94252399D01*
X155231349Y-94239930D01*
X155302433Y-94192433D01*
X155335503Y-94142940D01*
X155384329Y-94104448D01*
X155446455Y-94102005D01*
X155498152Y-94136547D01*
X155502788Y-94142927D01*
X155560581Y-94229419D01*
X155648634Y-94288255D01*
X155726282Y-94303700D01*
X155826726Y-94303700D01*
X156470285Y-94303700D01*
X156529416Y-94322913D01*
X156565585Y-94372079D01*
X156572594Y-94392812D01*
X156572595Y-94392814D01*
X156590843Y-94432510D01*
X156674876Y-94574062D01*
X156681811Y-94585744D01*
X156707917Y-94620765D01*
X156805842Y-94726850D01*
X156828793Y-94751714D01*
X156828799Y-94751720D01*
X156861608Y-94780526D01*
X156861616Y-94780532D01*
X157007100Y-94883451D01*
X157007103Y-94883453D01*
X157007105Y-94883454D01*
X157045199Y-94904805D01*
X157045201Y-94904806D01*
X157045205Y-94904808D01*
X157208925Y-94975189D01*
X157208931Y-94975190D01*
X157208936Y-94975193D01*
X157248573Y-94987504D01*
X157250639Y-94988146D01*
X157425339Y-95022891D01*
X157466049Y-95026900D01*
X158148900Y-95026900D01*
X158208031Y-95046113D01*
X158244576Y-95096413D01*
X158249500Y-95127500D01*
X158249500Y-97188900D01*
X158230287Y-97248031D01*
X158179987Y-97284576D01*
X158148900Y-97289500D01*
X145656585Y-97289500D01*
X145597454Y-97270287D01*
X145560909Y-97219987D01*
X145560909Y-97157813D01*
X145575929Y-97128776D01*
X145576492Y-97128019D01*
X145578189Y-97125744D01*
X145669159Y-96972505D01*
X145687404Y-96932816D01*
X145691036Y-96922075D01*
X145728178Y-96872214D01*
X145786335Y-96853700D01*
X146548717Y-96853700D01*
X146548718Y-96853700D01*
X146626366Y-96838255D01*
X146714419Y-96779419D01*
X146772204Y-96692937D01*
X146821028Y-96654448D01*
X146883155Y-96652007D01*
X146934851Y-96686549D01*
X146939493Y-96692939D01*
X146972564Y-96742432D01*
X146972566Y-96742434D01*
X147043650Y-96789931D01*
X147106333Y-96802399D01*
X147106338Y-96802399D01*
X147370000Y-96802399D01*
X147383664Y-96802399D01*
X147446349Y-96789930D01*
X147517434Y-96742433D01*
X147564931Y-96671348D01*
X147569178Y-96650000D01*
X147370000Y-96650000D01*
X147370000Y-96802399D01*
X147106338Y-96802399D01*
X147120000Y-96802398D01*
X147120000Y-96400000D01*
X147370000Y-96400000D01*
X147569176Y-96400000D01*
X147564931Y-96378651D01*
X147564930Y-96378648D01*
X147517434Y-96307566D01*
X147517433Y-96307565D01*
X147446349Y-96260068D01*
X147383664Y-96247600D01*
X147370000Y-96247600D01*
X147370000Y-96400000D01*
X147120000Y-96400000D01*
X147120000Y-96247599D01*
X147119999Y-96247599D01*
X147106336Y-96247600D01*
X147106335Y-96247600D01*
X147043650Y-96260069D01*
X146972565Y-96307567D01*
X146939495Y-96357060D01*
X146936912Y-96359095D01*
X146935823Y-96362199D01*
X146912719Y-96378168D01*
X146890668Y-96395552D01*
X146887382Y-96395681D01*
X146884677Y-96397551D01*
X146856599Y-96396890D01*
X146828542Y-96397993D01*
X146825808Y-96396166D01*
X146822520Y-96396089D01*
X146802795Y-96380789D01*
X146776846Y-96363451D01*
X146773094Y-96358371D01*
X146772651Y-96357730D01*
X146714419Y-96270581D01*
X146710692Y-96268090D01*
X146702745Y-96256593D01*
X146696318Y-96235108D01*
X146686139Y-96215129D01*
X146684900Y-96199392D01*
X146684900Y-95932608D01*
X146704113Y-95873477D01*
X146714365Y-95861473D01*
X146936473Y-95639365D01*
X146991871Y-95611139D01*
X147007608Y-95609900D01*
X148596850Y-95609900D01*
X148668037Y-95590825D01*
X148731862Y-95553976D01*
X149423976Y-94861862D01*
X149460825Y-94798037D01*
X149479900Y-94726850D01*
X149479900Y-94653150D01*
X149479900Y-94100000D01*
X154705823Y-94100000D01*
X154710068Y-94121348D01*
X154710069Y-94121351D01*
X154757565Y-94192433D01*
X154757566Y-94192434D01*
X154828650Y-94239931D01*
X154891333Y-94252399D01*
X154891338Y-94252399D01*
X154905000Y-94252398D01*
X154905000Y-94100000D01*
X154705823Y-94100000D01*
X149479900Y-94100000D01*
X149479900Y-93850000D01*
X154705822Y-93850000D01*
X154905000Y-93850000D01*
X154905000Y-93697599D01*
X154904999Y-93697599D01*
X154891336Y-93697600D01*
X154891335Y-93697600D01*
X154828650Y-93710069D01*
X154757565Y-93757566D01*
X154710068Y-93828651D01*
X154705822Y-93850000D01*
X149479900Y-93850000D01*
X149479900Y-85987608D01*
X149499113Y-85928477D01*
X149509365Y-85916473D01*
X150078755Y-85347083D01*
X150710376Y-84715463D01*
X150747225Y-84651638D01*
X150766300Y-84580450D01*
X150766300Y-84506750D01*
X150766300Y-81380500D01*
X150785513Y-81321369D01*
X150835813Y-81284824D01*
X150866900Y-81279900D01*
X152445700Y-81279900D01*
X152504831Y-81299113D01*
G37*
%TD.AperFunction*%
%TA.AperFunction,Conductor*%
G36*
X148865171Y-91748972D02*
G01*
X148909135Y-91792936D01*
X148920100Y-91838607D01*
X148920100Y-94532392D01*
X148900887Y-94591523D01*
X148890635Y-94603527D01*
X148473527Y-95020635D01*
X148418129Y-95048861D01*
X148402392Y-95050100D01*
X146886850Y-95050100D01*
X146813150Y-95050100D01*
X146741963Y-95069175D01*
X146741961Y-95069175D01*
X146741961Y-95069176D01*
X146678140Y-95106022D01*
X146181022Y-95603140D01*
X146144176Y-95666961D01*
X146125100Y-95738149D01*
X146125100Y-96095700D01*
X146105887Y-96154831D01*
X146055587Y-96191376D01*
X146024500Y-96196300D01*
X145796747Y-96196300D01*
X145737616Y-96177087D01*
X145701071Y-96126787D01*
X145700960Y-96126443D01*
X145694643Y-96106761D01*
X145694636Y-96106743D01*
X145676205Y-96065391D01*
X145676202Y-96065384D01*
X145585761Y-95910311D01*
X145558835Y-95873897D01*
X145437071Y-95741985D01*
X145402922Y-95712234D01*
X145402913Y-95712227D01*
X145402907Y-95712223D01*
X145255567Y-95609695D01*
X145255562Y-95609692D01*
X145215822Y-95588023D01*
X145215805Y-95588015D01*
X145049811Y-95519682D01*
X145049807Y-95519680D01*
X145049805Y-95519680D01*
X145028053Y-95513382D01*
X145006302Y-95507085D01*
X145006290Y-95507083D01*
X144829760Y-95476220D01*
X144829748Y-95476218D01*
X144829744Y-95476218D01*
X144827458Y-95476019D01*
X144793810Y-95473100D01*
X144793803Y-95473100D01*
X144111100Y-95473100D01*
X144051969Y-95453887D01*
X144015424Y-95403587D01*
X144010500Y-95372500D01*
X144010500Y-95127500D01*
X144029713Y-95068369D01*
X144080013Y-95031824D01*
X144111100Y-95026900D01*
X144793951Y-95026900D01*
X144834661Y-95022891D01*
X145009361Y-94988146D01*
X145032535Y-94980947D01*
X145051063Y-94975193D01*
X145051065Y-94975192D01*
X145051075Y-94975189D01*
X145214795Y-94904808D01*
X145252900Y-94883451D01*
X145398384Y-94780532D01*
X145431209Y-94751712D01*
X145552083Y-94620765D01*
X145578189Y-94585744D01*
X145669159Y-94432505D01*
X145687404Y-94392816D01*
X145694415Y-94372078D01*
X145731554Y-94322217D01*
X145789715Y-94303700D01*
X146548717Y-94303700D01*
X146548718Y-94303700D01*
X146626366Y-94288255D01*
X146714419Y-94229419D01*
X146772204Y-94142937D01*
X146821028Y-94104448D01*
X146883155Y-94102007D01*
X146934851Y-94136549D01*
X146939493Y-94142939D01*
X146972564Y-94192432D01*
X146972566Y-94192434D01*
X147043650Y-94239931D01*
X147106333Y-94252399D01*
X147106338Y-94252399D01*
X147370000Y-94252399D01*
X147383664Y-94252399D01*
X147446349Y-94239930D01*
X147517434Y-94192433D01*
X147564931Y-94121348D01*
X147569178Y-94100000D01*
X147370000Y-94100000D01*
X147370000Y-94252399D01*
X147106338Y-94252399D01*
X147120000Y-94252398D01*
X147120000Y-93850000D01*
X147370000Y-93850000D01*
X147569176Y-93850000D01*
X147564931Y-93828651D01*
X147564930Y-93828648D01*
X147517434Y-93757566D01*
X147517433Y-93757565D01*
X147446349Y-93710068D01*
X147383664Y-93697600D01*
X147370000Y-93697600D01*
X147370000Y-93850000D01*
X147120000Y-93850000D01*
X147120000Y-93697599D01*
X147119999Y-93697599D01*
X147106336Y-93697600D01*
X147106335Y-93697600D01*
X147043650Y-93710069D01*
X146972565Y-93757567D01*
X146939495Y-93807060D01*
X146890668Y-93845552D01*
X146828542Y-93847993D01*
X146781722Y-93819182D01*
X146773590Y-93810319D01*
X146773255Y-93808634D01*
X146714419Y-93720581D01*
X146654552Y-93680578D01*
X146646373Y-93671664D01*
X146638240Y-93653849D01*
X146626117Y-93638470D01*
X146622838Y-93620108D01*
X146620554Y-93615104D01*
X146621293Y-93611456D01*
X146619900Y-93603652D01*
X146619900Y-93107608D01*
X146639113Y-93048477D01*
X146649365Y-93036473D01*
X146776473Y-92909365D01*
X146831871Y-92881139D01*
X146847608Y-92879900D01*
X147556850Y-92879900D01*
X147628037Y-92860825D01*
X147691862Y-92823976D01*
X148748367Y-91767470D01*
X148803763Y-91739246D01*
X148865171Y-91748972D01*
G37*
%TD.AperFunction*%
%TA.AperFunction,Conductor*%
G36*
X148545171Y-89728972D02*
G01*
X148589135Y-89772936D01*
X148600100Y-89818607D01*
X148600100Y-91082391D01*
X148580887Y-91141522D01*
X148570635Y-91153526D01*
X147433527Y-92290635D01*
X147378129Y-92318861D01*
X147362392Y-92320100D01*
X146787415Y-92320100D01*
X146761377Y-92316672D01*
X146736852Y-92310100D01*
X146736850Y-92310100D01*
X146663150Y-92310100D01*
X146591963Y-92329175D01*
X146591961Y-92329175D01*
X146591961Y-92329176D01*
X146528140Y-92366022D01*
X146116022Y-92778140D01*
X146089559Y-92823977D01*
X146079175Y-92841963D01*
X146074121Y-92860825D01*
X146060100Y-92913149D01*
X146060100Y-93545700D01*
X146055176Y-93560854D01*
X146055176Y-93576787D01*
X146045810Y-93589677D01*
X146040887Y-93604831D01*
X146027996Y-93614196D01*
X146018631Y-93627087D01*
X146003477Y-93632010D01*
X145990587Y-93641376D01*
X145959500Y-93646300D01*
X145793537Y-93646300D01*
X145734406Y-93627087D01*
X145697861Y-93576787D01*
X145697749Y-93576440D01*
X145694642Y-93566758D01*
X145694636Y-93566743D01*
X145676205Y-93525391D01*
X145676202Y-93525384D01*
X145585761Y-93370311D01*
X145558835Y-93333897D01*
X145437071Y-93201985D01*
X145402922Y-93172234D01*
X145402913Y-93172227D01*
X145402907Y-93172223D01*
X145255567Y-93069695D01*
X145255562Y-93069692D01*
X145215822Y-93048023D01*
X145215805Y-93048015D01*
X145049811Y-92979682D01*
X145049807Y-92979680D01*
X145049805Y-92979680D01*
X145028053Y-92973382D01*
X145006302Y-92967085D01*
X145006290Y-92967083D01*
X144829760Y-92936220D01*
X144829748Y-92936218D01*
X144829744Y-92936218D01*
X144827458Y-92936019D01*
X144793810Y-92933100D01*
X144793803Y-92933100D01*
X144111100Y-92933100D01*
X144051969Y-92913887D01*
X144015424Y-92863587D01*
X144010500Y-92832500D01*
X144010500Y-92587500D01*
X144029713Y-92528369D01*
X144080013Y-92491824D01*
X144111100Y-92486900D01*
X144793951Y-92486900D01*
X144834661Y-92482891D01*
X145009361Y-92448146D01*
X145032535Y-92440947D01*
X145051063Y-92435193D01*
X145051065Y-92435192D01*
X145051075Y-92435189D01*
X145214795Y-92364808D01*
X145252900Y-92343451D01*
X145398384Y-92240532D01*
X145431209Y-92211712D01*
X145552083Y-92080765D01*
X145578189Y-92045744D01*
X145669159Y-91892505D01*
X145687404Y-91852816D01*
X145689344Y-91847077D01*
X145726484Y-91797216D01*
X145784644Y-91778700D01*
X146548717Y-91778700D01*
X146548718Y-91778700D01*
X146626366Y-91763255D01*
X146714419Y-91704419D01*
X146772204Y-91617937D01*
X146821028Y-91579448D01*
X146883155Y-91577007D01*
X146934851Y-91611549D01*
X146939493Y-91617939D01*
X146972564Y-91667432D01*
X146972566Y-91667434D01*
X147043650Y-91714931D01*
X147106333Y-91727399D01*
X147106338Y-91727399D01*
X147370000Y-91727399D01*
X147383664Y-91727399D01*
X147446349Y-91714930D01*
X147517434Y-91667433D01*
X147564931Y-91596348D01*
X147569178Y-91575000D01*
X147370000Y-91575000D01*
X147370000Y-91727399D01*
X147106338Y-91727399D01*
X147120000Y-91727398D01*
X147120000Y-91325000D01*
X147370000Y-91325000D01*
X147569176Y-91325000D01*
X147564931Y-91303651D01*
X147564930Y-91303648D01*
X147517434Y-91232566D01*
X147517433Y-91232565D01*
X147446349Y-91185068D01*
X147383664Y-91172600D01*
X147370000Y-91172600D01*
X147370000Y-91325000D01*
X147120000Y-91325000D01*
X147120000Y-91172599D01*
X147119999Y-91172599D01*
X147106336Y-91172600D01*
X147106335Y-91172600D01*
X147043650Y-91185069D01*
X146972565Y-91232567D01*
X146939495Y-91282060D01*
X146936912Y-91284095D01*
X146935823Y-91287199D01*
X146912719Y-91303168D01*
X146890668Y-91320552D01*
X146887382Y-91320681D01*
X146884677Y-91322551D01*
X146856599Y-91321890D01*
X146828542Y-91322993D01*
X146825808Y-91321166D01*
X146822520Y-91321089D01*
X146802795Y-91305789D01*
X146776846Y-91288451D01*
X146773094Y-91283371D01*
X146772651Y-91282730D01*
X146714419Y-91195581D01*
X146710692Y-91193090D01*
X146702745Y-91181593D01*
X146696318Y-91160108D01*
X146686139Y-91140129D01*
X146684900Y-91124392D01*
X146684900Y-91016074D01*
X146688328Y-90990036D01*
X146699900Y-90946850D01*
X146699900Y-90873150D01*
X146699900Y-90587608D01*
X146702408Y-90579887D01*
X146701139Y-90571871D01*
X146711833Y-90550882D01*
X146719113Y-90528477D01*
X146729365Y-90516473D01*
X146816473Y-90429365D01*
X146871871Y-90401139D01*
X146887608Y-90399900D01*
X147696850Y-90399900D01*
X147768037Y-90380825D01*
X147831862Y-90343976D01*
X148428367Y-89747470D01*
X148483763Y-89719246D01*
X148545171Y-89728972D01*
G37*
%TD.AperFunction*%
%TA.AperFunction,Conductor*%
G36*
X154612010Y-82758688D02*
G01*
X154620139Y-82765979D01*
X154628136Y-82773976D01*
X154655750Y-82789919D01*
X154691959Y-82810823D01*
X154691958Y-82810823D01*
X154691962Y-82810825D01*
X154763149Y-82829900D01*
X155322392Y-82829900D01*
X155381523Y-82849113D01*
X155393527Y-82859365D01*
X155563135Y-83028973D01*
X155591361Y-83084371D01*
X155592600Y-83100108D01*
X155592600Y-83499392D01*
X155574755Y-83556593D01*
X155566807Y-83568090D01*
X155563081Y-83570581D01*
X155504868Y-83657700D01*
X155504406Y-83658370D01*
X155480287Y-83676775D01*
X155456470Y-83695551D01*
X155455639Y-83695583D01*
X155454979Y-83696088D01*
X155424640Y-83696801D01*
X155394343Y-83697992D01*
X155393652Y-83697530D01*
X155392822Y-83697550D01*
X155367854Y-83680292D01*
X155342648Y-83663449D01*
X155341801Y-83662284D01*
X155341677Y-83662198D01*
X155341618Y-83662032D01*
X155338006Y-83657060D01*
X155304935Y-83607567D01*
X155304933Y-83607565D01*
X155233849Y-83560068D01*
X155171164Y-83547600D01*
X155157500Y-83547600D01*
X155157500Y-84102399D01*
X155171164Y-84102399D01*
X155233849Y-84089930D01*
X155304933Y-84042433D01*
X155338003Y-83992940D01*
X155386829Y-83954448D01*
X155448955Y-83952005D01*
X155500652Y-83986547D01*
X155505288Y-83992927D01*
X155563081Y-84079419D01*
X155651134Y-84138255D01*
X155728782Y-84153700D01*
X155829226Y-84153700D01*
X156473665Y-84153700D01*
X156532796Y-84172913D01*
X156568964Y-84222075D01*
X156572593Y-84232807D01*
X156572596Y-84232817D01*
X156590843Y-84272510D01*
X156680308Y-84423212D01*
X156681811Y-84425744D01*
X156707917Y-84460765D01*
X156818394Y-84580448D01*
X156828793Y-84591714D01*
X156828799Y-84591720D01*
X156861608Y-84620526D01*
X156861616Y-84620532D01*
X157007100Y-84723451D01*
X157007103Y-84723453D01*
X157007105Y-84723454D01*
X157045199Y-84744805D01*
X157045201Y-84744806D01*
X157045205Y-84744808D01*
X157208925Y-84815189D01*
X157208931Y-84815190D01*
X157208936Y-84815193D01*
X157248573Y-84827504D01*
X157250639Y-84828146D01*
X157425339Y-84862891D01*
X157466049Y-84866900D01*
X158148900Y-84866900D01*
X158208031Y-84886113D01*
X158244576Y-84936413D01*
X158249500Y-84967500D01*
X158249500Y-85212500D01*
X158230287Y-85271631D01*
X158179987Y-85308176D01*
X158148900Y-85313100D01*
X157466190Y-85313100D01*
X157430267Y-85316217D01*
X157430264Y-85316217D01*
X157430256Y-85316218D01*
X157430253Y-85316218D01*
X157430239Y-85316220D01*
X157253709Y-85347083D01*
X157253697Y-85347085D01*
X157210195Y-85359680D01*
X157210188Y-85359682D01*
X157044194Y-85428015D01*
X157044177Y-85428023D01*
X157004437Y-85449692D01*
X157004432Y-85449695D01*
X156857092Y-85552223D01*
X156857078Y-85552234D01*
X156822927Y-85581987D01*
X156822923Y-85581990D01*
X156701163Y-85713899D01*
X156674241Y-85750308D01*
X156674239Y-85750311D01*
X156647410Y-85796313D01*
X156583794Y-85905391D01*
X156565363Y-85946743D01*
X156565358Y-85946758D01*
X156563853Y-85951447D01*
X156563743Y-85951599D01*
X156563743Y-85951787D01*
X156545630Y-85976717D01*
X156527487Y-86001877D01*
X156527307Y-86001935D01*
X156527198Y-86002087D01*
X156497814Y-86011634D01*
X156468424Y-86021299D01*
X156468067Y-86021300D01*
X156444519Y-86021300D01*
X156385388Y-86002087D01*
X156348843Y-85951787D01*
X156347347Y-85894662D01*
X156373699Y-85796316D01*
X156373700Y-85796312D01*
X156373700Y-85663687D01*
X156373699Y-85663684D01*
X156339373Y-85535579D01*
X156273060Y-85420721D01*
X156179279Y-85326940D01*
X156163968Y-85318100D01*
X156064424Y-85260628D01*
X156064421Y-85260627D01*
X156030099Y-85251430D01*
X155936315Y-85226300D01*
X155936313Y-85226300D01*
X155803687Y-85226300D01*
X155803684Y-85226300D01*
X155675575Y-85260628D01*
X155560723Y-85326938D01*
X155560722Y-85326939D01*
X155560721Y-85326940D01*
X155466940Y-85420721D01*
X155466939Y-85420722D01*
X155466938Y-85420723D01*
X155400628Y-85535575D01*
X155366300Y-85663684D01*
X155366300Y-85796315D01*
X155400628Y-85924424D01*
X155442221Y-85996465D01*
X155455148Y-86057281D01*
X155429859Y-86114080D01*
X155376015Y-86145167D01*
X155314181Y-86138668D01*
X155299209Y-86130411D01*
X155231349Y-86085068D01*
X155168664Y-86072600D01*
X155155000Y-86072600D01*
X155155000Y-86627399D01*
X155168664Y-86627399D01*
X155231349Y-86614930D01*
X155302433Y-86567433D01*
X155335503Y-86517940D01*
X155384329Y-86479448D01*
X155446455Y-86477005D01*
X155498152Y-86511547D01*
X155502788Y-86517927D01*
X155560581Y-86604419D01*
X155648634Y-86663255D01*
X155726282Y-86678700D01*
X155826726Y-86678700D01*
X156468594Y-86678700D01*
X156527725Y-86697913D01*
X156563894Y-86747079D01*
X156572591Y-86772803D01*
X156572596Y-86772817D01*
X156590843Y-86812510D01*
X156681808Y-86965739D01*
X156681811Y-86965744D01*
X156707917Y-87000765D01*
X156707919Y-87000767D01*
X156828793Y-87131714D01*
X156828799Y-87131720D01*
X156861608Y-87160526D01*
X156861616Y-87160532D01*
X157007100Y-87263451D01*
X157007103Y-87263453D01*
X157007105Y-87263454D01*
X157045199Y-87284805D01*
X157045201Y-87284806D01*
X157045205Y-87284808D01*
X157208925Y-87355189D01*
X157208931Y-87355190D01*
X157208936Y-87355193D01*
X157248573Y-87367504D01*
X157250639Y-87368146D01*
X157425339Y-87402891D01*
X157466049Y-87406900D01*
X158148900Y-87406900D01*
X158208031Y-87426113D01*
X158244576Y-87476413D01*
X158249500Y-87507500D01*
X158249500Y-87752500D01*
X158230287Y-87811631D01*
X158179987Y-87848176D01*
X158148900Y-87853100D01*
X157466190Y-87853100D01*
X157430267Y-87856217D01*
X157430264Y-87856217D01*
X157430256Y-87856218D01*
X157430253Y-87856218D01*
X157430239Y-87856220D01*
X157253709Y-87887083D01*
X157253697Y-87887085D01*
X157210195Y-87899680D01*
X157210188Y-87899682D01*
X157044194Y-87968015D01*
X157044177Y-87968023D01*
X157004437Y-87989692D01*
X157004432Y-87989695D01*
X156857092Y-88092223D01*
X156857078Y-88092234D01*
X156822927Y-88121987D01*
X156822923Y-88121990D01*
X156701163Y-88253899D01*
X156674241Y-88290308D01*
X156583794Y-88445391D01*
X156565360Y-88486751D01*
X156560646Y-88501441D01*
X156560534Y-88501596D01*
X156560534Y-88501787D01*
X156542408Y-88526735D01*
X156524283Y-88551873D01*
X156524100Y-88551932D01*
X156523989Y-88552087D01*
X156494602Y-88561635D01*
X156465222Y-88571299D01*
X156464858Y-88571300D01*
X156446480Y-88571300D01*
X156387349Y-88552087D01*
X156350804Y-88501787D01*
X156349308Y-88444662D01*
X156383699Y-88316315D01*
X156383700Y-88316312D01*
X156383700Y-88183687D01*
X156383699Y-88183684D01*
X156380731Y-88172608D01*
X156349373Y-88055579D01*
X156346628Y-88050825D01*
X156283061Y-87940723D01*
X156283060Y-87940721D01*
X156189279Y-87846940D01*
X156189276Y-87846938D01*
X156074424Y-87780628D01*
X156074421Y-87780627D01*
X156040099Y-87771430D01*
X155946315Y-87746300D01*
X155946313Y-87746300D01*
X155813687Y-87746300D01*
X155813684Y-87746300D01*
X155685575Y-87780628D01*
X155570723Y-87846938D01*
X155570722Y-87846939D01*
X155570721Y-87846940D01*
X155476940Y-87940721D01*
X155476939Y-87940722D01*
X155476938Y-87940723D01*
X155410628Y-88055575D01*
X155376300Y-88183684D01*
X155376300Y-88316315D01*
X155410628Y-88444424D01*
X155476938Y-88559276D01*
X155476940Y-88559279D01*
X155503269Y-88585608D01*
X155506047Y-88591061D01*
X155511137Y-88594462D01*
X155519943Y-88618335D01*
X155531494Y-88641004D01*
X155530536Y-88647048D01*
X155532656Y-88652794D01*
X155525747Y-88677288D01*
X155521768Y-88702412D01*
X155515778Y-88712633D01*
X155502796Y-88732061D01*
X155453968Y-88770552D01*
X155391842Y-88772991D01*
X155340147Y-88738448D01*
X155335506Y-88732060D01*
X155302435Y-88682567D01*
X155302433Y-88682565D01*
X155231349Y-88635068D01*
X155168664Y-88622600D01*
X155155000Y-88622600D01*
X155155000Y-89177399D01*
X155168664Y-89177399D01*
X155231349Y-89164930D01*
X155302433Y-89117433D01*
X155335503Y-89067940D01*
X155384329Y-89029448D01*
X155446455Y-89027005D01*
X155498152Y-89061547D01*
X155502788Y-89067927D01*
X155560581Y-89154419D01*
X155648634Y-89213255D01*
X155726282Y-89228700D01*
X155826726Y-89228700D01*
X156471975Y-89228700D01*
X156531106Y-89247913D01*
X156567275Y-89297079D01*
X156572591Y-89312803D01*
X156572596Y-89312817D01*
X156590843Y-89352510D01*
X156681808Y-89505739D01*
X156681811Y-89505744D01*
X156707917Y-89540765D01*
X156707919Y-89540767D01*
X156828793Y-89671714D01*
X156828799Y-89671720D01*
X156861608Y-89700526D01*
X156861616Y-89700532D01*
X157007100Y-89803451D01*
X157007103Y-89803453D01*
X157007105Y-89803454D01*
X157045199Y-89824805D01*
X157045201Y-89824806D01*
X157045205Y-89824808D01*
X157208925Y-89895189D01*
X157208931Y-89895190D01*
X157208936Y-89895193D01*
X157248573Y-89907504D01*
X157250639Y-89908146D01*
X157425339Y-89942891D01*
X157466049Y-89946900D01*
X158148900Y-89946900D01*
X158208031Y-89966113D01*
X158244576Y-90016413D01*
X158249500Y-90047500D01*
X158249500Y-90292500D01*
X158230287Y-90351631D01*
X158179987Y-90388176D01*
X158148900Y-90393100D01*
X157466190Y-90393100D01*
X157430267Y-90396217D01*
X157430264Y-90396217D01*
X157430256Y-90396218D01*
X157430253Y-90396218D01*
X157430239Y-90396220D01*
X157253709Y-90427083D01*
X157253697Y-90427085D01*
X157210195Y-90439680D01*
X157210188Y-90439682D01*
X157044194Y-90508015D01*
X157044177Y-90508023D01*
X157004437Y-90529692D01*
X157004432Y-90529695D01*
X156857092Y-90632223D01*
X156857078Y-90632234D01*
X156822927Y-90661987D01*
X156822923Y-90661990D01*
X156701163Y-90793899D01*
X156674241Y-90830308D01*
X156674239Y-90830311D01*
X156586636Y-90980518D01*
X156583794Y-90985391D01*
X156565363Y-91026743D01*
X156565359Y-91026754D01*
X156557437Y-91051441D01*
X156557325Y-91051596D01*
X156557325Y-91051787D01*
X156539199Y-91076735D01*
X156521074Y-91101873D01*
X156520891Y-91101932D01*
X156520780Y-91102087D01*
X156491393Y-91111635D01*
X156462013Y-91121299D01*
X156461649Y-91121300D01*
X156428817Y-91121300D01*
X156369686Y-91102087D01*
X156333141Y-91051787D01*
X156333141Y-90989613D01*
X156337136Y-90980637D01*
X156336848Y-90980518D01*
X156339371Y-90974425D01*
X156339371Y-90974423D01*
X156339373Y-90974421D01*
X156373700Y-90846313D01*
X156373700Y-90713687D01*
X156339373Y-90585579D01*
X156337154Y-90581736D01*
X156273061Y-90470723D01*
X156273060Y-90470721D01*
X156179279Y-90376940D01*
X156179276Y-90376938D01*
X156064424Y-90310628D01*
X156064421Y-90310627D01*
X156030099Y-90301430D01*
X155936315Y-90276300D01*
X155936313Y-90276300D01*
X155803687Y-90276300D01*
X155803684Y-90276300D01*
X155675575Y-90310628D01*
X155560723Y-90376938D01*
X155560722Y-90376939D01*
X155560721Y-90376940D01*
X155466940Y-90470721D01*
X155466939Y-90470722D01*
X155466938Y-90470723D01*
X155400628Y-90585575D01*
X155366300Y-90713684D01*
X155366300Y-90846315D01*
X155400628Y-90974424D01*
X155462963Y-91082391D01*
X155466940Y-91089279D01*
X155507274Y-91129613D01*
X155510051Y-91135064D01*
X155515141Y-91138465D01*
X155523948Y-91162339D01*
X155535499Y-91185009D01*
X155534541Y-91191053D01*
X155536660Y-91196796D01*
X155529753Y-91221286D01*
X155525773Y-91246417D01*
X155519784Y-91256636D01*
X155502797Y-91282059D01*
X155453971Y-91320551D01*
X155391844Y-91322992D01*
X155340148Y-91288450D01*
X155335506Y-91282060D01*
X155302435Y-91232567D01*
X155302433Y-91232565D01*
X155231349Y-91185068D01*
X155168664Y-91172600D01*
X155155000Y-91172600D01*
X155155000Y-91727399D01*
X155168664Y-91727399D01*
X155231349Y-91714930D01*
X155302433Y-91667433D01*
X155335503Y-91617940D01*
X155384329Y-91579448D01*
X155446455Y-91577005D01*
X155498152Y-91611547D01*
X155502788Y-91617927D01*
X155560581Y-91704419D01*
X155648634Y-91763255D01*
X155726282Y-91778700D01*
X155826726Y-91778700D01*
X156475356Y-91778700D01*
X156534487Y-91797913D01*
X156570656Y-91847078D01*
X156572593Y-91852808D01*
X156572596Y-91852817D01*
X156590843Y-91892510D01*
X156681808Y-92045739D01*
X156681811Y-92045744D01*
X156707917Y-92080765D01*
X156707919Y-92080767D01*
X156828793Y-92211714D01*
X156828799Y-92211720D01*
X156861608Y-92240526D01*
X156861616Y-92240532D01*
X157007100Y-92343451D01*
X157007103Y-92343453D01*
X157007105Y-92343454D01*
X157045199Y-92364805D01*
X157045201Y-92364806D01*
X157045205Y-92364808D01*
X157208925Y-92435189D01*
X157208931Y-92435190D01*
X157208936Y-92435193D01*
X157248573Y-92447504D01*
X157250639Y-92448146D01*
X157425339Y-92482891D01*
X157466049Y-92486900D01*
X158148900Y-92486900D01*
X158208031Y-92506113D01*
X158244576Y-92556413D01*
X158249500Y-92587500D01*
X158249500Y-92832500D01*
X158230287Y-92891631D01*
X158179987Y-92928176D01*
X158148900Y-92933100D01*
X157466190Y-92933100D01*
X157430267Y-92936217D01*
X157430264Y-92936217D01*
X157430256Y-92936218D01*
X157430253Y-92936218D01*
X157430239Y-92936220D01*
X157253709Y-92967083D01*
X157253697Y-92967085D01*
X157210195Y-92979680D01*
X157210188Y-92979682D01*
X157044194Y-93048015D01*
X157044177Y-93048023D01*
X157004437Y-93069692D01*
X157004432Y-93069695D01*
X156857092Y-93172223D01*
X156857078Y-93172234D01*
X156822927Y-93201987D01*
X156822923Y-93201990D01*
X156701163Y-93333899D01*
X156674241Y-93370308D01*
X156583794Y-93525391D01*
X156565363Y-93566743D01*
X156565357Y-93566758D01*
X156562251Y-93576440D01*
X156525889Y-93626872D01*
X156466828Y-93646299D01*
X156466463Y-93646300D01*
X156250500Y-93646300D01*
X156191369Y-93627087D01*
X156154824Y-93576787D01*
X156149900Y-93545700D01*
X156149900Y-93103150D01*
X156130825Y-93031963D01*
X156093976Y-92968138D01*
X156041862Y-92916024D01*
X155551862Y-92426024D01*
X155550192Y-92425060D01*
X155527095Y-92411725D01*
X155488037Y-92389175D01*
X155416850Y-92370100D01*
X154917608Y-92370100D01*
X154858477Y-92350887D01*
X154846473Y-92340635D01*
X154080838Y-91575000D01*
X154705823Y-91575000D01*
X154710068Y-91596348D01*
X154710069Y-91596351D01*
X154757565Y-91667433D01*
X154757566Y-91667434D01*
X154828650Y-91714931D01*
X154891333Y-91727399D01*
X154891338Y-91727399D01*
X154905000Y-91727398D01*
X154905000Y-91575000D01*
X154705823Y-91575000D01*
X154080838Y-91575000D01*
X153830838Y-91325000D01*
X154705822Y-91325000D01*
X154905000Y-91325000D01*
X154905000Y-91172599D01*
X154904999Y-91172599D01*
X154891336Y-91172600D01*
X154891335Y-91172600D01*
X154828650Y-91185069D01*
X154757565Y-91232566D01*
X154710068Y-91303651D01*
X154705822Y-91325000D01*
X153830838Y-91325000D01*
X153809365Y-91303527D01*
X153781139Y-91248129D01*
X153779900Y-91232392D01*
X153779900Y-89025000D01*
X154705823Y-89025000D01*
X154710068Y-89046348D01*
X154710069Y-89046351D01*
X154757565Y-89117433D01*
X154757566Y-89117434D01*
X154828650Y-89164931D01*
X154891333Y-89177399D01*
X154891338Y-89177399D01*
X154905000Y-89177398D01*
X154905000Y-89025000D01*
X154705823Y-89025000D01*
X153779900Y-89025000D01*
X153779900Y-88775000D01*
X154705822Y-88775000D01*
X154905000Y-88775000D01*
X154905000Y-88622599D01*
X154904999Y-88622599D01*
X154891336Y-88622600D01*
X154891335Y-88622600D01*
X154828650Y-88635069D01*
X154757565Y-88682566D01*
X154710068Y-88753651D01*
X154705822Y-88775000D01*
X153779900Y-88775000D01*
X153779900Y-86475000D01*
X154705823Y-86475000D01*
X154710068Y-86496348D01*
X154710069Y-86496351D01*
X154757565Y-86567433D01*
X154757566Y-86567434D01*
X154828650Y-86614931D01*
X154891333Y-86627399D01*
X154891338Y-86627399D01*
X154905000Y-86627398D01*
X154905000Y-86475000D01*
X154705823Y-86475000D01*
X153779900Y-86475000D01*
X153779900Y-86225000D01*
X154705822Y-86225000D01*
X154905000Y-86225000D01*
X154905000Y-86072599D01*
X154904999Y-86072599D01*
X154891336Y-86072600D01*
X154891335Y-86072600D01*
X154828650Y-86085069D01*
X154757565Y-86132566D01*
X154710068Y-86203651D01*
X154705822Y-86225000D01*
X153779900Y-86225000D01*
X153779900Y-84454299D01*
X153799113Y-84395168D01*
X153849413Y-84358623D01*
X153880500Y-84353699D01*
X154216607Y-84353699D01*
X154216614Y-84353699D01*
X154219699Y-84353341D01*
X154239907Y-84350998D01*
X154239908Y-84350997D01*
X154239914Y-84350997D01*
X154335232Y-84308910D01*
X154408910Y-84235232D01*
X154450997Y-84139914D01*
X154453700Y-84116615D01*
X154453699Y-83950000D01*
X154708323Y-83950000D01*
X154712568Y-83971348D01*
X154712569Y-83971351D01*
X154760065Y-84042433D01*
X154760066Y-84042434D01*
X154831150Y-84089931D01*
X154893833Y-84102399D01*
X154893838Y-84102399D01*
X154907500Y-84102398D01*
X154907500Y-83950000D01*
X154708323Y-83950000D01*
X154453699Y-83950000D01*
X154453699Y-83883386D01*
X154450997Y-83860086D01*
X154420330Y-83790633D01*
X154419271Y-83780247D01*
X154414022Y-83771220D01*
X154416186Y-83749998D01*
X154414022Y-83728781D01*
X154420327Y-83709374D01*
X154424466Y-83700000D01*
X154708322Y-83700000D01*
X154907500Y-83700000D01*
X154907500Y-83547599D01*
X154907499Y-83547599D01*
X154893836Y-83547600D01*
X154893835Y-83547600D01*
X154831150Y-83560069D01*
X154760065Y-83607566D01*
X154712568Y-83678651D01*
X154708322Y-83700000D01*
X154424466Y-83700000D01*
X154450997Y-83639914D01*
X154453700Y-83616615D01*
X154453699Y-83383386D01*
X154451612Y-83365391D01*
X154450998Y-83360092D01*
X154450997Y-83360090D01*
X154450997Y-83360086D01*
X154420330Y-83290633D01*
X154414022Y-83228781D01*
X154420331Y-83209365D01*
X154450997Y-83139914D01*
X154453700Y-83116615D01*
X154453699Y-82883386D01*
X154453364Y-82880500D01*
X154450126Y-82852568D01*
X154452478Y-82852295D01*
X154454947Y-82801427D01*
X154493886Y-82752957D01*
X154553879Y-82736632D01*
X154612010Y-82758688D01*
G37*
%TD.AperFunction*%
%TA.AperFunction,Conductor*%
G36*
X148205171Y-87408972D02*
G01*
X148249135Y-87452936D01*
X148260100Y-87498607D01*
X148260100Y-89082392D01*
X148240887Y-89141523D01*
X148230635Y-89153527D01*
X147573527Y-89810635D01*
X147518129Y-89838861D01*
X147502392Y-89840100D01*
X146693147Y-89840100D01*
X146621961Y-89859175D01*
X146558136Y-89896025D01*
X146248138Y-90206024D01*
X146196022Y-90258140D01*
X146165719Y-90310628D01*
X146159175Y-90321963D01*
X146153276Y-90343977D01*
X146140100Y-90393149D01*
X146140100Y-90818925D01*
X146139823Y-90826383D01*
X146139121Y-90835822D01*
X146125100Y-90888150D01*
X146125100Y-91024431D01*
X146124823Y-91028158D01*
X146114396Y-91053640D01*
X146105887Y-91079831D01*
X146102747Y-91082111D01*
X146101279Y-91085702D01*
X146077860Y-91100193D01*
X146055587Y-91116376D01*
X146050374Y-91117201D01*
X146048409Y-91118418D01*
X146044520Y-91118128D01*
X146024500Y-91121300D01*
X145798351Y-91121300D01*
X145739220Y-91102087D01*
X145702675Y-91051787D01*
X145702563Y-91051441D01*
X145694640Y-91026754D01*
X145694636Y-91026743D01*
X145676205Y-90985391D01*
X145676202Y-90985384D01*
X145585761Y-90830311D01*
X145558835Y-90793897D01*
X145437071Y-90661985D01*
X145402922Y-90632234D01*
X145402913Y-90632227D01*
X145402907Y-90632223D01*
X145255567Y-90529695D01*
X145255562Y-90529692D01*
X145215822Y-90508023D01*
X145215805Y-90508015D01*
X145049811Y-90439682D01*
X145049807Y-90439680D01*
X145049805Y-90439680D01*
X145028053Y-90433382D01*
X145006302Y-90427085D01*
X145006290Y-90427083D01*
X144829760Y-90396220D01*
X144829748Y-90396218D01*
X144829744Y-90396218D01*
X144827458Y-90396019D01*
X144793810Y-90393100D01*
X144793803Y-90393100D01*
X144111100Y-90393100D01*
X144051969Y-90373887D01*
X144015424Y-90323587D01*
X144010500Y-90292500D01*
X144010500Y-90047500D01*
X144029713Y-89988369D01*
X144080013Y-89951824D01*
X144111100Y-89946900D01*
X144793951Y-89946900D01*
X144834661Y-89942891D01*
X145009361Y-89908146D01*
X145048384Y-89896025D01*
X145051063Y-89895193D01*
X145051065Y-89895192D01*
X145051075Y-89895189D01*
X145214795Y-89824808D01*
X145252900Y-89803451D01*
X145398384Y-89700532D01*
X145431209Y-89671712D01*
X145552083Y-89540765D01*
X145578189Y-89505744D01*
X145669159Y-89352505D01*
X145687404Y-89312816D01*
X145692725Y-89297079D01*
X145729865Y-89247216D01*
X145788025Y-89228700D01*
X146548717Y-89228700D01*
X146548718Y-89228700D01*
X146626366Y-89213255D01*
X146714419Y-89154419D01*
X146772204Y-89067937D01*
X146821028Y-89029448D01*
X146883155Y-89027007D01*
X146934851Y-89061549D01*
X146939493Y-89067939D01*
X146972564Y-89117432D01*
X146972566Y-89117434D01*
X147043650Y-89164931D01*
X147106333Y-89177399D01*
X147106338Y-89177399D01*
X147370000Y-89177399D01*
X147383664Y-89177399D01*
X147446349Y-89164930D01*
X147517434Y-89117433D01*
X147564931Y-89046348D01*
X147569178Y-89025000D01*
X147370000Y-89025000D01*
X147370000Y-89177399D01*
X147106338Y-89177399D01*
X147120000Y-89177398D01*
X147120000Y-88775000D01*
X147370000Y-88775000D01*
X147569176Y-88775000D01*
X147564931Y-88753651D01*
X147564930Y-88753648D01*
X147517434Y-88682566D01*
X147517433Y-88682565D01*
X147446349Y-88635068D01*
X147383664Y-88622600D01*
X147370000Y-88622600D01*
X147370000Y-88775000D01*
X147120000Y-88775000D01*
X147120000Y-88622599D01*
X147119999Y-88622599D01*
X147106336Y-88622600D01*
X147106335Y-88622600D01*
X147043650Y-88635069D01*
X146972565Y-88682567D01*
X146939495Y-88732060D01*
X146936912Y-88734095D01*
X146935823Y-88737199D01*
X146912719Y-88753168D01*
X146890668Y-88770552D01*
X146887382Y-88770681D01*
X146884677Y-88772551D01*
X146856599Y-88771890D01*
X146828542Y-88772993D01*
X146825808Y-88771166D01*
X146822520Y-88771089D01*
X146802795Y-88755789D01*
X146776846Y-88738451D01*
X146773094Y-88733371D01*
X146772651Y-88732730D01*
X146714419Y-88645581D01*
X146710692Y-88643090D01*
X146702745Y-88631593D01*
X146696318Y-88610108D01*
X146686139Y-88590129D01*
X146684900Y-88574392D01*
X146684900Y-88172608D01*
X146704113Y-88113477D01*
X146714365Y-88101473D01*
X146716473Y-88099365D01*
X146771871Y-88071139D01*
X146787608Y-88069900D01*
X147366850Y-88069900D01*
X147438037Y-88050825D01*
X147501862Y-88013976D01*
X148088367Y-87427470D01*
X148143763Y-87399246D01*
X148205171Y-87408972D01*
G37*
%TD.AperFunction*%
%TA.AperFunction,Conductor*%
G36*
X147885171Y-85386472D02*
G01*
X147929135Y-85430436D01*
X147940100Y-85476107D01*
X147940100Y-86742392D01*
X147920887Y-86801523D01*
X147910635Y-86813527D01*
X147243527Y-87480635D01*
X147188129Y-87508861D01*
X147172392Y-87510100D01*
X146666850Y-87510100D01*
X146593150Y-87510100D01*
X146521963Y-87529175D01*
X146521961Y-87529175D01*
X146521961Y-87529176D01*
X146458140Y-87566022D01*
X146181022Y-87843140D01*
X146144176Y-87906961D01*
X146125100Y-87978149D01*
X146125100Y-88470700D01*
X146105887Y-88529831D01*
X146055587Y-88566376D01*
X146024500Y-88571300D01*
X145795142Y-88571300D01*
X145736011Y-88552087D01*
X145699466Y-88501787D01*
X145699354Y-88501441D01*
X145694639Y-88486751D01*
X145676205Y-88445391D01*
X145676202Y-88445384D01*
X145585761Y-88290311D01*
X145558835Y-88253897D01*
X145475128Y-88163214D01*
X145437076Y-88121990D01*
X145437074Y-88121989D01*
X145437071Y-88121985D01*
X145402922Y-88092234D01*
X145402913Y-88092227D01*
X145402907Y-88092223D01*
X145255567Y-87989695D01*
X145255562Y-87989692D01*
X145215822Y-87968023D01*
X145215805Y-87968015D01*
X145049811Y-87899682D01*
X145049807Y-87899680D01*
X145049805Y-87899680D01*
X145028053Y-87893382D01*
X145006302Y-87887085D01*
X145006290Y-87887083D01*
X144829760Y-87856220D01*
X144829748Y-87856218D01*
X144829744Y-87856218D01*
X144827458Y-87856019D01*
X144793810Y-87853100D01*
X144793803Y-87853100D01*
X144111100Y-87853100D01*
X144051969Y-87833887D01*
X144015424Y-87783587D01*
X144010500Y-87752500D01*
X144010500Y-87507500D01*
X144029713Y-87448369D01*
X144080013Y-87411824D01*
X144111100Y-87406900D01*
X144793951Y-87406900D01*
X144834661Y-87402891D01*
X145009361Y-87368146D01*
X145032535Y-87360947D01*
X145051063Y-87355193D01*
X145051065Y-87355192D01*
X145051075Y-87355189D01*
X145214795Y-87284808D01*
X145252900Y-87263451D01*
X145398384Y-87160532D01*
X145431209Y-87131712D01*
X145552083Y-87000765D01*
X145578189Y-86965744D01*
X145669159Y-86812505D01*
X145687404Y-86772816D01*
X145687649Y-86772088D01*
X145687741Y-86771965D01*
X145688379Y-86770363D01*
X145688807Y-86770533D01*
X145724783Y-86722223D01*
X145782953Y-86703700D01*
X146546217Y-86703700D01*
X146546218Y-86703700D01*
X146623866Y-86688255D01*
X146711919Y-86629419D01*
X146769704Y-86542937D01*
X146818528Y-86504448D01*
X146880655Y-86502007D01*
X146932351Y-86536549D01*
X146936993Y-86542939D01*
X146970064Y-86592432D01*
X146970066Y-86592434D01*
X147041150Y-86639931D01*
X147103833Y-86652399D01*
X147103838Y-86652399D01*
X147367500Y-86652399D01*
X147381164Y-86652399D01*
X147443849Y-86639930D01*
X147514934Y-86592433D01*
X147562431Y-86521348D01*
X147566678Y-86500000D01*
X147367500Y-86500000D01*
X147367500Y-86652399D01*
X147103838Y-86652399D01*
X147117500Y-86652398D01*
X147117500Y-86250000D01*
X147367500Y-86250000D01*
X147566676Y-86250000D01*
X147562431Y-86228651D01*
X147562430Y-86228648D01*
X147514934Y-86157566D01*
X147514933Y-86157565D01*
X147443849Y-86110068D01*
X147381164Y-86097600D01*
X147367500Y-86097600D01*
X147367500Y-86250000D01*
X147117500Y-86250000D01*
X147117500Y-86097507D01*
X147136713Y-86038376D01*
X147146959Y-86026378D01*
X147768367Y-85404970D01*
X147823763Y-85376746D01*
X147885171Y-85386472D01*
G37*
%TD.AperFunction*%
%TA.AperFunction,Conductor*%
G36*
X148090524Y-82799113D02*
G01*
X148127069Y-82849413D01*
X148127069Y-82911587D01*
X148102528Y-82951635D01*
X147686022Y-83368141D01*
X147652164Y-83426787D01*
X147649175Y-83431964D01*
X147645154Y-83446971D01*
X147630098Y-83503156D01*
X147629471Y-83507923D01*
X147602705Y-83564041D01*
X147548065Y-83593707D01*
X147486423Y-83585592D01*
X147473843Y-83578439D01*
X147446348Y-83560068D01*
X147383664Y-83547600D01*
X147370000Y-83547600D01*
X147370000Y-84102399D01*
X147383664Y-84102399D01*
X147446350Y-84089930D01*
X147473608Y-84071717D01*
X147533448Y-84054839D01*
X147591779Y-84076358D01*
X147626322Y-84128053D01*
X147630100Y-84155362D01*
X147630100Y-84709892D01*
X147610887Y-84769023D01*
X147600635Y-84781027D01*
X146364827Y-86016835D01*
X146309429Y-86045061D01*
X146293692Y-86046300D01*
X145799957Y-86046300D01*
X145740826Y-86027087D01*
X145704281Y-85976787D01*
X145704170Y-85976444D01*
X145694640Y-85946752D01*
X145676205Y-85905391D01*
X145676202Y-85905384D01*
X145585761Y-85750311D01*
X145558835Y-85713897D01*
X145437071Y-85581985D01*
X145402922Y-85552234D01*
X145402913Y-85552227D01*
X145402907Y-85552223D01*
X145255567Y-85449695D01*
X145255562Y-85449692D01*
X145215822Y-85428023D01*
X145215805Y-85428015D01*
X145049811Y-85359682D01*
X145049807Y-85359680D01*
X145049805Y-85359680D01*
X145028053Y-85353382D01*
X145006302Y-85347085D01*
X145006290Y-85347083D01*
X144829760Y-85316220D01*
X144829748Y-85316218D01*
X144829744Y-85316218D01*
X144827458Y-85316019D01*
X144793810Y-85313100D01*
X144793803Y-85313100D01*
X144111100Y-85313100D01*
X144051969Y-85293887D01*
X144015424Y-85243587D01*
X144010500Y-85212500D01*
X144010500Y-84967500D01*
X144029713Y-84908369D01*
X144080013Y-84871824D01*
X144111100Y-84866900D01*
X144793951Y-84866900D01*
X144834661Y-84862891D01*
X145009361Y-84828146D01*
X145032535Y-84820947D01*
X145051063Y-84815193D01*
X145051065Y-84815192D01*
X145051075Y-84815189D01*
X145214795Y-84744808D01*
X145252900Y-84723451D01*
X145398384Y-84620532D01*
X145431209Y-84591712D01*
X145552083Y-84460765D01*
X145578189Y-84425744D01*
X145669159Y-84272505D01*
X145687404Y-84232816D01*
X145691036Y-84222075D01*
X145728178Y-84172214D01*
X145786335Y-84153700D01*
X146548717Y-84153700D01*
X146548718Y-84153700D01*
X146626366Y-84138255D01*
X146714419Y-84079419D01*
X146772204Y-83992937D01*
X146821028Y-83954448D01*
X146883155Y-83952007D01*
X146934851Y-83986549D01*
X146939493Y-83992939D01*
X146972564Y-84042432D01*
X146972566Y-84042434D01*
X147043650Y-84089931D01*
X147106333Y-84102399D01*
X147106338Y-84102399D01*
X147120000Y-84102398D01*
X147120000Y-83547599D01*
X147119999Y-83547599D01*
X147106336Y-83547600D01*
X147106335Y-83547600D01*
X147043650Y-83560069D01*
X146972565Y-83607567D01*
X146939495Y-83657060D01*
X146890668Y-83695552D01*
X146828542Y-83697993D01*
X146776846Y-83663451D01*
X146772214Y-83657077D01*
X146714419Y-83570581D01*
X146714417Y-83570580D01*
X146714417Y-83570579D01*
X146654609Y-83530616D01*
X146616118Y-83481790D01*
X146609900Y-83446971D01*
X146609900Y-82880500D01*
X146629113Y-82821369D01*
X146679413Y-82784824D01*
X146710500Y-82779900D01*
X148031393Y-82779900D01*
X148090524Y-82799113D01*
G37*
%TD.AperFunction*%
%TA.AperFunction,Conductor*%
G36*
X156534487Y-79097913D02*
G01*
X156570656Y-79147078D01*
X156572593Y-79152808D01*
X156572596Y-79152817D01*
X156590843Y-79192510D01*
X156658354Y-79306231D01*
X156681811Y-79345744D01*
X156707917Y-79380765D01*
X156793544Y-79473527D01*
X156828793Y-79511714D01*
X156828799Y-79511720D01*
X156861608Y-79540526D01*
X156861616Y-79540532D01*
X157007100Y-79643451D01*
X157007103Y-79643453D01*
X157007105Y-79643454D01*
X157045199Y-79664805D01*
X157045201Y-79664806D01*
X157045205Y-79664808D01*
X157208925Y-79735189D01*
X157208931Y-79735190D01*
X157208936Y-79735193D01*
X157248573Y-79747504D01*
X157250639Y-79748146D01*
X157425339Y-79782891D01*
X157466049Y-79786900D01*
X158148900Y-79786900D01*
X158208031Y-79806113D01*
X158244576Y-79856413D01*
X158249500Y-79887500D01*
X158249500Y-80132500D01*
X158230287Y-80191631D01*
X158179987Y-80228176D01*
X158148900Y-80233100D01*
X157466190Y-80233100D01*
X157430267Y-80236217D01*
X157430264Y-80236217D01*
X157430256Y-80236218D01*
X157430253Y-80236218D01*
X157430239Y-80236220D01*
X157253709Y-80267083D01*
X157253697Y-80267085D01*
X157210195Y-80279680D01*
X157210188Y-80279682D01*
X157044194Y-80348015D01*
X157044177Y-80348023D01*
X157004437Y-80369692D01*
X157004432Y-80369695D01*
X156857092Y-80472223D01*
X156857078Y-80472234D01*
X156822927Y-80501987D01*
X156822923Y-80501990D01*
X156701163Y-80633899D01*
X156684193Y-80656849D01*
X156674239Y-80670311D01*
X156636376Y-80735232D01*
X156583794Y-80825391D01*
X156565363Y-80866743D01*
X156565357Y-80866758D01*
X156562251Y-80876440D01*
X156525889Y-80926872D01*
X156466828Y-80946299D01*
X156466463Y-80946300D01*
X156013718Y-80946300D01*
X155726282Y-80946300D01*
X155707003Y-80950134D01*
X155648636Y-80961744D01*
X155648634Y-80961744D01*
X155648634Y-80961745D01*
X155624529Y-80977852D01*
X155560579Y-81020582D01*
X155502796Y-81107060D01*
X155453970Y-81145551D01*
X155391843Y-81147992D01*
X155340148Y-81113449D01*
X155335506Y-81107060D01*
X155302435Y-81057567D01*
X155302433Y-81057565D01*
X155231349Y-81010068D01*
X155168664Y-80997600D01*
X155155000Y-80997600D01*
X155155000Y-81552399D01*
X155168664Y-81552399D01*
X155231349Y-81539930D01*
X155302433Y-81492433D01*
X155335503Y-81442940D01*
X155338086Y-81440903D01*
X155339176Y-81437800D01*
X155362277Y-81421832D01*
X155384329Y-81404448D01*
X155387615Y-81404318D01*
X155390322Y-81402448D01*
X155418396Y-81403108D01*
X155446455Y-81402005D01*
X155449190Y-81403832D01*
X155452479Y-81403910D01*
X155472203Y-81419209D01*
X155498152Y-81436547D01*
X155501905Y-81441628D01*
X155502357Y-81442282D01*
X155560581Y-81529419D01*
X155564307Y-81531909D01*
X155572255Y-81543407D01*
X155578681Y-81564891D01*
X155588861Y-81584871D01*
X155590100Y-81600608D01*
X155590100Y-81699500D01*
X155570887Y-81758631D01*
X155520587Y-81795176D01*
X155489500Y-81800100D01*
X154997608Y-81800100D01*
X154938477Y-81780887D01*
X154926473Y-81770635D01*
X154877754Y-81721916D01*
X154849528Y-81666518D01*
X154859254Y-81605110D01*
X154877752Y-81579648D01*
X154905000Y-81552398D01*
X154905000Y-81400000D01*
X154703286Y-81400000D01*
X154691182Y-81407747D01*
X154676537Y-81422393D01*
X154665595Y-81424125D01*
X154656264Y-81430099D01*
X154635585Y-81428878D01*
X154615129Y-81432119D01*
X154605258Y-81427089D01*
X154594197Y-81426437D01*
X154559731Y-81403893D01*
X154452174Y-81296336D01*
X154423948Y-81240938D01*
X154431281Y-81184566D01*
X154435770Y-81174400D01*
X154446544Y-81150000D01*
X154705822Y-81150000D01*
X154905000Y-81150000D01*
X154905000Y-80997599D01*
X154904999Y-80997599D01*
X154891336Y-80997600D01*
X154891335Y-80997600D01*
X154828650Y-81010069D01*
X154757565Y-81057566D01*
X154710068Y-81128651D01*
X154705822Y-81150000D01*
X154446544Y-81150000D01*
X154450997Y-81139914D01*
X154453700Y-81116615D01*
X154453699Y-80883386D01*
X154450997Y-80860086D01*
X154420330Y-80790633D01*
X154414022Y-80728781D01*
X154420331Y-80709365D01*
X154437575Y-80670311D01*
X154450997Y-80639914D01*
X154453700Y-80616615D01*
X154453699Y-80383386D01*
X154453699Y-80380500D01*
X154472912Y-80321369D01*
X154523211Y-80284824D01*
X154554299Y-80279900D01*
X155466850Y-80279900D01*
X155538037Y-80260825D01*
X155601862Y-80223976D01*
X156103976Y-79721862D01*
X156140825Y-79658038D01*
X156159900Y-79586850D01*
X156159900Y-79513150D01*
X156153328Y-79488623D01*
X156149900Y-79462585D01*
X156149900Y-79179300D01*
X156169113Y-79120169D01*
X156219413Y-79083624D01*
X156250500Y-79078700D01*
X156475356Y-79078700D01*
X156534487Y-79097913D01*
G37*
%TD.AperFunction*%
%TA.AperFunction,Conductor*%
G36*
X146355323Y-79097913D02*
G01*
X146367327Y-79108165D01*
X147260635Y-80001473D01*
X147288861Y-80056871D01*
X147290100Y-80072608D01*
X147290100Y-80583149D01*
X147290100Y-80656849D01*
X147309175Y-80728036D01*
X147346024Y-80791861D01*
X147379547Y-80825384D01*
X147389747Y-80835584D01*
X147417973Y-80890982D01*
X147408246Y-80952390D01*
X147389747Y-80977852D01*
X147370000Y-80997599D01*
X147370000Y-81150000D01*
X147577821Y-81150000D01*
X147611971Y-81128139D01*
X147674037Y-81131799D01*
X147708505Y-81154343D01*
X147912693Y-81358531D01*
X148102527Y-81548365D01*
X148130753Y-81603763D01*
X148121027Y-81665172D01*
X148077063Y-81709135D01*
X148031392Y-81720100D01*
X147508342Y-81720100D01*
X147449211Y-81700887D01*
X147412666Y-81650587D01*
X147412666Y-81588413D01*
X147449211Y-81538113D01*
X147452451Y-81535854D01*
X147517434Y-81492432D01*
X147564931Y-81421348D01*
X147569178Y-81400000D01*
X147345600Y-81400000D01*
X147330446Y-81395076D01*
X147314513Y-81395076D01*
X147301622Y-81385710D01*
X147286469Y-81380787D01*
X147277103Y-81367896D01*
X147264213Y-81358531D01*
X147259289Y-81343377D01*
X147249924Y-81330487D01*
X147245000Y-81299400D01*
X147245000Y-81275000D01*
X147220600Y-81275000D01*
X147161469Y-81255787D01*
X147124924Y-81205487D01*
X147120000Y-81174400D01*
X147120000Y-80997599D01*
X147119999Y-80997599D01*
X147106336Y-80997600D01*
X147106335Y-80997600D01*
X147043650Y-81010069D01*
X146972565Y-81057567D01*
X146939495Y-81107060D01*
X146890668Y-81145552D01*
X146828542Y-81147993D01*
X146776846Y-81113451D01*
X146772214Y-81107077D01*
X146714419Y-81020581D01*
X146626366Y-80961745D01*
X146626363Y-80961744D01*
X146574364Y-80951401D01*
X146548718Y-80946300D01*
X146548717Y-80946300D01*
X145793537Y-80946300D01*
X145734406Y-80927087D01*
X145697861Y-80876787D01*
X145697749Y-80876440D01*
X145694642Y-80866758D01*
X145694636Y-80866743D01*
X145676205Y-80825391D01*
X145676202Y-80825384D01*
X145585761Y-80670311D01*
X145558835Y-80633897D01*
X145437071Y-80501985D01*
X145402922Y-80472234D01*
X145402913Y-80472227D01*
X145402907Y-80472223D01*
X145255567Y-80369695D01*
X145255562Y-80369692D01*
X145215822Y-80348023D01*
X145215805Y-80348015D01*
X145049811Y-80279682D01*
X145049807Y-80279680D01*
X145049805Y-80279680D01*
X145018684Y-80270670D01*
X145006302Y-80267085D01*
X145006290Y-80267083D01*
X144829760Y-80236220D01*
X144829748Y-80236218D01*
X144829744Y-80236218D01*
X144827458Y-80236019D01*
X144793810Y-80233100D01*
X144793803Y-80233100D01*
X144111100Y-80233100D01*
X144051969Y-80213887D01*
X144015424Y-80163587D01*
X144010500Y-80132500D01*
X144010500Y-79887500D01*
X144029713Y-79828369D01*
X144080013Y-79791824D01*
X144111100Y-79786900D01*
X144793951Y-79786900D01*
X144834661Y-79782891D01*
X145009361Y-79748146D01*
X145032535Y-79740947D01*
X145051063Y-79735193D01*
X145051065Y-79735192D01*
X145051075Y-79735189D01*
X145214795Y-79664808D01*
X145252900Y-79643451D01*
X145398384Y-79540532D01*
X145431209Y-79511712D01*
X145552083Y-79380765D01*
X145578189Y-79345744D01*
X145669159Y-79192505D01*
X145687404Y-79152816D01*
X145689344Y-79147077D01*
X145726484Y-79097216D01*
X145784644Y-79078700D01*
X146261282Y-79078700D01*
X146296192Y-79078700D01*
X146355323Y-79097913D01*
G37*
%TD.AperFunction*%
%TA.AperFunction,Conductor*%
G36*
X151834317Y-77237893D02*
G01*
X151860387Y-77237893D01*
X151864796Y-77241097D01*
X151870219Y-77241667D01*
X151889596Y-77259114D01*
X151910687Y-77274438D01*
X151916423Y-77283270D01*
X151953505Y-77347500D01*
X151956024Y-77351862D01*
X152314081Y-77709919D01*
X152658875Y-78054713D01*
X152687101Y-78110111D01*
X152677375Y-78171520D01*
X152658875Y-78196983D01*
X152588275Y-78267583D01*
X152532877Y-78295809D01*
X152471469Y-78286083D01*
X152466841Y-78283571D01*
X152461529Y-78280504D01*
X152444421Y-78270627D01*
X152370460Y-78250808D01*
X152316315Y-78236300D01*
X152316313Y-78236300D01*
X152183687Y-78236300D01*
X152183684Y-78236300D01*
X152055575Y-78270628D01*
X151940723Y-78336938D01*
X151940722Y-78336939D01*
X151940721Y-78336940D01*
X151846940Y-78430721D01*
X151846939Y-78430722D01*
X151846938Y-78430723D01*
X151780628Y-78545575D01*
X151746300Y-78673684D01*
X151746300Y-78806315D01*
X151754983Y-78838718D01*
X151780627Y-78934421D01*
X151829116Y-79018407D01*
X151830833Y-79021380D01*
X151843760Y-79082195D01*
X151818472Y-79138994D01*
X151814847Y-79142814D01*
X151766938Y-79190723D01*
X151700628Y-79305575D01*
X151666300Y-79433684D01*
X151666300Y-79566315D01*
X151700628Y-79694424D01*
X151756862Y-79791824D01*
X151766940Y-79809279D01*
X151860721Y-79903060D01*
X151860723Y-79903061D01*
X151975575Y-79969371D01*
X151975576Y-79969371D01*
X151975579Y-79969373D01*
X152103687Y-80003700D01*
X152236313Y-80003700D01*
X152364421Y-79969373D01*
X152395401Y-79951486D01*
X152456214Y-79938560D01*
X152513014Y-79963848D01*
X152544101Y-80017692D01*
X152546300Y-80038608D01*
X152546301Y-80119499D01*
X152527089Y-80178630D01*
X152476789Y-80215176D01*
X152445701Y-80220100D01*
X150419698Y-80220100D01*
X150345998Y-80220100D01*
X150274811Y-80239175D01*
X150274810Y-80239175D01*
X150274808Y-80239176D01*
X150220258Y-80270670D01*
X150159442Y-80283596D01*
X150102643Y-80258306D01*
X150098824Y-80254682D01*
X150035231Y-80191089D01*
X149939914Y-80149003D01*
X149916618Y-80146300D01*
X149916615Y-80146300D01*
X148600960Y-80146300D01*
X148593239Y-80143791D01*
X148585223Y-80145061D01*
X148564234Y-80134366D01*
X148541829Y-80127087D01*
X148529825Y-80116835D01*
X148489365Y-80076375D01*
X148461139Y-80020977D01*
X148459900Y-80005240D01*
X148459900Y-79954299D01*
X148479113Y-79895168D01*
X148529413Y-79858623D01*
X148560494Y-79853699D01*
X149916614Y-79853699D01*
X149919699Y-79853341D01*
X149939907Y-79850998D01*
X149939907Y-79850997D01*
X149939914Y-79850997D01*
X150015381Y-79817674D01*
X150077234Y-79811366D01*
X150127147Y-79838566D01*
X150148757Y-79860176D01*
X150212582Y-79897025D01*
X150283769Y-79916100D01*
X150876231Y-79916100D01*
X150947418Y-79897025D01*
X151011243Y-79860176D01*
X151430176Y-79441244D01*
X151467025Y-79377419D01*
X151467027Y-79377413D01*
X151473380Y-79353703D01*
X151473380Y-79353700D01*
X151475513Y-79345739D01*
X151486100Y-79306231D01*
X151486100Y-78713769D01*
X151467025Y-78642582D01*
X151467025Y-78642581D01*
X151430176Y-78578756D01*
X151051853Y-78200434D01*
X151023628Y-78145037D01*
X151033354Y-78083629D01*
X151077318Y-78039665D01*
X151122989Y-78028700D01*
X151419390Y-78028700D01*
X151419400Y-78028700D01*
X151452050Y-78026130D01*
X151483137Y-78021206D01*
X151487752Y-78020422D01*
X151573158Y-77983918D01*
X151623458Y-77947373D01*
X151651634Y-77922756D01*
X151699272Y-77843023D01*
X151718485Y-77783892D01*
X151728700Y-77719400D01*
X151728700Y-77333569D01*
X151730384Y-77328385D01*
X151729251Y-77323053D01*
X151739856Y-77299232D01*
X151747913Y-77274438D01*
X151752322Y-77271234D01*
X151754540Y-77266254D01*
X151777122Y-77253216D01*
X151798213Y-77237893D01*
X151803663Y-77237893D01*
X151808385Y-77235167D01*
X151834317Y-77237893D01*
G37*
%TD.AperFunction*%
%TA.AperFunction,Conductor*%
G36*
X156529416Y-68922913D02*
G01*
X156565585Y-68972079D01*
X156572594Y-68992812D01*
X156572595Y-68992814D01*
X156590843Y-69032510D01*
X156669838Y-69165575D01*
X156681811Y-69185744D01*
X156707917Y-69220765D01*
X156707919Y-69220767D01*
X156828793Y-69351714D01*
X156828799Y-69351720D01*
X156861608Y-69380526D01*
X156861616Y-69380532D01*
X157007100Y-69483451D01*
X157007103Y-69483453D01*
X157007105Y-69483454D01*
X157045199Y-69504805D01*
X157045201Y-69504806D01*
X157045205Y-69504808D01*
X157208925Y-69575189D01*
X157208931Y-69575190D01*
X157208936Y-69575193D01*
X157248573Y-69587504D01*
X157250639Y-69588146D01*
X157425339Y-69622891D01*
X157466049Y-69626900D01*
X158148900Y-69626900D01*
X158208031Y-69646113D01*
X158244576Y-69696413D01*
X158249500Y-69727500D01*
X158249500Y-69972500D01*
X158230287Y-70031631D01*
X158179987Y-70068176D01*
X158148900Y-70073100D01*
X157466190Y-70073100D01*
X157430267Y-70076217D01*
X157430264Y-70076217D01*
X157430256Y-70076218D01*
X157430253Y-70076218D01*
X157430239Y-70076220D01*
X157253709Y-70107083D01*
X157253697Y-70107085D01*
X157210195Y-70119680D01*
X157210188Y-70119682D01*
X157044194Y-70188015D01*
X157044177Y-70188023D01*
X157004437Y-70209692D01*
X157004432Y-70209695D01*
X156857092Y-70312223D01*
X156857078Y-70312234D01*
X156822927Y-70341987D01*
X156822923Y-70341990D01*
X156701163Y-70473899D01*
X156674240Y-70510309D01*
X156674232Y-70510320D01*
X156602198Y-70633833D01*
X156555812Y-70675232D01*
X156493950Y-70681460D01*
X156440243Y-70650137D01*
X156415204Y-70593227D01*
X156418127Y-70557110D01*
X156423699Y-70536316D01*
X156423700Y-70536312D01*
X156423700Y-70403687D01*
X156423699Y-70403684D01*
X156407167Y-70341987D01*
X156389373Y-70275579D01*
X156323060Y-70160721D01*
X156229279Y-70066940D01*
X156229276Y-70066938D01*
X156114424Y-70000628D01*
X156114421Y-70000627D01*
X156080099Y-69991430D01*
X155986315Y-69966300D01*
X155986313Y-69966300D01*
X155853687Y-69966300D01*
X155853684Y-69966300D01*
X155725575Y-70000628D01*
X155610723Y-70066938D01*
X155610722Y-70066939D01*
X155610721Y-70066940D01*
X155516940Y-70160721D01*
X155516939Y-70160722D01*
X155516938Y-70160723D01*
X155450628Y-70275575D01*
X155416300Y-70403684D01*
X155416300Y-70536315D01*
X155450628Y-70664424D01*
X155516938Y-70779276D01*
X155516940Y-70779279D01*
X155521293Y-70783632D01*
X155524070Y-70789083D01*
X155529160Y-70792484D01*
X155537967Y-70816358D01*
X155549518Y-70839028D01*
X155548560Y-70845072D01*
X155550679Y-70850815D01*
X155543772Y-70875305D01*
X155539792Y-70900436D01*
X155533803Y-70910655D01*
X155502797Y-70957059D01*
X155453971Y-70995551D01*
X155391844Y-70997992D01*
X155340148Y-70963450D01*
X155335506Y-70957060D01*
X155302435Y-70907567D01*
X155302433Y-70907565D01*
X155231349Y-70860068D01*
X155168664Y-70847600D01*
X155155000Y-70847600D01*
X155155000Y-71402399D01*
X155168664Y-71402399D01*
X155231349Y-71389930D01*
X155302433Y-71342433D01*
X155335503Y-71292940D01*
X155384329Y-71254448D01*
X155446455Y-71252005D01*
X155498152Y-71286547D01*
X155502788Y-71292927D01*
X155560581Y-71379419D01*
X155648634Y-71438255D01*
X155726282Y-71453700D01*
X155826726Y-71453700D01*
X156473665Y-71453700D01*
X156532796Y-71472913D01*
X156568964Y-71522075D01*
X156572593Y-71532807D01*
X156572596Y-71532817D01*
X156590843Y-71572510D01*
X156664117Y-71695938D01*
X156681811Y-71725744D01*
X156707917Y-71760765D01*
X156760784Y-71818037D01*
X156828793Y-71891714D01*
X156828799Y-71891720D01*
X156861608Y-71920526D01*
X156861616Y-71920532D01*
X157007100Y-72023451D01*
X157007103Y-72023453D01*
X157007105Y-72023454D01*
X157045199Y-72044805D01*
X157045201Y-72044806D01*
X157045205Y-72044808D01*
X157208925Y-72115189D01*
X157208931Y-72115190D01*
X157208936Y-72115193D01*
X157248573Y-72127504D01*
X157250639Y-72128146D01*
X157425339Y-72162891D01*
X157466049Y-72166900D01*
X158148900Y-72166900D01*
X158208031Y-72186113D01*
X158244576Y-72236413D01*
X158249500Y-72267500D01*
X158249500Y-72512500D01*
X158230287Y-72571631D01*
X158179987Y-72608176D01*
X158148900Y-72613100D01*
X157466190Y-72613100D01*
X157430267Y-72616217D01*
X157430264Y-72616217D01*
X157430256Y-72616218D01*
X157430253Y-72616218D01*
X157430239Y-72616220D01*
X157253709Y-72647083D01*
X157253697Y-72647085D01*
X157210195Y-72659680D01*
X157210188Y-72659682D01*
X157044194Y-72728015D01*
X157044177Y-72728023D01*
X157004437Y-72749692D01*
X157004432Y-72749695D01*
X156857092Y-72852223D01*
X156857078Y-72852234D01*
X156822927Y-72881987D01*
X156822923Y-72881990D01*
X156701163Y-73013899D01*
X156674241Y-73050308D01*
X156583794Y-73205391D01*
X156565363Y-73246743D01*
X156565358Y-73246758D01*
X156563853Y-73251447D01*
X156527487Y-73301877D01*
X156468424Y-73321299D01*
X156468067Y-73321300D01*
X156013718Y-73321300D01*
X155726282Y-73321300D01*
X155707003Y-73325134D01*
X155648636Y-73336744D01*
X155648634Y-73336744D01*
X155648634Y-73336745D01*
X155634334Y-73346300D01*
X155560579Y-73395582D01*
X155502796Y-73482060D01*
X155453970Y-73520551D01*
X155391843Y-73522992D01*
X155340148Y-73488449D01*
X155335506Y-73482060D01*
X155302435Y-73432567D01*
X155302433Y-73432565D01*
X155231349Y-73385068D01*
X155168664Y-73372600D01*
X155155000Y-73372600D01*
X155155000Y-73927399D01*
X155168664Y-73927399D01*
X155231349Y-73914930D01*
X155302433Y-73867433D01*
X155335503Y-73817940D01*
X155338726Y-73815398D01*
X155340147Y-73811549D01*
X155362869Y-73796365D01*
X155384329Y-73779448D01*
X155388428Y-73779286D01*
X155391842Y-73777006D01*
X155419147Y-73778078D01*
X155446455Y-73777005D01*
X155449868Y-73779285D01*
X155453969Y-73779447D01*
X155475427Y-73796363D01*
X155498152Y-73811547D01*
X155502795Y-73817938D01*
X155519783Y-73843362D01*
X155536660Y-73903202D01*
X155515141Y-73961533D01*
X155507274Y-73970387D01*
X155466938Y-74010723D01*
X155400628Y-74125575D01*
X155366300Y-74253684D01*
X155366300Y-74386315D01*
X155400628Y-74514424D01*
X155466938Y-74629276D01*
X155466940Y-74629279D01*
X155560721Y-74723060D01*
X155560723Y-74723061D01*
X155675575Y-74789371D01*
X155675576Y-74789371D01*
X155675579Y-74789373D01*
X155803687Y-74823700D01*
X155936313Y-74823700D01*
X156064421Y-74789373D01*
X156179279Y-74723060D01*
X156273060Y-74629279D01*
X156339373Y-74514421D01*
X156373700Y-74386313D01*
X156373700Y-74253687D01*
X156339373Y-74125579D01*
X156339371Y-74125575D01*
X156339371Y-74125574D01*
X156336848Y-74119482D01*
X156339077Y-74118558D01*
X156333141Y-74110387D01*
X156333141Y-74089352D01*
X156328769Y-74068778D01*
X156333141Y-74058960D01*
X156333141Y-74048213D01*
X156345504Y-74031196D01*
X156354061Y-74011981D01*
X156363368Y-74006607D01*
X156369686Y-73997913D01*
X156389689Y-73991413D01*
X156407907Y-73980897D01*
X156428817Y-73978700D01*
X156468594Y-73978700D01*
X156527725Y-73997913D01*
X156563894Y-74047079D01*
X156572591Y-74072803D01*
X156572596Y-74072817D01*
X156590843Y-74112510D01*
X156653107Y-74217392D01*
X156681811Y-74265744D01*
X156707917Y-74300765D01*
X156786884Y-74386312D01*
X156828793Y-74431714D01*
X156828799Y-74431720D01*
X156861608Y-74460526D01*
X156861616Y-74460532D01*
X157007100Y-74563451D01*
X157007103Y-74563453D01*
X157007105Y-74563454D01*
X157045199Y-74584805D01*
X157045201Y-74584806D01*
X157045205Y-74584808D01*
X157208925Y-74655189D01*
X157208931Y-74655190D01*
X157208936Y-74655193D01*
X157248573Y-74667504D01*
X157250639Y-74668146D01*
X157425339Y-74702891D01*
X157466049Y-74706900D01*
X158148900Y-74706900D01*
X158208031Y-74726113D01*
X158244576Y-74776413D01*
X158249500Y-74807500D01*
X158249500Y-75052500D01*
X158230287Y-75111631D01*
X158179987Y-75148176D01*
X158148900Y-75153100D01*
X157466190Y-75153100D01*
X157430267Y-75156217D01*
X157430264Y-75156217D01*
X157430256Y-75156218D01*
X157430253Y-75156218D01*
X157430239Y-75156220D01*
X157253709Y-75187083D01*
X157253697Y-75187085D01*
X157210195Y-75199680D01*
X157210188Y-75199682D01*
X157044194Y-75268015D01*
X157044177Y-75268023D01*
X157004437Y-75289692D01*
X157004432Y-75289695D01*
X156857092Y-75392223D01*
X156857078Y-75392234D01*
X156822927Y-75421987D01*
X156822923Y-75421990D01*
X156701163Y-75553899D01*
X156681281Y-75580787D01*
X156674239Y-75590311D01*
X156605725Y-75707787D01*
X156583794Y-75745391D01*
X156565360Y-75786751D01*
X156560646Y-75801441D01*
X156560534Y-75801596D01*
X156560534Y-75801787D01*
X156542408Y-75826735D01*
X156524283Y-75851873D01*
X156524100Y-75851932D01*
X156523989Y-75852087D01*
X156494602Y-75861635D01*
X156465222Y-75871299D01*
X156464858Y-75871300D01*
X156442558Y-75871300D01*
X156383427Y-75852087D01*
X156346882Y-75801787D01*
X156345386Y-75744662D01*
X156363699Y-75676316D01*
X156363700Y-75676312D01*
X156363700Y-75543687D01*
X156363699Y-75543684D01*
X156344759Y-75473000D01*
X156329373Y-75415579D01*
X156315888Y-75392223D01*
X156263061Y-75300723D01*
X156263060Y-75300721D01*
X156169279Y-75206940D01*
X156156708Y-75199682D01*
X156054424Y-75140628D01*
X156054421Y-75140627D01*
X156011451Y-75129113D01*
X155926315Y-75106300D01*
X155926313Y-75106300D01*
X155793687Y-75106300D01*
X155793684Y-75106300D01*
X155665575Y-75140628D01*
X155550723Y-75206938D01*
X155550722Y-75206939D01*
X155550721Y-75206940D01*
X155456940Y-75300721D01*
X155456939Y-75300722D01*
X155456938Y-75300723D01*
X155390628Y-75415575D01*
X155356300Y-75543684D01*
X155356300Y-75676315D01*
X155366053Y-75712710D01*
X155390627Y-75804421D01*
X155390628Y-75804422D01*
X155413444Y-75843942D01*
X155426370Y-75904757D01*
X155401081Y-75961556D01*
X155347236Y-75992643D01*
X155285402Y-75986143D01*
X155270431Y-75977887D01*
X155206348Y-75935068D01*
X155143664Y-75922600D01*
X155130000Y-75922600D01*
X155130000Y-76477399D01*
X155143664Y-76477399D01*
X155206349Y-76464930D01*
X155277433Y-76417433D01*
X155310503Y-76367940D01*
X155359329Y-76329448D01*
X155421455Y-76327005D01*
X155473152Y-76361547D01*
X155477788Y-76367927D01*
X155535581Y-76454419D01*
X155623634Y-76513255D01*
X155701282Y-76528700D01*
X155801726Y-76528700D01*
X156471975Y-76528700D01*
X156531106Y-76547913D01*
X156567275Y-76597079D01*
X156572591Y-76612803D01*
X156572596Y-76612817D01*
X156590843Y-76652510D01*
X156681808Y-76805739D01*
X156681811Y-76805744D01*
X156707917Y-76840765D01*
X156707919Y-76840767D01*
X156828793Y-76971714D01*
X156828799Y-76971720D01*
X156861608Y-77000526D01*
X156861616Y-77000532D01*
X157007100Y-77103451D01*
X157007103Y-77103453D01*
X157007105Y-77103454D01*
X157045199Y-77124805D01*
X157045201Y-77124806D01*
X157045205Y-77124808D01*
X157208925Y-77195189D01*
X157208931Y-77195190D01*
X157208936Y-77195193D01*
X157248573Y-77207504D01*
X157250639Y-77208146D01*
X157425339Y-77242891D01*
X157466049Y-77246900D01*
X158148900Y-77246900D01*
X158208031Y-77266113D01*
X158244576Y-77316413D01*
X158249500Y-77347500D01*
X158249500Y-77592500D01*
X158230287Y-77651631D01*
X158179987Y-77688176D01*
X158148900Y-77693100D01*
X157466190Y-77693100D01*
X157430267Y-77696217D01*
X157430264Y-77696217D01*
X157430256Y-77696218D01*
X157430253Y-77696218D01*
X157430239Y-77696220D01*
X157253709Y-77727083D01*
X157253697Y-77727085D01*
X157210195Y-77739680D01*
X157210188Y-77739682D01*
X157044194Y-77808015D01*
X157044177Y-77808023D01*
X157004437Y-77829692D01*
X157004432Y-77829695D01*
X156857092Y-77932223D01*
X156857078Y-77932234D01*
X156822927Y-77961987D01*
X156822923Y-77961990D01*
X156701163Y-78093899D01*
X156676623Y-78127087D01*
X156674239Y-78130311D01*
X156638792Y-78191090D01*
X156583794Y-78285391D01*
X156565363Y-78326743D01*
X156565359Y-78326754D01*
X156557437Y-78351441D01*
X156521074Y-78401873D01*
X156462013Y-78421299D01*
X156461649Y-78421300D01*
X156013718Y-78421300D01*
X155726282Y-78421300D01*
X155707003Y-78425134D01*
X155648636Y-78436744D01*
X155648634Y-78436744D01*
X155648634Y-78436745D01*
X155620941Y-78455249D01*
X155560579Y-78495582D01*
X155502796Y-78582060D01*
X155453970Y-78620551D01*
X155391843Y-78622992D01*
X155340148Y-78588449D01*
X155335506Y-78582060D01*
X155302435Y-78532567D01*
X155302433Y-78532565D01*
X155231349Y-78485068D01*
X155168664Y-78472600D01*
X155155000Y-78472600D01*
X155155000Y-79027399D01*
X155168664Y-79027399D01*
X155231349Y-79014930D01*
X155302433Y-78967433D01*
X155335503Y-78917940D01*
X155338086Y-78915903D01*
X155339176Y-78912800D01*
X155362277Y-78896832D01*
X155384329Y-78879448D01*
X155387615Y-78879318D01*
X155390322Y-78877448D01*
X155418396Y-78878108D01*
X155446455Y-78877005D01*
X155449190Y-78878832D01*
X155452479Y-78878910D01*
X155472203Y-78894209D01*
X155498152Y-78911547D01*
X155501905Y-78916628D01*
X155502357Y-78917282D01*
X155560581Y-79004419D01*
X155564307Y-79006909D01*
X155572255Y-79018407D01*
X155578681Y-79039891D01*
X155588861Y-79059871D01*
X155590100Y-79075608D01*
X155590100Y-79402392D01*
X155570887Y-79461523D01*
X155560635Y-79473527D01*
X155343527Y-79690635D01*
X155288129Y-79718861D01*
X155272392Y-79720100D01*
X154554300Y-79720100D01*
X154495169Y-79700887D01*
X154458624Y-79650587D01*
X154453700Y-79619500D01*
X154453699Y-79383392D01*
X154453699Y-79383386D01*
X154452417Y-79372327D01*
X154450998Y-79360092D01*
X154450997Y-79360090D01*
X154450997Y-79360086D01*
X154420330Y-79290633D01*
X154414022Y-79228781D01*
X154420331Y-79209365D01*
X154450997Y-79139914D01*
X154453700Y-79116615D01*
X154453699Y-78883386D01*
X154452727Y-78875000D01*
X154705823Y-78875000D01*
X154710068Y-78896348D01*
X154710069Y-78896351D01*
X154757565Y-78967433D01*
X154757566Y-78967434D01*
X154828650Y-79014931D01*
X154891333Y-79027399D01*
X154891338Y-79027399D01*
X154905000Y-79027398D01*
X154905000Y-78875000D01*
X154705823Y-78875000D01*
X154452727Y-78875000D01*
X154450997Y-78860086D01*
X154420330Y-78790633D01*
X154414022Y-78728781D01*
X154420331Y-78709365D01*
X154424148Y-78700721D01*
X154450997Y-78639914D01*
X154452727Y-78625000D01*
X154705822Y-78625000D01*
X154905000Y-78625000D01*
X154905000Y-78472599D01*
X154904999Y-78472599D01*
X154891336Y-78472600D01*
X154891335Y-78472600D01*
X154828650Y-78485069D01*
X154757565Y-78532566D01*
X154710068Y-78603651D01*
X154705822Y-78625000D01*
X154452727Y-78625000D01*
X154453700Y-78616615D01*
X154453699Y-78383386D01*
X154450997Y-78360086D01*
X154436279Y-78326754D01*
X154408910Y-78264768D01*
X154335231Y-78191089D01*
X154239914Y-78149003D01*
X154216618Y-78146300D01*
X154216615Y-78146300D01*
X153583808Y-78146300D01*
X153524677Y-78127087D01*
X153512673Y-78116835D01*
X152489365Y-77093527D01*
X152461139Y-77038129D01*
X152459900Y-77022392D01*
X152459900Y-76325000D01*
X154680823Y-76325000D01*
X154685068Y-76346348D01*
X154685069Y-76346351D01*
X154732565Y-76417433D01*
X154732566Y-76417434D01*
X154803650Y-76464931D01*
X154866333Y-76477399D01*
X154866338Y-76477399D01*
X154880000Y-76477398D01*
X154880000Y-76325000D01*
X154680823Y-76325000D01*
X152459900Y-76325000D01*
X152459900Y-76075000D01*
X154680822Y-76075000D01*
X154880000Y-76075000D01*
X154880000Y-75922599D01*
X154879999Y-75922599D01*
X154866336Y-75922600D01*
X154866335Y-75922600D01*
X154803650Y-75935069D01*
X154732565Y-75982566D01*
X154685068Y-76053651D01*
X154680822Y-76075000D01*
X152459900Y-76075000D01*
X152459900Y-73775000D01*
X154705823Y-73775000D01*
X154710068Y-73796348D01*
X154710069Y-73796351D01*
X154757565Y-73867433D01*
X154757566Y-73867434D01*
X154828650Y-73914931D01*
X154891333Y-73927399D01*
X154891338Y-73927399D01*
X154905000Y-73927398D01*
X154905000Y-73775000D01*
X154705823Y-73775000D01*
X152459900Y-73775000D01*
X152459900Y-73525000D01*
X154705822Y-73525000D01*
X154905000Y-73525000D01*
X154905000Y-73372599D01*
X154904999Y-73372599D01*
X154891336Y-73372600D01*
X154891335Y-73372600D01*
X154828650Y-73385069D01*
X154757565Y-73432566D01*
X154710068Y-73503651D01*
X154705822Y-73525000D01*
X152459900Y-73525000D01*
X152459900Y-71250000D01*
X154705823Y-71250000D01*
X154710068Y-71271348D01*
X154710069Y-71271351D01*
X154757565Y-71342433D01*
X154757566Y-71342434D01*
X154828650Y-71389931D01*
X154891333Y-71402399D01*
X154891338Y-71402399D01*
X154905000Y-71402398D01*
X154905000Y-71250000D01*
X154705823Y-71250000D01*
X152459900Y-71250000D01*
X152459900Y-71000000D01*
X154705822Y-71000000D01*
X154905000Y-71000000D01*
X154905000Y-70847599D01*
X154904999Y-70847599D01*
X154891336Y-70847600D01*
X154891335Y-70847600D01*
X154828650Y-70860069D01*
X154757565Y-70907566D01*
X154710068Y-70978651D01*
X154705822Y-71000000D01*
X152459900Y-71000000D01*
X152459900Y-70217608D01*
X152479113Y-70158477D01*
X152489365Y-70146473D01*
X152986473Y-69649365D01*
X153041871Y-69621139D01*
X153057608Y-69619900D01*
X155141850Y-69619900D01*
X155213037Y-69600825D01*
X155276862Y-69563976D01*
X155907674Y-68933165D01*
X155963072Y-68904939D01*
X155978809Y-68903700D01*
X156470285Y-68903700D01*
X156529416Y-68922913D01*
G37*
%TD.AperFunction*%
%TA.AperFunction,Conductor*%
G36*
X146355323Y-76547913D02*
G01*
X146367327Y-76558165D01*
X147565435Y-77756273D01*
X147593661Y-77811671D01*
X147594900Y-77827408D01*
X147594900Y-78396118D01*
X147575687Y-78455249D01*
X147525387Y-78491794D01*
X147463213Y-78491794D01*
X147455779Y-78488189D01*
X147455502Y-78488860D01*
X147446350Y-78485069D01*
X147383664Y-78472600D01*
X147370000Y-78472600D01*
X147370000Y-79027399D01*
X147383664Y-79027399D01*
X147446350Y-79014930D01*
X147455508Y-79011138D01*
X147457102Y-79014989D01*
X147498044Y-79003352D01*
X147556419Y-79024752D01*
X147591067Y-79076377D01*
X147594900Y-79103882D01*
X147594900Y-79301192D01*
X147575687Y-79360323D01*
X147525387Y-79396868D01*
X147463213Y-79396868D01*
X147423165Y-79372327D01*
X147149465Y-79098627D01*
X147121239Y-79043229D01*
X147120000Y-79027492D01*
X147120000Y-78472599D01*
X147119999Y-78472599D01*
X147106336Y-78472600D01*
X147106335Y-78472600D01*
X147043650Y-78485069D01*
X146972565Y-78532567D01*
X146939495Y-78582060D01*
X146890668Y-78620552D01*
X146828542Y-78622993D01*
X146776846Y-78588451D01*
X146772214Y-78582077D01*
X146714419Y-78495581D01*
X146626366Y-78436745D01*
X146626363Y-78436744D01*
X146574364Y-78426401D01*
X146548718Y-78421300D01*
X146548717Y-78421300D01*
X145798351Y-78421300D01*
X145739220Y-78402087D01*
X145702675Y-78351787D01*
X145702563Y-78351441D01*
X145697908Y-78336938D01*
X145694639Y-78326750D01*
X145676202Y-78285384D01*
X145585761Y-78130311D01*
X145558835Y-78093897D01*
X145437071Y-77961985D01*
X145402922Y-77932234D01*
X145402913Y-77932227D01*
X145402907Y-77932223D01*
X145255567Y-77829695D01*
X145255562Y-77829692D01*
X145215822Y-77808023D01*
X145215805Y-77808015D01*
X145049811Y-77739682D01*
X145049807Y-77739680D01*
X145049805Y-77739680D01*
X145028053Y-77733382D01*
X145006302Y-77727085D01*
X145006290Y-77727083D01*
X144829760Y-77696220D01*
X144829748Y-77696218D01*
X144829744Y-77696218D01*
X144827458Y-77696019D01*
X144793810Y-77693100D01*
X144793803Y-77693100D01*
X144111100Y-77693100D01*
X144051969Y-77673887D01*
X144015424Y-77623587D01*
X144010500Y-77592500D01*
X144010500Y-77347500D01*
X144029713Y-77288369D01*
X144080013Y-77251824D01*
X144111100Y-77246900D01*
X144793951Y-77246900D01*
X144834661Y-77242891D01*
X145009361Y-77208146D01*
X145032535Y-77200947D01*
X145051063Y-77195193D01*
X145051065Y-77195192D01*
X145051075Y-77195189D01*
X145214795Y-77124808D01*
X145252900Y-77103451D01*
X145398384Y-77000532D01*
X145431209Y-76971712D01*
X145552083Y-76840765D01*
X145578189Y-76805744D01*
X145669159Y-76652505D01*
X145687404Y-76612816D01*
X145692725Y-76597079D01*
X145729865Y-76547216D01*
X145788025Y-76528700D01*
X146261282Y-76528700D01*
X146296192Y-76528700D01*
X146355323Y-76547913D01*
G37*
%TD.AperFunction*%
%TA.AperFunction,Conductor*%
G36*
X146083631Y-74007913D02*
G01*
X146120176Y-74058213D01*
X146125100Y-74089300D01*
X146125100Y-74338150D01*
X146125100Y-74411850D01*
X146144175Y-74483037D01*
X146181024Y-74546862D01*
X146688138Y-75053976D01*
X146751962Y-75090825D01*
X146823150Y-75109900D01*
X146896850Y-75109900D01*
X147672392Y-75109900D01*
X147680112Y-75112408D01*
X147688129Y-75111139D01*
X147709117Y-75121833D01*
X147731523Y-75129113D01*
X147743527Y-75139365D01*
X147870635Y-75266473D01*
X147898861Y-75321871D01*
X147900100Y-75337608D01*
X147900100Y-77056392D01*
X147880887Y-77115523D01*
X147830587Y-77152068D01*
X147768413Y-77152068D01*
X147728365Y-77127527D01*
X147149465Y-76548627D01*
X147121239Y-76493229D01*
X147120000Y-76477492D01*
X147120000Y-76477399D01*
X147370000Y-76477399D01*
X147383664Y-76477399D01*
X147446349Y-76464930D01*
X147517434Y-76417433D01*
X147564931Y-76346348D01*
X147569178Y-76325000D01*
X147370000Y-76325000D01*
X147370000Y-76477399D01*
X147120000Y-76477399D01*
X147120000Y-76075000D01*
X147370000Y-76075000D01*
X147569176Y-76075000D01*
X147564931Y-76053651D01*
X147564930Y-76053648D01*
X147517434Y-75982566D01*
X147517433Y-75982565D01*
X147446349Y-75935068D01*
X147383664Y-75922600D01*
X147370000Y-75922600D01*
X147370000Y-76075000D01*
X147120000Y-76075000D01*
X147120000Y-75922599D01*
X147119999Y-75922599D01*
X147106336Y-75922600D01*
X147106335Y-75922600D01*
X147043650Y-75935069D01*
X146972565Y-75982567D01*
X146939495Y-76032060D01*
X146890668Y-76070552D01*
X146828542Y-76072993D01*
X146776846Y-76038451D01*
X146772214Y-76032077D01*
X146714419Y-75945581D01*
X146626366Y-75886745D01*
X146626363Y-75886744D01*
X146574364Y-75876401D01*
X146548718Y-75871300D01*
X146548717Y-75871300D01*
X145795142Y-75871300D01*
X145736011Y-75852087D01*
X145699466Y-75801787D01*
X145699354Y-75801441D01*
X145694639Y-75786751D01*
X145676205Y-75745391D01*
X145676202Y-75745384D01*
X145585761Y-75590311D01*
X145558835Y-75553897D01*
X145437071Y-75421985D01*
X145402922Y-75392234D01*
X145402913Y-75392227D01*
X145402907Y-75392223D01*
X145255567Y-75289695D01*
X145255562Y-75289692D01*
X145215822Y-75268023D01*
X145215805Y-75268015D01*
X145049811Y-75199682D01*
X145049807Y-75199680D01*
X145049805Y-75199680D01*
X145028053Y-75193382D01*
X145006302Y-75187085D01*
X145006290Y-75187083D01*
X144829760Y-75156220D01*
X144829748Y-75156218D01*
X144829744Y-75156218D01*
X144827458Y-75156019D01*
X144793810Y-75153100D01*
X144793803Y-75153100D01*
X144111100Y-75153100D01*
X144051969Y-75133887D01*
X144015424Y-75083587D01*
X144010500Y-75052500D01*
X144010500Y-74807500D01*
X144029713Y-74748369D01*
X144080013Y-74711824D01*
X144111100Y-74706900D01*
X144793951Y-74706900D01*
X144834661Y-74702891D01*
X145009361Y-74668146D01*
X145032535Y-74660947D01*
X145051063Y-74655193D01*
X145051065Y-74655192D01*
X145051075Y-74655189D01*
X145214795Y-74584808D01*
X145252900Y-74563451D01*
X145398384Y-74460532D01*
X145431209Y-74431712D01*
X145552083Y-74300765D01*
X145578189Y-74265744D01*
X145669159Y-74112505D01*
X145687404Y-74072816D01*
X145692725Y-74057079D01*
X145729865Y-74007216D01*
X145788025Y-73988700D01*
X146024500Y-73988700D01*
X146083631Y-74007913D01*
G37*
%TD.AperFunction*%
%TA.AperFunction,Conductor*%
G36*
X156623238Y-67795550D02*
G01*
X156639583Y-67795687D01*
X156652065Y-67804916D01*
X156666826Y-67809713D01*
X156676432Y-67822934D01*
X156689575Y-67832653D01*
X156694247Y-67847456D01*
X156703371Y-67860013D01*
X156703371Y-67876357D01*
X156708291Y-67891943D01*
X156703371Y-67906664D01*
X156703371Y-67922187D01*
X156688584Y-67950911D01*
X156674240Y-67970309D01*
X156583794Y-68125391D01*
X156565363Y-68166743D01*
X156565357Y-68166758D01*
X156562251Y-68176440D01*
X156525889Y-68226872D01*
X156466828Y-68246299D01*
X156466463Y-68246300D01*
X156013718Y-68246300D01*
X155726282Y-68246300D01*
X155710863Y-68249367D01*
X155648636Y-68261744D01*
X155648634Y-68261744D01*
X155648634Y-68261745D01*
X155604607Y-68291163D01*
X155560579Y-68320582D01*
X155502796Y-68407060D01*
X155453970Y-68445551D01*
X155391843Y-68447992D01*
X155340148Y-68413449D01*
X155335506Y-68407060D01*
X155302435Y-68357567D01*
X155302433Y-68357565D01*
X155231349Y-68310068D01*
X155168664Y-68297600D01*
X155155000Y-68297600D01*
X155155000Y-68852490D01*
X155135787Y-68911621D01*
X155125536Y-68923624D01*
X155018528Y-69030634D01*
X154963130Y-69058861D01*
X154947392Y-69060100D01*
X152936850Y-69060100D01*
X152863150Y-69060100D01*
X152791963Y-69079175D01*
X152791961Y-69079175D01*
X152791961Y-69079176D01*
X152728140Y-69116022D01*
X151956022Y-69888140D01*
X151919176Y-69951960D01*
X151900573Y-70021383D01*
X151866709Y-70073525D01*
X151808664Y-70095805D01*
X151748608Y-70079712D01*
X151721886Y-70050029D01*
X151720328Y-70051162D01*
X151715674Y-70044757D01*
X151715672Y-70044755D01*
X151715671Y-70044753D01*
X151625247Y-69954329D01*
X151625244Y-69954327D01*
X151625243Y-69954326D01*
X151625244Y-69954326D01*
X151511308Y-69896274D01*
X151511303Y-69896272D01*
X151416774Y-69881300D01*
X151416770Y-69881300D01*
X150803230Y-69881300D01*
X150803225Y-69881300D01*
X150708696Y-69896272D01*
X150708691Y-69896274D01*
X150594754Y-69954327D01*
X150568388Y-69980693D01*
X150512990Y-70008919D01*
X150471217Y-70006729D01*
X150376318Y-69981300D01*
X150376313Y-69981300D01*
X150243687Y-69981300D01*
X150243681Y-69981300D01*
X150148781Y-70006729D01*
X150086692Y-70003475D01*
X150051611Y-69980693D01*
X150025247Y-69954329D01*
X150025244Y-69954327D01*
X150025243Y-69954326D01*
X150025244Y-69954326D01*
X149911308Y-69896274D01*
X149911303Y-69896272D01*
X149816774Y-69881300D01*
X149816770Y-69881300D01*
X149203230Y-69881300D01*
X149203225Y-69881300D01*
X149108696Y-69896272D01*
X149108691Y-69896274D01*
X148994756Y-69954326D01*
X148904326Y-70044756D01*
X148846274Y-70158691D01*
X148846272Y-70158696D01*
X148831300Y-70253225D01*
X148831300Y-70716774D01*
X148846272Y-70811303D01*
X148846274Y-70811308D01*
X148904326Y-70925243D01*
X148904327Y-70925244D01*
X148904329Y-70925247D01*
X148994753Y-71015671D01*
X148994755Y-71015672D01*
X148994756Y-71015673D01*
X149108691Y-71073725D01*
X149108695Y-71073727D01*
X149203226Y-71088699D01*
X149203228Y-71088700D01*
X149203230Y-71088700D01*
X149816772Y-71088700D01*
X149816772Y-71088699D01*
X149911305Y-71073727D01*
X150025247Y-71015671D01*
X150051610Y-70989307D01*
X150107006Y-70961081D01*
X150148782Y-70963269D01*
X150243687Y-70988700D01*
X150376313Y-70988700D01*
X150471217Y-70963270D01*
X150533305Y-70966523D01*
X150568388Y-70989306D01*
X150594753Y-71015671D01*
X150594755Y-71015672D01*
X150594756Y-71015673D01*
X150594755Y-71015673D01*
X150708691Y-71073725D01*
X150708695Y-71073727D01*
X150803226Y-71088699D01*
X150803228Y-71088700D01*
X150803230Y-71088700D01*
X151416772Y-71088700D01*
X151416772Y-71088699D01*
X151511305Y-71073727D01*
X151625247Y-71015671D01*
X151715671Y-70925247D01*
X151715673Y-70925241D01*
X151718115Y-70921883D01*
X151768417Y-70885339D01*
X151830591Y-70885342D01*
X151880889Y-70921889D01*
X151900100Y-70981017D01*
X151900100Y-71638982D01*
X151880887Y-71698113D01*
X151830587Y-71734658D01*
X151768413Y-71734658D01*
X151718118Y-71698120D01*
X151715674Y-71694757D01*
X151715672Y-71694755D01*
X151715671Y-71694753D01*
X151625247Y-71604329D01*
X151625244Y-71604327D01*
X151625243Y-71604326D01*
X151625244Y-71604326D01*
X151511308Y-71546274D01*
X151511303Y-71546272D01*
X151416774Y-71531300D01*
X151416770Y-71531300D01*
X150803230Y-71531300D01*
X150803225Y-71531300D01*
X150708696Y-71546272D01*
X150708691Y-71546274D01*
X150594756Y-71604326D01*
X150504326Y-71694756D01*
X150446274Y-71808691D01*
X150446272Y-71808696D01*
X150431300Y-71903225D01*
X150431300Y-72366774D01*
X150446272Y-72461303D01*
X150446274Y-72461308D01*
X150504326Y-72575243D01*
X150504327Y-72575244D01*
X150504329Y-72575247D01*
X150594753Y-72665671D01*
X150594755Y-72665672D01*
X150594756Y-72665673D01*
X150690558Y-72714486D01*
X150708695Y-72723727D01*
X150803226Y-72738699D01*
X150803228Y-72738700D01*
X150803230Y-72738700D01*
X151416772Y-72738700D01*
X151416772Y-72738699D01*
X151511305Y-72723727D01*
X151625247Y-72665671D01*
X151715671Y-72575247D01*
X151715673Y-72575241D01*
X151718115Y-72571883D01*
X151768417Y-72535339D01*
X151830591Y-72535342D01*
X151880889Y-72571889D01*
X151900100Y-72631017D01*
X151900100Y-76431296D01*
X151880887Y-76490427D01*
X151830587Y-76526972D01*
X151768413Y-76526972D01*
X151718113Y-76490427D01*
X151706996Y-76470835D01*
X151683919Y-76416844D01*
X151683918Y-76416843D01*
X151683918Y-76416842D01*
X151647373Y-76366542D01*
X151622756Y-76338366D01*
X151543023Y-76290728D01*
X151520350Y-76283361D01*
X151483891Y-76271514D01*
X151419404Y-76261300D01*
X151419400Y-76261300D01*
X151365293Y-76261300D01*
X151306162Y-76242087D01*
X151269617Y-76191787D01*
X151269617Y-76129613D01*
X151294158Y-76089565D01*
X151336394Y-76047328D01*
X151391711Y-75934176D01*
X151391713Y-75934170D01*
X151402399Y-75860816D01*
X151402400Y-75860816D01*
X151402400Y-75727000D01*
X150147601Y-75727000D01*
X150147601Y-75860817D01*
X150158287Y-75934171D01*
X150158288Y-75934176D01*
X150213606Y-76047329D01*
X150255842Y-76089565D01*
X150284068Y-76144963D01*
X150274342Y-76206371D01*
X150230378Y-76250335D01*
X150184707Y-76261300D01*
X149790293Y-76261300D01*
X149731162Y-76242087D01*
X149694617Y-76191787D01*
X149694617Y-76129613D01*
X149719158Y-76089565D01*
X149761394Y-76047328D01*
X149816711Y-75934176D01*
X149816713Y-75934170D01*
X149827399Y-75860816D01*
X149827400Y-75860816D01*
X149827400Y-75727000D01*
X149300600Y-75727000D01*
X149285446Y-75722076D01*
X149269513Y-75722076D01*
X149256622Y-75712710D01*
X149241469Y-75707787D01*
X149232103Y-75694896D01*
X149219213Y-75685531D01*
X149214289Y-75670377D01*
X149204924Y-75657487D01*
X149200000Y-75626400D01*
X149200000Y-75600000D01*
X149173600Y-75600000D01*
X149114469Y-75580787D01*
X149077924Y-75530487D01*
X149073000Y-75499400D01*
X149073000Y-75473000D01*
X149327000Y-75473000D01*
X149827399Y-75473000D01*
X149827399Y-75339186D01*
X149827398Y-75339183D01*
X150147600Y-75339183D01*
X150147600Y-75473000D01*
X150648000Y-75473000D01*
X150902000Y-75473000D01*
X151402399Y-75473000D01*
X151402399Y-75339186D01*
X151402398Y-75339182D01*
X151391712Y-75265828D01*
X151391711Y-75265823D01*
X151336393Y-75152670D01*
X151247328Y-75063605D01*
X151134176Y-75008288D01*
X151134170Y-75008286D01*
X151060817Y-74997600D01*
X150902000Y-74997600D01*
X150902000Y-75473000D01*
X150648000Y-75473000D01*
X150648000Y-74997600D01*
X150489186Y-74997600D01*
X150489182Y-74997601D01*
X150415828Y-75008287D01*
X150415823Y-75008288D01*
X150302670Y-75063606D01*
X150213605Y-75152671D01*
X150158288Y-75265823D01*
X150158286Y-75265829D01*
X150147600Y-75339183D01*
X149827398Y-75339183D01*
X149827398Y-75339181D01*
X149816712Y-75265828D01*
X149816711Y-75265823D01*
X149761393Y-75152670D01*
X149672328Y-75063605D01*
X149559176Y-75008288D01*
X149559170Y-75008286D01*
X149485817Y-74997600D01*
X149327000Y-74997600D01*
X149327000Y-75473000D01*
X149073000Y-75473000D01*
X149073000Y-74997600D01*
X148914188Y-74997600D01*
X148890400Y-75001066D01*
X148829117Y-74990576D01*
X148785704Y-74946069D01*
X148775300Y-74901516D01*
X148775300Y-72722207D01*
X148777808Y-72714486D01*
X148776539Y-72706470D01*
X148787233Y-72685481D01*
X148794513Y-72663076D01*
X148804760Y-72651077D01*
X148821326Y-72634511D01*
X148876723Y-72606286D01*
X148938131Y-72616012D01*
X148963591Y-72634509D01*
X148994753Y-72665671D01*
X148994755Y-72665672D01*
X148994756Y-72665673D01*
X149090558Y-72714486D01*
X149108695Y-72723727D01*
X149203226Y-72738699D01*
X149203228Y-72738700D01*
X149203230Y-72738700D01*
X149816772Y-72738700D01*
X149816772Y-72738699D01*
X149911305Y-72723727D01*
X150025247Y-72665671D01*
X150115671Y-72575247D01*
X150173727Y-72461305D01*
X150188700Y-72366770D01*
X150188700Y-71903230D01*
X150173727Y-71808695D01*
X150137506Y-71737607D01*
X150115673Y-71694756D01*
X150115672Y-71694755D01*
X150115671Y-71694753D01*
X150025247Y-71604329D01*
X150025244Y-71604327D01*
X150025243Y-71604326D01*
X150025244Y-71604326D01*
X149911308Y-71546274D01*
X149911303Y-71546272D01*
X149816774Y-71531300D01*
X149816770Y-71531300D01*
X149203230Y-71531300D01*
X149203225Y-71531300D01*
X149108696Y-71546272D01*
X149108691Y-71546274D01*
X148994756Y-71604326D01*
X148904326Y-71694756D01*
X148846272Y-71808694D01*
X148846271Y-71808697D01*
X148845312Y-71814753D01*
X148817082Y-71870148D01*
X148796253Y-71886131D01*
X148753140Y-71911022D01*
X148571134Y-72093027D01*
X148515736Y-72121254D01*
X148454327Y-72111527D01*
X148428867Y-72093029D01*
X148411862Y-72076024D01*
X148348037Y-72039175D01*
X148276850Y-72020100D01*
X147267608Y-72020100D01*
X147208477Y-72000887D01*
X147196473Y-71990635D01*
X146829365Y-71623527D01*
X146805204Y-71584625D01*
X146799900Y-71568943D01*
X146799900Y-71543150D01*
X146780825Y-71471963D01*
X146747678Y-71414551D01*
X146744485Y-71405109D01*
X146744225Y-71383501D01*
X146739732Y-71362359D01*
X146743835Y-71351007D01*
X146743739Y-71342939D01*
X146749893Y-71334250D01*
X146756134Y-71316988D01*
X146772204Y-71292937D01*
X146821029Y-71254448D01*
X146883155Y-71252007D01*
X146934851Y-71286549D01*
X146939493Y-71292939D01*
X146972564Y-71342432D01*
X146972566Y-71342434D01*
X147043650Y-71389931D01*
X147106333Y-71402399D01*
X147106338Y-71402399D01*
X147370000Y-71402399D01*
X147383664Y-71402399D01*
X147446349Y-71389930D01*
X147517434Y-71342433D01*
X147564931Y-71271348D01*
X147569178Y-71250000D01*
X147370000Y-71250000D01*
X147370000Y-71402399D01*
X147106338Y-71402399D01*
X147120000Y-71402398D01*
X147120000Y-71000000D01*
X147370000Y-71000000D01*
X147569176Y-71000000D01*
X147564931Y-70978651D01*
X147564930Y-70978648D01*
X147517434Y-70907566D01*
X147517433Y-70907565D01*
X147446349Y-70860068D01*
X147383664Y-70847600D01*
X147370000Y-70847600D01*
X147370000Y-71000000D01*
X147120000Y-71000000D01*
X147120000Y-70847599D01*
X147119999Y-70847599D01*
X147106336Y-70847600D01*
X147106335Y-70847600D01*
X147043650Y-70860069D01*
X146972565Y-70907567D01*
X146939495Y-70957060D01*
X146890668Y-70995552D01*
X146828542Y-70997993D01*
X146776846Y-70963451D01*
X146772214Y-70957077D01*
X146714419Y-70870581D01*
X146626366Y-70811745D01*
X146626363Y-70811744D01*
X146574364Y-70801401D01*
X146548718Y-70796300D01*
X146548717Y-70796300D01*
X146475179Y-70796300D01*
X146449141Y-70792872D01*
X146443276Y-70791300D01*
X146443274Y-70791300D01*
X145795142Y-70791300D01*
X145736011Y-70772087D01*
X145699466Y-70721787D01*
X145699354Y-70721441D01*
X145694639Y-70706751D01*
X145676205Y-70665391D01*
X145676202Y-70665384D01*
X145585761Y-70510311D01*
X145558835Y-70473897D01*
X145437071Y-70341985D01*
X145402922Y-70312234D01*
X145402913Y-70312227D01*
X145402907Y-70312223D01*
X145255567Y-70209695D01*
X145255562Y-70209692D01*
X145215822Y-70188023D01*
X145215805Y-70188015D01*
X145049811Y-70119682D01*
X145049807Y-70119680D01*
X145049805Y-70119680D01*
X145028053Y-70113382D01*
X145006302Y-70107085D01*
X145006290Y-70107083D01*
X144829760Y-70076220D01*
X144829748Y-70076218D01*
X144829744Y-70076218D01*
X144827458Y-70076019D01*
X144793810Y-70073100D01*
X144793803Y-70073100D01*
X144111100Y-70073100D01*
X144051969Y-70053887D01*
X144015424Y-70003587D01*
X144010500Y-69972500D01*
X144010500Y-69727500D01*
X144029713Y-69668369D01*
X144080013Y-69631824D01*
X144111100Y-69626900D01*
X144793951Y-69626900D01*
X144834661Y-69622891D01*
X145009361Y-69588146D01*
X145032535Y-69580947D01*
X145051063Y-69575193D01*
X145051065Y-69575192D01*
X145051075Y-69575189D01*
X145214795Y-69504808D01*
X145252900Y-69483451D01*
X145398384Y-69380532D01*
X145431209Y-69351712D01*
X145552083Y-69220765D01*
X145578189Y-69185744D01*
X145669159Y-69032505D01*
X145687404Y-68992816D01*
X145692725Y-68977079D01*
X145710955Y-68952603D01*
X145728894Y-68927913D01*
X145729490Y-68927719D01*
X145729865Y-68927216D01*
X145788025Y-68908700D01*
X145944692Y-68908700D01*
X146003823Y-68927913D01*
X146040368Y-68978213D01*
X146040368Y-69040387D01*
X146031814Y-69059600D01*
X145970628Y-69165575D01*
X145936300Y-69293684D01*
X145936300Y-69426315D01*
X145970628Y-69554424D01*
X146036938Y-69669276D01*
X146036940Y-69669279D01*
X146130721Y-69763060D01*
X146130723Y-69763061D01*
X146245575Y-69829371D01*
X146245576Y-69829371D01*
X146245579Y-69829373D01*
X146373687Y-69863700D01*
X146506313Y-69863700D01*
X146634421Y-69829373D01*
X146749279Y-69763060D01*
X146843060Y-69669279D01*
X146909373Y-69554421D01*
X146943700Y-69426313D01*
X146943700Y-69293687D01*
X146909373Y-69165579D01*
X146843060Y-69050721D01*
X146763165Y-68970826D01*
X146759479Y-68963592D01*
X146752913Y-68958822D01*
X146745634Y-68936420D01*
X146734938Y-68915428D01*
X146733700Y-68899691D01*
X146733700Y-68831079D01*
X146750653Y-68775190D01*
X146772204Y-68742937D01*
X146821028Y-68704448D01*
X146883155Y-68702007D01*
X146934851Y-68736549D01*
X146939493Y-68742939D01*
X146972564Y-68792432D01*
X146972566Y-68792434D01*
X147043650Y-68839931D01*
X147106333Y-68852399D01*
X147106338Y-68852399D01*
X147370000Y-68852399D01*
X147383664Y-68852399D01*
X147446349Y-68839930D01*
X147517434Y-68792433D01*
X147564931Y-68721348D01*
X147569178Y-68700000D01*
X154705823Y-68700000D01*
X154710068Y-68721348D01*
X154710069Y-68721351D01*
X154757565Y-68792433D01*
X154757566Y-68792434D01*
X154828650Y-68839931D01*
X154891333Y-68852399D01*
X154891338Y-68852399D01*
X154905000Y-68852398D01*
X154905000Y-68700000D01*
X154705823Y-68700000D01*
X147569178Y-68700000D01*
X147370000Y-68700000D01*
X147370000Y-68852399D01*
X147106338Y-68852399D01*
X147120000Y-68852398D01*
X147120000Y-68450000D01*
X147370000Y-68450000D01*
X147569176Y-68450000D01*
X154705822Y-68450000D01*
X154905000Y-68450000D01*
X154905000Y-68297599D01*
X154904999Y-68297599D01*
X154891336Y-68297600D01*
X154891335Y-68297600D01*
X154828650Y-68310069D01*
X154757565Y-68357566D01*
X154710068Y-68428651D01*
X154705822Y-68450000D01*
X147569176Y-68450000D01*
X147564930Y-68428650D01*
X147564930Y-68428648D01*
X147517434Y-68357566D01*
X147517433Y-68357565D01*
X147446349Y-68310068D01*
X147383664Y-68297600D01*
X147370000Y-68297600D01*
X147370000Y-68450000D01*
X147120000Y-68450000D01*
X147120000Y-68297599D01*
X147119999Y-68297599D01*
X147106336Y-68297600D01*
X147106335Y-68297600D01*
X147043650Y-68310069D01*
X146972565Y-68357567D01*
X146939495Y-68407060D01*
X146890668Y-68445552D01*
X146828542Y-68447993D01*
X146776846Y-68413451D01*
X146772214Y-68407077D01*
X146714419Y-68320581D01*
X146626366Y-68261745D01*
X146626363Y-68261744D01*
X146564137Y-68249367D01*
X146548718Y-68246300D01*
X146261282Y-68246300D01*
X146261281Y-68246300D01*
X146245862Y-68249367D01*
X146226237Y-68251300D01*
X145795142Y-68251300D01*
X145736011Y-68232087D01*
X145699466Y-68181787D01*
X145699354Y-68181441D01*
X145697749Y-68176440D01*
X145694639Y-68166750D01*
X145676202Y-68125384D01*
X145585761Y-67970311D01*
X145571416Y-67950911D01*
X145551709Y-67891943D01*
X145570425Y-67832653D01*
X145620417Y-67795687D01*
X145652305Y-67790500D01*
X156607695Y-67790500D01*
X156623238Y-67795550D01*
G37*
%TD.AperFunction*%
%TA.AperFunction,Conductor*%
G36*
X146092796Y-71467913D02*
G01*
X146129341Y-71518213D01*
X146130837Y-71523261D01*
X146144175Y-71573037D01*
X146181024Y-71636862D01*
X146210636Y-71666474D01*
X146238861Y-71721870D01*
X146240100Y-71737607D01*
X146240100Y-71746850D01*
X146259175Y-71818037D01*
X146296024Y-71881862D01*
X146938138Y-72523976D01*
X147001963Y-72560825D01*
X147073150Y-72579900D01*
X147146850Y-72579900D01*
X148082392Y-72579900D01*
X148090112Y-72582408D01*
X148098129Y-72581139D01*
X148119117Y-72591833D01*
X148141523Y-72599113D01*
X148153527Y-72609365D01*
X148186035Y-72641873D01*
X148214261Y-72697271D01*
X148215500Y-72713008D01*
X148215500Y-74576792D01*
X148196287Y-74635923D01*
X148145987Y-74672468D01*
X148083813Y-74672468D01*
X148043766Y-74647928D01*
X148025114Y-74629276D01*
X148001862Y-74606024D01*
X147938037Y-74569175D01*
X147866850Y-74550100D01*
X147017608Y-74550100D01*
X146958477Y-74530887D01*
X146946473Y-74520635D01*
X146714365Y-74288527D01*
X146686139Y-74233129D01*
X146684900Y-74217392D01*
X146684900Y-74000608D01*
X146702744Y-73943408D01*
X146710691Y-73931909D01*
X146714419Y-73929419D01*
X146772689Y-73842212D01*
X146773092Y-73841630D01*
X146797205Y-73823228D01*
X146821028Y-73804448D01*
X146821858Y-73804415D01*
X146822518Y-73803912D01*
X146852825Y-73803198D01*
X146883155Y-73802007D01*
X146883845Y-73802468D01*
X146884676Y-73802449D01*
X146909627Y-73819695D01*
X146934851Y-73836549D01*
X146935698Y-73837715D01*
X146935821Y-73837800D01*
X146935878Y-73837963D01*
X146939493Y-73842939D01*
X146972564Y-73892432D01*
X146972566Y-73892434D01*
X147043650Y-73939931D01*
X147106333Y-73952399D01*
X147106338Y-73952399D01*
X147370000Y-73952399D01*
X147383664Y-73952399D01*
X147446349Y-73939930D01*
X147517434Y-73892433D01*
X147564931Y-73821348D01*
X147569178Y-73800000D01*
X147370000Y-73800000D01*
X147370000Y-73952399D01*
X147106338Y-73952399D01*
X147120000Y-73952398D01*
X147120000Y-73550000D01*
X147370000Y-73550000D01*
X147569176Y-73550000D01*
X147564931Y-73528651D01*
X147564930Y-73528648D01*
X147517434Y-73457566D01*
X147517433Y-73457565D01*
X147446349Y-73410068D01*
X147383664Y-73397600D01*
X147370000Y-73397600D01*
X147370000Y-73550000D01*
X147120000Y-73550000D01*
X147120000Y-73397599D01*
X147119999Y-73397599D01*
X147106336Y-73397600D01*
X147106335Y-73397600D01*
X147043650Y-73410069D01*
X146972565Y-73457567D01*
X146939495Y-73507060D01*
X146890668Y-73545552D01*
X146828542Y-73547993D01*
X146776846Y-73513451D01*
X146772214Y-73507077D01*
X146714419Y-73420581D01*
X146626366Y-73361745D01*
X146626363Y-73361744D01*
X146574364Y-73351401D01*
X146548718Y-73346300D01*
X146548717Y-73346300D01*
X146502498Y-73346300D01*
X146476460Y-73342872D01*
X146433274Y-73331300D01*
X145795142Y-73331300D01*
X145736011Y-73312087D01*
X145699466Y-73261787D01*
X145699354Y-73261441D01*
X145696146Y-73251447D01*
X145694639Y-73246750D01*
X145676202Y-73205384D01*
X145585761Y-73050311D01*
X145558835Y-73013897D01*
X145437071Y-72881985D01*
X145402922Y-72852234D01*
X145402913Y-72852227D01*
X145402907Y-72852223D01*
X145255567Y-72749695D01*
X145255562Y-72749692D01*
X145215822Y-72728023D01*
X145215805Y-72728015D01*
X145049811Y-72659682D01*
X145049807Y-72659680D01*
X145049805Y-72659680D01*
X145028053Y-72653382D01*
X145006302Y-72647085D01*
X145006290Y-72647083D01*
X144829760Y-72616220D01*
X144829748Y-72616218D01*
X144829744Y-72616218D01*
X144827369Y-72616012D01*
X144793810Y-72613100D01*
X144793803Y-72613100D01*
X144111100Y-72613100D01*
X144051969Y-72593887D01*
X144015424Y-72543587D01*
X144010500Y-72512500D01*
X144010500Y-72267500D01*
X144029713Y-72208369D01*
X144080013Y-72171824D01*
X144111100Y-72166900D01*
X144793951Y-72166900D01*
X144834661Y-72162891D01*
X145009361Y-72128146D01*
X145032535Y-72120947D01*
X145051063Y-72115193D01*
X145051065Y-72115192D01*
X145051075Y-72115189D01*
X145214795Y-72044808D01*
X145252900Y-72023451D01*
X145398384Y-71920532D01*
X145418091Y-71903230D01*
X145431200Y-71891720D01*
X145431200Y-71891719D01*
X145431209Y-71891712D01*
X145552083Y-71760765D01*
X145578189Y-71725744D01*
X145669159Y-71572505D01*
X145687404Y-71532816D01*
X145692725Y-71517079D01*
X145729865Y-71467216D01*
X145788025Y-71448700D01*
X146033665Y-71448700D01*
X146092796Y-71467913D01*
G37*
%TD.AperFunction*%
%TD*%
M02*
