%TF.GenerationSoftware,KiCad,Pcbnew,9.0.5+1*%
%TF.CreationDate,2026-03-24T19:54:51+00:00*%
%TF.ProjectId,txe8116-module,74786538-3131-4362-9d6d-6f64756c652e,v1.0.0*%
%TF.SameCoordinates,Original*%
%TF.FileFunction,Soldermask,Bot*%
%TF.FilePolarity,Negative*%
%FSLAX46Y46*%
G04 Gerber Fmt 4.6, Leading zero omitted, Abs format (unit mm)*
G04 Created by KiCad (PCBNEW 9.0.5+1) date 2026-03-24 19:54:51*
%MOMM*%
%LPD*%
G01*
G04 APERTURE LIST*
G04 Aperture macros list*
%AMFreePoly0*
4,1,19,1.270000,-0.838200,-0.013951,-0.838200,-0.188651,-0.803455,-0.352371,-0.733074,-0.497855,-0.630155,-0.618729,-0.499208,-0.709699,-0.345969,-0.766779,-0.177150,-0.787400,-0.000741,-0.787400,0.000592,-0.770781,0.178542,-0.715922,0.349474,-0.625481,0.504547,-0.503717,0.636459,-0.356363,0.738996,-0.190360,0.807333,-0.013803,0.838200,1.270000,0.838200,1.270000,-0.838200,1.270000,-0.838200,
$1*%
%AMFreePoly1*
4,1,19,1.270000,-0.838200,-0.013803,-0.838200,-0.190360,-0.807333,-0.356363,-0.738996,-0.503717,-0.636459,-0.625481,-0.504547,-0.715922,-0.349474,-0.770781,-0.178542,-0.787400,-0.000592,-0.787400,0.000741,-0.766779,0.177150,-0.709699,0.345969,-0.618729,0.499208,-0.497855,0.630155,-0.352371,0.733074,-0.188651,0.803455,-0.013951,0.838200,1.270000,0.838200,1.270000,-0.838200,1.270000,-0.838200,
$1*%
G04 Aperture macros list end*
%ADD10R,1.676400X1.676400*%
%ADD11FreePoly0,0.000000*%
%ADD12FreePoly1,180.000000*%
G04 APERTURE END LIST*
D10*
%TO.C,J2*%
X158750000Y-68580000D03*
D11*
X157480000Y-68580000D03*
D10*
X158750000Y-71120000D03*
D11*
X157480000Y-71120000D03*
D10*
X158750000Y-73660000D03*
D11*
X157480000Y-73660000D03*
D10*
X158750000Y-76200000D03*
D11*
X157480000Y-76200000D03*
D10*
X158750000Y-78740000D03*
D11*
X157480000Y-78740000D03*
D10*
X158750000Y-81280000D03*
D11*
X157480000Y-81280000D03*
D10*
X158750000Y-83820000D03*
D11*
X157480000Y-83820000D03*
D10*
X158750000Y-86360000D03*
D11*
X157480000Y-86360000D03*
D10*
X158750000Y-88900000D03*
D11*
X157480000Y-88900000D03*
D10*
X158750000Y-91440000D03*
D11*
X157480000Y-91440000D03*
D10*
X158750000Y-93980000D03*
D11*
X157480000Y-93980000D03*
D10*
X158750000Y-96520000D03*
D11*
X157480000Y-96520000D03*
%TD*%
D12*
%TO.C,J1*%
X144780000Y-68580000D03*
D10*
X143510000Y-68580000D03*
D12*
X144780000Y-71120000D03*
D10*
X143510000Y-71120000D03*
D12*
X144780000Y-73660000D03*
D10*
X143510000Y-73660000D03*
D12*
X144780000Y-76200000D03*
D10*
X143510000Y-76200000D03*
D12*
X144780000Y-78740000D03*
D10*
X143510000Y-78740000D03*
D12*
X144780000Y-81280000D03*
D10*
X143510000Y-81280000D03*
D12*
X144780000Y-83820000D03*
D10*
X143510000Y-83820000D03*
D12*
X144780000Y-86360000D03*
D10*
X143510000Y-86360000D03*
D12*
X144780000Y-88900000D03*
D10*
X143510000Y-88900000D03*
D12*
X144780000Y-91440000D03*
D10*
X143510000Y-91440000D03*
D12*
X144780000Y-93980000D03*
D10*
X143510000Y-93980000D03*
D12*
X144780000Y-96520000D03*
D10*
X143510000Y-96520000D03*
%TD*%
M02*
