M48
; DRILL file {KiCad 9.0.5+1} date 2026-03-24T20:05:24+0000
; FORMAT={-:-/ absolute / metric / decimal}
; #@! TF.CreationDate,2026-03-24T20:05:24+00:00
; #@! TF.GenerationSoftware,Kicad,Pcbnew,9.0.5+1
; #@! TF.FileFunction,Plated,1,4,PTH
FMAT,2
METRIC
; #@! TA.AperFunction,Plated,PTH,ViaDrill
T1C0.300
; #@! TA.AperFunction,Plated,PTH,ComponentDrill
T2C0.850
; #@! TA.AperFunction,Plated,PTH,ComponentDrill
T3C0.900
%
G90
G05
T1
X145.63Y-85.09
X145.81Y-77.38
X146.44Y-69.36
X146.93Y-73.07
X146.96Y-75.47
X146.96Y-80.72
X147.23Y-78.19
X147.37Y-71.66
X147.39Y-84.56
X147.42Y-69.25
X147.54Y-83.11
X147.67Y-76.71
X147.7Y-86.73
X147.77Y-88.6
X147.78Y-81.51
X147.8Y-74.25
X147.81Y-91.18
X147.91Y-93.97
X147.95Y-96.52
X148.31Y-70.11
X148.36Y-68.26
X149.31Y-73.91
X149.98Y-77.13
X150.31Y-70.485
X150.58Y-79.01
X150.91Y-73.91
X150.91Y-88.31
X151.35Y-81.72
X151.44Y-79.86
X151.63Y-95.29
X152.15Y-83.65
X152.17Y-79.5
X152.24Y-82.89
X152.25Y-78.74
X152.27Y-82.1
X153.2Y-72.55
X153.62Y-76.61
X153.71Y-93.19
X154.2Y-85.31
X154.25Y-68.38
X154.42Y-90.43
X154.74Y-74.14
X154.8Y-80.68
X154.88Y-75.5
X154.88Y-76.88
X154.91Y-79.45
X154.93Y-70.47
X155.06Y-71.8
X155.3Y-72.97
X155.3Y-78.09
X155.48Y-68.0
X155.54Y-96.43
X155.84Y-89.69
X155.86Y-75.61
X155.87Y-74.32
X155.87Y-85.73
X155.87Y-90.78
X155.88Y-88.25
X155.92Y-70.47
X156.52Y-84.86
X156.54Y-80.1
X156.57Y-95.24
T2
X144.78Y-68.58
X144.78Y-71.12
X144.78Y-73.66
X144.78Y-76.2
X144.78Y-78.74
X144.78Y-81.28
X144.78Y-83.82
X144.78Y-86.36
X144.78Y-88.9
X144.78Y-91.44
X144.78Y-93.98
X144.78Y-96.52
X157.48Y-68.58
X157.48Y-71.12
X157.48Y-73.66
X157.48Y-76.2
X157.48Y-78.74
X157.48Y-81.28
X157.48Y-83.82
X157.48Y-86.36
X157.48Y-88.9
X157.48Y-91.44
X157.48Y-93.98
X157.48Y-96.52
T3
X143.51Y-68.58
X143.51Y-71.12
X143.51Y-73.66
X143.51Y-76.2
X143.51Y-78.74
X143.51Y-81.28
X143.51Y-83.82
X143.51Y-86.36
X143.51Y-88.9
X143.51Y-91.44
X143.51Y-93.98
X143.51Y-96.52
X158.75Y-68.58
X158.75Y-71.12
X158.75Y-73.66
X158.75Y-76.2
X158.75Y-78.74
X158.75Y-81.28
X158.75Y-83.82
X158.75Y-86.36
X158.75Y-88.9
X158.75Y-91.44
X158.75Y-93.98
X158.75Y-96.52
M30
