%TF.GenerationSoftware,KiCad,Pcbnew,9.0.5+1*%
%TF.CreationDate,2026-03-24T19:54:51+00:00*%
%TF.ProjectId,txe8116-module,74786538-3131-4362-9d6d-6f64756c652e,v1.0.0*%
%TF.SameCoordinates,Original*%
%TF.FileFunction,Copper,L2,Inr*%
%TF.FilePolarity,Positive*%
%FSLAX46Y46*%
G04 Gerber Fmt 4.6, Leading zero omitted, Abs format (unit mm)*
G04 Created by KiCad (PCBNEW 9.0.5+1) date 2026-03-24 19:54:51*
%MOMM*%
%LPD*%
G01*
G04 APERTURE LIST*
G04 Aperture macros list*
%AMFreePoly0*
4,1,19,1.270000,-0.838200,-0.013951,-0.838200,-0.188651,-0.803455,-0.352371,-0.733074,-0.497855,-0.630155,-0.618729,-0.499208,-0.709699,-0.345969,-0.766779,-0.177150,-0.787400,-0.000741,-0.787400,0.000592,-0.770781,0.178542,-0.715922,0.349474,-0.625481,0.504547,-0.503717,0.636459,-0.356363,0.738996,-0.190360,0.807333,-0.013803,0.838200,1.270000,0.838200,1.270000,-0.838200,1.270000,-0.838200,
$1*%
%AMFreePoly1*
4,1,19,1.270000,-0.838200,-0.013803,-0.838200,-0.190360,-0.807333,-0.356363,-0.738996,-0.503717,-0.636459,-0.625481,-0.504547,-0.715922,-0.349474,-0.770781,-0.178542,-0.787400,-0.000592,-0.787400,0.000741,-0.766779,0.177150,-0.709699,0.345969,-0.618729,0.499208,-0.497855,0.630155,-0.352371,0.733074,-0.188651,0.803455,-0.013951,0.838200,1.270000,0.838200,1.270000,-0.838200,1.270000,-0.838200,
$1*%
G04 Aperture macros list end*
%TA.AperFunction,CastellatedPad*%
%ADD10R,1.676400X1.676400*%
%TD*%
%TA.AperFunction,CastellatedPad*%
%ADD11FreePoly0,0.000000*%
%TD*%
%TA.AperFunction,CastellatedPad*%
%ADD12FreePoly1,180.000000*%
%TD*%
%TA.AperFunction,ViaPad*%
%ADD13C,0.400000*%
%TD*%
%TA.AperFunction,ViaPad*%
%ADD14C,0.600000*%
%TD*%
%TA.AperFunction,Conductor*%
%ADD15C,0.250000*%
%TD*%
%TA.AperFunction,Conductor*%
%ADD16C,0.152400*%
%TD*%
G04 APERTURE END LIST*
D10*
%TO.N,/~{RESET}*%
%TO.C,J2*%
X158750000Y-68580000D03*
D11*
X157480000Y-68580000D03*
D10*
%TO.N,/SDO*%
X158750000Y-71120000D03*
D11*
X157480000Y-71120000D03*
D10*
%TO.N,/SDI*%
X158750000Y-73660000D03*
D11*
X157480000Y-73660000D03*
D10*
%TO.N,/SCLK*%
X158750000Y-76200000D03*
D11*
X157480000Y-76200000D03*
D10*
%TO.N,/~{CS}*%
X158750000Y-78740000D03*
D11*
X157480000Y-78740000D03*
D10*
%TO.N,/GPIO1.2*%
X158750000Y-81280000D03*
D11*
X157480000Y-81280000D03*
D10*
%TO.N,/GPIO1.3*%
X158750000Y-83820000D03*
D11*
X157480000Y-83820000D03*
D10*
%TO.N,/GPIO1.4*%
X158750000Y-86360000D03*
D11*
X157480000Y-86360000D03*
D10*
%TO.N,/GPIO1.5*%
X158750000Y-88900000D03*
D11*
X157480000Y-88900000D03*
D10*
%TO.N,/GPIO1.6*%
X158750000Y-91440000D03*
D11*
X157480000Y-91440000D03*
D10*
%TO.N,/GPIO1.7*%
X158750000Y-93980000D03*
D11*
X157480000Y-93980000D03*
D10*
%TO.N,GND*%
X158750000Y-96520000D03*
D11*
X157480000Y-96520000D03*
%TD*%
D12*
%TO.N,VCC*%
%TO.C,J1*%
X144780000Y-68580000D03*
D10*
X143510000Y-68580000D03*
D12*
%TO.N,/~{INT}*%
X144780000Y-71120000D03*
D10*
X143510000Y-71120000D03*
D12*
%TO.N,/GPIO0.0*%
X144780000Y-73660000D03*
D10*
X143510000Y-73660000D03*
D12*
%TO.N,/GPIO0.1*%
X144780000Y-76200000D03*
D10*
X143510000Y-76200000D03*
D12*
%TO.N,/GPIO0.2*%
X144780000Y-78740000D03*
D10*
X143510000Y-78740000D03*
D12*
%TO.N,/GPIO0.3*%
X144780000Y-81280000D03*
D10*
X143510000Y-81280000D03*
D12*
%TO.N,/GPIO0.4*%
X144780000Y-83820000D03*
D10*
X143510000Y-83820000D03*
D12*
%TO.N,/GPIO0.5*%
X144780000Y-86360000D03*
D10*
X143510000Y-86360000D03*
D12*
%TO.N,/GPIO0.6*%
X144780000Y-88900000D03*
D10*
X143510000Y-88900000D03*
D12*
%TO.N,/GPIO0.7*%
X144780000Y-91440000D03*
D10*
X143510000Y-91440000D03*
D12*
%TO.N,/GPIO1.0*%
X144780000Y-93980000D03*
D10*
X143510000Y-93980000D03*
D12*
%TO.N,/GPIO1.1*%
X144780000Y-96520000D03*
D10*
X143510000Y-96520000D03*
%TD*%
D13*
%TO.N,GND*%
X151630000Y-95290000D03*
X147420000Y-69250000D03*
X154880000Y-76880000D03*
X146930000Y-73070000D03*
X147950000Y-96520000D03*
X156570000Y-95240000D03*
X147910000Y-93970000D03*
X147670000Y-76710000D03*
X150910000Y-88310000D03*
X146960000Y-75470000D03*
X153200000Y-72550000D03*
X156520000Y-84860000D03*
X147800000Y-74250000D03*
D14*
X149310000Y-73910000D03*
D13*
X154250000Y-68380000D03*
X154200000Y-85310000D03*
X147230000Y-78190000D03*
X147810000Y-91180000D03*
X147370000Y-71660000D03*
X147700000Y-86730000D03*
X148310000Y-70110000D03*
X145810000Y-77380000D03*
X145630000Y-85090000D03*
X155480000Y-68000000D03*
X147780000Y-81510000D03*
X153710000Y-93190000D03*
X154420000Y-90430000D03*
X155300000Y-78090000D03*
X154800000Y-80680000D03*
X154910000Y-79450000D03*
X154740000Y-74140000D03*
X147390000Y-84560000D03*
X151440000Y-79860000D03*
X153620000Y-76610000D03*
X156540000Y-80100000D03*
X154930000Y-70470000D03*
X155060000Y-71800000D03*
X155540000Y-96430000D03*
X146960000Y-80720000D03*
D14*
X150910000Y-73910000D03*
D13*
X155300000Y-72970000D03*
X147540000Y-83110000D03*
X151350000Y-81720000D03*
X148360000Y-68260000D03*
X155840000Y-89690000D03*
X154880000Y-75500000D03*
X147770000Y-88600000D03*
D14*
%TO.N,VCC*%
X146440000Y-69360000D03*
X149980000Y-77130000D03*
X150310000Y-70485000D03*
%TO.N,/SCLK*%
X152170000Y-79500000D03*
X155860000Y-75610000D03*
%TO.N,/SDO*%
X150580000Y-79010000D03*
X155920000Y-70470000D03*
%TO.N,/SDI*%
X152250000Y-78740000D03*
X155870000Y-74320000D03*
%TO.N,/GPIO1.5*%
X155880000Y-88250000D03*
X152240000Y-82890000D03*
%TO.N,/GPIO1.6*%
X155870000Y-90780000D03*
X152150000Y-83650000D03*
%TO.N,/GPIO1.4*%
X152270000Y-82100000D03*
X155870000Y-85730000D03*
%TD*%
D15*
%TO.N,VCC*%
X146440000Y-69360000D02*
X150020000Y-72940000D01*
D16*
X150310000Y-70485000D02*
X150487200Y-70662200D01*
D15*
X150020000Y-72940000D02*
X150020000Y-77090000D01*
D16*
X150487200Y-70662200D02*
X150487200Y-72472800D01*
D15*
X150020000Y-77090000D02*
X149980000Y-77130000D01*
D16*
X150487200Y-72472800D02*
X150020000Y-72940000D01*
%TO.N,/SCLK*%
X155860000Y-75160000D02*
X155860000Y-75610000D01*
X153410000Y-75010000D02*
X155700000Y-75010000D01*
X155710000Y-75010000D02*
X155860000Y-75160000D01*
X153400000Y-75020000D02*
X153410000Y-75010000D01*
X152170000Y-79500000D02*
X152440000Y-79500000D01*
X153080000Y-78860000D02*
X153080000Y-75340000D01*
X153080000Y-75340000D02*
X153400000Y-75020000D01*
X152440000Y-79500000D02*
X153080000Y-78860000D01*
X155700000Y-75010000D02*
X155710000Y-75010000D01*
%TO.N,/SDO*%
X152055200Y-74903748D02*
X152060000Y-74898948D01*
X152730000Y-69880000D02*
X155330000Y-69880000D01*
X152055200Y-77534800D02*
X152055200Y-74903748D01*
X152060000Y-74898948D02*
X152060000Y-70550000D01*
X150580000Y-79010000D02*
X152055200Y-77534800D01*
X155330000Y-69880000D02*
X155920000Y-70470000D01*
X152060000Y-70550000D02*
X152730000Y-69880000D01*
%TO.N,/SDI*%
X155530000Y-74660000D02*
X155870000Y-74320000D01*
X152360000Y-78630000D02*
X152360000Y-75030000D01*
X152250000Y-78740000D02*
X152360000Y-78630000D01*
X152650000Y-74660000D02*
X155530000Y-74660000D01*
X152360000Y-74950000D02*
X152650000Y-74660000D01*
X152360000Y-75030000D02*
X152360000Y-74950000D01*
%TO.N,/GPIO1.5*%
X154830000Y-84320000D02*
X155070000Y-84560000D01*
X152240000Y-82890000D02*
X153400000Y-82890000D01*
X153400000Y-82890000D02*
X154830000Y-84320000D01*
X155070000Y-84560000D02*
X155070000Y-86390000D01*
X155070000Y-86390000D02*
X155070000Y-87440000D01*
X155070000Y-87440000D02*
X155880000Y-88250000D01*
%TO.N,/GPIO1.6*%
X153330000Y-83650000D02*
X154550000Y-84870000D01*
X154750000Y-89660000D02*
X155870000Y-90780000D01*
X154550000Y-84870000D02*
X154750000Y-85070000D01*
X154750000Y-85070000D02*
X154750000Y-88660000D01*
X152150000Y-83650000D02*
X153330000Y-83650000D01*
X154750000Y-88660000D02*
X154750000Y-89660000D01*
%TO.N,/GPIO1.4*%
X155870000Y-84200000D02*
X155870000Y-85730000D01*
X152270000Y-82100000D02*
X153770000Y-82100000D01*
X153770000Y-82100000D02*
X155870000Y-84200000D01*
%TD*%
M02*
