<?xml version="1.0" standalone="no"?>
 <!DOCTYPE svg PUBLIC "-//W3C//DTD SVG 1.1//EN" 
 "http://www.w3.org/Graphics/SVG/1.1/DTD/svg11.dtd"> 
<svg
  xmlns:svg="http://www.w3.org/2000/svg"
  xmlns="http://www.w3.org/2000/svg"
  xmlns:xlink="http://www.w3.org/1999/xlink"
  version="1.1"
  width="297.0022mm" height="210.0072mm" viewBox="0.0000 0.0000 297.0022 210.0072">
<title>SVG Image created as txe8116-module-F_SilkS2.svg date 2026/03/24 20:05:28 </title>
  <desc>Image generated by PCBNEW </desc>
<g style="fill:#000000; fill-opacity:1.0000;stroke:#000000; stroke-opacity:1.0000;
stroke-linecap:round; stroke-linejoin:round;"
 transform="translate(0 0) scale(1 1)">
</g>
<g style="fill:none; 
stroke:#000000; stroke-width:0.3000; stroke-opacity:1; 
stroke-linecap:round; stroke-linejoin:round;">
<g transform="rotate(-90.000000 144.2993 78.7582)">
<text x="144.2993" y="79.7582"
textLength="4.4048" font-size="2.6667" lengthAdjust="spacingAndGlyphs"
text-anchor="middle" opacity="0" stroke-opacity="0">C4</text>
</g>
<g class="stroked-text"><desc>C4</desc>
<path d="M145.0185 79.0915
L145.1137 79.1867
" />
<path d="M145.1137 79.1867
L145.2089 79.4725
" />
<path d="M145.2089 79.4725
L145.2089 79.6629
" />
<path d="M145.2089 79.6629
L145.1137 79.9487
" />
<path d="M145.1137 79.9487
L144.9232 80.1391
" />
<path d="M144.9232 80.1391
L144.7327 80.2344
" />
<path d="M144.7327 80.2344
L144.3518 80.3296
" />
<path d="M144.3518 80.3296
L144.0661 80.3296
" />
<path d="M144.0661 80.3296
L143.6851 80.2344
" />
<path d="M143.6851 80.2344
L143.4947 80.1391
" />
<path d="M143.4947 80.1391
L143.3042 79.9487
" />
<path d="M143.3042 79.9487
L143.2089 79.6629
" />
<path d="M143.2089 79.6629
L143.2089 79.4725
" />
<path d="M143.2089 79.4725
L143.3042 79.1867
" />
<path d="M143.3042 79.1867
L143.3994 79.0915
" />
<path d="M143.8756 77.3772
L145.2089 77.3772
" />
<path d="M143.1137 77.8534
L144.5423 78.3296
" />
<path d="M144.5423 78.3296
L144.5423 77.0915
" />
</g><text x="156.9533" y="86.7302"
textLength="6.3095" font-size="2.6667" lengthAdjust="spacingAndGlyphs"
text-anchor="middle" opacity="0" stroke-opacity="0">D16</text>
<g class="stroked-text"><desc>D16</desc>
<path d="M154.5247 86.6398
L154.5247 84.6398
" />
<path d="M154.5247 84.6398
L155.0009 84.6398
" />
<path d="M155.0009 84.6398
L155.2866 84.7351
" />
<path d="M155.2866 84.7351
L155.4771 84.9255
" />
<path d="M155.4771 84.9255
L155.5723 85.1160
" />
<path d="M155.5723 85.1160
L155.6676 85.4970
" />
<path d="M155.6676 85.4970
L155.6676 85.7827
" />
<path d="M155.6676 85.7827
L155.5723 86.1636
" />
<path d="M155.5723 86.1636
L155.4771 86.3541
" />
<path d="M155.4771 86.3541
L155.2866 86.5446
" />
<path d="M155.2866 86.5446
L155.0009 86.6398
" />
<path d="M155.0009 86.6398
L154.5247 86.6398
" />
<path d="M157.5723 86.6398
L156.4295 86.6398
" />
<path d="M157.0009 86.6398
L157.0009 84.6398
" />
<path d="M157.0009 84.6398
L156.8104 84.9255
" />
<path d="M156.8104 84.9255
L156.6200 85.1160
" />
<path d="M156.6200 85.1160
L156.4295 85.2112
" />
<path d="M159.2866 84.6398
L158.9057 84.6398
" />
<path d="M158.9057 84.6398
L158.7152 84.7351
" />
<path d="M158.7152 84.7351
L158.6200 84.8303
" />
<path d="M158.6200 84.8303
L158.4295 85.1160
" />
<path d="M158.4295 85.1160
L158.3343 85.4970
" />
<path d="M158.3343 85.4970
L158.3343 86.2589
" />
<path d="M158.3343 86.2589
L158.4295 86.4493
" />
<path d="M158.4295 86.4493
L158.5247 86.5446
" />
<path d="M158.5247 86.5446
L158.7152 86.6398
" />
<path d="M158.7152 86.6398
L159.0962 86.6398
" />
<path d="M159.0962 86.6398
L159.2866 86.5446
" />
<path d="M159.2866 86.5446
L159.3819 86.4493
" />
<path d="M159.3819 86.4493
L159.4771 86.2589
" />
<path d="M159.4771 86.2589
L159.4771 85.7827
" />
<path d="M159.4771 85.7827
L159.3819 85.5922
" />
<path d="M159.3819 85.5922
L159.2866 85.4970
" />
<path d="M159.2866 85.4970
L159.0962 85.4017
" />
<path d="M159.0962 85.4017
L158.7152 85.4017
" />
<path d="M158.7152 85.4017
L158.5247 85.4970
" />
<path d="M158.5247 85.4970
L158.4295 85.5922
" />
<path d="M158.4295 85.5922
L158.3343 85.7827
" />
</g><text x="139.7533" y="71.7802"
textLength="4.4048" font-size="2.6667" lengthAdjust="spacingAndGlyphs"
text-anchor="middle" opacity="0" stroke-opacity="0">D2</text>
<g class="stroked-text"><desc>D2</desc>
<path d="M138.2771 71.6898
L138.2771 69.6898
" />
<path d="M138.2771 69.6898
L138.7533 69.6898
" />
<path d="M138.7533 69.6898
L139.0390 69.7851
" />
<path d="M139.0390 69.7851
L139.2295 69.9755
" />
<path d="M139.2295 69.9755
L139.3247 70.1660
" />
<path d="M139.3247 70.1660
L139.4200 70.5470
" />
<path d="M139.4200 70.5470
L139.4200 70.8327
" />
<path d="M139.4200 70.8327
L139.3247 71.2136
" />
<path d="M139.3247 71.2136
L139.2295 71.4041
" />
<path d="M139.2295 71.4041
L139.0390 71.5946
" />
<path d="M139.0390 71.5946
L138.7533 71.6898
" />
<path d="M138.7533 71.6898
L138.2771 71.6898
" />
<path d="M140.1819 69.8803
L140.2771 69.7851
" />
<path d="M140.2771 69.7851
L140.4676 69.6898
" />
<path d="M140.4676 69.6898
L140.9438 69.6898
" />
<path d="M140.9438 69.6898
L141.1343 69.7851
" />
<path d="M141.1343 69.7851
L141.2295 69.8803
" />
<path d="M141.2295 69.8803
L141.3247 70.0708
" />
<path d="M141.3247 70.0708
L141.3247 70.2612
" />
<path d="M141.3247 70.2612
L141.2295 70.5470
" />
<path d="M141.2295 70.5470
L140.0866 71.6898
" />
<path d="M140.0866 71.6898
L141.3247 71.6898
" />
</g><text x="139.7533" y="97.1802"
textLength="4.4048" font-size="2.6667" lengthAdjust="spacingAndGlyphs"
text-anchor="middle" opacity="0" stroke-opacity="0">D7</text>
<g class="stroked-text"><desc>D7</desc>
<path d="M138.2771 97.0898
L138.2771 95.0898
" />
<path d="M138.2771 95.0898
L138.7533 95.0898
" />
<path d="M138.7533 95.0898
L139.0390 95.1851
" />
<path d="M139.0390 95.1851
L139.2295 95.3755
" />
<path d="M139.2295 95.3755
L139.3247 95.5660
" />
<path d="M139.3247 95.5660
L139.4200 95.9470
" />
<path d="M139.4200 95.9470
L139.4200 96.2327
" />
<path d="M139.4200 96.2327
L139.3247 96.6136
" />
<path d="M139.3247 96.6136
L139.2295 96.8041
" />
<path d="M139.2295 96.8041
L139.0390 96.9946
" />
<path d="M139.0390 96.9946
L138.7533 97.0898
" />
<path d="M138.7533 97.0898
L138.2771 97.0898
" />
<path d="M140.0866 95.0898
L141.4200 95.0898
" />
<path d="M141.4200 95.0898
L140.5628 97.0898
" />
</g><text x="157.0033" y="76.5802"
textLength="6.3095" font-size="2.6667" lengthAdjust="spacingAndGlyphs"
text-anchor="middle" opacity="0" stroke-opacity="0">D14</text>
<g class="stroked-text"><desc>D14</desc>
<path d="M154.5747 76.4898
L154.5747 74.4898
" />
<path d="M154.5747 74.4898
L155.0509 74.4898
" />
<path d="M155.0509 74.4898
L155.3366 74.5851
" />
<path d="M155.3366 74.5851
L155.5271 74.7755
" />
<path d="M155.5271 74.7755
L155.6223 74.9660
" />
<path d="M155.6223 74.9660
L155.7176 75.3470
" />
<path d="M155.7176 75.3470
L155.7176 75.6327
" />
<path d="M155.7176 75.6327
L155.6223 76.0136
" />
<path d="M155.6223 76.0136
L155.5271 76.2041
" />
<path d="M155.5271 76.2041
L155.3366 76.3946
" />
<path d="M155.3366 76.3946
L155.0509 76.4898
" />
<path d="M155.0509 76.4898
L154.5747 76.4898
" />
<path d="M157.6223 76.4898
L156.4795 76.4898
" />
<path d="M157.0509 76.4898
L157.0509 74.4898
" />
<path d="M157.0509 74.4898
L156.8604 74.7755
" />
<path d="M156.8604 74.7755
L156.6700 74.9660
" />
<path d="M156.6700 74.9660
L156.4795 75.0612
" />
<path d="M159.3366 75.1565
L159.3366 76.4898
" />
<path d="M158.8604 74.3946
L158.3843 75.8231
" />
<path d="M158.3843 75.8231
L159.6223 75.8231
" />
</g><text x="139.7533" y="87.0302"
textLength="4.4048" font-size="2.6667" lengthAdjust="spacingAndGlyphs"
text-anchor="middle" opacity="0" stroke-opacity="0">D5</text>
<g class="stroked-text"><desc>D5</desc>
<path d="M138.2771 86.9398
L138.2771 84.9398
" />
<path d="M138.2771 84.9398
L138.7533 84.9398
" />
<path d="M138.7533 84.9398
L139.0390 85.0351
" />
<path d="M139.0390 85.0351
L139.2295 85.2255
" />
<path d="M139.2295 85.2255
L139.3247 85.4160
" />
<path d="M139.3247 85.4160
L139.4200 85.7970
" />
<path d="M139.4200 85.7970
L139.4200 86.0827
" />
<path d="M139.4200 86.0827
L139.3247 86.4636
" />
<path d="M139.3247 86.4636
L139.2295 86.6541
" />
<path d="M139.2295 86.6541
L139.0390 86.8446
" />
<path d="M139.0390 86.8446
L138.7533 86.9398
" />
<path d="M138.7533 86.9398
L138.2771 86.9398
" />
<path d="M141.2295 84.9398
L140.2771 84.9398
" />
<path d="M140.2771 84.9398
L140.1819 85.8922
" />
<path d="M140.1819 85.8922
L140.2771 85.7970
" />
<path d="M140.2771 85.7970
L140.4676 85.7017
" />
<path d="M140.4676 85.7017
L140.9438 85.7017
" />
<path d="M140.9438 85.7017
L141.1343 85.7970
" />
<path d="M141.1343 85.7970
L141.2295 85.8922
" />
<path d="M141.2295 85.8922
L141.3247 86.0827
" />
<path d="M141.3247 86.0827
L141.3247 86.5589
" />
<path d="M141.3247 86.5589
L141.2295 86.7493
" />
<path d="M141.2295 86.7493
L141.1343 86.8446
" />
<path d="M141.1343 86.8446
L140.9438 86.9398
" />
<path d="M140.9438 86.9398
L140.4676 86.9398
" />
<path d="M140.4676 86.9398
L140.2771 86.8446
" />
<path d="M140.2771 86.8446
L140.1819 86.7493
" />
</g><text x="139.7533" y="107.3302"
textLength="4.4048" font-size="2.6667" lengthAdjust="spacingAndGlyphs"
text-anchor="middle" opacity="0" stroke-opacity="0">D9</text>
<g class="stroked-text"><desc>D9</desc>
<path d="M138.2771 107.2398
L138.2771 105.2398
" />
<path d="M138.2771 105.2398
L138.7533 105.2398
" />
<path d="M138.7533 105.2398
L139.0390 105.3351
" />
<path d="M139.0390 105.3351
L139.2295 105.5255
" />
<path d="M139.2295 105.5255
L139.3247 105.7160
" />
<path d="M139.3247 105.7160
L139.4200 106.0970
" />
<path d="M139.4200 106.0970
L139.4200 106.3827
" />
<path d="M139.4200 106.3827
L139.3247 106.7636
" />
<path d="M139.3247 106.7636
L139.2295 106.9541
" />
<path d="M139.2295 106.9541
L139.0390 107.1446
" />
<path d="M139.0390 107.1446
L138.7533 107.2398
" />
<path d="M138.7533 107.2398
L138.2771 107.2398
" />
<path d="M140.3723 107.2398
L140.7533 107.2398
" />
<path d="M140.7533 107.2398
L140.9438 107.1446
" />
<path d="M140.9438 107.1446
L141.0390 107.0493
" />
<path d="M141.0390 107.0493
L141.2295 106.7636
" />
<path d="M141.2295 106.7636
L141.3247 106.3827
" />
<path d="M141.3247 106.3827
L141.3247 105.6208
" />
<path d="M141.3247 105.6208
L141.2295 105.4303
" />
<path d="M141.2295 105.4303
L141.1343 105.3351
" />
<path d="M141.1343 105.3351
L140.9438 105.2398
" />
<path d="M140.9438 105.2398
L140.5628 105.2398
" />
<path d="M140.5628 105.2398
L140.3723 105.3351
" />
<path d="M140.3723 105.3351
L140.2771 105.4303
" />
<path d="M140.2771 105.4303
L140.1819 105.6208
" />
<path d="M140.1819 105.6208
L140.1819 106.0970
" />
<path d="M140.1819 106.0970
L140.2771 106.2874
" />
<path d="M140.2771 106.2874
L140.3723 106.3827
" />
<path d="M140.3723 106.3827
L140.5628 106.4779
" />
<path d="M140.5628 106.4779
L140.9438 106.4779
" />
<path d="M140.9438 106.4779
L141.1343 106.3827
" />
<path d="M141.1343 106.3827
L141.2295 106.2874
" />
<path d="M141.2295 106.2874
L141.3247 106.0970
" />
</g><text x="157.0033" y="117.2302"
textLength="6.3095" font-size="2.6667" lengthAdjust="spacingAndGlyphs"
text-anchor="middle" opacity="0" stroke-opacity="0">D22</text>
<g class="stroked-text"><desc>D22</desc>
<path d="M154.5747 117.1398
L154.5747 115.1398
" />
<path d="M154.5747 115.1398
L155.0509 115.1398
" />
<path d="M155.0509 115.1398
L155.3366 115.2351
" />
<path d="M155.3366 115.2351
L155.5271 115.4255
" />
<path d="M155.5271 115.4255
L155.6223 115.6160
" />
<path d="M155.6223 115.6160
L155.7176 115.9970
" />
<path d="M155.7176 115.9970
L155.7176 116.2827
" />
<path d="M155.7176 116.2827
L155.6223 116.6636
" />
<path d="M155.6223 116.6636
L155.5271 116.8541
" />
<path d="M155.5271 116.8541
L155.3366 117.0446
" />
<path d="M155.3366 117.0446
L155.0509 117.1398
" />
<path d="M155.0509 117.1398
L154.5747 117.1398
" />
<path d="M156.4795 115.3303
L156.5747 115.2351
" />
<path d="M156.5747 115.2351
L156.7652 115.1398
" />
<path d="M156.7652 115.1398
L157.2414 115.1398
" />
<path d="M157.2414 115.1398
L157.4319 115.2351
" />
<path d="M157.4319 115.2351
L157.5271 115.3303
" />
<path d="M157.5271 115.3303
L157.6223 115.5208
" />
<path d="M157.6223 115.5208
L157.6223 115.7112
" />
<path d="M157.6223 115.7112
L157.5271 115.9970
" />
<path d="M157.5271 115.9970
L156.3843 117.1398
" />
<path d="M156.3843 117.1398
L157.6223 117.1398
" />
<path d="M158.3843 115.3303
L158.4795 115.2351
" />
<path d="M158.4795 115.2351
L158.6700 115.1398
" />
<path d="M158.6700 115.1398
L159.1462 115.1398
" />
<path d="M159.1462 115.1398
L159.3366 115.2351
" />
<path d="M159.3366 115.2351
L159.4319 115.3303
" />
<path d="M159.4319 115.3303
L159.5271 115.5208
" />
<path d="M159.5271 115.5208
L159.5271 115.7112
" />
<path d="M159.5271 115.7112
L159.4319 115.9970
" />
<path d="M159.4319 115.9970
L158.2890 117.1398
" />
<path d="M158.2890 117.1398
L159.5271 117.1398
" />
</g><text x="139.7533" y="122.5802"
textLength="6.3095" font-size="2.6667" lengthAdjust="spacingAndGlyphs"
text-anchor="middle" opacity="0" stroke-opacity="0">D12</text>
<g class="stroked-text"><desc>D12</desc>
<path d="M137.3247 122.4898
L137.3247 120.4898
" />
<path d="M137.3247 120.4898
L137.8009 120.4898
" />
<path d="M137.8009 120.4898
L138.0866 120.5851
" />
<path d="M138.0866 120.5851
L138.2771 120.7755
" />
<path d="M138.2771 120.7755
L138.3723 120.9660
" />
<path d="M138.3723 120.9660
L138.4676 121.3470
" />
<path d="M138.4676 121.3470
L138.4676 121.6327
" />
<path d="M138.4676 121.6327
L138.3723 122.0136
" />
<path d="M138.3723 122.0136
L138.2771 122.2041
" />
<path d="M138.2771 122.2041
L138.0866 122.3946
" />
<path d="M138.0866 122.3946
L137.8009 122.4898
" />
<path d="M137.8009 122.4898
L137.3247 122.4898
" />
<path d="M140.3723 122.4898
L139.2295 122.4898
" />
<path d="M139.8009 122.4898
L139.8009 120.4898
" />
<path d="M139.8009 120.4898
L139.6104 120.7755
" />
<path d="M139.6104 120.7755
L139.4200 120.9660
" />
<path d="M139.4200 120.9660
L139.2295 121.0612
" />
<path d="M141.1343 120.6803
L141.2295 120.5851
" />
<path d="M141.2295 120.5851
L141.4200 120.4898
" />
<path d="M141.4200 120.4898
L141.8962 120.4898
" />
<path d="M141.8962 120.4898
L142.0866 120.5851
" />
<path d="M142.0866 120.5851
L142.1819 120.6803
" />
<path d="M142.1819 120.6803
L142.2771 120.8708
" />
<path d="M142.2771 120.8708
L142.2771 121.0612
" />
<path d="M142.2771 121.0612
L142.1819 121.3470
" />
<path d="M142.1819 121.3470
L141.0390 122.4898
" />
<path d="M141.0390 122.4898
L142.2771 122.4898
" />
</g><g transform="rotate(-90.000000 146.1233 68.5502)">
<text x="146.1233" y="69.5502"
textLength="4.4048" font-size="2.6667" lengthAdjust="spacingAndGlyphs"
text-anchor="middle" opacity="0" stroke-opacity="0">R2</text>
</g>
<g class="stroked-text"><desc>R2</desc>
<path d="M147.0329 68.8835
L146.0806 69.5502
" />
<path d="M147.0329 70.0264
L145.0329 70.0264
" />
<path d="M145.0329 70.0264
L145.0329 69.2645
" />
<path d="M145.0329 69.2645
L145.1282 69.0740
" />
<path d="M145.1282 69.0740
L145.2234 68.9787
" />
<path d="M145.2234 68.9787
L145.4139 68.8835
" />
<path d="M145.4139 68.8835
L145.6996 68.8835
" />
<path d="M145.6996 68.8835
L145.8901 68.9787
" />
<path d="M145.8901 68.9787
L145.9853 69.0740
" />
<path d="M145.9853 69.0740
L146.0806 69.2645
" />
<path d="M146.0806 69.2645
L146.0806 70.0264
" />
<path d="M145.2234 68.1216
L145.1282 68.0264
" />
<path d="M145.1282 68.0264
L145.0329 67.8359
" />
<path d="M145.0329 67.8359
L145.0329 67.3597
" />
<path d="M145.0329 67.3597
L145.1282 67.1692
" />
<path d="M145.1282 67.1692
L145.2234 67.0740
" />
<path d="M145.2234 67.0740
L145.4139 66.9787
" />
<path d="M145.4139 66.9787
L145.6044 66.9787
" />
<path d="M145.6044 66.9787
L145.8901 67.0740
" />
<path d="M145.8901 67.0740
L147.0329 68.2168
" />
<path d="M147.0329 68.2168
L147.0329 66.9787
" />
</g><text x="157.0033" y="81.6302"
textLength="6.3095" font-size="2.6667" lengthAdjust="spacingAndGlyphs"
text-anchor="middle" opacity="0" stroke-opacity="0">D15</text>
<g class="stroked-text"><desc>D15</desc>
<path d="M154.5747 81.5398
L154.5747 79.5398
" />
<path d="M154.5747 79.5398
L155.0509 79.5398
" />
<path d="M155.0509 79.5398
L155.3366 79.6351
" />
<path d="M155.3366 79.6351
L155.5271 79.8255
" />
<path d="M155.5271 79.8255
L155.6223 80.0160
" />
<path d="M155.6223 80.0160
L155.7176 80.3970
" />
<path d="M155.7176 80.3970
L155.7176 80.6827
" />
<path d="M155.7176 80.6827
L155.6223 81.0636
" />
<path d="M155.6223 81.0636
L155.5271 81.2541
" />
<path d="M155.5271 81.2541
L155.3366 81.4446
" />
<path d="M155.3366 81.4446
L155.0509 81.5398
" />
<path d="M155.0509 81.5398
L154.5747 81.5398
" />
<path d="M157.6223 81.5398
L156.4795 81.5398
" />
<path d="M157.0509 81.5398
L157.0509 79.5398
" />
<path d="M157.0509 79.5398
L156.8604 79.8255
" />
<path d="M156.8604 79.8255
L156.6700 80.0160
" />
<path d="M156.6700 80.0160
L156.4795 80.1112
" />
<path d="M159.4319 79.5398
L158.4795 79.5398
" />
<path d="M158.4795 79.5398
L158.3843 80.4922
" />
<path d="M158.3843 80.4922
L158.4795 80.3970
" />
<path d="M158.4795 80.3970
L158.6700 80.3017
" />
<path d="M158.6700 80.3017
L159.1462 80.3017
" />
<path d="M159.1462 80.3017
L159.3366 80.3970
" />
<path d="M159.3366 80.3970
L159.4319 80.4922
" />
<path d="M159.4319 80.4922
L159.5271 80.6827
" />
<path d="M159.5271 80.6827
L159.5271 81.1589
" />
<path d="M159.5271 81.1589
L159.4319 81.3493
" />
<path d="M159.4319 81.3493
L159.3366 81.4446
" />
<path d="M159.3366 81.4446
L159.1462 81.5398
" />
<path d="M159.1462 81.5398
L158.6700 81.5398
" />
<path d="M158.6700 81.5398
L158.4795 81.4446
" />
<path d="M158.4795 81.4446
L158.3843 81.3493
" />
</g><text x="157.0083" y="101.9802"
textLength="6.3095" font-size="2.6667" lengthAdjust="spacingAndGlyphs"
text-anchor="middle" opacity="0" stroke-opacity="0">D19</text>
<g class="stroked-text"><desc>D19</desc>
<path d="M154.5797 101.8898
L154.5797 99.8898
" />
<path d="M154.5797 99.8898
L155.0559 99.8898
" />
<path d="M155.0559 99.8898
L155.3416 99.9851
" />
<path d="M155.3416 99.9851
L155.5321 100.1755
" />
<path d="M155.5321 100.1755
L155.6273 100.3660
" />
<path d="M155.6273 100.3660
L155.7226 100.7470
" />
<path d="M155.7226 100.7470
L155.7226 101.0327
" />
<path d="M155.7226 101.0327
L155.6273 101.4136
" />
<path d="M155.6273 101.4136
L155.5321 101.6041
" />
<path d="M155.5321 101.6041
L155.3416 101.7946
" />
<path d="M155.3416 101.7946
L155.0559 101.8898
" />
<path d="M155.0559 101.8898
L154.5797 101.8898
" />
<path d="M157.6273 101.8898
L156.4845 101.8898
" />
<path d="M157.0559 101.8898
L157.0559 99.8898
" />
<path d="M157.0559 99.8898
L156.8654 100.1755
" />
<path d="M156.8654 100.1755
L156.6750 100.3660
" />
<path d="M156.6750 100.3660
L156.4845 100.4612
" />
<path d="M158.5797 101.8898
L158.9607 101.8898
" />
<path d="M158.9607 101.8898
L159.1512 101.7946
" />
<path d="M159.1512 101.7946
L159.2464 101.6993
" />
<path d="M159.2464 101.6993
L159.4369 101.4136
" />
<path d="M159.4369 101.4136
L159.5321 101.0327
" />
<path d="M159.5321 101.0327
L159.5321 100.2708
" />
<path d="M159.5321 100.2708
L159.4369 100.0803
" />
<path d="M159.4369 100.0803
L159.3416 99.9851
" />
<path d="M159.3416 99.9851
L159.1512 99.8898
" />
<path d="M159.1512 99.8898
L158.7702 99.8898
" />
<path d="M158.7702 99.8898
L158.5797 99.9851
" />
<path d="M158.5797 99.9851
L158.4845 100.0803
" />
<path d="M158.4845 100.0803
L158.3893 100.2708
" />
<path d="M158.3893 100.2708
L158.3893 100.7470
" />
<path d="M158.3893 100.7470
L158.4845 100.9374
" />
<path d="M158.4845 100.9374
L158.5797 101.0327
" />
<path d="M158.5797 101.0327
L158.7702 101.1279
" />
<path d="M158.7702 101.1279
L159.1512 101.1279
" />
<path d="M159.1512 101.1279
L159.3416 101.0327
" />
<path d="M159.3416 101.0327
L159.4369 100.9374
" />
<path d="M159.4369 100.9374
L159.5321 100.7470
" />
</g><text x="151.4113" y="86.3622"
textLength="4.5000" font-size="2.6667" lengthAdjust="spacingAndGlyphs"
text-anchor="middle" opacity="0" stroke-opacity="0">U1</text>
<g class="stroked-text"><desc>U1</desc>
<path d="M149.8875 84.2718
L149.8875 85.8909
" />
<path d="M149.8875 85.8909
L149.9827 86.0813
" />
<path d="M149.9827 86.0813
L150.0780 86.1766
" />
<path d="M150.0780 86.1766
L150.2684 86.2718
" />
<path d="M150.2684 86.2718
L150.6494 86.2718
" />
<path d="M150.6494 86.2718
L150.8399 86.1766
" />
<path d="M150.8399 86.1766
L150.9351 86.0813
" />
<path d="M150.9351 86.0813
L151.0303 85.8909
" />
<path d="M151.0303 85.8909
L151.0303 84.2718
" />
<path d="M153.0303 86.2718
L151.8875 86.2718
" />
<path d="M152.4589 86.2718
L152.4589 84.2718
" />
<path d="M152.4589 84.2718
L152.2684 84.5575
" />
<path d="M152.2684 84.5575
L152.0780 84.7480
" />
<path d="M152.0780 84.7480
L151.8875 84.8432
" />
</g><text x="157.0033" y="122.2802"
textLength="6.3095" font-size="2.6667" lengthAdjust="spacingAndGlyphs"
text-anchor="middle" opacity="0" stroke-opacity="0">D23</text>
<g class="stroked-text"><desc>D23</desc>
<path d="M154.5747 122.1898
L154.5747 120.1898
" />
<path d="M154.5747 120.1898
L155.0509 120.1898
" />
<path d="M155.0509 120.1898
L155.3366 120.2851
" />
<path d="M155.3366 120.2851
L155.5271 120.4755
" />
<path d="M155.5271 120.4755
L155.6223 120.6660
" />
<path d="M155.6223 120.6660
L155.7176 121.0470
" />
<path d="M155.7176 121.0470
L155.7176 121.3327
" />
<path d="M155.7176 121.3327
L155.6223 121.7136
" />
<path d="M155.6223 121.7136
L155.5271 121.9041
" />
<path d="M155.5271 121.9041
L155.3366 122.0946
" />
<path d="M155.3366 122.0946
L155.0509 122.1898
" />
<path d="M155.0509 122.1898
L154.5747 122.1898
" />
<path d="M156.4795 120.3803
L156.5747 120.2851
" />
<path d="M156.5747 120.2851
L156.7652 120.1898
" />
<path d="M156.7652 120.1898
L157.2414 120.1898
" />
<path d="M157.2414 120.1898
L157.4319 120.2851
" />
<path d="M157.4319 120.2851
L157.5271 120.3803
" />
<path d="M157.5271 120.3803
L157.6223 120.5708
" />
<path d="M157.6223 120.5708
L157.6223 120.7612
" />
<path d="M157.6223 120.7612
L157.5271 121.0470
" />
<path d="M157.5271 121.0470
L156.3843 122.1898
" />
<path d="M156.3843 122.1898
L157.6223 122.1898
" />
<path d="M158.2890 120.1898
L159.5271 120.1898
" />
<path d="M159.5271 120.1898
L158.8604 120.9517
" />
<path d="M158.8604 120.9517
L159.1462 120.9517
" />
<path d="M159.1462 120.9517
L159.3366 121.0470
" />
<path d="M159.3366 121.0470
L159.4319 121.1422
" />
<path d="M159.4319 121.1422
L159.5271 121.3327
" />
<path d="M159.5271 121.3327
L159.5271 121.8089
" />
<path d="M159.5271 121.8089
L159.4319 121.9993
" />
<path d="M159.4319 121.9993
L159.3366 122.0946
" />
<path d="M159.3366 122.0946
L159.1462 122.1898
" />
<path d="M159.1462 122.1898
L158.5747 122.1898
" />
<path d="M158.5747 122.1898
L158.3843 122.0946
" />
<path d="M158.3843 122.0946
L158.2890 121.9993
" />
</g><text x="157.5073" y="92.4582"
textLength="6.3095" font-size="2.6667" lengthAdjust="spacingAndGlyphs"
text-anchor="middle" opacity="0" stroke-opacity="0">D17</text>
<g class="stroked-text"><desc>D17</desc>
<path d="M155.0787 92.3678
L155.0787 90.3678
" />
<path d="M155.0787 90.3678
L155.5549 90.3678
" />
<path d="M155.5549 90.3678
L155.8406 90.4631
" />
<path d="M155.8406 90.4631
L156.0311 90.6535
" />
<path d="M156.0311 90.6535
L156.1263 90.8440
" />
<path d="M156.1263 90.8440
L156.2216 91.2250
" />
<path d="M156.2216 91.2250
L156.2216 91.5107
" />
<path d="M156.2216 91.5107
L156.1263 91.8916
" />
<path d="M156.1263 91.8916
L156.0311 92.0821
" />
<path d="M156.0311 92.0821
L155.8406 92.2726
" />
<path d="M155.8406 92.2726
L155.5549 92.3678
" />
<path d="M155.5549 92.3678
L155.0787 92.3678
" />
<path d="M158.1263 92.3678
L156.9835 92.3678
" />
<path d="M157.5549 92.3678
L157.5549 90.3678
" />
<path d="M157.5549 90.3678
L157.3644 90.6535
" />
<path d="M157.3644 90.6535
L157.1740 90.8440
" />
<path d="M157.1740 90.8440
L156.9835 90.9392
" />
<path d="M158.7930 90.3678
L160.1263 90.3678
" />
<path d="M160.1263 90.3678
L159.2692 92.3678
" />
</g><text x="157.5073" y="97.0302"
textLength="6.3095" font-size="2.6667" lengthAdjust="spacingAndGlyphs"
text-anchor="middle" opacity="0" stroke-opacity="0">D18</text>
<g class="stroked-text"><desc>D18</desc>
<path d="M155.0787 96.9398
L155.0787 94.9398
" />
<path d="M155.0787 94.9398
L155.5549 94.9398
" />
<path d="M155.5549 94.9398
L155.8406 95.0351
" />
<path d="M155.8406 95.0351
L156.0311 95.2255
" />
<path d="M156.0311 95.2255
L156.1263 95.4160
" />
<path d="M156.1263 95.4160
L156.2216 95.7970
" />
<path d="M156.2216 95.7970
L156.2216 96.0827
" />
<path d="M156.2216 96.0827
L156.1263 96.4636
" />
<path d="M156.1263 96.4636
L156.0311 96.6541
" />
<path d="M156.0311 96.6541
L155.8406 96.8446
" />
<path d="M155.8406 96.8446
L155.5549 96.9398
" />
<path d="M155.5549 96.9398
L155.0787 96.9398
" />
<path d="M158.1263 96.9398
L156.9835 96.9398
" />
<path d="M157.5549 96.9398
L157.5549 94.9398
" />
<path d="M157.5549 94.9398
L157.3644 95.2255
" />
<path d="M157.3644 95.2255
L157.1740 95.4160
" />
<path d="M157.1740 95.4160
L156.9835 95.5112
" />
<path d="M159.2692 95.7970
L159.0787 95.7017
" />
<path d="M159.0787 95.7017
L158.9835 95.6065
" />
<path d="M158.9835 95.6065
L158.8883 95.4160
" />
<path d="M158.8883 95.4160
L158.8883 95.3208
" />
<path d="M158.8883 95.3208
L158.9835 95.1303
" />
<path d="M158.9835 95.1303
L159.0787 95.0351
" />
<path d="M159.0787 95.0351
L159.2692 94.9398
" />
<path d="M159.2692 94.9398
L159.6502 94.9398
" />
<path d="M159.6502 94.9398
L159.8406 95.0351
" />
<path d="M159.8406 95.0351
L159.9359 95.1303
" />
<path d="M159.9359 95.1303
L160.0311 95.3208
" />
<path d="M160.0311 95.3208
L160.0311 95.4160
" />
<path d="M160.0311 95.4160
L159.9359 95.6065
" />
<path d="M159.9359 95.6065
L159.8406 95.7017
" />
<path d="M159.8406 95.7017
L159.6502 95.7970
" />
<path d="M159.6502 95.7970
L159.2692 95.7970
" />
<path d="M159.2692 95.7970
L159.0787 95.8922
" />
<path d="M159.0787 95.8922
L158.9835 95.9874
" />
<path d="M158.9835 95.9874
L158.8883 96.1779
" />
<path d="M158.8883 96.1779
L158.8883 96.5589
" />
<path d="M158.8883 96.5589
L158.9835 96.7493
" />
<path d="M158.9835 96.7493
L159.0787 96.8446
" />
<path d="M159.0787 96.8446
L159.2692 96.9398
" />
<path d="M159.2692 96.9398
L159.6502 96.9398
" />
<path d="M159.6502 96.9398
L159.8406 96.8446
" />
<path d="M159.8406 96.8446
L159.9359 96.7493
" />
<path d="M159.9359 96.7493
L160.0311 96.5589
" />
<path d="M160.0311 96.5589
L160.0311 96.1779
" />
<path d="M160.0311 96.1779
L159.9359 95.9874
" />
<path d="M159.9359 95.9874
L159.8406 95.8922
" />
<path d="M159.8406 95.8922
L159.6502 95.7970
" />
</g><g transform="rotate(-90.000000 147.8553 78.7582)">
<text x="147.8553" y="79.7582"
textLength="4.4048" font-size="2.6667" lengthAdjust="spacingAndGlyphs"
text-anchor="middle" opacity="0" stroke-opacity="0">C3</text>
</g>
<g class="stroked-text"><desc>C3</desc>
<path d="M148.5745 79.0915
L148.6697 79.1867
" />
<path d="M148.6697 79.1867
L148.7649 79.4725
" />
<path d="M148.7649 79.4725
L148.7649 79.6629
" />
<path d="M148.7649 79.6629
L148.6697 79.9487
" />
<path d="M148.6697 79.9487
L148.4792 80.1391
" />
<path d="M148.4792 80.1391
L148.2887 80.2344
" />
<path d="M148.2887 80.2344
L147.9078 80.3296
" />
<path d="M147.9078 80.3296
L147.6221 80.3296
" />
<path d="M147.6221 80.3296
L147.2411 80.2344
" />
<path d="M147.2411 80.2344
L147.0507 80.1391
" />
<path d="M147.0507 80.1391
L146.8602 79.9487
" />
<path d="M146.8602 79.9487
L146.7649 79.6629
" />
<path d="M146.7649 79.6629
L146.7649 79.4725
" />
<path d="M146.7649 79.4725
L146.8602 79.1867
" />
<path d="M146.8602 79.1867
L146.9554 79.0915
" />
<path d="M146.7649 78.4248
L146.7649 77.1867
" />
<path d="M146.7649 77.1867
L147.5268 77.8534
" />
<path d="M147.5268 77.8534
L147.5268 77.5677
" />
<path d="M147.5268 77.5677
L147.6221 77.3772
" />
<path d="M147.6221 77.3772
L147.7173 77.2820
" />
<path d="M147.7173 77.2820
L147.9078 77.1867
" />
<path d="M147.9078 77.1867
L148.3840 77.1867
" />
<path d="M148.3840 77.1867
L148.5745 77.2820
" />
<path d="M148.5745 77.2820
L148.6697 77.3772
" />
<path d="M148.6697 77.3772
L148.7649 77.5677
" />
<path d="M148.7649 77.5677
L148.7649 78.1391
" />
<path d="M148.7649 78.1391
L148.6697 78.3296
" />
<path d="M148.6697 78.3296
L148.5745 78.4248
" />
</g><text x="157.0033" y="112.1302"
textLength="6.3095" font-size="2.6667" lengthAdjust="spacingAndGlyphs"
text-anchor="middle" opacity="0" stroke-opacity="0">D21</text>
<g class="stroked-text"><desc>D21</desc>
<path d="M154.5747 112.0398
L154.5747 110.0398
" />
<path d="M154.5747 110.0398
L155.0509 110.0398
" />
<path d="M155.0509 110.0398
L155.3366 110.1351
" />
<path d="M155.3366 110.1351
L155.5271 110.3255
" />
<path d="M155.5271 110.3255
L155.6223 110.5160
" />
<path d="M155.6223 110.5160
L155.7176 110.8970
" />
<path d="M155.7176 110.8970
L155.7176 111.1827
" />
<path d="M155.7176 111.1827
L155.6223 111.5636
" />
<path d="M155.6223 111.5636
L155.5271 111.7541
" />
<path d="M155.5271 111.7541
L155.3366 111.9446
" />
<path d="M155.3366 111.9446
L155.0509 112.0398
" />
<path d="M155.0509 112.0398
L154.5747 112.0398
" />
<path d="M156.4795 110.2303
L156.5747 110.1351
" />
<path d="M156.5747 110.1351
L156.7652 110.0398
" />
<path d="M156.7652 110.0398
L157.2414 110.0398
" />
<path d="M157.2414 110.0398
L157.4319 110.1351
" />
<path d="M157.4319 110.1351
L157.5271 110.2303
" />
<path d="M157.5271 110.2303
L157.6223 110.4208
" />
<path d="M157.6223 110.4208
L157.6223 110.6112
" />
<path d="M157.6223 110.6112
L157.5271 110.8970
" />
<path d="M157.5271 110.8970
L156.3843 112.0398
" />
<path d="M156.3843 112.0398
L157.6223 112.0398
" />
<path d="M159.5271 112.0398
L158.3843 112.0398
" />
<path d="M158.9557 112.0398
L158.9557 110.0398
" />
<path d="M158.9557 110.0398
L158.7652 110.3255
" />
<path d="M158.7652 110.3255
L158.5747 110.5160
" />
<path d="M158.5747 110.5160
L158.3843 110.6112
" />
</g><text x="139.7533" y="117.4802"
textLength="6.3095" font-size="2.6667" lengthAdjust="spacingAndGlyphs"
text-anchor="middle" opacity="0" stroke-opacity="0">D11</text>
<g class="stroked-text"><desc>D11</desc>
<path d="M137.3247 117.3898
L137.3247 115.3898
" />
<path d="M137.3247 115.3898
L137.8009 115.3898
" />
<path d="M137.8009 115.3898
L138.0866 115.4851
" />
<path d="M138.0866 115.4851
L138.2771 115.6755
" />
<path d="M138.2771 115.6755
L138.3723 115.8660
" />
<path d="M138.3723 115.8660
L138.4676 116.2470
" />
<path d="M138.4676 116.2470
L138.4676 116.5327
" />
<path d="M138.4676 116.5327
L138.3723 116.9136
" />
<path d="M138.3723 116.9136
L138.2771 117.1041
" />
<path d="M138.2771 117.1041
L138.0866 117.2946
" />
<path d="M138.0866 117.2946
L137.8009 117.3898
" />
<path d="M137.8009 117.3898
L137.3247 117.3898
" />
<path d="M140.3723 117.3898
L139.2295 117.3898
" />
<path d="M139.8009 117.3898
L139.8009 115.3898
" />
<path d="M139.8009 115.3898
L139.6104 115.6755
" />
<path d="M139.6104 115.6755
L139.4200 115.8660
" />
<path d="M139.4200 115.8660
L139.2295 115.9612
" />
<path d="M142.2771 117.3898
L141.1343 117.3898
" />
<path d="M141.7057 117.3898
L141.7057 115.3898
" />
<path d="M141.7057 115.3898
L141.5152 115.6755
" />
<path d="M141.5152 115.6755
L141.3247 115.8660
" />
<path d="M141.3247 115.8660
L141.1343 115.9612
" />
</g><text x="139.7533" y="81.9302"
textLength="4.4048" font-size="2.6667" lengthAdjust="spacingAndGlyphs"
text-anchor="middle" opacity="0" stroke-opacity="0">D4</text>
<g class="stroked-text"><desc>D4</desc>
<path d="M138.2771 81.8398
L138.2771 79.8398
" />
<path d="M138.2771 79.8398
L138.7533 79.8398
" />
<path d="M138.7533 79.8398
L139.0390 79.9351
" />
<path d="M139.0390 79.9351
L139.2295 80.1255
" />
<path d="M139.2295 80.1255
L139.3247 80.3160
" />
<path d="M139.3247 80.3160
L139.4200 80.6970
" />
<path d="M139.4200 80.6970
L139.4200 80.9827
" />
<path d="M139.4200 80.9827
L139.3247 81.3636
" />
<path d="M139.3247 81.3636
L139.2295 81.5541
" />
<path d="M139.2295 81.5541
L139.0390 81.7446
" />
<path d="M139.0390 81.7446
L138.7533 81.8398
" />
<path d="M138.7533 81.8398
L138.2771 81.8398
" />
<path d="M141.1343 80.5065
L141.1343 81.8398
" />
<path d="M140.6581 79.7446
L140.1819 81.1731
" />
<path d="M140.1819 81.1731
L141.4200 81.1731
" />
</g><text x="139.7533" y="92.0802"
textLength="4.4048" font-size="2.6667" lengthAdjust="spacingAndGlyphs"
text-anchor="middle" opacity="0" stroke-opacity="0">D6</text>
<g class="stroked-text"><desc>D6</desc>
<path d="M138.2771 91.9898
L138.2771 89.9898
" />
<path d="M138.2771 89.9898
L138.7533 89.9898
" />
<path d="M138.7533 89.9898
L139.0390 90.0851
" />
<path d="M139.0390 90.0851
L139.2295 90.2755
" />
<path d="M139.2295 90.2755
L139.3247 90.4660
" />
<path d="M139.3247 90.4660
L139.4200 90.8470
" />
<path d="M139.4200 90.8470
L139.4200 91.1327
" />
<path d="M139.4200 91.1327
L139.3247 91.5136
" />
<path d="M139.3247 91.5136
L139.2295 91.7041
" />
<path d="M139.2295 91.7041
L139.0390 91.8946
" />
<path d="M139.0390 91.8946
L138.7533 91.9898
" />
<path d="M138.7533 91.9898
L138.2771 91.9898
" />
<path d="M141.1343 89.9898
L140.7533 89.9898
" />
<path d="M140.7533 89.9898
L140.5628 90.0851
" />
<path d="M140.5628 90.0851
L140.4676 90.1803
" />
<path d="M140.4676 90.1803
L140.2771 90.4660
" />
<path d="M140.2771 90.4660
L140.1819 90.8470
" />
<path d="M140.1819 90.8470
L140.1819 91.6089
" />
<path d="M140.1819 91.6089
L140.2771 91.7993
" />
<path d="M140.2771 91.7993
L140.3723 91.8946
" />
<path d="M140.3723 91.8946
L140.5628 91.9898
" />
<path d="M140.5628 91.9898
L140.9438 91.9898
" />
<path d="M140.9438 91.9898
L141.1343 91.8946
" />
<path d="M141.1343 91.8946
L141.2295 91.7993
" />
<path d="M141.2295 91.7993
L141.3247 91.6089
" />
<path d="M141.3247 91.6089
L141.3247 91.1327
" />
<path d="M141.3247 91.1327
L141.2295 90.9422
" />
<path d="M141.2295 90.9422
L141.1343 90.8470
" />
<path d="M141.1343 90.8470
L140.9438 90.7517
" />
<path d="M140.9438 90.7517
L140.5628 90.7517
" />
<path d="M140.5628 90.7517
L140.3723 90.8470
" />
<path d="M140.3723 90.8470
L140.2771 90.9422
" />
<path d="M140.2771 90.9422
L140.1819 91.1327
" />
</g><g transform="rotate(-90.000000 149.3925 68.5502)">
<text x="149.3925" y="69.5502"
textLength="4.4048" font-size="2.6667" lengthAdjust="spacingAndGlyphs"
text-anchor="middle" opacity="0" stroke-opacity="0">R1</text>
</g>
<g class="stroked-text"><desc>R1</desc>
<path d="M150.3021 68.8835
L149.3497 69.5502
" />
<path d="M150.3021 70.0264
L148.3021 70.0264
" />
<path d="M148.3021 70.0264
L148.3021 69.2645
" />
<path d="M148.3021 69.2645
L148.3973 69.0740
" />
<path d="M148.3973 69.0740
L148.4926 68.9787
" />
<path d="M148.4926 68.9787
L148.6831 68.8835
" />
<path d="M148.6831 68.8835
L148.9688 68.8835
" />
<path d="M148.9688 68.8835
L149.1592 68.9787
" />
<path d="M149.1592 68.9787
L149.2545 69.0740
" />
<path d="M149.2545 69.0740
L149.3497 69.2645
" />
<path d="M149.3497 69.2645
L149.3497 70.0264
" />
<path d="M150.3021 66.9787
L150.3021 68.1216
" />
<path d="M150.3021 67.5502
L148.3021 67.5502
" />
<path d="M148.3021 67.5502
L148.5878 67.7407
" />
<path d="M148.5878 67.7407
L148.7783 67.9311
" />
<path d="M148.7783 67.9311
L148.8735 68.1216
" />
</g><text x="143.1533" y="69.0302"
textLength="4.4048" font-size="2.6667" lengthAdjust="spacingAndGlyphs"
text-anchor="middle" opacity="0" stroke-opacity="0">D1</text>
<g class="stroked-text"><desc>D1</desc>
<path d="M141.6771 68.9398
L141.6771 66.9398
" />
<path d="M141.6771 66.9398
L142.1533 66.9398
" />
<path d="M142.1533 66.9398
L142.4390 67.0351
" />
<path d="M142.4390 67.0351
L142.6295 67.2255
" />
<path d="M142.6295 67.2255
L142.7247 67.4160
" />
<path d="M142.7247 67.4160
L142.8200 67.7970
" />
<path d="M142.8200 67.7970
L142.8200 68.0827
" />
<path d="M142.8200 68.0827
L142.7247 68.4636
" />
<path d="M142.7247 68.4636
L142.6295 68.6541
" />
<path d="M142.6295 68.6541
L142.4390 68.8446
" />
<path d="M142.4390 68.8446
L142.1533 68.9398
" />
<path d="M142.1533 68.9398
L141.6771 68.9398
" />
<path d="M144.7247 68.9398
L143.5819 68.9398
" />
<path d="M144.1533 68.9398
L144.1533 66.9398
" />
<path d="M144.1533 66.9398
L143.9628 67.2255
" />
<path d="M143.9628 67.2255
L143.7723 67.4160
" />
<path d="M143.7723 67.4160
L143.5819 67.5112
" />
</g><text x="157.0033" y="107.0302"
textLength="6.3095" font-size="2.6667" lengthAdjust="spacingAndGlyphs"
text-anchor="middle" opacity="0" stroke-opacity="0">D20</text>
<g class="stroked-text"><desc>D20</desc>
<path d="M154.5747 106.9398
L154.5747 104.9398
" />
<path d="M154.5747 104.9398
L155.0509 104.9398
" />
<path d="M155.0509 104.9398
L155.3366 105.0351
" />
<path d="M155.3366 105.0351
L155.5271 105.2255
" />
<path d="M155.5271 105.2255
L155.6223 105.4160
" />
<path d="M155.6223 105.4160
L155.7176 105.7970
" />
<path d="M155.7176 105.7970
L155.7176 106.0827
" />
<path d="M155.7176 106.0827
L155.6223 106.4636
" />
<path d="M155.6223 106.4636
L155.5271 106.6541
" />
<path d="M155.5271 106.6541
L155.3366 106.8446
" />
<path d="M155.3366 106.8446
L155.0509 106.9398
" />
<path d="M155.0509 106.9398
L154.5747 106.9398
" />
<path d="M156.4795 105.1303
L156.5747 105.0351
" />
<path d="M156.5747 105.0351
L156.7652 104.9398
" />
<path d="M156.7652 104.9398
L157.2414 104.9398
" />
<path d="M157.2414 104.9398
L157.4319 105.0351
" />
<path d="M157.4319 105.0351
L157.5271 105.1303
" />
<path d="M157.5271 105.1303
L157.6223 105.3208
" />
<path d="M157.6223 105.3208
L157.6223 105.5112
" />
<path d="M157.6223 105.5112
L157.5271 105.7970
" />
<path d="M157.5271 105.7970
L156.3843 106.9398
" />
<path d="M156.3843 106.9398
L157.6223 106.9398
" />
<path d="M158.8604 104.9398
L159.0509 104.9398
" />
<path d="M159.0509 104.9398
L159.2414 105.0351
" />
<path d="M159.2414 105.0351
L159.3366 105.1303
" />
<path d="M159.3366 105.1303
L159.4319 105.3208
" />
<path d="M159.4319 105.3208
L159.5271 105.7017
" />
<path d="M159.5271 105.7017
L159.5271 106.1779
" />
<path d="M159.5271 106.1779
L159.4319 106.5589
" />
<path d="M159.4319 106.5589
L159.3366 106.7493
" />
<path d="M159.3366 106.7493
L159.2414 106.8446
" />
<path d="M159.2414 106.8446
L159.0509 106.9398
" />
<path d="M159.0509 106.9398
L158.8604 106.9398
" />
<path d="M158.8604 106.9398
L158.6700 106.8446
" />
<path d="M158.6700 106.8446
L158.5747 106.7493
" />
<path d="M158.5747 106.7493
L158.4795 106.5589
" />
<path d="M158.4795 106.5589
L158.3843 106.1779
" />
<path d="M158.3843 106.1779
L158.3843 105.7017
" />
<path d="M158.3843 105.7017
L158.4795 105.3208
" />
<path d="M158.4795 105.3208
L158.5747 105.1303
" />
<path d="M158.5747 105.1303
L158.6700 105.0351
" />
<path d="M158.6700 105.0351
L158.8604 104.9398
" />
</g><text x="157.0033" y="71.4802"
textLength="6.3095" font-size="2.6667" lengthAdjust="spacingAndGlyphs"
text-anchor="middle" opacity="0" stroke-opacity="0">D13</text>
<g class="stroked-text"><desc>D13</desc>
<path d="M154.5747 71.3898
L154.5747 69.3898
" />
<path d="M154.5747 69.3898
L155.0509 69.3898
" />
<path d="M155.0509 69.3898
L155.3366 69.4851
" />
<path d="M155.3366 69.4851
L155.5271 69.6755
" />
<path d="M155.5271 69.6755
L155.6223 69.8660
" />
<path d="M155.6223 69.8660
L155.7176 70.2470
" />
<path d="M155.7176 70.2470
L155.7176 70.5327
" />
<path d="M155.7176 70.5327
L155.6223 70.9136
" />
<path d="M155.6223 70.9136
L155.5271 71.1041
" />
<path d="M155.5271 71.1041
L155.3366 71.2946
" />
<path d="M155.3366 71.2946
L155.0509 71.3898
" />
<path d="M155.0509 71.3898
L154.5747 71.3898
" />
<path d="M157.6223 71.3898
L156.4795 71.3898
" />
<path d="M157.0509 71.3898
L157.0509 69.3898
" />
<path d="M157.0509 69.3898
L156.8604 69.6755
" />
<path d="M156.8604 69.6755
L156.6700 69.8660
" />
<path d="M156.6700 69.8660
L156.4795 69.9612
" />
<path d="M158.2890 69.3898
L159.5271 69.3898
" />
<path d="M159.5271 69.3898
L158.8604 70.1517
" />
<path d="M158.8604 70.1517
L159.1462 70.1517
" />
<path d="M159.1462 70.1517
L159.3366 70.2470
" />
<path d="M159.3366 70.2470
L159.4319 70.3422
" />
<path d="M159.4319 70.3422
L159.5271 70.5327
" />
<path d="M159.5271 70.5327
L159.5271 71.0089
" />
<path d="M159.5271 71.0089
L159.4319 71.1993
" />
<path d="M159.4319 71.1993
L159.3366 71.2946
" />
<path d="M159.3366 71.2946
L159.1462 71.3898
" />
<path d="M159.1462 71.3898
L158.5747 71.3898
" />
<path d="M158.5747 71.3898
L158.3843 71.2946
" />
<path d="M158.3843 71.2946
L158.2890 71.1993
" />
</g><text x="139.7533" y="76.8802"
textLength="4.4048" font-size="2.6667" lengthAdjust="spacingAndGlyphs"
text-anchor="middle" opacity="0" stroke-opacity="0">D3</text>
<g class="stroked-text"><desc>D3</desc>
<path d="M138.2771 76.7898
L138.2771 74.7898
" />
<path d="M138.2771 74.7898
L138.7533 74.7898
" />
<path d="M138.7533 74.7898
L139.0390 74.8851
" />
<path d="M139.0390 74.8851
L139.2295 75.0755
" />
<path d="M139.2295 75.0755
L139.3247 75.2660
" />
<path d="M139.3247 75.2660
L139.4200 75.6470
" />
<path d="M139.4200 75.6470
L139.4200 75.9327
" />
<path d="M139.4200 75.9327
L139.3247 76.3136
" />
<path d="M139.3247 76.3136
L139.2295 76.5041
" />
<path d="M139.2295 76.5041
L139.0390 76.6946
" />
<path d="M139.0390 76.6946
L138.7533 76.7898
" />
<path d="M138.7533 76.7898
L138.2771 76.7898
" />
<path d="M140.0866 74.7898
L141.3247 74.7898
" />
<path d="M141.3247 74.7898
L140.6581 75.5517
" />
<path d="M140.6581 75.5517
L140.9438 75.5517
" />
<path d="M140.9438 75.5517
L141.1343 75.6470
" />
<path d="M141.1343 75.6470
L141.2295 75.7422
" />
<path d="M141.2295 75.7422
L141.3247 75.9327
" />
<path d="M141.3247 75.9327
L141.3247 76.4089
" />
<path d="M141.3247 76.4089
L141.2295 76.5993
" />
<path d="M141.2295 76.5993
L141.1343 76.6946
" />
<path d="M141.1343 76.6946
L140.9438 76.7898
" />
<path d="M140.9438 76.7898
L140.3723 76.7898
" />
<path d="M140.3723 76.7898
L140.1819 76.6946
" />
<path d="M140.1819 76.6946
L140.0866 76.5993
" />
</g><text x="139.7533" y="112.4302"
textLength="6.3095" font-size="2.6667" lengthAdjust="spacingAndGlyphs"
text-anchor="middle" opacity="0" stroke-opacity="0">D10</text>
<g class="stroked-text"><desc>D10</desc>
<path d="M137.3247 112.3398
L137.3247 110.3398
" />
<path d="M137.3247 110.3398
L137.8009 110.3398
" />
<path d="M137.8009 110.3398
L138.0866 110.4351
" />
<path d="M138.0866 110.4351
L138.2771 110.6255
" />
<path d="M138.2771 110.6255
L138.3723 110.8160
" />
<path d="M138.3723 110.8160
L138.4676 111.1970
" />
<path d="M138.4676 111.1970
L138.4676 111.4827
" />
<path d="M138.4676 111.4827
L138.3723 111.8636
" />
<path d="M138.3723 111.8636
L138.2771 112.0541
" />
<path d="M138.2771 112.0541
L138.0866 112.2446
" />
<path d="M138.0866 112.2446
L137.8009 112.3398
" />
<path d="M137.8009 112.3398
L137.3247 112.3398
" />
<path d="M140.3723 112.3398
L139.2295 112.3398
" />
<path d="M139.8009 112.3398
L139.8009 110.3398
" />
<path d="M139.8009 110.3398
L139.6104 110.6255
" />
<path d="M139.6104 110.6255
L139.4200 110.8160
" />
<path d="M139.4200 110.8160
L139.2295 110.9112
" />
<path d="M141.6104 110.3398
L141.8009 110.3398
" />
<path d="M141.8009 110.3398
L141.9914 110.4351
" />
<path d="M141.9914 110.4351
L142.0866 110.5303
" />
<path d="M142.0866 110.5303
L142.1819 110.7208
" />
<path d="M142.1819 110.7208
L142.2771 111.1017
" />
<path d="M142.2771 111.1017
L142.2771 111.5779
" />
<path d="M142.2771 111.5779
L142.1819 111.9589
" />
<path d="M142.1819 111.9589
L142.0866 112.1493
" />
<path d="M142.0866 112.1493
L141.9914 112.2446
" />
<path d="M141.9914 112.2446
L141.8009 112.3398
" />
<path d="M141.8009 112.3398
L141.6104 112.3398
" />
<path d="M141.6104 112.3398
L141.4200 112.2446
" />
<path d="M141.4200 112.2446
L141.3247 112.1493
" />
<path d="M141.3247 112.1493
L141.2295 111.9589
" />
<path d="M141.2295 111.9589
L141.1343 111.5779
" />
<path d="M141.1343 111.5779
L141.1343 111.1017
" />
<path d="M141.1343 111.1017
L141.2295 110.7208
" />
<path d="M141.2295 110.7208
L141.3247 110.5303
" />
<path d="M141.3247 110.5303
L141.4200 110.4351
" />
<path d="M141.4200 110.4351
L141.6104 110.3398
" />
</g><text x="139.7483" y="102.2802"
textLength="4.4048" font-size="2.6667" lengthAdjust="spacingAndGlyphs"
text-anchor="middle" opacity="0" stroke-opacity="0">D8</text>
<g class="stroked-text"><desc>D8</desc>
<path d="M138.2721 102.1898
L138.2721 100.1898
" />
<path d="M138.2721 100.1898
L138.7483 100.1898
" />
<path d="M138.7483 100.1898
L139.0340 100.2851
" />
<path d="M139.0340 100.2851
L139.2245 100.4755
" />
<path d="M139.2245 100.4755
L139.3197 100.6660
" />
<path d="M139.3197 100.6660
L139.4150 101.0470
" />
<path d="M139.4150 101.0470
L139.4150 101.3327
" />
<path d="M139.4150 101.3327
L139.3197 101.7136
" />
<path d="M139.3197 101.7136
L139.2245 101.9041
" />
<path d="M139.2245 101.9041
L139.0340 102.0946
" />
<path d="M139.0340 102.0946
L138.7483 102.1898
" />
<path d="M138.7483 102.1898
L138.2721 102.1898
" />
<path d="M140.5578 101.0470
L140.3673 100.9517
" />
<path d="M140.3673 100.9517
L140.2721 100.8565
" />
<path d="M140.2721 100.8565
L140.1769 100.6660
" />
<path d="M140.1769 100.6660
L140.1769 100.5708
" />
<path d="M140.1769 100.5708
L140.2721 100.3803
" />
<path d="M140.2721 100.3803
L140.3673 100.2851
" />
<path d="M140.3673 100.2851
L140.5578 100.1898
" />
<path d="M140.5578 100.1898
L140.9388 100.1898
" />
<path d="M140.9388 100.1898
L141.1293 100.2851
" />
<path d="M141.1293 100.2851
L141.2245 100.3803
" />
<path d="M141.2245 100.3803
L141.3197 100.5708
" />
<path d="M141.3197 100.5708
L141.3197 100.6660
" />
<path d="M141.3197 100.6660
L141.2245 100.8565
" />
<path d="M141.2245 100.8565
L141.1293 100.9517
" />
<path d="M141.1293 100.9517
L140.9388 101.0470
" />
<path d="M140.9388 101.0470
L140.5578 101.0470
" />
<path d="M140.5578 101.0470
L140.3673 101.1422
" />
<path d="M140.3673 101.1422
L140.2721 101.2374
" />
<path d="M140.2721 101.2374
L140.1769 101.4279
" />
<path d="M140.1769 101.4279
L140.1769 101.8089
" />
<path d="M140.1769 101.8089
L140.2721 101.9993
" />
<path d="M140.2721 101.9993
L140.3673 102.0946
" />
<path d="M140.3673 102.0946
L140.5578 102.1898
" />
<path d="M140.5578 102.1898
L140.9388 102.1898
" />
<path d="M140.9388 102.1898
L141.1293 102.0946
" />
<path d="M141.1293 102.0946
L141.2245 101.9993
" />
<path d="M141.2245 101.9993
L141.3197 101.8089
" />
<path d="M141.3197 101.8089
L141.3197 101.4279
" />
<path d="M141.3197 101.4279
L141.2245 101.2374
" />
<path d="M141.2245 101.2374
L141.1293 101.1422
" />
<path d="M141.1293 101.1422
L140.9388 101.0470
" />
</g></g>
<g style="fill:none; 
stroke:#000000; stroke-width:0.2400; stroke-opacity:1; 
stroke-linecap:round; stroke-linejoin:round;">
<path d="M143.4833 83.9613
L143.4833 83.3990
" />
<path d="M145.5233 83.9613
L145.5233 83.3990
" />
<path d="M155.9533 82.5302
L158.6733 82.5302
" />
<path d="M155.9533 84.1302
L158.6733 84.1302
" />
<path d="M158.6733 84.1302
L158.6733 82.5302
" />
<path d="M138.0333 72.3802
L138.0333 73.9802
" />
<path d="M140.7533 72.3802
L138.0333 72.3802
" />
<path d="M140.7533 73.9802
L138.0333 73.9802
" />
<path d="M138.0333 97.7802
L138.0333 99.3802
" />
<path d="M140.7533 97.7802
L138.0333 97.7802
" />
<path d="M140.7533 99.3802
L138.0333 99.3802
" />
<path d="M156.0033 72.3802
L158.7233 72.3802
" />
<path d="M156.0033 73.9802
L158.7233 73.9802
" />
<path d="M158.7233 73.9802
L158.7233 72.3802
" />
<path d="M138.0333 87.6302
L138.0333 89.2302
" />
<path d="M140.7533 87.6302
L138.0333 87.6302
" />
<path d="M140.7533 89.2302
L138.0333 89.2302
" />
<path d="M138.0333 107.9302
L138.0333 109.5302
" />
<path d="M140.7533 107.9302
L138.0333 107.9302
" />
<path d="M140.7533 109.5302
L138.0333 109.5302
" />
<path d="M156.0033 113.0302
L158.7233 113.0302
" />
<path d="M156.0033 114.6302
L158.7233 114.6302
" />
<path d="M158.7233 114.6302
L158.7233 113.0302
" />
<path d="M138.0333 123.1802
L138.0333 124.7802
" />
<path d="M140.7533 123.1802
L138.0333 123.1802
" />
<path d="M140.7533 124.7802
L138.0333 124.7802
" />
<path d="M144.0783 73.0757
L144.0783 74.0247
" />
<path d="M146.1683 73.0757
L146.1683 74.0247
" />
<path d="M156.0033 77.4302
L158.7233 77.4302
" />
<path d="M156.0033 79.0302
L158.7233 79.0302
" />
<path d="M158.7233 79.0302
L158.7233 77.4302
" />
<path d="M156.0083 97.7802
L158.7283 97.7802
" />
<path d="M156.0083 99.3802
L158.7283 99.3802
" />
<path d="M158.7283 99.3802
L158.7283 97.7802
" />
<path d="M145.5833 87.1102
L152.0233 87.1102
" />
<path d="M152.0233 99.7502
L145.5833 99.7502
" />
<path style="fill:#000000; fill-opacity:1.0000; 
stroke:#000000; stroke-width:0.2400; stroke-opacity:1; 
stroke-linecap:round; stroke-linejoin:round;fill-rule:evenodd;"
d="M 142.4833,87.9302
141.8233,88.4102
141.8233,87.4502
Z" /> 
</g>
<g style="fill:none; 
stroke:#000000; stroke-width:0.2400; stroke-opacity:1; 
stroke-linecap:round; stroke-linejoin:round;">
<path d="M156.0033 118.0802
L158.7233 118.0802
" />
<path d="M156.0033 119.6802
L158.7233 119.6802
" />
<path d="M158.7233 119.6802
L158.7233 118.0802
" />
<path d="M156.0033 87.6302
L158.7233 87.6302
" />
<path d="M156.0033 89.2302
L158.7233 89.2302
" />
<path d="M158.7233 89.2302
L158.7233 87.6302
" />
<path d="M156.0033 92.6802
L158.7233 92.6802
" />
<path d="M156.0033 94.2802
L158.7233 94.2802
" />
<path d="M158.7233 94.2802
L158.7233 92.6802
" />
<path d="M146.6333 83.9613
L146.6333 83.3990
" />
<path d="M148.6733 83.9613
L148.6733 83.3990
" />
<path d="M156.0033 107.9302
L158.7233 107.9302
" />
<path d="M156.0033 109.5302
L158.7233 109.5302
" />
<path d="M158.7233 109.5302
L158.7233 107.9302
" />
<path d="M138.0333 118.0802
L138.0333 119.6802
" />
<path d="M140.7533 118.0802
L138.0333 118.0802
" />
<path d="M140.7533 119.6802
L138.0333 119.6802
" />
<path d="M138.0333 82.5302
L138.0333 84.1302
" />
<path d="M140.7533 82.5302
L138.0333 82.5302
" />
<path d="M140.7533 84.1302
L138.0333 84.1302
" />
<path d="M138.0333 92.6802
L138.0333 94.2802
" />
<path d="M140.7533 92.6802
L138.0333 92.6802
" />
<path d="M140.7533 94.2802
L138.0333 94.2802
" />
<path d="M147.2783 73.0757
L147.2783 74.0247
" />
<path d="M149.3683 73.0757
L149.3683 74.0247
" />
<path d="M138.0333 67.2802
L138.0333 68.8802
" />
<path d="M140.7533 67.2802
L138.0333 67.2802
" />
<path d="M140.7533 68.8802
L138.0333 68.8802
" />
<path d="M156.0033 102.8302
L158.7233 102.8302
" />
<path d="M156.0033 104.4302
L158.7233 104.4302
" />
<path d="M158.7233 104.4302
L158.7233 102.8302
" />
<path d="M156.0033 67.2802
L158.7233 67.2802
" />
<path d="M156.0033 68.8802
L158.7233 68.8802
" />
<path d="M158.7233 68.8802
L158.7233 67.2802
" />
<path d="M138.0333 77.4802
L138.0333 79.0802
" />
<path d="M140.7533 77.4802
L138.0333 77.4802
" />
<path d="M140.7533 79.0802
L138.0333 79.0802
" />
<path d="M138.0333 113.0302
L138.0333 114.6302
" />
<path d="M140.7533 113.0302
L138.0333 113.0302
" />
<path d="M140.7533 114.6302
L138.0333 114.6302
" />
<path d="M138.0283 102.8802
L138.0283 104.4802
" />
<path d="M140.7483 102.8802
L138.0283 102.8802
" />
<path d="M140.7483 104.4802
L138.0283 104.4802
" />
</g> 
</svg>
