<?xml version="1.0" standalone="no"?>
 <!DOCTYPE svg PUBLIC "-//W3C//DTD SVG 1.1//EN" 
 "http://www.w3.org/Graphics/SVG/1.1/DTD/svg11.dtd"> 
<svg
  xmlns:svg="http://www.w3.org/2000/svg"
  xmlns="http://www.w3.org/2000/svg"
  xmlns:xlink="http://www.w3.org/1999/xlink"
  version="1.1"
  width="297.0022mm" height="210.0072mm" viewBox="0.0000 0.0000 297.0022 210.0072">
<title>SVG Image created as txe8116-module-F_Cu_pads.svg date 2026/03/24 20:18:09 </title>
  <desc>Image generated by PCBNEW </desc>
<g style="fill:#000000; fill-opacity:1.0000;stroke:#000000; stroke-opacity:1.0000;
stroke-linecap:round; stroke-linejoin:round;"
 transform="translate(0 0) scale(1 1)">
<path style="fill:#000000; fill-opacity:1.0000; stroke:none;fill-rule:evenodd;"
d="M 165.2797,66.4138
165.2797,69.7666
161.9269,69.7666
161.9269,66.4138
Z" /> 
<path style="fill:#000000; fill-opacity:1.0000; stroke:none;fill-rule:evenodd;"
d="M 163.6033,69.7666
161.0354,69.7666
160.6860,69.6971
160.3586,69.5563
160.0676,69.3505
159.8258,69.0886
159.6439,68.7821
159.5297,68.4445
159.4885,68.0917
159.4885,68.0890
159.5217,67.7331
159.6315,67.3912
159.8123,67.0811
160.0559,66.8173
160.3506,66.6122
160.6826,66.4755
161.0357,66.4138
163.6033,66.4138
Z" /> 
<path style="fill:#000000; fill-opacity:1.0000; stroke:none;fill-rule:evenodd;"
d="M 165.2797,71.4938
165.2797,74.8466
161.9269,74.8466
161.9269,71.4938
Z" /> 
<path style="fill:#000000; fill-opacity:1.0000; stroke:none;fill-rule:evenodd;"
d="M 163.6033,74.8466
161.0354,74.8466
160.6860,74.7771
160.3586,74.6363
160.0676,74.4305
159.8258,74.1686
159.6439,73.8621
159.5297,73.5245
159.4885,73.1717
159.4885,73.1690
159.5217,72.8131
159.6315,72.4712
159.8123,72.1611
160.0559,71.8973
160.3506,71.6922
160.6826,71.5555
161.0357,71.4938
163.6033,71.4938
Z" /> 
<path style="fill:#000000; fill-opacity:1.0000; stroke:none;fill-rule:evenodd;"
d="M 165.2797,76.5738
165.2797,79.9266
161.9269,79.9266
161.9269,76.5738
Z" /> 
<path style="fill:#000000; fill-opacity:1.0000; stroke:none;fill-rule:evenodd;"
d="M 163.6033,79.9266
161.0354,79.9266
160.6860,79.8571
160.3586,79.7163
160.0676,79.5105
159.8258,79.2486
159.6439,78.9421
159.5297,78.6045
159.4885,78.2517
159.4885,78.2490
159.5217,77.8931
159.6315,77.5512
159.8123,77.2411
160.0559,76.9773
160.3506,76.7722
160.6826,76.6355
161.0357,76.5738
163.6033,76.5738
Z" /> 
<path style="fill:#000000; fill-opacity:1.0000; stroke:none;fill-rule:evenodd;"
d="M 165.2797,81.6538
165.2797,85.0066
161.9269,85.0066
161.9269,81.6538
Z" /> 
<path style="fill:#000000; fill-opacity:1.0000; stroke:none;fill-rule:evenodd;"
d="M 163.6033,85.0066
161.0354,85.0066
160.6860,84.9371
160.3586,84.7963
160.0676,84.5905
159.8258,84.3286
159.6439,84.0221
159.5297,83.6845
159.4885,83.3317
159.4885,83.3290
159.5217,82.9731
159.6315,82.6312
159.8123,82.3211
160.0559,82.0573
160.3506,81.8522
160.6826,81.7155
161.0357,81.6538
163.6033,81.6538
Z" /> 
<path style="fill:#000000; fill-opacity:1.0000; stroke:none;fill-rule:evenodd;"
d="M 165.2797,86.7338
165.2797,90.0866
161.9269,90.0866
161.9269,86.7338
Z" /> 
<path style="fill:#000000; fill-opacity:1.0000; stroke:none;fill-rule:evenodd;"
d="M 163.6033,90.0866
161.0354,90.0866
160.6860,90.0171
160.3586,89.8763
160.0676,89.6705
159.8258,89.4086
159.6439,89.1021
159.5297,88.7645
159.4885,88.4117
159.4885,88.4090
159.5217,88.0531
159.6315,87.7112
159.8123,87.4011
160.0559,87.1373
160.3506,86.9322
160.6826,86.7955
161.0357,86.7338
163.6033,86.7338
Z" /> 
<path style="fill:#000000; fill-opacity:1.0000; stroke:none;fill-rule:evenodd;"
d="M 165.2797,91.8138
165.2797,95.1666
161.9269,95.1666
161.9269,91.8138
Z" /> 
<path style="fill:#000000; fill-opacity:1.0000; stroke:none;fill-rule:evenodd;"
d="M 163.6033,95.1666
161.0354,95.1666
160.6860,95.0971
160.3586,94.9563
160.0676,94.7505
159.8258,94.4886
159.6439,94.1821
159.5297,93.8445
159.4885,93.4917
159.4885,93.4890
159.5217,93.1331
159.6315,92.7912
159.8123,92.4811
160.0559,92.2173
160.3506,92.0122
160.6826,91.8755
161.0357,91.8138
163.6033,91.8138
Z" /> 
<path style="fill:#000000; fill-opacity:1.0000; stroke:none;fill-rule:evenodd;"
d="M 165.2797,96.8938
165.2797,100.2466
161.9269,100.2466
161.9269,96.8938
Z" /> 
<path style="fill:#000000; fill-opacity:1.0000; stroke:none;fill-rule:evenodd;"
d="M 163.6033,100.2466
161.0354,100.2466
160.6860,100.1771
160.3586,100.0363
160.0676,99.8305
159.8258,99.5686
159.6439,99.2621
159.5297,98.9245
159.4885,98.5717
159.4885,98.5690
159.5217,98.2131
159.6315,97.8712
159.8123,97.5611
160.0559,97.2973
160.3506,97.0922
160.6826,96.9555
161.0357,96.8938
163.6033,96.8938
Z" /> 
<path style="fill:#000000; fill-opacity:1.0000; stroke:none;fill-rule:evenodd;"
d="M 165.2797,101.9738
165.2797,105.3266
161.9269,105.3266
161.9269,101.9738
Z" /> 
<path style="fill:#000000; fill-opacity:1.0000; stroke:none;fill-rule:evenodd;"
d="M 163.6033,105.3266
161.0354,105.3266
160.6860,105.2571
160.3586,105.1163
160.0676,104.9105
159.8258,104.6486
159.6439,104.3421
159.5297,104.0045
159.4885,103.6517
159.4885,103.6490
159.5217,103.2931
159.6315,102.9512
159.8123,102.6411
160.0559,102.3773
160.3506,102.1722
160.6826,102.0355
161.0357,101.9738
163.6033,101.9738
Z" /> 
<path style="fill:#000000; fill-opacity:1.0000; stroke:none;fill-rule:evenodd;"
d="M 165.2797,107.0538
165.2797,110.4066
161.9269,110.4066
161.9269,107.0538
Z" /> 
<path style="fill:#000000; fill-opacity:1.0000; stroke:none;fill-rule:evenodd;"
d="M 163.6033,110.4066
161.0354,110.4066
160.6860,110.3371
160.3586,110.1963
160.0676,109.9905
159.8258,109.7286
159.6439,109.4221
159.5297,109.0845
159.4885,108.7317
159.4885,108.7290
159.5217,108.3731
159.6315,108.0312
159.8123,107.7211
160.0559,107.4573
160.3506,107.2522
160.6826,107.1155
161.0357,107.0538
163.6033,107.0538
Z" /> 
<path style="fill:#000000; fill-opacity:1.0000; stroke:none;fill-rule:evenodd;"
d="M 165.2797,112.1338
165.2797,115.4866
161.9269,115.4866
161.9269,112.1338
Z" /> 
<path style="fill:#000000; fill-opacity:1.0000; stroke:none;fill-rule:evenodd;"
d="M 163.6033,115.4866
161.0354,115.4866
160.6860,115.4171
160.3586,115.2763
160.0676,115.0705
159.8258,114.8086
159.6439,114.5021
159.5297,114.1645
159.4885,113.8117
159.4885,113.8090
159.5217,113.4531
159.6315,113.1112
159.8123,112.8011
160.0559,112.5373
160.3506,112.3322
160.6826,112.1955
161.0357,112.1338
163.6033,112.1338
Z" /> 
<path style="fill:#000000; fill-opacity:1.0000; stroke:none;fill-rule:evenodd;"
d="M 165.2797,117.2138
165.2797,120.5666
161.9269,120.5666
161.9269,117.2138
Z" /> 
<path style="fill:#000000; fill-opacity:1.0000; stroke:none;fill-rule:evenodd;"
d="M 163.6033,120.5666
161.0354,120.5666
160.6860,120.4971
160.3586,120.3563
160.0676,120.1505
159.8258,119.8886
159.6439,119.5821
159.5297,119.2445
159.4885,118.8917
159.4885,118.8890
159.5217,118.5331
159.6315,118.1912
159.8123,117.8811
160.0559,117.6173
160.3506,117.4122
160.6826,117.2755
161.0357,117.2138
163.6033,117.2138
Z" /> 
<path style="fill:#000000; fill-opacity:1.0000; stroke:none;fill-rule:evenodd;"
d="M 165.2797,122.2938
165.2797,125.6466
161.9269,125.6466
161.9269,122.2938
Z" /> 
<path style="fill:#000000; fill-opacity:1.0000; stroke:none;fill-rule:evenodd;"
d="M 163.6033,125.6466
161.0354,125.6466
160.6860,125.5771
160.3586,125.4363
160.0676,125.2305
159.8258,124.9686
159.6439,124.6621
159.5297,124.3245
159.4885,123.9717
159.4885,123.9690
159.5217,123.6131
159.6315,123.2712
159.8123,122.9611
160.0559,122.6973
160.3506,122.4922
160.6826,122.3555
161.0357,122.2938
163.6033,122.2938
Z" /> 
<path style="fill:#000000; fill-opacity:1.0000; stroke:none;fill-rule:evenodd;"
d="M 133.1233,66.4138
135.6909,66.4138
136.0440,66.4755
136.3760,66.6122
136.6707,66.8173
136.9143,67.0811
137.0951,67.3912
137.2049,67.7331
137.2381,68.0890
137.2381,68.0917
137.1969,68.4445
137.0827,68.7821
136.9008,69.0886
136.6590,69.3505
136.3680,69.5563
136.0406,69.6971
135.6912,69.7666
133.1233,69.7666
Z" /> 
<path style="fill:#000000; fill-opacity:1.0000; stroke:none;fill-rule:evenodd;"
d="M 131.4469,69.7666
131.4469,66.4138
134.7997,66.4138
134.7997,69.7666
Z" /> 
<path style="fill:#000000; fill-opacity:1.0000; stroke:none;fill-rule:evenodd;"
d="M 133.1233,71.4938
135.6909,71.4938
136.0440,71.5555
136.3760,71.6922
136.6707,71.8973
136.9143,72.1611
137.0951,72.4712
137.2049,72.8131
137.2381,73.1690
137.2381,73.1717
137.1969,73.5245
137.0827,73.8621
136.9008,74.1686
136.6590,74.4305
136.3680,74.6363
136.0406,74.7771
135.6912,74.8466
133.1233,74.8466
Z" /> 
<path style="fill:#000000; fill-opacity:1.0000; stroke:none;fill-rule:evenodd;"
d="M 131.4469,74.8466
131.4469,71.4938
134.7997,71.4938
134.7997,74.8466
Z" /> 
<path style="fill:#000000; fill-opacity:1.0000; stroke:none;fill-rule:evenodd;"
d="M 133.1233,76.5738
135.6909,76.5738
136.0440,76.6355
136.3760,76.7722
136.6707,76.9773
136.9143,77.2411
137.0951,77.5512
137.2049,77.8931
137.2381,78.2490
137.2381,78.2517
137.1969,78.6045
137.0827,78.9421
136.9008,79.2486
136.6590,79.5105
136.3680,79.7163
136.0406,79.8571
135.6912,79.9266
133.1233,79.9266
Z" /> 
<path style="fill:#000000; fill-opacity:1.0000; stroke:none;fill-rule:evenodd;"
d="M 131.4469,79.9266
131.4469,76.5738
134.7997,76.5738
134.7997,79.9266
Z" /> 
<path style="fill:#000000; fill-opacity:1.0000; stroke:none;fill-rule:evenodd;"
d="M 133.1233,81.6538
135.6909,81.6538
136.0440,81.7155
136.3760,81.8522
136.6707,82.0573
136.9143,82.3211
137.0951,82.6312
137.2049,82.9731
137.2381,83.3290
137.2381,83.3317
137.1969,83.6845
137.0827,84.0221
136.9008,84.3286
136.6590,84.5905
136.3680,84.7963
136.0406,84.9371
135.6912,85.0066
133.1233,85.0066
Z" /> 
<path style="fill:#000000; fill-opacity:1.0000; stroke:none;fill-rule:evenodd;"
d="M 131.4469,85.0066
131.4469,81.6538
134.7997,81.6538
134.7997,85.0066
Z" /> 
<path style="fill:#000000; fill-opacity:1.0000; stroke:none;fill-rule:evenodd;"
d="M 133.1233,86.7338
135.6909,86.7338
136.0440,86.7955
136.3760,86.9322
136.6707,87.1373
136.9143,87.4011
137.0951,87.7112
137.2049,88.0531
137.2381,88.4090
137.2381,88.4117
137.1969,88.7645
137.0827,89.1021
136.9008,89.4086
136.6590,89.6705
136.3680,89.8763
136.0406,90.0171
135.6912,90.0866
133.1233,90.0866
Z" /> 
<path style="fill:#000000; fill-opacity:1.0000; stroke:none;fill-rule:evenodd;"
d="M 131.4469,90.0866
131.4469,86.7338
134.7997,86.7338
134.7997,90.0866
Z" /> 
<path style="fill:#000000; fill-opacity:1.0000; stroke:none;fill-rule:evenodd;"
d="M 133.1233,91.8138
135.6909,91.8138
136.0440,91.8755
136.3760,92.0122
136.6707,92.2173
136.9143,92.4811
137.0951,92.7912
137.2049,93.1331
137.2381,93.4890
137.2381,93.4917
137.1969,93.8445
137.0827,94.1821
136.9008,94.4886
136.6590,94.7505
136.3680,94.9563
136.0406,95.0971
135.6912,95.1666
133.1233,95.1666
Z" /> 
<path style="fill:#000000; fill-opacity:1.0000; stroke:none;fill-rule:evenodd;"
d="M 131.4469,95.1666
131.4469,91.8138
134.7997,91.8138
134.7997,95.1666
Z" /> 
<path style="fill:#000000; fill-opacity:1.0000; stroke:none;fill-rule:evenodd;"
d="M 133.1233,96.8938
135.6909,96.8938
136.0440,96.9555
136.3760,97.0922
136.6707,97.2973
136.9143,97.5611
137.0951,97.8712
137.2049,98.2131
137.2381,98.5690
137.2381,98.5717
137.1969,98.9245
137.0827,99.2621
136.9008,99.5686
136.6590,99.8305
136.3680,100.0363
136.0406,100.1771
135.6912,100.2466
133.1233,100.2466
Z" /> 
<path style="fill:#000000; fill-opacity:1.0000; stroke:none;fill-rule:evenodd;"
d="M 131.4469,100.2466
131.4469,96.8938
134.7997,96.8938
134.7997,100.2466
Z" /> 
<path style="fill:#000000; fill-opacity:1.0000; stroke:none;fill-rule:evenodd;"
d="M 133.1233,101.9738
135.6909,101.9738
136.0440,102.0355
136.3760,102.1722
136.6707,102.3773
136.9143,102.6411
137.0951,102.9512
137.2049,103.2931
137.2381,103.6490
137.2381,103.6517
137.1969,104.0045
137.0827,104.3421
136.9008,104.6486
136.6590,104.9105
136.3680,105.1163
136.0406,105.2571
135.6912,105.3266
133.1233,105.3266
Z" /> 
<path style="fill:#000000; fill-opacity:1.0000; stroke:none;fill-rule:evenodd;"
d="M 131.4469,105.3266
131.4469,101.9738
134.7997,101.9738
134.7997,105.3266
Z" /> 
<path style="fill:#000000; fill-opacity:1.0000; stroke:none;fill-rule:evenodd;"
d="M 133.1233,107.0538
135.6909,107.0538
136.0440,107.1155
136.3760,107.2522
136.6707,107.4573
136.9143,107.7211
137.0951,108.0312
137.2049,108.3731
137.2381,108.7290
137.2381,108.7317
137.1969,109.0845
137.0827,109.4221
136.9008,109.7286
136.6590,109.9905
136.3680,110.1963
136.0406,110.3371
135.6912,110.4066
133.1233,110.4066
Z" /> 
<path style="fill:#000000; fill-opacity:1.0000; stroke:none;fill-rule:evenodd;"
d="M 131.4469,110.4066
131.4469,107.0538
134.7997,107.0538
134.7997,110.4066
Z" /> 
<path style="fill:#000000; fill-opacity:1.0000; stroke:none;fill-rule:evenodd;"
d="M 133.1233,112.1338
135.6909,112.1338
136.0440,112.1955
136.3760,112.3322
136.6707,112.5373
136.9143,112.8011
137.0951,113.1112
137.2049,113.4531
137.2381,113.8090
137.2381,113.8117
137.1969,114.1645
137.0827,114.5021
136.9008,114.8086
136.6590,115.0705
136.3680,115.2763
136.0406,115.4171
135.6912,115.4866
133.1233,115.4866
Z" /> 
<path style="fill:#000000; fill-opacity:1.0000; stroke:none;fill-rule:evenodd;"
d="M 131.4469,115.4866
131.4469,112.1338
134.7997,112.1338
134.7997,115.4866
Z" /> 
<path style="fill:#000000; fill-opacity:1.0000; stroke:none;fill-rule:evenodd;"
d="M 133.1233,117.2138
135.6909,117.2138
136.0440,117.2755
136.3760,117.4122
136.6707,117.6173
136.9143,117.8811
137.0951,118.1912
137.2049,118.5331
137.2381,118.8890
137.2381,118.8917
137.1969,119.2445
137.0827,119.5821
136.9008,119.8886
136.6590,120.1505
136.3680,120.3563
136.0406,120.4971
135.6912,120.5666
133.1233,120.5666
Z" /> 
<path style="fill:#000000; fill-opacity:1.0000; stroke:none;fill-rule:evenodd;"
d="M 131.4469,120.5666
131.4469,117.2138
134.7997,117.2138
134.7997,120.5666
Z" /> 
<path style="fill:#000000; fill-opacity:1.0000; stroke:none;fill-rule:evenodd;"
d="M 133.1233,122.2938
135.6909,122.2938
136.0440,122.3555
136.3760,122.4922
136.6707,122.6973
136.9143,122.9611
137.0951,123.2712
137.2049,123.6131
137.2381,123.9690
137.2381,123.9717
137.1969,124.3245
137.0827,124.6621
136.9008,124.9686
136.6590,125.2305
136.3680,125.4363
136.0406,125.5771
135.6912,125.6466
133.1233,125.6466
Z" /> 
<path style="fill:#000000; fill-opacity:1.0000; stroke:none;fill-rule:evenodd;"
d="M 131.4469,125.6466
131.4469,122.2938
134.7997,122.2938
134.7997,125.6466
Z" /> 
</g>
<g style="fill:#000000; fill-opacity:1.0000; stroke:none;">
<circle cx="165.5553" cy="144.5470" r="0.0000" /> 
<circle cx="131.4469" cy="65.4602" r="0.0000" /> 
</g>
<g style="fill:#FFFFFF; fill-opacity:1.0000; stroke:none;">
<circle cx="149.3633" cy="121.5102" r="-0.0000" /> 
</g>
<g style="fill:#FFFFFF; fill-opacity:1.0000; stroke:none;">
<circle cx="140.9433" cy="69.4302" r="-0.0000" /> 
</g>
<g style="fill:#FFFFFF; fill-opacity:1.0000; stroke:none;">
<circle cx="155.8633" cy="84.6902" r="-0.0000" /> 
</g>
<g style="fill:#FFFFFF; fill-opacity:1.0000; stroke:none;">
<circle cx="139.9633" cy="77.0702" r="-0.0000" /> 
</g>
<g style="fill:#FFFFFF; fill-opacity:1.0000; stroke:none;">
<circle cx="142.0033" cy="123.9702" r="-0.0000" /> 
</g>
<g style="fill:#FFFFFF; fill-opacity:1.0000; stroke:none;">
<circle cx="159.2433" cy="121.4102" r="-0.0000" /> 
</g>
<g style="fill:#FFFFFF; fill-opacity:1.0000; stroke:none;">
<circle cx="141.9233" cy="118.8702" r="-0.0000" /> 
</g>
<g style="fill:#FFFFFF; fill-opacity:1.0000; stroke:none;">
<circle cx="141.4433" cy="84.3502" r="-0.0000" /> 
</g>
<g style="fill:#FFFFFF; fill-opacity:1.0000; stroke:none;">
<circle cx="147.9233" cy="107.5502" r="-0.0000" /> 
</g>
<g style="fill:#FFFFFF; fill-opacity:1.0000; stroke:none;">
<circle cx="140.0233" cy="81.8702" r="-0.0000" /> 
</g>
<g style="fill:#FFFFFF; fill-opacity:1.0000; stroke:none;">
<circle cx="152.5033" cy="76.0302" r="-0.0000" /> 
</g>
<g style="fill:#FFFFFF; fill-opacity:1.0000; stroke:none;">
<circle cx="159.1433" cy="100.6502" r="-0.0000" /> 
</g>
<g style="fill:#FFFFFF; fill-opacity:1.0000; stroke:none;">
<circle cx="141.7033" cy="79.4302" r="-0.0000" /> 
</g>
<g style="fill:#FFFFFF; fill-opacity:1.0000; stroke:none;">
<circle cx="144.7233" cy="78.7502" r="-0.0000" /> 
</g>
<g style="fill:#FFFFFF; fill-opacity:1.0000; stroke:none;">
<circle cx="154.6033" cy="67.6902" r="-0.0000" /> 
</g>
<g style="fill:#FFFFFF; fill-opacity:1.0000; stroke:none;">
<circle cx="154.5033" cy="101.5502" r="-0.0000" /> 
</g>
<g style="fill:#FFFFFF; fill-opacity:1.0000; stroke:none;">
<circle cx="140.5633" cy="87.3102" r="-0.0000" /> 
</g>
<g style="fill:#FFFFFF; fill-opacity:1.0000; stroke:none;">
<circle cx="141.7233" cy="113.2902" r="-0.0000" /> 
</g>
<g style="fill:#FFFFFF; fill-opacity:1.0000; stroke:none;">
<circle cx="140.8433" cy="74.2502" r="-0.0000" /> 
</g>
<g style="fill:#FFFFFF; fill-opacity:1.0000; stroke:none;">
<circle cx="141.5033" cy="104.3902" r="-0.0000" /> 
</g>
<g style="fill:#FFFFFF; fill-opacity:1.0000; stroke:none;">
<circle cx="142.7233" cy="71.1502" r="-0.0000" /> 
</g>
<g style="fill:#FFFFFF; fill-opacity:1.0000; stroke:none;">
<circle cx="137.7233" cy="85.6902" r="-0.0000" /> 
</g>
<g style="fill:#FFFFFF; fill-opacity:1.0000; stroke:none;">
<circle cx="137.3633" cy="101.1102" r="-0.0000" /> 
</g>
<g style="fill:#FFFFFF; fill-opacity:1.0000; stroke:none;">
<circle cx="157.0633" cy="66.9302" r="-0.0000" /> 
</g>
<g style="fill:#FFFFFF; fill-opacity:1.0000; stroke:none;">
<circle cx="141.6633" cy="93.9502" r="-0.0000" /> 
</g>
<g style="fill:#FFFFFF; fill-opacity:1.0000; stroke:none;">
<circle cx="153.5233" cy="117.3102" r="-0.0000" /> 
</g>
<g style="fill:#FFFFFF; fill-opacity:1.0000; stroke:none;">
<circle cx="154.9433" cy="111.7902" r="-0.0000" /> 
</g>
<g style="fill:#FFFFFF; fill-opacity:1.0000; stroke:none;">
<circle cx="156.7033" cy="87.1102" r="-0.0000" /> 
</g>
<g style="fill:#FFFFFF; fill-opacity:1.0000; stroke:none;">
<circle cx="155.7033" cy="92.2902" r="-0.0000" /> 
</g>
<g style="fill:#FFFFFF; fill-opacity:1.0000; stroke:none;">
<circle cx="155.9233" cy="89.8302" r="-0.0000" /> 
</g>
<g style="fill:#FFFFFF; fill-opacity:1.0000; stroke:none;">
<circle cx="155.5833" cy="79.2102" r="-0.0000" /> 
</g>
<g style="fill:#FFFFFF; fill-opacity:1.0000; stroke:none;">
<circle cx="140.8833" cy="100.0502" r="-0.0000" /> 
</g>
<g style="fill:#FFFFFF; fill-opacity:1.0000; stroke:none;">
<circle cx="148.9833" cy="90.6502" r="-0.0000" /> 
</g>
<g style="fill:#FFFFFF; fill-opacity:1.0000; stroke:none;">
<circle cx="153.3433" cy="84.1502" r="-0.0000" /> 
</g>
<g style="fill:#FFFFFF; fill-opacity:1.0000; stroke:none;">
<circle cx="159.1833" cy="91.1302" r="-0.0000" /> 
</g>
<g style="fill:#FFFFFF; fill-opacity:1.0000; stroke:none;">
<circle cx="155.9633" cy="71.8702" r="-0.0000" /> 
</g>
<g style="fill:#FFFFFF; fill-opacity:1.0000; stroke:none;">
<circle cx="156.2233" cy="74.5302" r="-0.0000" /> 
</g>
<g style="fill:#FFFFFF; fill-opacity:1.0000; stroke:none;">
<circle cx="157.1833" cy="123.7902" r="-0.0000" /> 
</g>
<g style="fill:#FFFFFF; fill-opacity:1.0000; stroke:none;">
<circle cx="140.0233" cy="92.3702" r="-0.0000" /> 
</g>
<g style="fill:#FFFFFF; fill-opacity:1.0000; stroke:none;">
<circle cx="147.9233" cy="78.7502" r="-0.0000" /> 
</g>
<g style="fill:#FFFFFF; fill-opacity:1.0000; stroke:none;">
<circle cx="156.7033" cy="76.8702" r="-0.0000" /> 
</g>
<g style="fill:#FFFFFF; fill-opacity:1.0000; stroke:none;">
<circle cx="141.1833" cy="97.1502" r="-0.0000" /> 
</g>
<g style="fill:#FFFFFF; fill-opacity:1.0000; stroke:none;">
<circle cx="148.8033" cy="94.3702" r="-0.0000" /> 
</g>
<g style="fill:#FFFFFF; fill-opacity:1.0000; stroke:none;">
<circle cx="142.8233" cy="67.4502" r="-0.0000" /> 
</g>
<g style="fill:#FFFFFF; fill-opacity:1.0000; stroke:none;">
<circle cx="157.7833" cy="110.3102" r="-0.0000" /> 
</g>
<g style="fill:#FFFFFF; fill-opacity:1.0000; stroke:none;">
<circle cx="155.8633" cy="81.9302" r="-0.0000" /> 
</g>
<g style="fill:#FFFFFF; fill-opacity:1.0000; stroke:none;">
<circle cx="141.6433" cy="108.1302" r="-0.0000" /> 
</g>
<g style="fill:#FFFFFF; fill-opacity:1.0000; stroke:none;">
<circle cx="138.9833" cy="69.6502" r="-0.0000" /> 
</g>
<g style="fill:#FFFFFF; fill-opacity:1.0000; stroke:none;">
<circle cx="146.0633" cy="85.1902" r="-0.0000" /> 
</g>
<g style="fill:#FFFFFF; fill-opacity:1.0000; stroke:none;">
<circle cx="146.7233" cy="71.9002" r="-0.0000" /> 
</g>
<g style="fill:#FFFFFF; fill-opacity:1.0000; stroke:none;">
<circle cx="150.4433" cy="89.9302" r="-0.0000" /> 
</g>
<g style="fill:#FFFFFF; fill-opacity:1.0000; stroke:none;">
<circle cx="157.8233" cy="82.1502" r="-0.0000" /> 
</g>
<g style="fill:#FFFFFF; fill-opacity:1.0000; stroke:none;">
<circle cx="147.2633" cy="88.9502" r="-0.0000" /> 
</g>
<g style="fill:#FFFFFF; fill-opacity:1.0000; stroke:none;">
<circle cx="157.9433" cy="71.8702" r="-0.0000" /> 
</g>
<g style="fill:#FFFFFF; fill-opacity:1.0000; stroke:none;">
<circle cx="150.6033" cy="88.4102" r="-0.0000" /> 
</g>
<g style="fill:#FFFFFF; fill-opacity:1.0000; stroke:none;">
<circle cx="157.8433" cy="79.5702" r="-0.0000" /> 
</g>
<g style="fill:#FFFFFF; fill-opacity:1.0000; stroke:none;">
<circle cx="157.8633" cy="107.4302" r="-0.0000" /> 
</g>
<g style="fill:#FFFFFF; fill-opacity:1.0000; stroke:none;">
<circle cx="150.5833" cy="96.7102" r="-0.0000" /> 
</g>
<g style="fill:#FFFFFF; fill-opacity:1.0000; stroke:none;">
<circle cx="157.8433" cy="112.4902" r="-0.0000" /> 
</g>
<g style="fill:#FFFFFF; fill-opacity:1.0000; stroke:none;">
<circle cx="150.4033" cy="98.2302" r="-0.0000" /> 
</g>
<g style="fill:#FFFFFF; fill-opacity:1.0000; stroke:none;">
<circle cx="150.6433" cy="95.1302" r="-0.0000" /> 
</g>
<g style="fill:#FFFFFF; fill-opacity:1.0000; stroke:none;">
<circle cx="157.8433" cy="102.3902" r="-0.0000" /> 
</g>
<g style="fill:#FFFFFF; fill-opacity:1.0000; stroke:none;">
<circle cx="163.6033" cy="68.0902" r="0.9000" /> 
</g>
<g style="fill:#FFFFFF; fill-opacity:1.0000; stroke:none;">
<circle cx="161.0633" cy="68.0902" r="0.8500" /> 
</g>
<g style="fill:#FFFFFF; fill-opacity:1.0000; stroke:none;">
<circle cx="163.6033" cy="73.1702" r="0.9000" /> 
</g>
<g style="fill:#FFFFFF; fill-opacity:1.0000; stroke:none;">
<circle cx="161.0633" cy="73.1702" r="0.8500" /> 
</g>
<g style="fill:#FFFFFF; fill-opacity:1.0000; stroke:none;">
<circle cx="163.6033" cy="78.2502" r="0.9000" /> 
</g>
<g style="fill:#FFFFFF; fill-opacity:1.0000; stroke:none;">
<circle cx="161.0633" cy="78.2502" r="0.8500" /> 
</g>
<g style="fill:#FFFFFF; fill-opacity:1.0000; stroke:none;">
<circle cx="163.6033" cy="83.3302" r="0.9000" /> 
</g>
<g style="fill:#FFFFFF; fill-opacity:1.0000; stroke:none;">
<circle cx="161.0633" cy="83.3302" r="0.8500" /> 
</g>
<g style="fill:#FFFFFF; fill-opacity:1.0000; stroke:none;">
<circle cx="163.6033" cy="88.4102" r="0.9000" /> 
</g>
<g style="fill:#FFFFFF; fill-opacity:1.0000; stroke:none;">
<circle cx="161.0633" cy="88.4102" r="0.8500" /> 
</g>
<g style="fill:#FFFFFF; fill-opacity:1.0000; stroke:none;">
<circle cx="163.6033" cy="93.4902" r="0.9000" /> 
</g>
<g style="fill:#FFFFFF; fill-opacity:1.0000; stroke:none;">
<circle cx="161.0633" cy="93.4902" r="0.8500" /> 
</g>
<g style="fill:#FFFFFF; fill-opacity:1.0000; stroke:none;">
<circle cx="163.6033" cy="98.5702" r="0.9000" /> 
</g>
<g style="fill:#FFFFFF; fill-opacity:1.0000; stroke:none;">
<circle cx="161.0633" cy="98.5702" r="0.8500" /> 
</g>
<g style="fill:#FFFFFF; fill-opacity:1.0000; stroke:none;">
<circle cx="163.6033" cy="103.6502" r="0.9000" /> 
</g>
<g style="fill:#FFFFFF; fill-opacity:1.0000; stroke:none;">
<circle cx="161.0633" cy="103.6502" r="0.8500" /> 
</g>
<g style="fill:#FFFFFF; fill-opacity:1.0000; stroke:none;">
<circle cx="163.6033" cy="108.7302" r="0.9000" /> 
</g>
<g style="fill:#FFFFFF; fill-opacity:1.0000; stroke:none;">
<circle cx="161.0633" cy="108.7302" r="0.8500" /> 
</g>
<g style="fill:#FFFFFF; fill-opacity:1.0000; stroke:none;">
<circle cx="163.6033" cy="113.8102" r="0.9000" /> 
</g>
<g style="fill:#FFFFFF; fill-opacity:1.0000; stroke:none;">
<circle cx="161.0633" cy="113.8102" r="0.8500" /> 
</g>
<g style="fill:#FFFFFF; fill-opacity:1.0000; stroke:none;">
<circle cx="163.6033" cy="118.8902" r="0.9000" /> 
</g>
<g style="fill:#FFFFFF; fill-opacity:1.0000; stroke:none;">
<circle cx="161.0633" cy="118.8902" r="0.8500" /> 
</g>
<g style="fill:#FFFFFF; fill-opacity:1.0000; stroke:none;">
<circle cx="163.6033" cy="123.9702" r="0.9000" /> 
</g>
<g style="fill:#FFFFFF; fill-opacity:1.0000; stroke:none;">
<circle cx="161.0633" cy="123.9702" r="0.8500" /> 
</g>
<g style="fill:#FFFFFF; fill-opacity:1.0000; stroke:none;">
<circle cx="135.6633" cy="68.0902" r="0.8500" /> 
</g>
<g style="fill:#FFFFFF; fill-opacity:1.0000; stroke:none;">
<circle cx="133.1233" cy="68.0902" r="0.9000" /> 
</g>
<g style="fill:#FFFFFF; fill-opacity:1.0000; stroke:none;">
<circle cx="135.6633" cy="73.1702" r="0.8500" /> 
</g>
<g style="fill:#FFFFFF; fill-opacity:1.0000; stroke:none;">
<circle cx="133.1233" cy="73.1702" r="0.9000" /> 
</g>
<g style="fill:#FFFFFF; fill-opacity:1.0000; stroke:none;">
<circle cx="135.6633" cy="78.2502" r="0.8500" /> 
</g>
<g style="fill:#FFFFFF; fill-opacity:1.0000; stroke:none;">
<circle cx="133.1233" cy="78.2502" r="0.9000" /> 
</g>
<g style="fill:#FFFFFF; fill-opacity:1.0000; stroke:none;">
<circle cx="135.6633" cy="83.3302" r="0.8500" /> 
</g>
<g style="fill:#FFFFFF; fill-opacity:1.0000; stroke:none;">
<circle cx="133.1233" cy="83.3302" r="0.9000" /> 
</g>
<g style="fill:#FFFFFF; fill-opacity:1.0000; stroke:none;">
<circle cx="135.6633" cy="88.4102" r="0.8500" /> 
</g>
<g style="fill:#FFFFFF; fill-opacity:1.0000; stroke:none;">
<circle cx="133.1233" cy="88.4102" r="0.9000" /> 
</g>
<g style="fill:#FFFFFF; fill-opacity:1.0000; stroke:none;">
<circle cx="135.6633" cy="93.4902" r="0.8500" /> 
</g>
<g style="fill:#FFFFFF; fill-opacity:1.0000; stroke:none;">
<circle cx="133.1233" cy="93.4902" r="0.9000" /> 
</g>
<g style="fill:#FFFFFF; fill-opacity:1.0000; stroke:none;">
<circle cx="135.6633" cy="98.5702" r="0.8500" /> 
</g>
<g style="fill:#FFFFFF; fill-opacity:1.0000; stroke:none;">
<circle cx="133.1233" cy="98.5702" r="0.9000" /> 
</g>
<g style="fill:#FFFFFF; fill-opacity:1.0000; stroke:none;">
<circle cx="135.6633" cy="103.6502" r="0.8500" /> 
</g>
<g style="fill:#FFFFFF; fill-opacity:1.0000; stroke:none;">
<circle cx="133.1233" cy="103.6502" r="0.9000" /> 
</g>
<g style="fill:#FFFFFF; fill-opacity:1.0000; stroke:none;">
<circle cx="135.6633" cy="108.7302" r="0.8500" /> 
</g>
<g style="fill:#FFFFFF; fill-opacity:1.0000; stroke:none;">
<circle cx="133.1233" cy="108.7302" r="0.9000" /> 
</g>
<g style="fill:#FFFFFF; fill-opacity:1.0000; stroke:none;">
<circle cx="135.6633" cy="113.8102" r="0.8500" /> 
</g>
<g style="fill:#FFFFFF; fill-opacity:1.0000; stroke:none;">
<circle cx="133.1233" cy="113.8102" r="0.9000" /> 
</g>
<g style="fill:#FFFFFF; fill-opacity:1.0000; stroke:none;">
<circle cx="135.6633" cy="118.8902" r="0.8500" /> 
</g>
<g style="fill:#FFFFFF; fill-opacity:1.0000; stroke:none;">
<circle cx="133.1233" cy="118.8902" r="0.9000" /> 
</g>
<g style="fill:#FFFFFF; fill-opacity:1.0000; stroke:none;">
<circle cx="135.6633" cy="123.9702" r="0.8500" /> 
</g>
<g style="fill:#FFFFFF; fill-opacity:1.0000; stroke:none;">
<circle cx="133.1233" cy="123.9702" r="0.9000" /> 
</g> 
</svg>
