<?xml version="1.0" standalone="no"?>
 <!DOCTYPE svg PUBLIC "-//W3C//DTD SVG 1.1//EN" 
 "http://www.w3.org/Graphics/SVG/1.1/DTD/svg11.dtd"> 
<svg
  xmlns:svg="http://www.w3.org/2000/svg"
  xmlns="http://www.w3.org/2000/svg"
  xmlns:xlink="http://www.w3.org/1999/xlink"
  version="1.1"
  width="297.0022mm" height="210.0072mm" viewBox="0.0000 0.0000 297.0022 210.0072">
<title>SVG Image created as txe8116-module-Dwgs_User3.svg date 2026/03/24 20:18:12 </title>
  <desc>Image generated by PCBNEW </desc>
<g style="fill:#000000; fill-opacity:1.0000;stroke:#000000; stroke-opacity:1.0000;
stroke-linecap:round; stroke-linejoin:round;"
 transform="translate(0 0) scale(1 1)">
</g>
<g style="fill:none; 
stroke:#000000; stroke-width:0.3000; stroke-opacity:1; 
stroke-linecap:round; stroke-linejoin:round;">
<text x="148.3833" y="136.8302"
textLength="9.0714" font-size="2.6667" lengthAdjust="spacingAndGlyphs"
text-anchor="middle" opacity="0" stroke-opacity="0">12.72</text>
<g class="stroked-text"><desc>12.72</desc>
<path d="M145.6214 136.7398
L144.4785 136.7398
" />
<path d="M145.0500 136.7398
L145.0500 134.7398
" />
<path d="M145.0500 134.7398
L144.8595 135.0255
" />
<path d="M144.8595 135.0255
L144.6690 135.2160
" />
<path d="M144.6690 135.2160
L144.4785 135.3112
" />
<path d="M146.3833 134.9303
L146.4785 134.8351
" />
<path d="M146.4785 134.8351
L146.6690 134.7398
" />
<path d="M146.6690 134.7398
L147.1452 134.7398
" />
<path d="M147.1452 134.7398
L147.3357 134.8351
" />
<path d="M147.3357 134.8351
L147.4309 134.9303
" />
<path d="M147.4309 134.9303
L147.5262 135.1208
" />
<path d="M147.5262 135.1208
L147.5262 135.3112
" />
<path d="M147.5262 135.3112
L147.4309 135.5970
" />
<path d="M147.4309 135.5970
L146.2881 136.7398
" />
<path d="M146.2881 136.7398
L147.5262 136.7398
" />
<path d="M148.3833 136.5493
L148.4785 136.6446
" />
<path d="M148.4785 136.6446
L148.3833 136.7398
" />
<path d="M148.3833 136.7398
L148.2881 136.6446
" />
<path d="M148.2881 136.6446
L148.3833 136.5493
" />
<path d="M148.3833 136.5493
L148.3833 136.7398
" />
<path d="M149.1452 134.7398
L150.4785 134.7398
" />
<path d="M150.4785 134.7398
L149.6214 136.7398
" />
<path d="M151.1452 134.9303
L151.2404 134.8351
" />
<path d="M151.2404 134.8351
L151.4309 134.7398
" />
<path d="M151.4309 134.7398
L151.9071 134.7398
" />
<path d="M151.9071 134.7398
L152.0976 134.8351
" />
<path d="M152.0976 134.8351
L152.1928 134.9303
" />
<path d="M152.1928 134.9303
L152.2881 135.1208
" />
<path d="M152.2881 135.1208
L152.2881 135.3112
" />
<path d="M152.2881 135.3112
L152.1928 135.5970
" />
<path d="M152.1928 135.5970
L151.0500 136.7398
" />
<path d="M151.0500 136.7398
L152.2881 136.7398
" />
</g></g>
<g style="fill:none; 
stroke:#000000; stroke-width:0.1000; stroke-opacity:1; 
stroke-linecap:round; stroke-linejoin:round;">
<path d="M135.6633 124.9702
L135.6633 139.3030
" />
<path d="M161.1033 139.3030
L161.1033 122.8502
" />
<path d="M135.6633 138.1302
L161.1033 138.1302
" />
<path d="M135.6633 138.1302
L137.9163 136.9573
" />
<path d="M135.6633 138.1302
L137.9163 139.3030
" />
<path d="M161.1033 138.1302
L158.8503 139.3030
" />
<path d="M161.1033 138.1302
L158.8503 136.9573
" />
</g>
<g style="fill:none; 
stroke:#000000; stroke-width:0.2000; stroke-opacity:1; 
stroke-linecap:round; stroke-linejoin:round;">
<text x="148.3633" y="142.0742"
textLength="8.7714" font-size="2.6667" lengthAdjust="spacingAndGlyphs"
text-anchor="middle" opacity="0" stroke-opacity="0">15.24</text>
<g class="stroked-text"><desc>15.24</desc>
<path d="M145.6014 141.9890
L144.4585 141.9890
" />
<path d="M145.0300 141.9890
L145.0300 139.9890
" />
<path d="M145.0300 139.9890
L144.8395 140.2747
" />
<path d="M144.8395 140.2747
L144.6490 140.4652
" />
<path d="M144.6490 140.4652
L144.4585 140.5604
" />
<path d="M147.4109 139.9890
L146.4585 139.9890
" />
<path d="M146.4585 139.9890
L146.3633 140.9414
" />
<path d="M146.3633 140.9414
L146.4585 140.8462
" />
<path d="M146.4585 140.8462
L146.6490 140.7509
" />
<path d="M146.6490 140.7509
L147.1252 140.7509
" />
<path d="M147.1252 140.7509
L147.3157 140.8462
" />
<path d="M147.3157 140.8462
L147.4109 140.9414
" />
<path d="M147.4109 140.9414
L147.5062 141.1319
" />
<path d="M147.5062 141.1319
L147.5062 141.6081
" />
<path d="M147.5062 141.6081
L147.4109 141.7985
" />
<path d="M147.4109 141.7985
L147.3157 141.8938
" />
<path d="M147.3157 141.8938
L147.1252 141.9890
" />
<path d="M147.1252 141.9890
L146.6490 141.9890
" />
<path d="M146.6490 141.9890
L146.4585 141.8938
" />
<path d="M146.4585 141.8938
L146.3633 141.7985
" />
<path d="M148.3633 141.7985
L148.4585 141.8938
" />
<path d="M148.4585 141.8938
L148.3633 141.9890
" />
<path d="M148.3633 141.9890
L148.2681 141.8938
" />
<path d="M148.2681 141.8938
L148.3633 141.7985
" />
<path d="M148.3633 141.7985
L148.3633 141.9890
" />
<path d="M149.2204 140.1795
L149.3157 140.0843
" />
<path d="M149.3157 140.0843
L149.5062 139.9890
" />
<path d="M149.5062 139.9890
L149.9823 139.9890
" />
<path d="M149.9823 139.9890
L150.1728 140.0843
" />
<path d="M150.1728 140.0843
L150.2681 140.1795
" />
<path d="M150.2681 140.1795
L150.3633 140.3700
" />
<path d="M150.3633 140.3700
L150.3633 140.5604
" />
<path d="M150.3633 140.5604
L150.2681 140.8462
" />
<path d="M150.2681 140.8462
L149.1252 141.9890
" />
<path d="M149.1252 141.9890
L150.3633 141.9890
" />
<path d="M152.0776 140.6557
L152.0776 141.9890
" />
<path d="M151.6014 139.8938
L151.1252 141.3223
" />
<path d="M151.1252 141.3223
L152.3633 141.3223
" />
</g><path d="M133.1233 127.5102
L133.1233 144.4470
" />
<path d="M163.6033 144.4470
L163.6033 127.5102
" />
<path d="M133.1233 143.2742
L163.6033 143.2742
" />
<path d="M133.1233 143.2742
L135.3763 142.1013
" />
<path d="M133.1233 143.2742
L135.3763 144.4470
" />
<path d="M163.6033 143.2742
L161.3503 144.4470
" />
<path d="M163.6033 143.2742
L161.3503 142.1013
" />
</g> 
</svg>
