<?xml version='1.0' encoding='ASCII' standalone='yes'?>
<svg xmlns="http://www.w3.org/2000/svg" version="1.1" width="297.0022mm" height="210.0072mm" viewBox="0.0000 0.0000 297.0022 210.0072">
            <title>Picture generated by PcbDraw </title>
            <desc>Picture generated by PcbDraw</desc>
        <defs><clipPath id="cut-off"><path d="M143.5100 97.7900 L143.5100 67.2900 M 158.75 67.29 L 158.75 97.79 L 143.51 97.79 L 143.51 67.29 L 158.75 67.29 " style="fill-rule: evenodd;"/></clipPath><mask id="pads-mask-silkscreen"><rect x="142.6718" y="67.265" width="17.0542" height="39.543422" fill="white"/><g style="fill:#000000; fill-opacity:1.0000;stroke:#000000; stroke-opacity:1.0000; stroke-linecap:round; stroke-linejoin:round;" transform="translate(0 0) scale(1 1)">
<path style="fill:#000000; fill-opacity:1.0000; stroke:none;fill-rule:evenodd;" d="M 148.9500,77.6000 148.8639,77.5829 148.7909,77.5341 148.7421,77.4611 148.7250,77.3750 148.7250,76.9250 148.7421,76.8389 148.7909,76.7659 148.8639,76.7171 148.9500,76.7000 149.4500,76.7000 149.5361,76.7171 149.6091,76.7659 149.6579,76.8389 149.6750,76.9250 149.6750,77.3750 149.6579,77.4611 149.6091,77.5341 149.5361,77.5829 149.4500,77.6000 Z"/> 
<path style="fill:#000000; fill-opacity:1.0000; stroke:none;fill-rule:evenodd;" d="M 148.9500,76.0500 148.8639,76.0329 148.7909,75.9841 148.7421,75.9111 148.7250,75.8250 148.7250,75.3750 148.7421,75.2889 148.7909,75.2159 148.8639,75.1671 148.9500,75.1500 149.4500,75.1500 149.5361,75.1671 149.6091,75.2159 149.6579,75.2889 149.6750,75.3750 149.6750,75.8250 149.6579,75.9111 149.6091,75.9841 149.5361,76.0329 149.4500,76.0500 Z"/> 
<path style="fill:#000000; fill-opacity:1.0000; stroke:none;fill-rule:evenodd;" d="M 155.6650,76.1375 155.6698,76.1136 155.6833,76.0933 155.7036,76.0798 155.7275,76.0750 155.9625,76.0750 155.9864,76.0798 156.0067,76.0933 156.0202,76.1136 156.0250,76.1375 156.0250,76.2625 156.0202,76.2864 156.0067,76.3067 155.9864,76.3202 155.9625,76.3250 155.7275,76.3250 155.7036,76.3202 155.6833,76.3067 155.6698,76.2864 155.6650,76.2625 Z"/> 
<path style="fill:#000000; fill-opacity:1.0000; stroke:none;fill-rule:evenodd;" d="M 154.8250,76.1375 154.8298,76.1136 154.8433,76.0933 154.8636,76.0798 154.8875,76.0750 155.1225,76.0750 155.1464,76.0798 155.1667,76.0933 155.1802,76.1136 155.1850,76.1375 155.1850,76.2625 155.1802,76.2864 155.1667,76.3067 155.1464,76.3202 155.1225,76.3250 154.8875,76.3250 154.8636,76.3202 154.8433,76.3067 154.8298,76.2864 154.8250,76.2625 Z"/> 
<path style="fill:#000000; fill-opacity:1.0000; stroke:none;fill-rule:evenodd;" d="M 146.5850,71.1875 146.5802,71.2114 146.5667,71.2317 146.5464,71.2452 146.5225,71.2500 146.2875,71.2500 146.2636,71.2452 146.2433,71.2317 146.2298,71.2114 146.2250,71.1875 146.2250,71.0625 146.2298,71.0386 146.2433,71.0183 146.2636,71.0048 146.2875,71.0000 146.5225,71.0000 146.5464,71.0048 146.5667,71.0183 146.5802,71.0386 146.5850,71.0625 Z"/> 
<path style="fill:#000000; fill-opacity:1.0000; stroke:none;fill-rule:evenodd;" d="M 147.4250,71.1875 147.4202,71.2114 147.4067,71.2317 147.3864,71.2452 147.3625,71.2500 147.1275,71.2500 147.1036,71.2452 147.0833,71.2317 147.0698,71.2114 147.0650,71.1875 147.0650,71.0625 147.0698,71.0386 147.0833,71.0183 147.1036,71.0048 147.1275,71.0000 147.3625,71.0000 147.3864,71.0048 147.4067,71.0183 147.4202,71.0386 147.4250,71.0625 Z"/> 
<path style="fill:#000000; fill-opacity:1.0000; stroke:none;fill-rule:evenodd;" d="M 146.5850,83.8875 146.5802,83.9114 146.5667,83.9317 146.5464,83.9452 146.5225,83.9500 146.2875,83.9500 146.2636,83.9452 146.2433,83.9317 146.2298,83.9114 146.2250,83.8875 146.2250,83.7625 146.2298,83.7386 146.2433,83.7183 146.2636,83.7048 146.2875,83.7000 146.5225,83.7000 146.5464,83.7048 146.5667,83.7183 146.5802,83.7386 146.5850,83.7625 Z"/> 
<path style="fill:#000000; fill-opacity:1.0000; stroke:none;fill-rule:evenodd;" d="M 147.4250,83.8875 147.4202,83.9114 147.4067,83.9317 147.3864,83.9452 147.3625,83.9500 147.1275,83.9500 147.1036,83.9452 147.0833,83.9317 147.0698,83.9114 147.0650,83.8875 147.0650,83.7625 147.0698,83.7386 147.0833,83.7183 147.1036,83.7048 147.1275,83.7000 147.3625,83.7000 147.3864,83.7048 147.4067,83.7183 147.4202,83.7386 147.4250,83.7625 Z"/> 
<path style="fill:#000000; fill-opacity:1.0000; stroke:none;fill-rule:evenodd;" d="M 155.6900,71.0625 155.6948,71.0386 155.7083,71.0183 155.7286,71.0048 155.7525,71.0000 155.9875,71.0000 156.0114,71.0048 156.0317,71.0183 156.0452,71.0386 156.0500,71.0625 156.0500,71.1875 156.0452,71.2114 156.0317,71.2317 156.0114,71.2452 155.9875,71.2500 155.7525,71.2500 155.7286,71.2452 155.7083,71.2317 155.6948,71.2114 155.6900,71.1875 Z"/> 
<path style="fill:#000000; fill-opacity:1.0000; stroke:none;fill-rule:evenodd;" d="M 154.8500,71.0625 154.8548,71.0386 154.8683,71.0183 154.8886,71.0048 154.9125,71.0000 155.1475,71.0000 155.1714,71.0048 155.1917,71.0183 155.2052,71.0386 155.2100,71.0625 155.2100,71.1875 155.2052,71.2114 155.1917,71.2317 155.1714,71.2452 155.1475,71.2500 154.9125,71.2500 154.8886,71.2452 154.8683,71.2317 154.8548,71.2114 154.8500,71.1875 Z"/> 
<path style="fill:#000000; fill-opacity:1.0000; stroke:none;fill-rule:evenodd;" d="M 146.5850,78.8125 146.5802,78.8364 146.5667,78.8567 146.5464,78.8702 146.5225,78.8750 146.2875,78.8750 146.2636,78.8702 146.2433,78.8567 146.2298,78.8364 146.2250,78.8125 146.2250,78.6875 146.2298,78.6636 146.2433,78.6433 146.2636,78.6298 146.2875,78.6250 146.5225,78.6250 146.5464,78.6298 146.5667,78.6433 146.5802,78.6636 146.5850,78.6875 Z"/> 
<path style="fill:#000000; fill-opacity:1.0000; stroke:none;fill-rule:evenodd;" d="M 147.4250,78.8125 147.4202,78.8364 147.4067,78.8567 147.3864,78.8702 147.3625,78.8750 147.1275,78.8750 147.1036,78.8702 147.0833,78.8567 147.0698,78.8364 147.0650,78.8125 147.0650,78.6875 147.0698,78.6636 147.0833,78.6433 147.1036,78.6298 147.1275,78.6250 147.3625,78.6250 147.3864,78.6298 147.4067,78.6433 147.4202,78.6636 147.4250,78.6875 Z"/> 
<path style="fill:#000000; fill-opacity:1.0000; stroke:none;fill-rule:evenodd;" d="M 146.5850,88.9625 146.5802,88.9864 146.5667,89.0067 146.5464,89.0202 146.5225,89.0250 146.2875,89.0250 146.2636,89.0202 146.2433,89.0067 146.2298,88.9864 146.2250,88.9625 146.2250,88.8375 146.2298,88.8136 146.2433,88.7933 146.2636,88.7798 146.2875,88.7750 146.5225,88.7750 146.5464,88.7798 146.5667,88.7933 146.5802,88.8136 146.5850,88.8375 Z"/> 
<path style="fill:#000000; fill-opacity:1.0000; stroke:none;fill-rule:evenodd;" d="M 147.4250,88.9625 147.4202,88.9864 147.4067,89.0067 147.3864,89.0202 147.3625,89.0250 147.1275,89.0250 147.1036,89.0202 147.0833,89.0067 147.0698,88.9864 147.0650,88.9625 147.0650,88.8375 147.0698,88.8136 147.0833,88.7933 147.1036,88.7798 147.1275,88.7750 147.3625,88.7750 147.3864,88.7798 147.4067,88.7933 147.4202,88.8136 147.4250,88.8375 Z"/> 
<path style="fill:#000000; fill-opacity:1.0000; stroke:none;fill-rule:evenodd;" d="M 155.6900,91.3875 155.6948,91.3636 155.7083,91.3433 155.7286,91.3298 155.7525,91.3250 155.9875,91.3250 156.0114,91.3298 156.0317,91.3433 156.0452,91.3636 156.0500,91.3875 156.0500,91.5125 156.0452,91.5364 156.0317,91.5567 156.0114,91.5702 155.9875,91.5750 155.7525,91.5750 155.7286,91.5702 155.7083,91.5567 155.6948,91.5364 155.6900,91.5125 Z"/> 
<path style="fill:#000000; fill-opacity:1.0000; stroke:none;fill-rule:evenodd;" d="M 154.8500,91.3875 154.8548,91.3636 154.8683,91.3433 154.8886,91.3298 154.9125,91.3250 155.1475,91.3250 155.1714,91.3298 155.1917,91.3433 155.2052,91.3636 155.2100,91.3875 155.2100,91.5125 155.2052,91.5364 155.1917,91.5567 155.1714,91.5702 155.1475,91.5750 154.9125,91.5750 154.8886,91.5702 154.8683,91.5567 154.8548,91.5364 154.8500,91.5125 Z"/> 
<path style="fill:#000000; fill-opacity:1.0000; stroke:none;fill-rule:evenodd;" d="M 146.5850,96.5875 146.5802,96.6114 146.5667,96.6317 146.5464,96.6452 146.5225,96.6500 146.2875,96.6500 146.2636,96.6452 146.2433,96.6317 146.2298,96.6114 146.2250,96.5875 146.2250,96.4625 146.2298,96.4386 146.2433,96.4183 146.2636,96.4048 146.2875,96.4000 146.5225,96.4000 146.5464,96.4048 146.5667,96.4183 146.5802,96.4386 146.5850,96.4625 Z"/> 
<path style="fill:#000000; fill-opacity:1.0000; stroke:none;fill-rule:evenodd;" d="M 147.4250,96.5875 147.4202,96.6114 147.4067,96.6317 147.3864,96.6452 147.3625,96.6500 147.1275,96.6500 147.1036,96.6452 147.0833,96.6317 147.0698,96.6114 147.0650,96.5875 147.0650,96.4625 147.0698,96.4386 147.0833,96.4183 147.1036,96.4048 147.1275,96.4000 147.3625,96.4000 147.3864,96.4048 147.4067,96.4183 147.4202,96.4386 147.4250,96.4625 Z"/> 
<path style="fill:#000000; fill-opacity:1.0000; stroke:none;fill-rule:evenodd;" d="M 149.7850,70.0850 149.8615,70.1002 149.9264,70.1436 149.9698,70.2085 149.9850,70.2850 149.9850,70.6850 149.9698,70.7615 149.9264,70.8264 149.8615,70.8698 149.7850,70.8850 149.2350,70.8850 149.1585,70.8698 149.0936,70.8264 149.0502,70.7615 149.0350,70.6850 149.0350,70.2850 149.0502,70.2085 149.0936,70.1436 149.1585,70.1002 149.2350,70.0850 Z"/> 
<path style="fill:#000000; fill-opacity:1.0000; stroke:none;fill-rule:evenodd;" d="M 149.7850,71.7350 149.8615,71.7502 149.9264,71.7936 149.9698,71.8585 149.9850,71.9350 149.9850,72.3350 149.9698,72.4115 149.9264,72.4764 149.8615,72.5198 149.7850,72.5350 149.2350,72.5350 149.1585,72.5198 149.0936,72.4764 149.0502,72.4115 149.0350,72.3350 149.0350,71.9350 149.0502,71.8585 149.0936,71.7936 149.1585,71.7502 149.2350,71.7350 Z"/> 
<path style="fill:#000000; fill-opacity:1.0000; stroke:none;fill-rule:evenodd;" d="M 159.5882,67.7418 159.5882,69.4182 157.9118,69.4182 157.9118,67.7418 Z"/> 
<path style="fill:#000000; fill-opacity:1.0000; stroke:none;fill-rule:evenodd;" d="M 158.7500,69.4182 157.4660,69.4182 157.2913,69.3835 157.1276,69.3131 156.9821,69.2102 156.8613,69.0792 156.7703,68.9260 156.7132,68.7571 156.6926,68.5807 156.6926,68.5794 156.7092,68.4015 156.7641,68.2305 156.8545,68.0755 156.9763,67.9435 157.1236,67.8410 157.2896,67.7727 157.4662,67.7418 158.7500,67.7418 Z"/> 
<path style="fill:#000000; fill-opacity:1.0000; stroke:none;fill-rule:evenodd;" d="M 159.5882,70.2818 159.5882,71.9582 157.9118,71.9582 157.9118,70.2818 Z"/> 
<path style="fill:#000000; fill-opacity:1.0000; stroke:none;fill-rule:evenodd;" d="M 158.7500,71.9582 157.4660,71.9582 157.2913,71.9235 157.1276,71.8531 156.9821,71.7502 156.8613,71.6192 156.7703,71.4660 156.7132,71.2972 156.6926,71.1207 156.6926,71.1194 156.7092,70.9415 156.7641,70.7705 156.8545,70.6155 156.9763,70.4835 157.1236,70.3810 157.2896,70.3127 157.4662,70.2818 158.7500,70.2818 Z"/> 
<path style="fill:#000000; fill-opacity:1.0000; stroke:none;fill-rule:evenodd;" d="M 159.5882,72.8218 159.5882,74.4982 157.9118,74.4982 157.9118,72.8218 Z"/> 
<path style="fill:#000000; fill-opacity:1.0000; stroke:none;fill-rule:evenodd;" d="M 158.7500,74.4982 157.4660,74.4982 157.2913,74.4635 157.1276,74.3931 156.9821,74.2902 156.8613,74.1592 156.7703,74.0060 156.7132,73.8371 156.6926,73.6607 156.6926,73.6594 156.7092,73.4815 156.7641,73.3105 156.8545,73.1555 156.9763,73.0235 157.1236,72.9210 157.2896,72.8527 157.4662,72.8218 158.7500,72.8218 Z"/> 
<path style="fill:#000000; fill-opacity:1.0000; stroke:none;fill-rule:evenodd;" d="M 159.5882,75.3618 159.5882,77.0382 157.9118,77.0382 157.9118,75.3618 Z"/> 
<path style="fill:#000000; fill-opacity:1.0000; stroke:none;fill-rule:evenodd;" d="M 158.7500,77.0382 157.4660,77.0382 157.2913,77.0035 157.1276,76.9331 156.9821,76.8302 156.8613,76.6992 156.7703,76.5460 156.7132,76.3772 156.6926,76.2007 156.6926,76.1994 156.7092,76.0215 156.7641,75.8505 156.8545,75.6955 156.9763,75.5635 157.1236,75.4610 157.2896,75.3927 157.4662,75.3618 158.7500,75.3618 Z"/> 
<path style="fill:#000000; fill-opacity:1.0000; stroke:none;fill-rule:evenodd;" d="M 159.5882,77.9018 159.5882,79.5782 157.9118,79.5782 157.9118,77.9018 Z"/> 
<path style="fill:#000000; fill-opacity:1.0000; stroke:none;fill-rule:evenodd;" d="M 158.7500,79.5782 157.4660,79.5782 157.2913,79.5435 157.1276,79.4731 156.9821,79.3702 156.8613,79.2392 156.7703,79.0860 156.7132,78.9171 156.6926,78.7407 156.6926,78.7394 156.7092,78.5615 156.7641,78.3905 156.8545,78.2355 156.9763,78.1035 157.1236,78.0010 157.2896,77.9327 157.4662,77.9018 158.7500,77.9018 Z"/> 
<path style="fill:#000000; fill-opacity:1.0000; stroke:none;fill-rule:evenodd;" d="M 159.5882,80.4418 159.5882,82.1182 157.9118,82.1182 157.9118,80.4418 Z"/> 
<path style="fill:#000000; fill-opacity:1.0000; stroke:none;fill-rule:evenodd;" d="M 158.7500,82.1182 157.4660,82.1182 157.2913,82.0835 157.1276,82.0131 156.9821,81.9102 156.8613,81.7792 156.7703,81.6260 156.7132,81.4571 156.6926,81.2807 156.6926,81.2794 156.7092,81.1015 156.7641,80.9305 156.8545,80.7755 156.9763,80.6435 157.1236,80.5410 157.2896,80.4727 157.4662,80.4418 158.7500,80.4418 Z"/> 
<path style="fill:#000000; fill-opacity:1.0000; stroke:none;fill-rule:evenodd;" d="M 159.5882,82.9818 159.5882,84.6582 157.9118,84.6582 157.9118,82.9818 Z"/> 
<path style="fill:#000000; fill-opacity:1.0000; stroke:none;fill-rule:evenodd;" d="M 158.7500,84.6582 157.4660,84.6582 157.2913,84.6235 157.1276,84.5531 156.9821,84.4502 156.8613,84.3192 156.7703,84.1660 156.7132,83.9971 156.6926,83.8207 156.6926,83.8194 156.7092,83.6415 156.7641,83.4705 156.8545,83.3155 156.9763,83.1835 157.1236,83.0810 157.2896,83.0127 157.4662,82.9818 158.7500,82.9818 Z"/> 
<path style="fill:#000000; fill-opacity:1.0000; stroke:none;fill-rule:evenodd;" d="M 159.5882,85.5218 159.5882,87.1982 157.9118,87.1982 157.9118,85.5218 Z"/> 
<path style="fill:#000000; fill-opacity:1.0000; stroke:none;fill-rule:evenodd;" d="M 158.7500,87.1982 157.4660,87.1982 157.2913,87.1635 157.1276,87.0931 156.9821,86.9902 156.8613,86.8592 156.7703,86.7060 156.7132,86.5371 156.6926,86.3607 156.6926,86.3594 156.7092,86.1815 156.7641,86.0105 156.8545,85.8555 156.9763,85.7235 157.1236,85.6210 157.2896,85.5527 157.4662,85.5218 158.7500,85.5218 Z"/> 
<path style="fill:#000000; fill-opacity:1.0000; stroke:none;fill-rule:evenodd;" d="M 159.5882,88.0618 159.5882,89.7382 157.9118,89.7382 157.9118,88.0618 Z"/> 
<path style="fill:#000000; fill-opacity:1.0000; stroke:none;fill-rule:evenodd;" d="M 158.7500,89.7382 157.4660,89.7382 157.2913,89.7035 157.1276,89.6331 156.9821,89.5302 156.8613,89.3992 156.7703,89.2460 156.7132,89.0771 156.6926,88.9007 156.6926,88.8994 156.7092,88.7215 156.7641,88.5505 156.8545,88.3955 156.9763,88.2635 157.1236,88.1610 157.2896,88.0927 157.4662,88.0618 158.7500,88.0618 Z"/> 
<path style="fill:#000000; fill-opacity:1.0000; stroke:none;fill-rule:evenodd;" d="M 159.5882,90.6018 159.5882,92.2782 157.9118,92.2782 157.9118,90.6018 Z"/> 
<path style="fill:#000000; fill-opacity:1.0000; stroke:none;fill-rule:evenodd;" d="M 158.7500,92.2782 157.4660,92.2782 157.2913,92.2435 157.1276,92.1731 156.9821,92.0702 156.8613,91.9392 156.7703,91.7860 156.7132,91.6171 156.6926,91.4407 156.6926,91.4394 156.7092,91.2615 156.7641,91.0905 156.8545,90.9355 156.9763,90.8035 157.1236,90.7010 157.2896,90.6327 157.4662,90.6018 158.7500,90.6018 Z"/> 
<path style="fill:#000000; fill-opacity:1.0000; stroke:none;fill-rule:evenodd;" d="M 159.5882,93.1418 159.5882,94.8182 157.9118,94.8182 157.9118,93.1418 Z"/> 
<path style="fill:#000000; fill-opacity:1.0000; stroke:none;fill-rule:evenodd;" d="M 158.7500,94.8182 157.4660,94.8182 157.2913,94.7835 157.1276,94.7131 156.9821,94.6102 156.8613,94.4792 156.7703,94.3260 156.7132,94.1572 156.6926,93.9807 156.6926,93.9794 156.7092,93.8015 156.7641,93.6305 156.8545,93.4755 156.9763,93.3435 157.1236,93.2410 157.2896,93.1727 157.4662,93.1418 158.7500,93.1418 Z"/> 
<path style="fill:#000000; fill-opacity:1.0000; stroke:none;fill-rule:evenodd;" d="M 159.5882,95.6818 159.5882,97.3582 157.9118,97.3582 157.9118,95.6818 Z"/> 
<path style="fill:#000000; fill-opacity:1.0000; stroke:none;fill-rule:evenodd;" d="M 158.7500,97.3582 157.4660,97.3582 157.2913,97.3235 157.1276,97.2531 156.9821,97.1502 156.8613,97.0192 156.7703,96.8660 156.7132,96.6971 156.6926,96.5207 156.6926,96.5194 156.7092,96.3415 156.7641,96.1705 156.8545,96.0155 156.9763,95.8835 157.1236,95.7810 157.2896,95.7127 157.4662,95.6818 158.7500,95.6818 Z"/> 
<path style="fill:#000000; fill-opacity:1.0000; stroke:none;fill-rule:evenodd;" d="M 155.6900,73.5875 155.6948,73.5636 155.7083,73.5433 155.7286,73.5298 155.7525,73.5250 155.9875,73.5250 156.0114,73.5298 156.0317,73.5433 156.0452,73.5636 156.0500,73.5875 156.0500,73.7125 156.0452,73.7364 156.0317,73.7567 156.0114,73.7702 155.9875,73.7750 155.7525,73.7750 155.7286,73.7702 155.7083,73.7567 155.6948,73.7364 155.6900,73.7125 Z"/> 
<path style="fill:#000000; fill-opacity:1.0000; stroke:none;fill-rule:evenodd;" d="M 154.8500,73.5875 154.8548,73.5636 154.8683,73.5433 154.8886,73.5298 154.9125,73.5250 155.1475,73.5250 155.1714,73.5298 155.1917,73.5433 155.2052,73.5636 155.2100,73.5875 155.2100,73.7125 155.2052,73.7364 155.1917,73.7567 155.1714,73.7702 155.1475,73.7750 154.9125,73.7750 154.8886,73.7702 154.8683,73.7567 154.8548,73.7364 154.8500,73.7125 Z"/> 
<path style="fill:#000000; fill-opacity:1.0000; stroke:none;fill-rule:evenodd;" d="M 155.6925,83.7625 155.6973,83.7386 155.7108,83.7183 155.7311,83.7048 155.7550,83.7000 155.9900,83.7000 156.0139,83.7048 156.0342,83.7183 156.0477,83.7386 156.0525,83.7625 156.0525,83.8875 156.0477,83.9114 156.0342,83.9317 156.0139,83.9452 155.9900,83.9500 155.7550,83.9500 155.7311,83.9452 155.7108,83.9317 155.6973,83.9114 155.6925,83.8875 Z"/> 
<path style="fill:#000000; fill-opacity:1.0000; stroke:none;fill-rule:evenodd;" d="M 154.8525,83.7625 154.8573,83.7386 154.8708,83.7183 154.8911,83.7048 154.9150,83.7000 155.1500,83.7000 155.1739,83.7048 155.1942,83.7183 155.2077,83.7386 155.2125,83.7625 155.2125,83.8875 155.2077,83.9114 155.1942,83.9317 155.1739,83.9452 155.1500,83.9500 154.9150,83.9500 154.8911,83.9452 154.8708,83.9317 154.8573,83.9114 154.8525,83.8875 Z"/> 
<path style="fill:#000000; fill-opacity:1.0000; stroke:none;fill-rule:evenodd;" d="M 148.4500,78.4250 148.4557,78.3963 148.4720,78.3720 148.4963,78.3557 148.5250,78.3500 149.8750,78.3500 149.9037,78.3557 149.9280,78.3720 149.9443,78.3963 149.9500,78.4250 149.9500,78.5750 149.9443,78.6037 149.9280,78.6280 149.9037,78.6443 149.8750,78.6500 148.5250,78.6500 148.4963,78.6443 148.4720,78.6280 148.4557,78.6037 148.4500,78.5750 Z"/> 
<path style="fill:#000000; fill-opacity:1.0000; stroke:none;fill-rule:evenodd;" d="M 148.4500,78.9250 148.4557,78.8963 148.4720,78.8720 148.4963,78.8557 148.5250,78.8500 149.8750,78.8500 149.9037,78.8557 149.9280,78.8720 149.9443,78.8963 149.9500,78.9250 149.9500,79.0750 149.9443,79.1037 149.9280,79.1280 149.9037,79.1443 149.8750,79.1500 148.5250,79.1500 148.4963,79.1443 148.4720,79.1280 148.4557,79.1037 148.4500,79.0750 Z"/> 
<path style="fill:#000000; fill-opacity:1.0000; stroke:none;fill-rule:evenodd;" d="M 148.4500,79.4250 148.4557,79.3963 148.4720,79.3720 148.4963,79.3557 148.5250,79.3500 149.8750,79.3500 149.9037,79.3557 149.9280,79.3720 149.9443,79.3963 149.9500,79.4250 149.9500,79.5750 149.9443,79.6037 149.9280,79.6280 149.9037,79.6443 149.8750,79.6500 148.5250,79.6500 148.4963,79.6443 148.4720,79.6280 148.4557,79.6037 148.4500,79.5750 Z"/> 
<path style="fill:#000000; fill-opacity:1.0000; stroke:none;fill-rule:evenodd;" d="M 148.4500,79.9250 148.4557,79.8963 148.4720,79.8720 148.4963,79.8557 148.5250,79.8500 149.8750,79.8500 149.9037,79.8557 149.9280,79.8720 149.9443,79.8963 149.9500,79.9250 149.9500,80.0750 149.9443,80.1037 149.9280,80.1280 149.9037,80.1443 149.8750,80.1500 148.5250,80.1500 148.4963,80.1443 148.4720,80.1280 148.4557,80.1037 148.4500,80.0750 Z"/> 
<path style="fill:#000000; fill-opacity:1.0000; stroke:none;fill-rule:evenodd;" d="M 148.4500,80.4250 148.4557,80.3963 148.4720,80.3720 148.4963,80.3557 148.5250,80.3500 149.8750,80.3500 149.9037,80.3557 149.9280,80.3720 149.9443,80.3963 149.9500,80.4250 149.9500,80.5750 149.9443,80.6037 149.9280,80.6280 149.9037,80.6443 149.8750,80.6500 148.5250,80.6500 148.4963,80.6443 148.4720,80.6280 148.4557,80.6037 148.4500,80.5750 Z"/> 
<path style="fill:#000000; fill-opacity:1.0000; stroke:none;fill-rule:evenodd;" d="M 148.4500,80.9250 148.4557,80.8963 148.4720,80.8720 148.4963,80.8557 148.5250,80.8500 149.8750,80.8500 149.9037,80.8557 149.9280,80.8720 149.9443,80.8963 149.9500,80.9250 149.9500,81.0750 149.9443,81.1037 149.9280,81.1280 149.9037,81.1443 149.8750,81.1500 148.5250,81.1500 148.4963,81.1443 148.4720,81.1280 148.4557,81.1037 148.4500,81.0750 Z"/> 
<path style="fill:#000000; fill-opacity:1.0000; stroke:none;fill-rule:evenodd;" d="M 148.4500,81.4250 148.4557,81.3963 148.4720,81.3720 148.4963,81.3557 148.5250,81.3500 149.8750,81.3500 149.9037,81.3557 149.9280,81.3720 149.9443,81.3963 149.9500,81.4250 149.9500,81.5750 149.9443,81.6037 149.9280,81.6280 149.9037,81.6443 149.8750,81.6500 148.5250,81.6500 148.4963,81.6443 148.4720,81.6280 148.4557,81.6037 148.4500,81.5750 Z"/> 
<path style="fill:#000000; fill-opacity:1.0000; stroke:none;fill-rule:evenodd;" d="M 148.4500,81.9250 148.4557,81.8963 148.4720,81.8720 148.4963,81.8557 148.5250,81.8500 149.8750,81.8500 149.9037,81.8557 149.9280,81.8720 149.9443,81.8963 149.9500,81.9250 149.9500,82.0750 149.9443,82.1037 149.9280,82.1280 149.9037,82.1443 149.8750,82.1500 148.5250,82.1500 148.4963,82.1443 148.4720,82.1280 148.4557,82.1037 148.4500,82.0750 Z"/> 
<path style="fill:#000000; fill-opacity:1.0000; stroke:none;fill-rule:evenodd;" d="M 148.4500,82.4250 148.4557,82.3963 148.4720,82.3720 148.4963,82.3557 148.5250,82.3500 149.8750,82.3500 149.9037,82.3557 149.9280,82.3720 149.9443,82.3963 149.9500,82.4250 149.9500,82.5750 149.9443,82.6037 149.9280,82.6280 149.9037,82.6443 149.8750,82.6500 148.5250,82.6500 148.4963,82.6443 148.4720,82.6280 148.4557,82.6037 148.4500,82.5750 Z"/> 
<path style="fill:#000000; fill-opacity:1.0000; stroke:none;fill-rule:evenodd;" d="M 148.4500,82.9250 148.4557,82.8963 148.4720,82.8720 148.4963,82.8557 148.5250,82.8500 149.8750,82.8500 149.9037,82.8557 149.9280,82.8720 149.9443,82.8963 149.9500,82.9250 149.9500,83.0750 149.9443,83.1037 149.9280,83.1280 149.9037,83.1443 149.8750,83.1500 148.5250,83.1500 148.4963,83.1443 148.4720,83.1280 148.4557,83.1037 148.4500,83.0750 Z"/> 
<path style="fill:#000000; fill-opacity:1.0000; stroke:none;fill-rule:evenodd;" d="M 148.4500,83.4250 148.4557,83.3963 148.4720,83.3720 148.4963,83.3557 148.5250,83.3500 149.8750,83.3500 149.9037,83.3557 149.9280,83.3720 149.9443,83.3963 149.9500,83.4250 149.9500,83.5750 149.9443,83.6037 149.9280,83.6280 149.9037,83.6443 149.8750,83.6500 148.5250,83.6500 148.4963,83.6443 148.4720,83.6280 148.4557,83.6037 148.4500,83.5750 Z"/> 
<path style="fill:#000000; fill-opacity:1.0000; stroke:none;fill-rule:evenodd;" d="M 148.4500,83.9250 148.4557,83.8963 148.4720,83.8720 148.4963,83.8557 148.5250,83.8500 149.8750,83.8500 149.9037,83.8557 149.9280,83.8720 149.9443,83.8963 149.9500,83.9250 149.9500,84.0750 149.9443,84.1037 149.9280,84.1280 149.9037,84.1443 149.8750,84.1500 148.5250,84.1500 148.4963,84.1443 148.4720,84.1280 148.4557,84.1037 148.4500,84.0750 Z"/> 
<path style="fill:#000000; fill-opacity:1.0000; stroke:none;fill-rule:evenodd;" d="M 152.7500,83.9250 152.7557,83.8963 152.7720,83.8720 152.7963,83.8557 152.8250,83.8500 154.1750,83.8500 154.2037,83.8557 154.2280,83.8720 154.2443,83.8963 154.2500,83.9250 154.2500,84.0750 154.2443,84.1037 154.2280,84.1280 154.2037,84.1443 154.1750,84.1500 152.8250,84.1500 152.7963,84.1443 152.7720,84.1280 152.7557,84.1037 152.7500,84.0750 Z"/> 
<path style="fill:#000000; fill-opacity:1.0000; stroke:none;fill-rule:evenodd;" d="M 152.7500,83.4250 152.7557,83.3963 152.7720,83.3720 152.7963,83.3557 152.8250,83.3500 154.1750,83.3500 154.2037,83.3557 154.2280,83.3720 154.2443,83.3963 154.2500,83.4250 154.2500,83.5750 154.2443,83.6037 154.2280,83.6280 154.2037,83.6443 154.1750,83.6500 152.8250,83.6500 152.7963,83.6443 152.7720,83.6280 152.7557,83.6037 152.7500,83.5750 Z"/> 
<path style="fill:#000000; fill-opacity:1.0000; stroke:none;fill-rule:evenodd;" d="M 152.7500,82.9250 152.7557,82.8963 152.7720,82.8720 152.7963,82.8557 152.8250,82.8500 154.1750,82.8500 154.2037,82.8557 154.2280,82.8720 154.2443,82.8963 154.2500,82.9250 154.2500,83.0750 154.2443,83.1037 154.2280,83.1280 154.2037,83.1443 154.1750,83.1500 152.8250,83.1500 152.7963,83.1443 152.7720,83.1280 152.7557,83.1037 152.7500,83.0750 Z"/> 
<path style="fill:#000000; fill-opacity:1.0000; stroke:none;fill-rule:evenodd;" d="M 152.7500,82.4250 152.7557,82.3963 152.7720,82.3720 152.7963,82.3557 152.8250,82.3500 154.1750,82.3500 154.2037,82.3557 154.2280,82.3720 154.2443,82.3963 154.2500,82.4250 154.2500,82.5750 154.2443,82.6037 154.2280,82.6280 154.2037,82.6443 154.1750,82.6500 152.8250,82.6500 152.7963,82.6443 152.7720,82.6280 152.7557,82.6037 152.7500,82.5750 Z"/> 
<path style="fill:#000000; fill-opacity:1.0000; stroke:none;fill-rule:evenodd;" d="M 152.7500,81.9250 152.7557,81.8963 152.7720,81.8720 152.7963,81.8557 152.8250,81.8500 154.1750,81.8500 154.2037,81.8557 154.2280,81.8720 154.2443,81.8963 154.2500,81.9250 154.2500,82.0750 154.2443,82.1037 154.2280,82.1280 154.2037,82.1443 154.1750,82.1500 152.8250,82.1500 152.7963,82.1443 152.7720,82.1280 152.7557,82.1037 152.7500,82.0750 Z"/> 
<path style="fill:#000000; fill-opacity:1.0000; stroke:none;fill-rule:evenodd;" d="M 152.7500,81.4250 152.7557,81.3963 152.7720,81.3720 152.7963,81.3557 152.8250,81.3500 154.1750,81.3500 154.2037,81.3557 154.2280,81.3720 154.2443,81.3963 154.2500,81.4250 154.2500,81.5750 154.2443,81.6037 154.2280,81.6280 154.2037,81.6443 154.1750,81.6500 152.8250,81.6500 152.7963,81.6443 152.7720,81.6280 152.7557,81.6037 152.7500,81.5750 Z"/> 
<path style="fill:#000000; fill-opacity:1.0000; stroke:none;fill-rule:evenodd;" d="M 152.7500,80.9250 152.7557,80.8963 152.7720,80.8720 152.7963,80.8557 152.8250,80.8500 154.1750,80.8500 154.2037,80.8557 154.2280,80.8720 154.2443,80.8963 154.2500,80.9250 154.2500,81.0750 154.2443,81.1037 154.2280,81.1280 154.2037,81.1443 154.1750,81.1500 152.8250,81.1500 152.7963,81.1443 152.7720,81.1280 152.7557,81.1037 152.7500,81.0750 Z"/> 
<path style="fill:#000000; fill-opacity:1.0000; stroke:none;fill-rule:evenodd;" d="M 152.7500,80.4250 152.7557,80.3963 152.7720,80.3720 152.7963,80.3557 152.8250,80.3500 154.1750,80.3500 154.2037,80.3557 154.2280,80.3720 154.2443,80.3963 154.2500,80.4250 154.2500,80.5750 154.2443,80.6037 154.2280,80.6280 154.2037,80.6443 154.1750,80.6500 152.8250,80.6500 152.7963,80.6443 152.7720,80.6280 152.7557,80.6037 152.7500,80.5750 Z"/> 
<path style="fill:#000000; fill-opacity:1.0000; stroke:none;fill-rule:evenodd;" d="M 152.7500,79.9250 152.7557,79.8963 152.7720,79.8720 152.7963,79.8557 152.8250,79.8500 154.1750,79.8500 154.2037,79.8557 154.2280,79.8720 154.2443,79.8963 154.2500,79.9250 154.2500,80.0750 154.2443,80.1037 154.2280,80.1280 154.2037,80.1443 154.1750,80.1500 152.8250,80.1500 152.7963,80.1443 152.7720,80.1280 152.7557,80.1037 152.7500,80.0750 Z"/> 
<path style="fill:#000000; fill-opacity:1.0000; stroke:none;fill-rule:evenodd;" d="M 152.7500,79.4250 152.7557,79.3963 152.7720,79.3720 152.7963,79.3557 152.8250,79.3500 154.1750,79.3500 154.2037,79.3557 154.2280,79.3720 154.2443,79.3963 154.2500,79.4250 154.2500,79.5750 154.2443,79.6037 154.2280,79.6280 154.2037,79.6443 154.1750,79.6500 152.8250,79.6500 152.7963,79.6443 152.7720,79.6280 152.7557,79.6037 152.7500,79.5750 Z"/> 
<path style="fill:#000000; fill-opacity:1.0000; stroke:none;fill-rule:evenodd;" d="M 152.7500,78.9250 152.7557,78.8963 152.7720,78.8720 152.7963,78.8557 152.8250,78.8500 154.1750,78.8500 154.2037,78.8557 154.2280,78.8720 154.2443,78.8963 154.2500,78.9250 154.2500,79.0750 154.2443,79.1037 154.2280,79.1280 154.2037,79.1443 154.1750,79.1500 152.8250,79.1500 152.7963,79.1443 152.7720,79.1280 152.7557,79.1037 152.7500,79.0750 Z"/> 
<path style="fill:#000000; fill-opacity:1.0000; stroke:none;fill-rule:evenodd;" d="M 152.7500,78.4250 152.7557,78.3963 152.7720,78.3720 152.7963,78.3557 152.8250,78.3500 154.1750,78.3500 154.2037,78.3557 154.2280,78.3720 154.2443,78.3963 154.2500,78.4250 154.2500,78.5750 154.2443,78.6037 154.2280,78.6280 154.2037,78.6443 154.1750,78.6500 152.8250,78.6500 152.7963,78.6443 152.7720,78.6280 152.7557,78.6037 152.7500,78.5750 Z"/> 
<path style="fill:#000000; fill-opacity:1.0000; stroke:none;fill-rule:evenodd;" d="M 155.6900,93.9125 155.6948,93.8886 155.7083,93.8683 155.7286,93.8548 155.7525,93.8500 155.9875,93.8500 156.0114,93.8548 156.0317,93.8683 156.0452,93.8886 156.0500,93.9125 156.0500,94.0375 156.0452,94.0614 156.0317,94.0817 156.0114,94.0952 155.9875,94.1000 155.7525,94.1000 155.7286,94.0952 155.7083,94.0817 155.6948,94.0614 155.6900,94.0375 Z"/> 
<path style="fill:#000000; fill-opacity:1.0000; stroke:none;fill-rule:evenodd;" d="M 154.8500,93.9125 154.8548,93.8886 154.8683,93.8683 154.8886,93.8548 154.9125,93.8500 155.1475,93.8500 155.1714,93.8548 155.1917,93.8683 155.2052,93.8886 155.2100,93.9125 155.2100,94.0375 155.2052,94.0614 155.1917,94.0817 155.1714,94.0952 155.1475,94.1000 154.9125,94.1000 154.8886,94.0952 154.8683,94.0817 154.8548,94.0614 154.8500,94.0375 Z"/> 
<path style="fill:#000000; fill-opacity:1.0000; stroke:none;fill-rule:evenodd;" d="M 155.6900,78.6875 155.6948,78.6636 155.7083,78.6433 155.7286,78.6298 155.7525,78.6250 155.9875,78.6250 156.0114,78.6298 156.0317,78.6433 156.0452,78.6636 156.0500,78.6875 156.0500,78.8125 156.0452,78.8364 156.0317,78.8567 156.0114,78.8702 155.9875,78.8750 155.7525,78.8750 155.7286,78.8702 155.7083,78.8567 155.6948,78.8364 155.6900,78.8125 Z"/> 
<path style="fill:#000000; fill-opacity:1.0000; stroke:none;fill-rule:evenodd;" d="M 154.8500,78.6875 154.8548,78.6636 154.8683,78.6433 154.8886,78.6298 154.9125,78.6250 155.1475,78.6250 155.1714,78.6298 155.1917,78.6433 155.2052,78.6636 155.2100,78.6875 155.2100,78.8125 155.2052,78.8364 155.1917,78.8567 155.1714,78.8702 155.1475,78.8750 154.9125,78.8750 154.8886,78.8702 154.8683,78.8567 154.8548,78.8364 154.8500,78.8125 Z"/> 
<path style="fill:#000000; fill-opacity:1.0000; stroke:none;fill-rule:evenodd;" d="M 155.6900,81.2125 155.6948,81.1886 155.7083,81.1683 155.7286,81.1548 155.7525,81.1500 155.9875,81.1500 156.0114,81.1548 156.0317,81.1683 156.0452,81.1886 156.0500,81.2125 156.0500,81.3375 156.0452,81.3614 156.0317,81.3817 156.0114,81.3952 155.9875,81.4000 155.7525,81.4000 155.7286,81.3952 155.7083,81.3817 155.6948,81.3614 155.6900,81.3375 Z"/> 
<path style="fill:#000000; fill-opacity:1.0000; stroke:none;fill-rule:evenodd;" d="M 154.8500,81.2125 154.8548,81.1886 154.8683,81.1683 154.8886,81.1548 154.9125,81.1500 155.1475,81.1500 155.1714,81.1548 155.1917,81.1683 155.2052,81.1886 155.2100,81.2125 155.2100,81.3375 155.2052,81.3614 155.1917,81.3817 155.1714,81.3952 155.1475,81.4000 154.9125,81.4000 154.8886,81.3952 154.8683,81.3817 154.8548,81.3614 154.8500,81.3375 Z"/> 
<path style="fill:#000000; fill-opacity:1.0000; stroke:none;fill-rule:evenodd;" d="M 143.5100,67.7418 144.7938,67.7418 144.9704,67.7727 145.1364,67.8410 145.2837,67.9435 145.4055,68.0755 145.4959,68.2305 145.5508,68.4015 145.5674,68.5794 145.5674,68.5807 145.5468,68.7571 145.4897,68.9260 145.3987,69.0792 145.2779,69.2102 145.1324,69.3131 144.9687,69.3835 144.7940,69.4182 143.5100,69.4182 Z"/> 
<path style="fill:#000000; fill-opacity:1.0000; stroke:none;fill-rule:evenodd;" d="M 142.6718,69.4182 142.6718,67.7418 144.3482,67.7418 144.3482,69.4182 Z"/> 
<path style="fill:#000000; fill-opacity:1.0000; stroke:none;fill-rule:evenodd;" d="M 143.5100,70.2818 144.7938,70.2818 144.9704,70.3127 145.1364,70.3810 145.2837,70.4835 145.4055,70.6155 145.4959,70.7705 145.5508,70.9415 145.5674,71.1194 145.5674,71.1207 145.5468,71.2972 145.4897,71.4660 145.3987,71.6192 145.2779,71.7502 145.1324,71.8531 144.9687,71.9235 144.7940,71.9582 143.5100,71.9582 Z"/> 
<path style="fill:#000000; fill-opacity:1.0000; stroke:none;fill-rule:evenodd;" d="M 142.6718,71.9582 142.6718,70.2818 144.3482,70.2818 144.3482,71.9582 Z"/> 
<path style="fill:#000000; fill-opacity:1.0000; stroke:none;fill-rule:evenodd;" d="M 143.5100,72.8218 144.7938,72.8218 144.9704,72.8527 145.1364,72.9210 145.2837,73.0235 145.4055,73.1555 145.4959,73.3105 145.5508,73.4815 145.5674,73.6594 145.5674,73.6607 145.5468,73.8371 145.4897,74.0060 145.3987,74.1592 145.2779,74.2902 145.1324,74.3931 144.9687,74.4635 144.7940,74.4982 143.5100,74.4982 Z"/> 
<path style="fill:#000000; fill-opacity:1.0000; stroke:none;fill-rule:evenodd;" d="M 142.6718,74.4982 142.6718,72.8218 144.3482,72.8218 144.3482,74.4982 Z"/> 
<path style="fill:#000000; fill-opacity:1.0000; stroke:none;fill-rule:evenodd;" d="M 143.5100,75.3618 144.7938,75.3618 144.9704,75.3927 145.1364,75.4610 145.2837,75.5635 145.4055,75.6955 145.4959,75.8505 145.5508,76.0215 145.5674,76.1994 145.5674,76.2007 145.5468,76.3772 145.4897,76.5460 145.3987,76.6992 145.2779,76.8302 145.1324,76.9331 144.9687,77.0035 144.7940,77.0382 143.5100,77.0382 Z"/> 
<path style="fill:#000000; fill-opacity:1.0000; stroke:none;fill-rule:evenodd;" d="M 142.6718,77.0382 142.6718,75.3618 144.3482,75.3618 144.3482,77.0382 Z"/> 
<path style="fill:#000000; fill-opacity:1.0000; stroke:none;fill-rule:evenodd;" d="M 143.5100,77.9018 144.7938,77.9018 144.9704,77.9327 145.1364,78.0010 145.2837,78.1035 145.4055,78.2355 145.4959,78.3905 145.5508,78.5615 145.5674,78.7394 145.5674,78.7407 145.5468,78.9171 145.4897,79.0860 145.3987,79.2392 145.2779,79.3702 145.1324,79.4731 144.9687,79.5435 144.7940,79.5782 143.5100,79.5782 Z"/> 
<path style="fill:#000000; fill-opacity:1.0000; stroke:none;fill-rule:evenodd;" d="M 142.6718,79.5782 142.6718,77.9018 144.3482,77.9018 144.3482,79.5782 Z"/> 
<path style="fill:#000000; fill-opacity:1.0000; stroke:none;fill-rule:evenodd;" d="M 143.5100,80.4418 144.7938,80.4418 144.9704,80.4727 145.1364,80.5410 145.2837,80.6435 145.4055,80.7755 145.4959,80.9305 145.5508,81.1015 145.5674,81.2794 145.5674,81.2807 145.5468,81.4571 145.4897,81.6260 145.3987,81.7792 145.2779,81.9102 145.1324,82.0131 144.9687,82.0835 144.7940,82.1182 143.5100,82.1182 Z"/> 
<path style="fill:#000000; fill-opacity:1.0000; stroke:none;fill-rule:evenodd;" d="M 142.6718,82.1182 142.6718,80.4418 144.3482,80.4418 144.3482,82.1182 Z"/> 
<path style="fill:#000000; fill-opacity:1.0000; stroke:none;fill-rule:evenodd;" d="M 143.5100,82.9818 144.7938,82.9818 144.9704,83.0127 145.1364,83.0810 145.2837,83.1835 145.4055,83.3155 145.4959,83.4705 145.5508,83.6415 145.5674,83.8194 145.5674,83.8207 145.5468,83.9971 145.4897,84.1660 145.3987,84.3192 145.2779,84.4502 145.1324,84.5531 144.9687,84.6235 144.7940,84.6582 143.5100,84.6582 Z"/> 
<path style="fill:#000000; fill-opacity:1.0000; stroke:none;fill-rule:evenodd;" d="M 142.6718,84.6582 142.6718,82.9818 144.3482,82.9818 144.3482,84.6582 Z"/> 
<path style="fill:#000000; fill-opacity:1.0000; stroke:none;fill-rule:evenodd;" d="M 143.5100,85.5218 144.7938,85.5218 144.9704,85.5527 145.1364,85.6210 145.2837,85.7235 145.4055,85.8555 145.4959,86.0105 145.5508,86.1815 145.5674,86.3594 145.5674,86.3607 145.5468,86.5371 145.4897,86.7060 145.3987,86.8592 145.2779,86.9902 145.1324,87.0931 144.9687,87.1635 144.7940,87.1982 143.5100,87.1982 Z"/> 
<path style="fill:#000000; fill-opacity:1.0000; stroke:none;fill-rule:evenodd;" d="M 142.6718,87.1982 142.6718,85.5218 144.3482,85.5218 144.3482,87.1982 Z"/> 
<path style="fill:#000000; fill-opacity:1.0000; stroke:none;fill-rule:evenodd;" d="M 143.5100,88.0618 144.7938,88.0618 144.9704,88.0927 145.1364,88.1610 145.2837,88.2635 145.4055,88.3955 145.4959,88.5505 145.5508,88.7215 145.5674,88.8994 145.5674,88.9007 145.5468,89.0771 145.4897,89.2460 145.3987,89.3992 145.2779,89.5302 145.1324,89.6331 144.9687,89.7035 144.7940,89.7382 143.5100,89.7382 Z"/> 
<path style="fill:#000000; fill-opacity:1.0000; stroke:none;fill-rule:evenodd;" d="M 142.6718,89.7382 142.6718,88.0618 144.3482,88.0618 144.3482,89.7382 Z"/> 
<path style="fill:#000000; fill-opacity:1.0000; stroke:none;fill-rule:evenodd;" d="M 143.5100,90.6018 144.7938,90.6018 144.9704,90.6327 145.1364,90.7010 145.2837,90.8035 145.4055,90.9355 145.4959,91.0905 145.5508,91.2615 145.5674,91.4394 145.5674,91.4407 145.5468,91.6171 145.4897,91.7860 145.3987,91.9392 145.2779,92.0702 145.1324,92.1731 144.9687,92.2435 144.7940,92.2782 143.5100,92.2782 Z"/> 
<path style="fill:#000000; fill-opacity:1.0000; stroke:none;fill-rule:evenodd;" d="M 142.6718,92.2782 142.6718,90.6018 144.3482,90.6018 144.3482,92.2782 Z"/> 
<path style="fill:#000000; fill-opacity:1.0000; stroke:none;fill-rule:evenodd;" d="M 143.5100,93.1418 144.7938,93.1418 144.9704,93.1727 145.1364,93.2410 145.2837,93.3435 145.4055,93.4755 145.4959,93.6305 145.5508,93.8015 145.5674,93.9794 145.5674,93.9807 145.5468,94.1572 145.4897,94.3260 145.3987,94.4792 145.2779,94.6102 145.1324,94.7131 144.9687,94.7835 144.7940,94.8182 143.5100,94.8182 Z"/> 
<path style="fill:#000000; fill-opacity:1.0000; stroke:none;fill-rule:evenodd;" d="M 142.6718,94.8182 142.6718,93.1418 144.3482,93.1418 144.3482,94.8182 Z"/> 
<path style="fill:#000000; fill-opacity:1.0000; stroke:none;fill-rule:evenodd;" d="M 143.5100,95.6818 144.7938,95.6818 144.9704,95.7127 145.1364,95.7810 145.2837,95.8835 145.4055,96.0155 145.4959,96.1705 145.5508,96.3415 145.5674,96.5194 145.5674,96.5207 145.5468,96.6971 145.4897,96.8660 145.3987,97.0192 145.2779,97.1502 145.1324,97.2531 144.9687,97.3235 144.7940,97.3582 143.5100,97.3582 Z"/> 
<path style="fill:#000000; fill-opacity:1.0000; stroke:none;fill-rule:evenodd;" d="M 142.6718,97.3582 142.6718,95.6818 144.3482,95.6818 144.3482,97.3582 Z"/> 
<path style="fill:#000000; fill-opacity:1.0000; stroke:none;fill-rule:evenodd;" d="M 150.5250,77.6000 150.4389,77.5829 150.3659,77.5341 150.3171,77.4611 150.3000,77.3750 150.3000,76.9250 150.3171,76.8389 150.3659,76.7659 150.4389,76.7171 150.5250,76.7000 151.0250,76.7000 151.1111,76.7171 151.1841,76.7659 151.2329,76.8389 151.2500,76.9250 151.2500,77.3750 151.2329,77.4611 151.1841,77.5341 151.1111,77.5829 151.0250,77.6000 Z"/> 
<path style="fill:#000000; fill-opacity:1.0000; stroke:none;fill-rule:evenodd;" d="M 150.5250,76.0500 150.4389,76.0329 150.3659,75.9841 150.3171,75.9111 150.3000,75.8250 150.3000,75.3750 150.3171,75.2889 150.3659,75.2159 150.4389,75.1671 150.5250,75.1500 151.0250,75.1500 151.1111,75.1671 151.1841,75.2159 151.2329,75.2889 151.2500,75.3750 151.2500,75.8250 151.2329,75.9111 151.1841,75.9841 151.1111,76.0329 151.0250,76.0500 Z"/> 
<path style="fill:#000000; fill-opacity:1.0000; stroke:none;fill-rule:evenodd;" d="M 155.6900,88.8375 155.6948,88.8136 155.7083,88.7933 155.7286,88.7798 155.7525,88.7750 155.9875,88.7750 156.0114,88.7798 156.0317,88.7933 156.0452,88.8136 156.0500,88.8375 156.0500,88.9625 156.0452,88.9864 156.0317,89.0067 156.0114,89.0202 155.9875,89.0250 155.7525,89.0250 155.7286,89.0202 155.7083,89.0067 155.6948,88.9864 155.6900,88.9625 Z"/> 
<path style="fill:#000000; fill-opacity:1.0000; stroke:none;fill-rule:evenodd;" d="M 154.8500,88.8375 154.8548,88.8136 154.8683,88.7933 154.8886,88.7798 154.9125,88.7750 155.1475,88.7750 155.1714,88.7798 155.1917,88.7933 155.2052,88.8136 155.2100,88.8375 155.2100,88.9625 155.2052,88.9864 155.1917,89.0067 155.1714,89.0202 155.1475,89.0250 154.9125,89.0250 154.8886,89.0202 154.8683,89.0067 154.8548,88.9864 154.8500,88.9625 Z"/> 
<path style="fill:#000000; fill-opacity:1.0000; stroke:none;fill-rule:evenodd;" d="M 146.5850,94.0375 146.5802,94.0614 146.5667,94.0817 146.5464,94.0952 146.5225,94.1000 146.2875,94.1000 146.2636,94.0952 146.2433,94.0817 146.2298,94.0614 146.2250,94.0375 146.2250,93.9125 146.2298,93.8886 146.2433,93.8683 146.2636,93.8548 146.2875,93.8500 146.5225,93.8500 146.5464,93.8548 146.5667,93.8683 146.5802,93.8886 146.5850,93.9125 Z"/> 
<path style="fill:#000000; fill-opacity:1.0000; stroke:none;fill-rule:evenodd;" d="M 147.4250,94.0375 147.4202,94.0614 147.4067,94.0817 147.3864,94.0952 147.3625,94.1000 147.1275,94.1000 147.1036,94.0952 147.0833,94.0817 147.0698,94.0614 147.0650,94.0375 147.0650,93.9125 147.0698,93.8886 147.0833,93.8683 147.1036,93.8548 147.1275,93.8500 147.3625,93.8500 147.3864,93.8548 147.4067,93.8683 147.4202,93.8886 147.4250,93.9125 Z"/> 
<path style="fill:#000000; fill-opacity:1.0000; stroke:none;fill-rule:evenodd;" d="M 146.5850,76.2625 146.5802,76.2864 146.5667,76.3067 146.5464,76.3202 146.5225,76.3250 146.2875,76.3250 146.2636,76.3202 146.2433,76.3067 146.2298,76.2864 146.2250,76.2625 146.2250,76.1375 146.2298,76.1136 146.2433,76.0933 146.2636,76.0798 146.2875,76.0750 146.5225,76.0750 146.5464,76.0798 146.5667,76.0933 146.5802,76.1136 146.5850,76.1375 Z"/> 
<path style="fill:#000000; fill-opacity:1.0000; stroke:none;fill-rule:evenodd;" d="M 147.4250,76.2625 147.4202,76.2864 147.4067,76.3067 147.3864,76.3202 147.3625,76.3250 147.1275,76.3250 147.1036,76.3202 147.0833,76.3067 147.0698,76.2864 147.0650,76.2625 147.0650,76.1375 147.0698,76.1136 147.0833,76.0933 147.1036,76.0798 147.1275,76.0750 147.3625,76.0750 147.3864,76.0798 147.4067,76.0933 147.4202,76.1136 147.4250,76.1375 Z"/> 
<path style="fill:#000000; fill-opacity:1.0000; stroke:none;fill-rule:evenodd;" d="M 146.5850,81.3375 146.5802,81.3614 146.5667,81.3817 146.5464,81.3952 146.5225,81.4000 146.2875,81.4000 146.2636,81.3952 146.2433,81.3817 146.2298,81.3614 146.2250,81.3375 146.2250,81.2125 146.2298,81.1886 146.2433,81.1683 146.2636,81.1548 146.2875,81.1500 146.5225,81.1500 146.5464,81.1548 146.5667,81.1683 146.5802,81.1886 146.5850,81.2125 Z"/> 
<path style="fill:#000000; fill-opacity:1.0000; stroke:none;fill-rule:evenodd;" d="M 147.4250,81.3375 147.4202,81.3614 147.4067,81.3817 147.3864,81.3952 147.3625,81.4000 147.1275,81.4000 147.1036,81.3952 147.0833,81.3817 147.0698,81.3614 147.0650,81.3375 147.0650,81.2125 147.0698,81.1886 147.0833,81.1683 147.1036,81.1548 147.1275,81.1500 147.3625,81.1500 147.3864,81.1548 147.4067,81.1683 147.4202,81.1886 147.4250,81.2125 Z"/> 
<path style="fill:#000000; fill-opacity:1.0000; stroke:none;fill-rule:evenodd;" d="M 151.3850,70.0850 151.4615,70.1002 151.5264,70.1436 151.5698,70.2085 151.5850,70.2850 151.5850,70.6850 151.5698,70.7615 151.5264,70.8264 151.4615,70.8698 151.3850,70.8850 150.8350,70.8850 150.7585,70.8698 150.6936,70.8264 150.6502,70.7615 150.6350,70.6850 150.6350,70.2850 150.6502,70.2085 150.6936,70.1436 150.7585,70.1002 150.8350,70.0850 Z"/> 
<path style="fill:#000000; fill-opacity:1.0000; stroke:none;fill-rule:evenodd;" d="M 151.3850,71.7350 151.4615,71.7502 151.5264,71.7936 151.5698,71.8585 151.5850,71.9350 151.5850,72.3350 151.5698,72.4115 151.5264,72.4764 151.4615,72.5198 151.3850,72.5350 150.8350,72.5350 150.7585,72.5198 150.6936,72.4764 150.6502,72.4115 150.6350,72.3350 150.6350,71.9350 150.6502,71.8585 150.6936,71.7936 150.7585,71.7502 150.8350,71.7350 Z"/> 
<path style="fill:#000000; fill-opacity:1.0000; stroke:none;fill-rule:evenodd;" d="M 146.5850,68.6375 146.5802,68.6614 146.5667,68.6817 146.5464,68.6952 146.5225,68.7000 146.2875,68.7000 146.2636,68.6952 146.2433,68.6817 146.2298,68.6614 146.2250,68.6375 146.2250,68.5125 146.2298,68.4886 146.2433,68.4683 146.2636,68.4548 146.2875,68.4500 146.5225,68.4500 146.5464,68.4548 146.5667,68.4683 146.5802,68.4886 146.5850,68.5125 Z"/> 
<path style="fill:#000000; fill-opacity:1.0000; stroke:none;fill-rule:evenodd;" d="M 147.4250,68.6375 147.4202,68.6614 147.4067,68.6817 147.3864,68.6952 147.3625,68.7000 147.1275,68.7000 147.1036,68.6952 147.0833,68.6817 147.0698,68.6614 147.0650,68.6375 147.0650,68.5125 147.0698,68.4886 147.0833,68.4683 147.1036,68.4548 147.1275,68.4500 147.3625,68.4500 147.3864,68.4548 147.4067,68.4683 147.4202,68.4886 147.4250,68.5125 Z"/> 
<path style="fill:#000000; fill-opacity:1.0000; stroke:none;fill-rule:evenodd;" d="M 155.6900,86.2875 155.6948,86.2636 155.7083,86.2433 155.7286,86.2298 155.7525,86.2250 155.9875,86.2250 156.0114,86.2298 156.0317,86.2433 156.0452,86.2636 156.0500,86.2875 156.0500,86.4125 156.0452,86.4364 156.0317,86.4567 156.0114,86.4702 155.9875,86.4750 155.7525,86.4750 155.7286,86.4702 155.7083,86.4567 155.6948,86.4364 155.6900,86.4125 Z"/> 
<path style="fill:#000000; fill-opacity:1.0000; stroke:none;fill-rule:evenodd;" d="M 154.8500,86.2875 154.8548,86.2636 154.8683,86.2433 154.8886,86.2298 154.9125,86.2250 155.1475,86.2250 155.1714,86.2298 155.1917,86.2433 155.2052,86.2636 155.2100,86.2875 155.2100,86.4125 155.2052,86.4364 155.1917,86.4567 155.1714,86.4702 155.1475,86.4750 154.9125,86.4750 154.8886,86.4702 154.8683,86.4567 154.8548,86.4364 154.8500,86.4125 Z"/> 
<path style="fill:#000000; fill-opacity:1.0000; stroke:none;fill-rule:evenodd;" d="M 155.6900,68.5125 155.6948,68.4886 155.7083,68.4683 155.7286,68.4548 155.7525,68.4500 155.9875,68.4500 156.0114,68.4548 156.0317,68.4683 156.0452,68.4886 156.0500,68.5125 156.0500,68.6375 156.0452,68.6614 156.0317,68.6817 156.0114,68.6952 155.9875,68.7000 155.7525,68.7000 155.7286,68.6952 155.7083,68.6817 155.6948,68.6614 155.6900,68.6375 Z"/> 
<path style="fill:#000000; fill-opacity:1.0000; stroke:none;fill-rule:evenodd;" d="M 154.8500,68.5125 154.8548,68.4886 154.8683,68.4683 154.8886,68.4548 154.9125,68.4500 155.1475,68.4500 155.1714,68.4548 155.1917,68.4683 155.2052,68.4886 155.2100,68.5125 155.2100,68.6375 155.2052,68.6614 155.1917,68.6817 155.1714,68.6952 155.1475,68.7000 154.9125,68.7000 154.8886,68.6952 154.8683,68.6817 154.8548,68.6614 154.8500,68.6375 Z"/> 
<path style="fill:#000000; fill-opacity:1.0000; stroke:none;fill-rule:evenodd;" d="M 146.5850,73.7375 146.5802,73.7614 146.5667,73.7817 146.5464,73.7952 146.5225,73.8000 146.2875,73.8000 146.2636,73.7952 146.2433,73.7817 146.2298,73.7614 146.2250,73.7375 146.2250,73.6125 146.2298,73.5886 146.2433,73.5683 146.2636,73.5548 146.2875,73.5500 146.5225,73.5500 146.5464,73.5548 146.5667,73.5683 146.5802,73.5886 146.5850,73.6125 Z"/> 
<path style="fill:#000000; fill-opacity:1.0000; stroke:none;fill-rule:evenodd;" d="M 147.4250,73.7375 147.4202,73.7614 147.4067,73.7817 147.3864,73.7952 147.3625,73.8000 147.1275,73.8000 147.1036,73.7952 147.0833,73.7817 147.0698,73.7614 147.0650,73.7375 147.0650,73.6125 147.0698,73.5886 147.0833,73.5683 147.1036,73.5548 147.1275,73.5500 147.3625,73.5500 147.3864,73.5548 147.4067,73.5683 147.4202,73.5886 147.4250,73.6125 Z"/> 
<path style="fill:#000000; fill-opacity:1.0000; stroke:none;fill-rule:evenodd;" d="M 146.5850,91.5125 146.5802,91.5364 146.5667,91.5567 146.5464,91.5702 146.5225,91.5750 146.2875,91.5750 146.2636,91.5702 146.2433,91.5567 146.2298,91.5364 146.2250,91.5125 146.2250,91.3875 146.2298,91.3636 146.2433,91.3433 146.2636,91.3298 146.2875,91.3250 146.5225,91.3250 146.5464,91.3298 146.5667,91.3433 146.5802,91.3636 146.5850,91.3875 Z"/> 
<path style="fill:#000000; fill-opacity:1.0000; stroke:none;fill-rule:evenodd;" d="M 147.4250,91.5125 147.4202,91.5364 147.4067,91.5567 147.3864,91.5702 147.3625,91.5750 147.1275,91.5750 147.1036,91.5702 147.0833,91.5567 147.0698,91.5364 147.0650,91.5125 147.0650,91.3875 147.0698,91.3636 147.0833,91.3433 147.1036,91.3298 147.1275,91.3250 147.3625,91.3250 147.3864,91.3298 147.4067,91.3433 147.4202,91.3636 147.4250,91.3875 Z"/> 
<path style="fill:#000000; fill-opacity:1.0000; stroke:none;fill-rule:evenodd;" d="M 146.5825,86.4375 146.5777,86.4614 146.5642,86.4817 146.5439,86.4952 146.5200,86.5000 146.2850,86.5000 146.2611,86.4952 146.2408,86.4817 146.2273,86.4614 146.2225,86.4375 146.2225,86.3125 146.2273,86.2886 146.2408,86.2683 146.2611,86.2548 146.2850,86.2500 146.5200,86.2500 146.5439,86.2548 146.5642,86.2683 146.5777,86.2886 146.5825,86.3125 Z"/> 
<path style="fill:#000000; fill-opacity:1.0000; stroke:none;fill-rule:evenodd;" d="M 147.4225,86.4375 147.4177,86.4614 147.4042,86.4817 147.3839,86.4952 147.3600,86.5000 147.1250,86.5000 147.1011,86.4952 147.0808,86.4817 147.0673,86.4614 147.0625,86.4375 147.0625,86.3125 147.0673,86.2886 147.0808,86.2683 147.1011,86.2548 147.1250,86.2500 147.3600,86.2500 147.3839,86.2548 147.4042,86.2683 147.4177,86.2886 147.4225,86.3125 Z"/> 
</g> 
</mask></defs><g transform="scale(2.0,2.0) translate(-76.94835,-34.534910999999994)" id="boardContainer"><g id="substrate" clip-path="url(#cut-off)" mask="url(#pads-mask-silkscreen)"><g id="substrate-board" style="fill:#143324; fill-opacity:0.25098039215686274; stroke:#143324; stroke-width:0;"><path d="M143.5100 97.7900 L143.5100 67.2900 M 158.75 67.29 L 158.75 97.79 L 143.51 97.79 L 143.51 67.29 L 158.75 67.29 " style="fill-rule: evenodd;"/><g style="fill: #4ca06c;fill-opacity: 1.0000;stroke: #4ca06c;stroke-opacity: 1.0000;stroke-linecap: round;stroke-linejoin: round" transform="translate(0 0) scale(1 1)">
<path style="fill: none;stroke: #4ca06c;stroke-width: 0.0500;stroke-opacity: 1;stroke-linecap: round;stroke-linejoin: round" d="M 143.5100,67.2900 158.7500,67.2900 158.7500,97.7900 143.5100,97.7900 Z"/> 
</g> 
</g></g></g></svg>
