<?xml version="1.0" standalone="no"?>
 <!DOCTYPE svg PUBLIC "-//W3C//DTD SVG 1.1//EN" 
 "http://www.w3.org/Graphics/SVG/1.1/DTD/svg11.dtd"> 
<svg
  xmlns:svg="http://www.w3.org/2000/svg"
  xmlns="http://www.w3.org/2000/svg"
  xmlns:xlink="http://www.w3.org/1999/xlink"
  version="1.1"
  width="297.0022mm" height="210.0072mm" viewBox="0.0000 0.0000 297.0022 210.0072">
<title>SVG Image created as txe8116-module-B_Cu_pads.svg date 2026/03/24 20:05:28 </title>
  <desc>Image generated by PCBNEW </desc>
<g style="fill:#000000; fill-opacity:1.0000;stroke:#000000; stroke-opacity:1.0000;
stroke-linecap:round; stroke-linejoin:round;"
 transform="translate(0 0) scale(1 1)">
<path style="fill:#000000; fill-opacity:1.0000; stroke:none;fill-rule:evenodd;"
d="M 131.5847,66.4138
131.5847,69.7666
134.9375,69.7666
134.9375,66.4138
Z" /> 
<path style="fill:#000000; fill-opacity:1.0000; stroke:none;fill-rule:evenodd;"
d="M 133.2611,69.7666
135.8290,69.7666
136.1784,69.6971
136.5058,69.5563
136.7968,69.3505
137.0386,69.0886
137.2205,68.7821
137.3347,68.4445
137.3759,68.0917
137.3759,68.0890
137.3427,67.7331
137.2329,67.3912
137.0521,67.0811
136.8085,66.8173
136.5138,66.6122
136.1818,66.4755
135.8287,66.4138
133.2611,66.4138
Z" /> 
<path style="fill:#000000; fill-opacity:1.0000; stroke:none;fill-rule:evenodd;"
d="M 131.5847,71.4938
131.5847,74.8466
134.9375,74.8466
134.9375,71.4938
Z" /> 
<path style="fill:#000000; fill-opacity:1.0000; stroke:none;fill-rule:evenodd;"
d="M 133.2611,74.8466
135.8290,74.8466
136.1784,74.7771
136.5058,74.6363
136.7968,74.4305
137.0386,74.1686
137.2205,73.8621
137.3347,73.5245
137.3759,73.1717
137.3759,73.1690
137.3427,72.8131
137.2329,72.4712
137.0521,72.1611
136.8085,71.8973
136.5138,71.6922
136.1818,71.5555
135.8287,71.4938
133.2611,71.4938
Z" /> 
<path style="fill:#000000; fill-opacity:1.0000; stroke:none;fill-rule:evenodd;"
d="M 131.5847,76.5738
131.5847,79.9266
134.9375,79.9266
134.9375,76.5738
Z" /> 
<path style="fill:#000000; fill-opacity:1.0000; stroke:none;fill-rule:evenodd;"
d="M 133.2611,79.9266
135.8290,79.9266
136.1784,79.8571
136.5058,79.7163
136.7968,79.5105
137.0386,79.2486
137.2205,78.9421
137.3347,78.6045
137.3759,78.2517
137.3759,78.2490
137.3427,77.8931
137.2329,77.5512
137.0521,77.2411
136.8085,76.9773
136.5138,76.7722
136.1818,76.6355
135.8287,76.5738
133.2611,76.5738
Z" /> 
<path style="fill:#000000; fill-opacity:1.0000; stroke:none;fill-rule:evenodd;"
d="M 131.5847,81.6538
131.5847,85.0066
134.9375,85.0066
134.9375,81.6538
Z" /> 
<path style="fill:#000000; fill-opacity:1.0000; stroke:none;fill-rule:evenodd;"
d="M 133.2611,85.0066
135.8290,85.0066
136.1784,84.9371
136.5058,84.7963
136.7968,84.5905
137.0386,84.3286
137.2205,84.0221
137.3347,83.6845
137.3759,83.3317
137.3759,83.3290
137.3427,82.9731
137.2329,82.6312
137.0521,82.3211
136.8085,82.0573
136.5138,81.8522
136.1818,81.7155
135.8287,81.6538
133.2611,81.6538
Z" /> 
<path style="fill:#000000; fill-opacity:1.0000; stroke:none;fill-rule:evenodd;"
d="M 131.5847,86.7338
131.5847,90.0866
134.9375,90.0866
134.9375,86.7338
Z" /> 
<path style="fill:#000000; fill-opacity:1.0000; stroke:none;fill-rule:evenodd;"
d="M 133.2611,90.0866
135.8290,90.0866
136.1784,90.0171
136.5058,89.8763
136.7968,89.6705
137.0386,89.4086
137.2205,89.1021
137.3347,88.7645
137.3759,88.4117
137.3759,88.4090
137.3427,88.0531
137.2329,87.7112
137.0521,87.4011
136.8085,87.1373
136.5138,86.9322
136.1818,86.7955
135.8287,86.7338
133.2611,86.7338
Z" /> 
<path style="fill:#000000; fill-opacity:1.0000; stroke:none;fill-rule:evenodd;"
d="M 131.5847,91.8138
131.5847,95.1666
134.9375,95.1666
134.9375,91.8138
Z" /> 
<path style="fill:#000000; fill-opacity:1.0000; stroke:none;fill-rule:evenodd;"
d="M 133.2611,95.1666
135.8290,95.1666
136.1784,95.0971
136.5058,94.9563
136.7968,94.7505
137.0386,94.4886
137.2205,94.1821
137.3347,93.8445
137.3759,93.4917
137.3759,93.4890
137.3427,93.1331
137.2329,92.7912
137.0521,92.4811
136.8085,92.2173
136.5138,92.0122
136.1818,91.8755
135.8287,91.8138
133.2611,91.8138
Z" /> 
<path style="fill:#000000; fill-opacity:1.0000; stroke:none;fill-rule:evenodd;"
d="M 131.5847,96.8938
131.5847,100.2466
134.9375,100.2466
134.9375,96.8938
Z" /> 
<path style="fill:#000000; fill-opacity:1.0000; stroke:none;fill-rule:evenodd;"
d="M 133.2611,100.2466
135.8290,100.2466
136.1784,100.1771
136.5058,100.0363
136.7968,99.8305
137.0386,99.5686
137.2205,99.2621
137.3347,98.9245
137.3759,98.5717
137.3759,98.5690
137.3427,98.2131
137.2329,97.8712
137.0521,97.5611
136.8085,97.2973
136.5138,97.0922
136.1818,96.9555
135.8287,96.8938
133.2611,96.8938
Z" /> 
<path style="fill:#000000; fill-opacity:1.0000; stroke:none;fill-rule:evenodd;"
d="M 131.5847,101.9738
131.5847,105.3266
134.9375,105.3266
134.9375,101.9738
Z" /> 
<path style="fill:#000000; fill-opacity:1.0000; stroke:none;fill-rule:evenodd;"
d="M 133.2611,105.3266
135.8290,105.3266
136.1784,105.2571
136.5058,105.1163
136.7968,104.9105
137.0386,104.6486
137.2205,104.3421
137.3347,104.0045
137.3759,103.6517
137.3759,103.6490
137.3427,103.2931
137.2329,102.9512
137.0521,102.6411
136.8085,102.3773
136.5138,102.1722
136.1818,102.0355
135.8287,101.9738
133.2611,101.9738
Z" /> 
<path style="fill:#000000; fill-opacity:1.0000; stroke:none;fill-rule:evenodd;"
d="M 131.5847,107.0538
131.5847,110.4066
134.9375,110.4066
134.9375,107.0538
Z" /> 
<path style="fill:#000000; fill-opacity:1.0000; stroke:none;fill-rule:evenodd;"
d="M 133.2611,110.4066
135.8290,110.4066
136.1784,110.3371
136.5058,110.1963
136.7968,109.9905
137.0386,109.7286
137.2205,109.4221
137.3347,109.0845
137.3759,108.7317
137.3759,108.7290
137.3427,108.3731
137.2329,108.0312
137.0521,107.7211
136.8085,107.4573
136.5138,107.2522
136.1818,107.1155
135.8287,107.0538
133.2611,107.0538
Z" /> 
<path style="fill:#000000; fill-opacity:1.0000; stroke:none;fill-rule:evenodd;"
d="M 131.5847,112.1338
131.5847,115.4866
134.9375,115.4866
134.9375,112.1338
Z" /> 
<path style="fill:#000000; fill-opacity:1.0000; stroke:none;fill-rule:evenodd;"
d="M 133.2611,115.4866
135.8290,115.4866
136.1784,115.4171
136.5058,115.2763
136.7968,115.0705
137.0386,114.8086
137.2205,114.5021
137.3347,114.1645
137.3759,113.8117
137.3759,113.8090
137.3427,113.4531
137.2329,113.1112
137.0521,112.8011
136.8085,112.5373
136.5138,112.3322
136.1818,112.1955
135.8287,112.1338
133.2611,112.1338
Z" /> 
<path style="fill:#000000; fill-opacity:1.0000; stroke:none;fill-rule:evenodd;"
d="M 131.5847,117.2138
131.5847,120.5666
134.9375,120.5666
134.9375,117.2138
Z" /> 
<path style="fill:#000000; fill-opacity:1.0000; stroke:none;fill-rule:evenodd;"
d="M 133.2611,120.5666
135.8290,120.5666
136.1784,120.4971
136.5058,120.3563
136.7968,120.1505
137.0386,119.8886
137.2205,119.5821
137.3347,119.2445
137.3759,118.8917
137.3759,118.8890
137.3427,118.5331
137.2329,118.1912
137.0521,117.8811
136.8085,117.6173
136.5138,117.4122
136.1818,117.2755
135.8287,117.2138
133.2611,117.2138
Z" /> 
<path style="fill:#000000; fill-opacity:1.0000; stroke:none;fill-rule:evenodd;"
d="M 131.5847,122.2938
131.5847,125.6466
134.9375,125.6466
134.9375,122.2938
Z" /> 
<path style="fill:#000000; fill-opacity:1.0000; stroke:none;fill-rule:evenodd;"
d="M 133.2611,125.6466
135.8290,125.6466
136.1784,125.5771
136.5058,125.4363
136.7968,125.2305
137.0386,124.9686
137.2205,124.6621
137.3347,124.3245
137.3759,123.9717
137.3759,123.9690
137.3427,123.6131
137.2329,123.2712
137.0521,122.9611
136.8085,122.6973
136.5138,122.4922
136.1818,122.3555
135.8287,122.2938
133.2611,122.2938
Z" /> 
<path style="fill:#000000; fill-opacity:1.0000; stroke:none;fill-rule:evenodd;"
d="M 163.7411,66.4138
161.1735,66.4138
160.8204,66.4755
160.4884,66.6122
160.1937,66.8173
159.9501,67.0811
159.7693,67.3912
159.6595,67.7331
159.6263,68.0890
159.6263,68.0917
159.6675,68.4445
159.7817,68.7821
159.9636,69.0886
160.2054,69.3505
160.4964,69.5563
160.8238,69.6971
161.1732,69.7666
163.7411,69.7666
Z" /> 
<path style="fill:#000000; fill-opacity:1.0000; stroke:none;fill-rule:evenodd;"
d="M 165.4175,69.7666
165.4175,66.4138
162.0647,66.4138
162.0647,69.7666
Z" /> 
<path style="fill:#000000; fill-opacity:1.0000; stroke:none;fill-rule:evenodd;"
d="M 163.7411,71.4938
161.1735,71.4938
160.8204,71.5555
160.4884,71.6922
160.1937,71.8973
159.9501,72.1611
159.7693,72.4712
159.6595,72.8131
159.6263,73.1690
159.6263,73.1717
159.6675,73.5245
159.7817,73.8621
159.9636,74.1686
160.2054,74.4305
160.4964,74.6363
160.8238,74.7771
161.1732,74.8466
163.7411,74.8466
Z" /> 
<path style="fill:#000000; fill-opacity:1.0000; stroke:none;fill-rule:evenodd;"
d="M 165.4175,74.8466
165.4175,71.4938
162.0647,71.4938
162.0647,74.8466
Z" /> 
<path style="fill:#000000; fill-opacity:1.0000; stroke:none;fill-rule:evenodd;"
d="M 163.7411,76.5738
161.1735,76.5738
160.8204,76.6355
160.4884,76.7722
160.1937,76.9773
159.9501,77.2411
159.7693,77.5512
159.6595,77.8931
159.6263,78.2490
159.6263,78.2517
159.6675,78.6045
159.7817,78.9421
159.9636,79.2486
160.2054,79.5105
160.4964,79.7163
160.8238,79.8571
161.1732,79.9266
163.7411,79.9266
Z" /> 
<path style="fill:#000000; fill-opacity:1.0000; stroke:none;fill-rule:evenodd;"
d="M 165.4175,79.9266
165.4175,76.5738
162.0647,76.5738
162.0647,79.9266
Z" /> 
<path style="fill:#000000; fill-opacity:1.0000; stroke:none;fill-rule:evenodd;"
d="M 163.7411,81.6538
161.1735,81.6538
160.8204,81.7155
160.4884,81.8522
160.1937,82.0573
159.9501,82.3211
159.7693,82.6312
159.6595,82.9731
159.6263,83.3290
159.6263,83.3317
159.6675,83.6845
159.7817,84.0221
159.9636,84.3286
160.2054,84.5905
160.4964,84.7963
160.8238,84.9371
161.1732,85.0066
163.7411,85.0066
Z" /> 
<path style="fill:#000000; fill-opacity:1.0000; stroke:none;fill-rule:evenodd;"
d="M 165.4175,85.0066
165.4175,81.6538
162.0647,81.6538
162.0647,85.0066
Z" /> 
<path style="fill:#000000; fill-opacity:1.0000; stroke:none;fill-rule:evenodd;"
d="M 163.7411,86.7338
161.1735,86.7338
160.8204,86.7955
160.4884,86.9322
160.1937,87.1373
159.9501,87.4011
159.7693,87.7112
159.6595,88.0531
159.6263,88.4090
159.6263,88.4117
159.6675,88.7645
159.7817,89.1021
159.9636,89.4086
160.2054,89.6705
160.4964,89.8763
160.8238,90.0171
161.1732,90.0866
163.7411,90.0866
Z" /> 
<path style="fill:#000000; fill-opacity:1.0000; stroke:none;fill-rule:evenodd;"
d="M 165.4175,90.0866
165.4175,86.7338
162.0647,86.7338
162.0647,90.0866
Z" /> 
<path style="fill:#000000; fill-opacity:1.0000; stroke:none;fill-rule:evenodd;"
d="M 163.7411,91.8138
161.1735,91.8138
160.8204,91.8755
160.4884,92.0122
160.1937,92.2173
159.9501,92.4811
159.7693,92.7912
159.6595,93.1331
159.6263,93.4890
159.6263,93.4917
159.6675,93.8445
159.7817,94.1821
159.9636,94.4886
160.2054,94.7505
160.4964,94.9563
160.8238,95.0971
161.1732,95.1666
163.7411,95.1666
Z" /> 
<path style="fill:#000000; fill-opacity:1.0000; stroke:none;fill-rule:evenodd;"
d="M 165.4175,95.1666
165.4175,91.8138
162.0647,91.8138
162.0647,95.1666
Z" /> 
<path style="fill:#000000; fill-opacity:1.0000; stroke:none;fill-rule:evenodd;"
d="M 163.7411,96.8938
161.1735,96.8938
160.8204,96.9555
160.4884,97.0922
160.1937,97.2973
159.9501,97.5611
159.7693,97.8712
159.6595,98.2131
159.6263,98.5690
159.6263,98.5717
159.6675,98.9245
159.7817,99.2621
159.9636,99.5686
160.2054,99.8305
160.4964,100.0363
160.8238,100.1771
161.1732,100.2466
163.7411,100.2466
Z" /> 
<path style="fill:#000000; fill-opacity:1.0000; stroke:none;fill-rule:evenodd;"
d="M 165.4175,100.2466
165.4175,96.8938
162.0647,96.8938
162.0647,100.2466
Z" /> 
<path style="fill:#000000; fill-opacity:1.0000; stroke:none;fill-rule:evenodd;"
d="M 163.7411,101.9738
161.1735,101.9738
160.8204,102.0355
160.4884,102.1722
160.1937,102.3773
159.9501,102.6411
159.7693,102.9512
159.6595,103.2931
159.6263,103.6490
159.6263,103.6517
159.6675,104.0045
159.7817,104.3421
159.9636,104.6486
160.2054,104.9105
160.4964,105.1163
160.8238,105.2571
161.1732,105.3266
163.7411,105.3266
Z" /> 
<path style="fill:#000000; fill-opacity:1.0000; stroke:none;fill-rule:evenodd;"
d="M 165.4175,105.3266
165.4175,101.9738
162.0647,101.9738
162.0647,105.3266
Z" /> 
<path style="fill:#000000; fill-opacity:1.0000; stroke:none;fill-rule:evenodd;"
d="M 163.7411,107.0538
161.1735,107.0538
160.8204,107.1155
160.4884,107.2522
160.1937,107.4573
159.9501,107.7211
159.7693,108.0312
159.6595,108.3731
159.6263,108.7290
159.6263,108.7317
159.6675,109.0845
159.7817,109.4221
159.9636,109.7286
160.2054,109.9905
160.4964,110.1963
160.8238,110.3371
161.1732,110.4066
163.7411,110.4066
Z" /> 
<path style="fill:#000000; fill-opacity:1.0000; stroke:none;fill-rule:evenodd;"
d="M 165.4175,110.4066
165.4175,107.0538
162.0647,107.0538
162.0647,110.4066
Z" /> 
<path style="fill:#000000; fill-opacity:1.0000; stroke:none;fill-rule:evenodd;"
d="M 163.7411,112.1338
161.1735,112.1338
160.8204,112.1955
160.4884,112.3322
160.1937,112.5373
159.9501,112.8011
159.7693,113.1112
159.6595,113.4531
159.6263,113.8090
159.6263,113.8117
159.6675,114.1645
159.7817,114.5021
159.9636,114.8086
160.2054,115.0705
160.4964,115.2763
160.8238,115.4171
161.1732,115.4866
163.7411,115.4866
Z" /> 
<path style="fill:#000000; fill-opacity:1.0000; stroke:none;fill-rule:evenodd;"
d="M 165.4175,115.4866
165.4175,112.1338
162.0647,112.1338
162.0647,115.4866
Z" /> 
<path style="fill:#000000; fill-opacity:1.0000; stroke:none;fill-rule:evenodd;"
d="M 163.7411,117.2138
161.1735,117.2138
160.8204,117.2755
160.4884,117.4122
160.1937,117.6173
159.9501,117.8811
159.7693,118.1912
159.6595,118.5331
159.6263,118.8890
159.6263,118.8917
159.6675,119.2445
159.7817,119.5821
159.9636,119.8886
160.2054,120.1505
160.4964,120.3563
160.8238,120.4971
161.1732,120.5666
163.7411,120.5666
Z" /> 
<path style="fill:#000000; fill-opacity:1.0000; stroke:none;fill-rule:evenodd;"
d="M 165.4175,120.5666
165.4175,117.2138
162.0647,117.2138
162.0647,120.5666
Z" /> 
<path style="fill:#000000; fill-opacity:1.0000; stroke:none;fill-rule:evenodd;"
d="M 163.7411,122.2938
161.1735,122.2938
160.8204,122.3555
160.4884,122.4922
160.1937,122.6973
159.9501,122.9611
159.7693,123.2712
159.6595,123.6131
159.6263,123.9690
159.6263,123.9717
159.6675,124.3245
159.7817,124.6621
159.9636,124.9686
160.2054,125.2305
160.4964,125.4363
160.8238,125.5771
161.1732,125.6466
163.7411,125.6466
Z" /> 
<path style="fill:#000000; fill-opacity:1.0000; stroke:none;fill-rule:evenodd;"
d="M 165.4175,125.6466
165.4175,122.2938
162.0647,122.2938
162.0647,125.6466
Z" /> 
</g>
<g style="fill:#000000; fill-opacity:1.0000; stroke:none;">
<circle cx="133.1611" cy="144.5470" r="0.0000" /> 
<circle cx="163.8411" cy="65.4602" r="0.0000" /> 
</g>
<g style="fill:#FFFFFF; fill-opacity:1.0000; stroke:none;">
<circle cx="147.5011" cy="121.5102" r="-0.0000" /> 
</g>
<g style="fill:#FFFFFF; fill-opacity:1.0000; stroke:none;">
<circle cx="155.9211" cy="69.4302" r="-0.0000" /> 
</g>
<g style="fill:#FFFFFF; fill-opacity:1.0000; stroke:none;">
<circle cx="141.0011" cy="84.6902" r="-0.0000" /> 
</g>
<g style="fill:#FFFFFF; fill-opacity:1.0000; stroke:none;">
<circle cx="156.9011" cy="77.0702" r="-0.0000" /> 
</g>
<g style="fill:#FFFFFF; fill-opacity:1.0000; stroke:none;">
<circle cx="154.8611" cy="123.9702" r="-0.0000" /> 
</g>
<g style="fill:#FFFFFF; fill-opacity:1.0000; stroke:none;">
<circle cx="137.6211" cy="121.4102" r="-0.0000" /> 
</g>
<g style="fill:#FFFFFF; fill-opacity:1.0000; stroke:none;">
<circle cx="154.9411" cy="118.8702" r="-0.0000" /> 
</g>
<g style="fill:#FFFFFF; fill-opacity:1.0000; stroke:none;">
<circle cx="155.4211" cy="84.3502" r="-0.0000" /> 
</g>
<g style="fill:#FFFFFF; fill-opacity:1.0000; stroke:none;">
<circle cx="148.9411" cy="107.5502" r="-0.0000" /> 
</g>
<g style="fill:#FFFFFF; fill-opacity:1.0000; stroke:none;">
<circle cx="156.8411" cy="81.8702" r="-0.0000" /> 
</g>
<g style="fill:#FFFFFF; fill-opacity:1.0000; stroke:none;">
<circle cx="144.3611" cy="76.0302" r="-0.0000" /> 
</g>
<g style="fill:#FFFFFF; fill-opacity:1.0000; stroke:none;">
<circle cx="137.7211" cy="100.6502" r="-0.0000" /> 
</g>
<g style="fill:#FFFFFF; fill-opacity:1.0000; stroke:none;">
<circle cx="155.1611" cy="79.4302" r="-0.0000" /> 
</g>
<g style="fill:#FFFFFF; fill-opacity:1.0000; stroke:none;">
<circle cx="152.1411" cy="78.7502" r="-0.0000" /> 
</g>
<g style="fill:#FFFFFF; fill-opacity:1.0000; stroke:none;">
<circle cx="142.2611" cy="67.6902" r="-0.0000" /> 
</g>
<g style="fill:#FFFFFF; fill-opacity:1.0000; stroke:none;">
<circle cx="142.3611" cy="101.5502" r="-0.0000" /> 
</g>
<g style="fill:#FFFFFF; fill-opacity:1.0000; stroke:none;">
<circle cx="156.3011" cy="87.3102" r="-0.0000" /> 
</g>
<g style="fill:#FFFFFF; fill-opacity:1.0000; stroke:none;">
<circle cx="155.1411" cy="113.2902" r="-0.0000" /> 
</g>
<g style="fill:#FFFFFF; fill-opacity:1.0000; stroke:none;">
<circle cx="156.0211" cy="74.2502" r="-0.0000" /> 
</g>
<g style="fill:#FFFFFF; fill-opacity:1.0000; stroke:none;">
<circle cx="155.3611" cy="104.3902" r="-0.0000" /> 
</g>
<g style="fill:#FFFFFF; fill-opacity:1.0000; stroke:none;">
<circle cx="154.1411" cy="71.1502" r="-0.0000" /> 
</g>
<g style="fill:#FFFFFF; fill-opacity:1.0000; stroke:none;">
<circle cx="159.1411" cy="85.6902" r="-0.0000" /> 
</g>
<g style="fill:#FFFFFF; fill-opacity:1.0000; stroke:none;">
<circle cx="159.5011" cy="101.1102" r="-0.0000" /> 
</g>
<g style="fill:#FFFFFF; fill-opacity:1.0000; stroke:none;">
<circle cx="139.8011" cy="66.9302" r="-0.0000" /> 
</g>
<g style="fill:#FFFFFF; fill-opacity:1.0000; stroke:none;">
<circle cx="155.2011" cy="93.9502" r="-0.0000" /> 
</g>
<g style="fill:#FFFFFF; fill-opacity:1.0000; stroke:none;">
<circle cx="143.3411" cy="117.3102" r="-0.0000" /> 
</g>
<g style="fill:#FFFFFF; fill-opacity:1.0000; stroke:none;">
<circle cx="141.9211" cy="111.7902" r="-0.0000" /> 
</g>
<g style="fill:#FFFFFF; fill-opacity:1.0000; stroke:none;">
<circle cx="140.1611" cy="87.1102" r="-0.0000" /> 
</g>
<g style="fill:#FFFFFF; fill-opacity:1.0000; stroke:none;">
<circle cx="141.1611" cy="92.2902" r="-0.0000" /> 
</g>
<g style="fill:#FFFFFF; fill-opacity:1.0000; stroke:none;">
<circle cx="140.9411" cy="89.8302" r="-0.0000" /> 
</g>
<g style="fill:#FFFFFF; fill-opacity:1.0000; stroke:none;">
<circle cx="141.2811" cy="79.2102" r="-0.0000" /> 
</g>
<g style="fill:#FFFFFF; fill-opacity:1.0000; stroke:none;">
<circle cx="155.9811" cy="100.0502" r="-0.0000" /> 
</g>
<g style="fill:#FFFFFF; fill-opacity:1.0000; stroke:none;">
<circle cx="147.8811" cy="90.6502" r="-0.0000" /> 
</g>
<g style="fill:#FFFFFF; fill-opacity:1.0000; stroke:none;">
<circle cx="143.5211" cy="84.1502" r="-0.0000" /> 
</g>
<g style="fill:#FFFFFF; fill-opacity:1.0000; stroke:none;">
<circle cx="137.6811" cy="91.1302" r="-0.0000" /> 
</g>
<g style="fill:#FFFFFF; fill-opacity:1.0000; stroke:none;">
<circle cx="140.9011" cy="71.8702" r="-0.0000" /> 
</g>
<g style="fill:#FFFFFF; fill-opacity:1.0000; stroke:none;">
<circle cx="140.6411" cy="74.5302" r="-0.0000" /> 
</g>
<g style="fill:#FFFFFF; fill-opacity:1.0000; stroke:none;">
<circle cx="139.6811" cy="123.7902" r="-0.0000" /> 
</g>
<g style="fill:#FFFFFF; fill-opacity:1.0000; stroke:none;">
<circle cx="156.8411" cy="92.3702" r="-0.0000" /> 
</g>
<g style="fill:#FFFFFF; fill-opacity:1.0000; stroke:none;">
<circle cx="148.9411" cy="78.7502" r="-0.0000" /> 
</g>
<g style="fill:#FFFFFF; fill-opacity:1.0000; stroke:none;">
<circle cx="140.1611" cy="76.8702" r="-0.0000" /> 
</g>
<g style="fill:#FFFFFF; fill-opacity:1.0000; stroke:none;">
<circle cx="155.6811" cy="97.1502" r="-0.0000" /> 
</g>
<g style="fill:#FFFFFF; fill-opacity:1.0000; stroke:none;">
<circle cx="148.0611" cy="94.3702" r="-0.0000" /> 
</g>
<g style="fill:#FFFFFF; fill-opacity:1.0000; stroke:none;">
<circle cx="154.0411" cy="67.4502" r="-0.0000" /> 
</g>
<g style="fill:#FFFFFF; fill-opacity:1.0000; stroke:none;">
<circle cx="139.0811" cy="110.3102" r="-0.0000" /> 
</g>
<g style="fill:#FFFFFF; fill-opacity:1.0000; stroke:none;">
<circle cx="141.0011" cy="81.9302" r="-0.0000" /> 
</g>
<g style="fill:#FFFFFF; fill-opacity:1.0000; stroke:none;">
<circle cx="155.2211" cy="108.1302" r="-0.0000" /> 
</g>
<g style="fill:#FFFFFF; fill-opacity:1.0000; stroke:none;">
<circle cx="157.8811" cy="69.6502" r="-0.0000" /> 
</g>
<g style="fill:#FFFFFF; fill-opacity:1.0000; stroke:none;">
<circle cx="150.8011" cy="85.1902" r="-0.0000" /> 
</g>
<g style="fill:#FFFFFF; fill-opacity:1.0000; stroke:none;">
<circle cx="150.1411" cy="71.9002" r="-0.0000" /> 
</g>
<g style="fill:#FFFFFF; fill-opacity:1.0000; stroke:none;">
<circle cx="146.4211" cy="89.9302" r="-0.0000" /> 
</g>
<g style="fill:#FFFFFF; fill-opacity:1.0000; stroke:none;">
<circle cx="139.0411" cy="82.1502" r="-0.0000" /> 
</g>
<g style="fill:#FFFFFF; fill-opacity:1.0000; stroke:none;">
<circle cx="149.6011" cy="88.9502" r="-0.0000" /> 
</g>
<g style="fill:#FFFFFF; fill-opacity:1.0000; stroke:none;">
<circle cx="138.9211" cy="71.8702" r="-0.0000" /> 
</g>
<g style="fill:#FFFFFF; fill-opacity:1.0000; stroke:none;">
<circle cx="146.2611" cy="88.4102" r="-0.0000" /> 
</g>
<g style="fill:#FFFFFF; fill-opacity:1.0000; stroke:none;">
<circle cx="139.0211" cy="79.5702" r="-0.0000" /> 
</g>
<g style="fill:#FFFFFF; fill-opacity:1.0000; stroke:none;">
<circle cx="139.0011" cy="107.4302" r="-0.0000" /> 
</g>
<g style="fill:#FFFFFF; fill-opacity:1.0000; stroke:none;">
<circle cx="146.2811" cy="96.7102" r="-0.0000" /> 
</g>
<g style="fill:#FFFFFF; fill-opacity:1.0000; stroke:none;">
<circle cx="139.0211" cy="112.4902" r="-0.0000" /> 
</g>
<g style="fill:#FFFFFF; fill-opacity:1.0000; stroke:none;">
<circle cx="146.4611" cy="98.2302" r="-0.0000" /> 
</g>
<g style="fill:#FFFFFF; fill-opacity:1.0000; stroke:none;">
<circle cx="146.2211" cy="95.1302" r="-0.0000" /> 
</g>
<g style="fill:#FFFFFF; fill-opacity:1.0000; stroke:none;">
<circle cx="139.0211" cy="102.3902" r="-0.0000" /> 
</g>
<g style="fill:#FFFFFF; fill-opacity:1.0000; stroke:none;">
<circle cx="133.2611" cy="68.0902" r="0.9000" /> 
</g>
<g style="fill:#FFFFFF; fill-opacity:1.0000; stroke:none;">
<circle cx="135.8011" cy="68.0902" r="0.8500" /> 
</g>
<g style="fill:#FFFFFF; fill-opacity:1.0000; stroke:none;">
<circle cx="133.2611" cy="73.1702" r="0.9000" /> 
</g>
<g style="fill:#FFFFFF; fill-opacity:1.0000; stroke:none;">
<circle cx="135.8011" cy="73.1702" r="0.8500" /> 
</g>
<g style="fill:#FFFFFF; fill-opacity:1.0000; stroke:none;">
<circle cx="133.2611" cy="78.2502" r="0.9000" /> 
</g>
<g style="fill:#FFFFFF; fill-opacity:1.0000; stroke:none;">
<circle cx="135.8011" cy="78.2502" r="0.8500" /> 
</g>
<g style="fill:#FFFFFF; fill-opacity:1.0000; stroke:none;">
<circle cx="133.2611" cy="83.3302" r="0.9000" /> 
</g>
<g style="fill:#FFFFFF; fill-opacity:1.0000; stroke:none;">
<circle cx="135.8011" cy="83.3302" r="0.8500" /> 
</g>
<g style="fill:#FFFFFF; fill-opacity:1.0000; stroke:none;">
<circle cx="133.2611" cy="88.4102" r="0.9000" /> 
</g>
<g style="fill:#FFFFFF; fill-opacity:1.0000; stroke:none;">
<circle cx="135.8011" cy="88.4102" r="0.8500" /> 
</g>
<g style="fill:#FFFFFF; fill-opacity:1.0000; stroke:none;">
<circle cx="133.2611" cy="93.4902" r="0.9000" /> 
</g>
<g style="fill:#FFFFFF; fill-opacity:1.0000; stroke:none;">
<circle cx="135.8011" cy="93.4902" r="0.8500" /> 
</g>
<g style="fill:#FFFFFF; fill-opacity:1.0000; stroke:none;">
<circle cx="133.2611" cy="98.5702" r="0.9000" /> 
</g>
<g style="fill:#FFFFFF; fill-opacity:1.0000; stroke:none;">
<circle cx="135.8011" cy="98.5702" r="0.8500" /> 
</g>
<g style="fill:#FFFFFF; fill-opacity:1.0000; stroke:none;">
<circle cx="133.2611" cy="103.6502" r="0.9000" /> 
</g>
<g style="fill:#FFFFFF; fill-opacity:1.0000; stroke:none;">
<circle cx="135.8011" cy="103.6502" r="0.8500" /> 
</g>
<g style="fill:#FFFFFF; fill-opacity:1.0000; stroke:none;">
<circle cx="133.2611" cy="108.7302" r="0.9000" /> 
</g>
<g style="fill:#FFFFFF; fill-opacity:1.0000; stroke:none;">
<circle cx="135.8011" cy="108.7302" r="0.8500" /> 
</g>
<g style="fill:#FFFFFF; fill-opacity:1.0000; stroke:none;">
<circle cx="133.2611" cy="113.8102" r="0.9000" /> 
</g>
<g style="fill:#FFFFFF; fill-opacity:1.0000; stroke:none;">
<circle cx="135.8011" cy="113.8102" r="0.8500" /> 
</g>
<g style="fill:#FFFFFF; fill-opacity:1.0000; stroke:none;">
<circle cx="133.2611" cy="118.8902" r="0.9000" /> 
</g>
<g style="fill:#FFFFFF; fill-opacity:1.0000; stroke:none;">
<circle cx="135.8011" cy="118.8902" r="0.8500" /> 
</g>
<g style="fill:#FFFFFF; fill-opacity:1.0000; stroke:none;">
<circle cx="133.2611" cy="123.9702" r="0.9000" /> 
</g>
<g style="fill:#FFFFFF; fill-opacity:1.0000; stroke:none;">
<circle cx="135.8011" cy="123.9702" r="0.8500" /> 
</g>
<g style="fill:#FFFFFF; fill-opacity:1.0000; stroke:none;">
<circle cx="161.2011" cy="68.0902" r="0.8500" /> 
</g>
<g style="fill:#FFFFFF; fill-opacity:1.0000; stroke:none;">
<circle cx="163.7411" cy="68.0902" r="0.9000" /> 
</g>
<g style="fill:#FFFFFF; fill-opacity:1.0000; stroke:none;">
<circle cx="161.2011" cy="73.1702" r="0.8500" /> 
</g>
<g style="fill:#FFFFFF; fill-opacity:1.0000; stroke:none;">
<circle cx="163.7411" cy="73.1702" r="0.9000" /> 
</g>
<g style="fill:#FFFFFF; fill-opacity:1.0000; stroke:none;">
<circle cx="161.2011" cy="78.2502" r="0.8500" /> 
</g>
<g style="fill:#FFFFFF; fill-opacity:1.0000; stroke:none;">
<circle cx="163.7411" cy="78.2502" r="0.9000" /> 
</g>
<g style="fill:#FFFFFF; fill-opacity:1.0000; stroke:none;">
<circle cx="161.2011" cy="83.3302" r="0.8500" /> 
</g>
<g style="fill:#FFFFFF; fill-opacity:1.0000; stroke:none;">
<circle cx="163.7411" cy="83.3302" r="0.9000" /> 
</g>
<g style="fill:#FFFFFF; fill-opacity:1.0000; stroke:none;">
<circle cx="161.2011" cy="88.4102" r="0.8500" /> 
</g>
<g style="fill:#FFFFFF; fill-opacity:1.0000; stroke:none;">
<circle cx="163.7411" cy="88.4102" r="0.9000" /> 
</g>
<g style="fill:#FFFFFF; fill-opacity:1.0000; stroke:none;">
<circle cx="161.2011" cy="93.4902" r="0.8500" /> 
</g>
<g style="fill:#FFFFFF; fill-opacity:1.0000; stroke:none;">
<circle cx="163.7411" cy="93.4902" r="0.9000" /> 
</g>
<g style="fill:#FFFFFF; fill-opacity:1.0000; stroke:none;">
<circle cx="161.2011" cy="98.5702" r="0.8500" /> 
</g>
<g style="fill:#FFFFFF; fill-opacity:1.0000; stroke:none;">
<circle cx="163.7411" cy="98.5702" r="0.9000" /> 
</g>
<g style="fill:#FFFFFF; fill-opacity:1.0000; stroke:none;">
<circle cx="161.2011" cy="103.6502" r="0.8500" /> 
</g>
<g style="fill:#FFFFFF; fill-opacity:1.0000; stroke:none;">
<circle cx="163.7411" cy="103.6502" r="0.9000" /> 
</g>
<g style="fill:#FFFFFF; fill-opacity:1.0000; stroke:none;">
<circle cx="161.2011" cy="108.7302" r="0.8500" /> 
</g>
<g style="fill:#FFFFFF; fill-opacity:1.0000; stroke:none;">
<circle cx="163.7411" cy="108.7302" r="0.9000" /> 
</g>
<g style="fill:#FFFFFF; fill-opacity:1.0000; stroke:none;">
<circle cx="161.2011" cy="113.8102" r="0.8500" /> 
</g>
<g style="fill:#FFFFFF; fill-opacity:1.0000; stroke:none;">
<circle cx="163.7411" cy="113.8102" r="0.9000" /> 
</g>
<g style="fill:#FFFFFF; fill-opacity:1.0000; stroke:none;">
<circle cx="161.2011" cy="118.8902" r="0.8500" /> 
</g>
<g style="fill:#FFFFFF; fill-opacity:1.0000; stroke:none;">
<circle cx="163.7411" cy="118.8902" r="0.9000" /> 
</g>
<g style="fill:#FFFFFF; fill-opacity:1.0000; stroke:none;">
<circle cx="161.2011" cy="123.9702" r="0.8500" /> 
</g>
<g style="fill:#FFFFFF; fill-opacity:1.0000; stroke:none;">
<circle cx="163.7411" cy="123.9702" r="0.9000" /> 
</g> 
</svg>
