<?xml version="1.0" standalone="no"?>
 <!DOCTYPE svg PUBLIC "-//W3C//DTD SVG 1.1//EN" 
 "http://www.w3.org/Graphics/SVG/1.1/DTD/svg11.dtd"> 
<svg
  xmlns:svg="http://www.w3.org/2000/svg"
  xmlns="http://www.w3.org/2000/svg"
  xmlns:xlink="http://www.w3.org/1999/xlink"
  version="1.1"
  width="297.0022mm" height="210.0072mm" viewBox="0.0000 0.0000 297.0022 210.0072">
<title>SVG Image created as txe8116-module-B_Cu0.svg date 2026/03/24 20:18:12 </title>
  <desc>Image generated by PCBNEW </desc>
<g style="fill:#000000; fill-opacity:1.0000;stroke:#000000; stroke-opacity:1.0000;
stroke-linecap:round; stroke-linejoin:round;"
 transform="translate(0 0) scale(1 1)">
<path style="fill:#000000; fill-opacity:1.0000; stroke:none;fill-rule:evenodd;"
d="M 131.5847,66.4138
131.5847,69.7666
134.9375,69.7666
134.9375,66.4138
Z" /> 
<path style="fill:#000000; fill-opacity:1.0000; stroke:none;fill-rule:evenodd;"
d="M 133.2611,69.7666
135.8290,69.7666
136.1784,69.6971
136.5058,69.5563
136.7968,69.3505
137.0386,69.0886
137.2205,68.7821
137.3347,68.4445
137.3759,68.0917
137.3759,68.0890
137.3427,67.7331
137.2329,67.3912
137.0521,67.0811
136.8085,66.8173
136.5138,66.6122
136.1818,66.4755
135.8287,66.4138
133.2611,66.4138
Z" /> 
<path style="fill:#000000; fill-opacity:1.0000; stroke:none;fill-rule:evenodd;"
d="M 131.5847,71.4938
131.5847,74.8466
134.9375,74.8466
134.9375,71.4938
Z" /> 
<path style="fill:#000000; fill-opacity:1.0000; stroke:none;fill-rule:evenodd;"
d="M 133.2611,74.8466
135.8290,74.8466
136.1784,74.7771
136.5058,74.6363
136.7968,74.4305
137.0386,74.1686
137.2205,73.8621
137.3347,73.5245
137.3759,73.1717
137.3759,73.1690
137.3427,72.8131
137.2329,72.4712
137.0521,72.1611
136.8085,71.8973
136.5138,71.6922
136.1818,71.5555
135.8287,71.4938
133.2611,71.4938
Z" /> 
<path style="fill:#000000; fill-opacity:1.0000; stroke:none;fill-rule:evenodd;"
d="M 131.5847,76.5738
131.5847,79.9266
134.9375,79.9266
134.9375,76.5738
Z" /> 
<path style="fill:#000000; fill-opacity:1.0000; stroke:none;fill-rule:evenodd;"
d="M 133.2611,79.9266
135.8290,79.9266
136.1784,79.8571
136.5058,79.7163
136.7968,79.5105
137.0386,79.2486
137.2205,78.9421
137.3347,78.6045
137.3759,78.2517
137.3759,78.2490
137.3427,77.8931
137.2329,77.5512
137.0521,77.2411
136.8085,76.9773
136.5138,76.7722
136.1818,76.6355
135.8287,76.5738
133.2611,76.5738
Z" /> 
<path style="fill:#000000; fill-opacity:1.0000; stroke:none;fill-rule:evenodd;"
d="M 131.5847,81.6538
131.5847,85.0066
134.9375,85.0066
134.9375,81.6538
Z" /> 
<path style="fill:#000000; fill-opacity:1.0000; stroke:none;fill-rule:evenodd;"
d="M 133.2611,85.0066
135.8290,85.0066
136.1784,84.9371
136.5058,84.7963
136.7968,84.5905
137.0386,84.3286
137.2205,84.0221
137.3347,83.6845
137.3759,83.3317
137.3759,83.3290
137.3427,82.9731
137.2329,82.6312
137.0521,82.3211
136.8085,82.0573
136.5138,81.8522
136.1818,81.7155
135.8287,81.6538
133.2611,81.6538
Z" /> 
<path style="fill:#000000; fill-opacity:1.0000; stroke:none;fill-rule:evenodd;"
d="M 131.5847,86.7338
131.5847,90.0866
134.9375,90.0866
134.9375,86.7338
Z" /> 
<path style="fill:#000000; fill-opacity:1.0000; stroke:none;fill-rule:evenodd;"
d="M 133.2611,90.0866
135.8290,90.0866
136.1784,90.0171
136.5058,89.8763
136.7968,89.6705
137.0386,89.4086
137.2205,89.1021
137.3347,88.7645
137.3759,88.4117
137.3759,88.4090
137.3427,88.0531
137.2329,87.7112
137.0521,87.4011
136.8085,87.1373
136.5138,86.9322
136.1818,86.7955
135.8287,86.7338
133.2611,86.7338
Z" /> 
<path style="fill:#000000; fill-opacity:1.0000; stroke:none;fill-rule:evenodd;"
d="M 131.5847,91.8138
131.5847,95.1666
134.9375,95.1666
134.9375,91.8138
Z" /> 
<path style="fill:#000000; fill-opacity:1.0000; stroke:none;fill-rule:evenodd;"
d="M 133.2611,95.1666
135.8290,95.1666
136.1784,95.0971
136.5058,94.9563
136.7968,94.7505
137.0386,94.4886
137.2205,94.1821
137.3347,93.8445
137.3759,93.4917
137.3759,93.4890
137.3427,93.1331
137.2329,92.7912
137.0521,92.4811
136.8085,92.2173
136.5138,92.0122
136.1818,91.8755
135.8287,91.8138
133.2611,91.8138
Z" /> 
<path style="fill:#000000; fill-opacity:1.0000; stroke:none;fill-rule:evenodd;"
d="M 131.5847,96.8938
131.5847,100.2466
134.9375,100.2466
134.9375,96.8938
Z" /> 
<path style="fill:#000000; fill-opacity:1.0000; stroke:none;fill-rule:evenodd;"
d="M 133.2611,100.2466
135.8290,100.2466
136.1784,100.1771
136.5058,100.0363
136.7968,99.8305
137.0386,99.5686
137.2205,99.2621
137.3347,98.9245
137.3759,98.5717
137.3759,98.5690
137.3427,98.2131
137.2329,97.8712
137.0521,97.5611
136.8085,97.2973
136.5138,97.0922
136.1818,96.9555
135.8287,96.8938
133.2611,96.8938
Z" /> 
<path style="fill:#000000; fill-opacity:1.0000; stroke:none;fill-rule:evenodd;"
d="M 131.5847,101.9738
131.5847,105.3266
134.9375,105.3266
134.9375,101.9738
Z" /> 
<path style="fill:#000000; fill-opacity:1.0000; stroke:none;fill-rule:evenodd;"
d="M 133.2611,105.3266
135.8290,105.3266
136.1784,105.2571
136.5058,105.1163
136.7968,104.9105
137.0386,104.6486
137.2205,104.3421
137.3347,104.0045
137.3759,103.6517
137.3759,103.6490
137.3427,103.2931
137.2329,102.9512
137.0521,102.6411
136.8085,102.3773
136.5138,102.1722
136.1818,102.0355
135.8287,101.9738
133.2611,101.9738
Z" /> 
<path style="fill:#000000; fill-opacity:1.0000; stroke:none;fill-rule:evenodd;"
d="M 131.5847,107.0538
131.5847,110.4066
134.9375,110.4066
134.9375,107.0538
Z" /> 
<path style="fill:#000000; fill-opacity:1.0000; stroke:none;fill-rule:evenodd;"
d="M 133.2611,110.4066
135.8290,110.4066
136.1784,110.3371
136.5058,110.1963
136.7968,109.9905
137.0386,109.7286
137.2205,109.4221
137.3347,109.0845
137.3759,108.7317
137.3759,108.7290
137.3427,108.3731
137.2329,108.0312
137.0521,107.7211
136.8085,107.4573
136.5138,107.2522
136.1818,107.1155
135.8287,107.0538
133.2611,107.0538
Z" /> 
<path style="fill:#000000; fill-opacity:1.0000; stroke:none;fill-rule:evenodd;"
d="M 131.5847,112.1338
131.5847,115.4866
134.9375,115.4866
134.9375,112.1338
Z" /> 
<path style="fill:#000000; fill-opacity:1.0000; stroke:none;fill-rule:evenodd;"
d="M 133.2611,115.4866
135.8290,115.4866
136.1784,115.4171
136.5058,115.2763
136.7968,115.0705
137.0386,114.8086
137.2205,114.5021
137.3347,114.1645
137.3759,113.8117
137.3759,113.8090
137.3427,113.4531
137.2329,113.1112
137.0521,112.8011
136.8085,112.5373
136.5138,112.3322
136.1818,112.1955
135.8287,112.1338
133.2611,112.1338
Z" /> 
<path style="fill:#000000; fill-opacity:1.0000; stroke:none;fill-rule:evenodd;"
d="M 131.5847,117.2138
131.5847,120.5666
134.9375,120.5666
134.9375,117.2138
Z" /> 
<path style="fill:#000000; fill-opacity:1.0000; stroke:none;fill-rule:evenodd;"
d="M 133.2611,120.5666
135.8290,120.5666
136.1784,120.4971
136.5058,120.3563
136.7968,120.1505
137.0386,119.8886
137.2205,119.5821
137.3347,119.2445
137.3759,118.8917
137.3759,118.8890
137.3427,118.5331
137.2329,118.1912
137.0521,117.8811
136.8085,117.6173
136.5138,117.4122
136.1818,117.2755
135.8287,117.2138
133.2611,117.2138
Z" /> 
<path style="fill:#000000; fill-opacity:1.0000; stroke:none;fill-rule:evenodd;"
d="M 131.5847,122.2938
131.5847,125.6466
134.9375,125.6466
134.9375,122.2938
Z" /> 
<path style="fill:#000000; fill-opacity:1.0000; stroke:none;fill-rule:evenodd;"
d="M 133.2611,125.6466
135.8290,125.6466
136.1784,125.5771
136.5058,125.4363
136.7968,125.2305
137.0386,124.9686
137.2205,124.6621
137.3347,124.3245
137.3759,123.9717
137.3759,123.9690
137.3427,123.6131
137.2329,123.2712
137.0521,122.9611
136.8085,122.6973
136.5138,122.4922
136.1818,122.3555
135.8287,122.2938
133.2611,122.2938
Z" /> 
<path style="fill:#000000; fill-opacity:1.0000; stroke:none;fill-rule:evenodd;"
d="M 163.7411,66.4138
161.1735,66.4138
160.8204,66.4755
160.4884,66.6122
160.1937,66.8173
159.9501,67.0811
159.7693,67.3912
159.6595,67.7331
159.6263,68.0890
159.6263,68.0917
159.6675,68.4445
159.7817,68.7821
159.9636,69.0886
160.2054,69.3505
160.4964,69.5563
160.8238,69.6971
161.1732,69.7666
163.7411,69.7666
Z" /> 
<path style="fill:#000000; fill-opacity:1.0000; stroke:none;fill-rule:evenodd;"
d="M 165.4175,69.7666
165.4175,66.4138
162.0647,66.4138
162.0647,69.7666
Z" /> 
<path style="fill:#000000; fill-opacity:1.0000; stroke:none;fill-rule:evenodd;"
d="M 163.7411,71.4938
161.1735,71.4938
160.8204,71.5555
160.4884,71.6922
160.1937,71.8973
159.9501,72.1611
159.7693,72.4712
159.6595,72.8131
159.6263,73.1690
159.6263,73.1717
159.6675,73.5245
159.7817,73.8621
159.9636,74.1686
160.2054,74.4305
160.4964,74.6363
160.8238,74.7771
161.1732,74.8466
163.7411,74.8466
Z" /> 
<path style="fill:#000000; fill-opacity:1.0000; stroke:none;fill-rule:evenodd;"
d="M 165.4175,74.8466
165.4175,71.4938
162.0647,71.4938
162.0647,74.8466
Z" /> 
<path style="fill:#000000; fill-opacity:1.0000; stroke:none;fill-rule:evenodd;"
d="M 163.7411,76.5738
161.1735,76.5738
160.8204,76.6355
160.4884,76.7722
160.1937,76.9773
159.9501,77.2411
159.7693,77.5512
159.6595,77.8931
159.6263,78.2490
159.6263,78.2517
159.6675,78.6045
159.7817,78.9421
159.9636,79.2486
160.2054,79.5105
160.4964,79.7163
160.8238,79.8571
161.1732,79.9266
163.7411,79.9266
Z" /> 
<path style="fill:#000000; fill-opacity:1.0000; stroke:none;fill-rule:evenodd;"
d="M 165.4175,79.9266
165.4175,76.5738
162.0647,76.5738
162.0647,79.9266
Z" /> 
<path style="fill:#000000; fill-opacity:1.0000; stroke:none;fill-rule:evenodd;"
d="M 163.7411,81.6538
161.1735,81.6538
160.8204,81.7155
160.4884,81.8522
160.1937,82.0573
159.9501,82.3211
159.7693,82.6312
159.6595,82.9731
159.6263,83.3290
159.6263,83.3317
159.6675,83.6845
159.7817,84.0221
159.9636,84.3286
160.2054,84.5905
160.4964,84.7963
160.8238,84.9371
161.1732,85.0066
163.7411,85.0066
Z" /> 
<path style="fill:#000000; fill-opacity:1.0000; stroke:none;fill-rule:evenodd;"
d="M 165.4175,85.0066
165.4175,81.6538
162.0647,81.6538
162.0647,85.0066
Z" /> 
<path style="fill:#000000; fill-opacity:1.0000; stroke:none;fill-rule:evenodd;"
d="M 163.7411,86.7338
161.1735,86.7338
160.8204,86.7955
160.4884,86.9322
160.1937,87.1373
159.9501,87.4011
159.7693,87.7112
159.6595,88.0531
159.6263,88.4090
159.6263,88.4117
159.6675,88.7645
159.7817,89.1021
159.9636,89.4086
160.2054,89.6705
160.4964,89.8763
160.8238,90.0171
161.1732,90.0866
163.7411,90.0866
Z" /> 
<path style="fill:#000000; fill-opacity:1.0000; stroke:none;fill-rule:evenodd;"
d="M 165.4175,90.0866
165.4175,86.7338
162.0647,86.7338
162.0647,90.0866
Z" /> 
<path style="fill:#000000; fill-opacity:1.0000; stroke:none;fill-rule:evenodd;"
d="M 163.7411,91.8138
161.1735,91.8138
160.8204,91.8755
160.4884,92.0122
160.1937,92.2173
159.9501,92.4811
159.7693,92.7912
159.6595,93.1331
159.6263,93.4890
159.6263,93.4917
159.6675,93.8445
159.7817,94.1821
159.9636,94.4886
160.2054,94.7505
160.4964,94.9563
160.8238,95.0971
161.1732,95.1666
163.7411,95.1666
Z" /> 
<path style="fill:#000000; fill-opacity:1.0000; stroke:none;fill-rule:evenodd;"
d="M 165.4175,95.1666
165.4175,91.8138
162.0647,91.8138
162.0647,95.1666
Z" /> 
<path style="fill:#000000; fill-opacity:1.0000; stroke:none;fill-rule:evenodd;"
d="M 163.7411,96.8938
161.1735,96.8938
160.8204,96.9555
160.4884,97.0922
160.1937,97.2973
159.9501,97.5611
159.7693,97.8712
159.6595,98.2131
159.6263,98.5690
159.6263,98.5717
159.6675,98.9245
159.7817,99.2621
159.9636,99.5686
160.2054,99.8305
160.4964,100.0363
160.8238,100.1771
161.1732,100.2466
163.7411,100.2466
Z" /> 
<path style="fill:#000000; fill-opacity:1.0000; stroke:none;fill-rule:evenodd;"
d="M 165.4175,100.2466
165.4175,96.8938
162.0647,96.8938
162.0647,100.2466
Z" /> 
<path style="fill:#000000; fill-opacity:1.0000; stroke:none;fill-rule:evenodd;"
d="M 163.7411,101.9738
161.1735,101.9738
160.8204,102.0355
160.4884,102.1722
160.1937,102.3773
159.9501,102.6411
159.7693,102.9512
159.6595,103.2931
159.6263,103.6490
159.6263,103.6517
159.6675,104.0045
159.7817,104.3421
159.9636,104.6486
160.2054,104.9105
160.4964,105.1163
160.8238,105.2571
161.1732,105.3266
163.7411,105.3266
Z" /> 
<path style="fill:#000000; fill-opacity:1.0000; stroke:none;fill-rule:evenodd;"
d="M 165.4175,105.3266
165.4175,101.9738
162.0647,101.9738
162.0647,105.3266
Z" /> 
<path style="fill:#000000; fill-opacity:1.0000; stroke:none;fill-rule:evenodd;"
d="M 163.7411,107.0538
161.1735,107.0538
160.8204,107.1155
160.4884,107.2522
160.1937,107.4573
159.9501,107.7211
159.7693,108.0312
159.6595,108.3731
159.6263,108.7290
159.6263,108.7317
159.6675,109.0845
159.7817,109.4221
159.9636,109.7286
160.2054,109.9905
160.4964,110.1963
160.8238,110.3371
161.1732,110.4066
163.7411,110.4066
Z" /> 
<path style="fill:#000000; fill-opacity:1.0000; stroke:none;fill-rule:evenodd;"
d="M 165.4175,110.4066
165.4175,107.0538
162.0647,107.0538
162.0647,110.4066
Z" /> 
<path style="fill:#000000; fill-opacity:1.0000; stroke:none;fill-rule:evenodd;"
d="M 163.7411,112.1338
161.1735,112.1338
160.8204,112.1955
160.4884,112.3322
160.1937,112.5373
159.9501,112.8011
159.7693,113.1112
159.6595,113.4531
159.6263,113.8090
159.6263,113.8117
159.6675,114.1645
159.7817,114.5021
159.9636,114.8086
160.2054,115.0705
160.4964,115.2763
160.8238,115.4171
161.1732,115.4866
163.7411,115.4866
Z" /> 
<path style="fill:#000000; fill-opacity:1.0000; stroke:none;fill-rule:evenodd;"
d="M 165.4175,115.4866
165.4175,112.1338
162.0647,112.1338
162.0647,115.4866
Z" /> 
<path style="fill:#000000; fill-opacity:1.0000; stroke:none;fill-rule:evenodd;"
d="M 163.7411,117.2138
161.1735,117.2138
160.8204,117.2755
160.4884,117.4122
160.1937,117.6173
159.9501,117.8811
159.7693,118.1912
159.6595,118.5331
159.6263,118.8890
159.6263,118.8917
159.6675,119.2445
159.7817,119.5821
159.9636,119.8886
160.2054,120.1505
160.4964,120.3563
160.8238,120.4971
161.1732,120.5666
163.7411,120.5666
Z" /> 
<path style="fill:#000000; fill-opacity:1.0000; stroke:none;fill-rule:evenodd;"
d="M 165.4175,120.5666
165.4175,117.2138
162.0647,117.2138
162.0647,120.5666
Z" /> 
<path style="fill:#000000; fill-opacity:1.0000; stroke:none;fill-rule:evenodd;"
d="M 163.7411,122.2938
161.1735,122.2938
160.8204,122.3555
160.4884,122.4922
160.1937,122.6973
159.9501,122.9611
159.7693,123.2712
159.6595,123.6131
159.6263,123.9690
159.6263,123.9717
159.6675,124.3245
159.7817,124.6621
159.9636,124.9686
160.2054,125.2305
160.4964,125.4363
160.8238,125.5771
161.1732,125.6466
163.7411,125.6466
Z" /> 
<path style="fill:#000000; fill-opacity:1.0000; stroke:none;fill-rule:evenodd;"
d="M 165.4175,125.6466
165.4175,122.2938
162.0647,122.2938
162.0647,125.6466
Z" /> 
</g>
<g style="fill:#000000; fill-opacity:1.0000; stroke:none;">
<circle cx="147.5011" cy="121.5102" r="0.4000" /> 
</g>
<g style="fill:#000000; fill-opacity:1.0000; stroke:none;">
<circle cx="155.9211" cy="69.4302" r="0.4000" /> 
</g>
<g style="fill:#000000; fill-opacity:1.0000; stroke:none;">
<circle cx="141.0011" cy="84.6902" r="0.4000" /> 
</g>
<g style="fill:#000000; fill-opacity:1.0000; stroke:none;">
<circle cx="156.9011" cy="77.0702" r="0.4000" /> 
</g>
<g style="fill:#000000; fill-opacity:1.0000; stroke:none;">
<circle cx="154.8611" cy="123.9702" r="0.4000" /> 
</g>
<g style="fill:#000000; fill-opacity:1.0000; stroke:none;">
<circle cx="137.6211" cy="121.4102" r="0.4000" /> 
</g>
<g style="fill:#000000; fill-opacity:1.0000; stroke:none;">
<circle cx="154.9411" cy="118.8702" r="0.4000" /> 
</g>
<g style="fill:#000000; fill-opacity:1.0000; stroke:none;">
<circle cx="155.4211" cy="84.3502" r="0.4000" /> 
</g>
<g style="fill:#000000; fill-opacity:1.0000; stroke:none;">
<circle cx="148.9411" cy="107.5502" r="0.4000" /> 
</g>
<g style="fill:#000000; fill-opacity:1.0000; stroke:none;">
<circle cx="156.8411" cy="81.8702" r="0.4000" /> 
</g>
<g style="fill:#000000; fill-opacity:1.0000; stroke:none;">
<circle cx="144.3611" cy="76.0302" r="0.4000" /> 
</g>
<g style="fill:#000000; fill-opacity:1.0000; stroke:none;">
<circle cx="137.7211" cy="100.6502" r="0.4000" /> 
</g>
<g style="fill:#000000; fill-opacity:1.0000; stroke:none;">
<circle cx="155.1611" cy="79.4302" r="0.4000" /> 
</g>
<g style="fill:#000000; fill-opacity:1.0000; stroke:none;">
<circle cx="152.1411" cy="78.7502" r="0.6000" /> 
</g>
<g style="fill:#000000; fill-opacity:1.0000; stroke:none;">
<circle cx="142.2611" cy="67.6902" r="0.4000" /> 
</g>
<g style="fill:#000000; fill-opacity:1.0000; stroke:none;">
<circle cx="142.3611" cy="101.5502" r="0.4000" /> 
</g>
<g style="fill:#000000; fill-opacity:1.0000; stroke:none;">
<circle cx="156.3011" cy="87.3102" r="0.4000" /> 
</g>
<g style="fill:#000000; fill-opacity:1.0000; stroke:none;">
<circle cx="155.1411" cy="113.2902" r="0.4000" /> 
</g>
<g style="fill:#000000; fill-opacity:1.0000; stroke:none;">
<circle cx="156.0211" cy="74.2502" r="0.4000" /> 
</g>
<g style="fill:#000000; fill-opacity:1.0000; stroke:none;">
<circle cx="155.3611" cy="104.3902" r="0.4000" /> 
</g>
<g style="fill:#000000; fill-opacity:1.0000; stroke:none;">
<circle cx="154.1411" cy="71.1502" r="0.4000" /> 
</g>
<g style="fill:#000000; fill-opacity:1.0000; stroke:none;">
<circle cx="159.1411" cy="85.6902" r="0.4000" /> 
</g>
<g style="fill:#000000; fill-opacity:1.0000; stroke:none;">
<circle cx="159.5011" cy="101.1102" r="0.4000" /> 
</g>
<g style="fill:#000000; fill-opacity:1.0000; stroke:none;">
<circle cx="139.8011" cy="66.9302" r="0.4000" /> 
</g>
<g style="fill:#000000; fill-opacity:1.0000; stroke:none;">
<circle cx="155.2011" cy="93.9502" r="0.4000" /> 
</g>
<g style="fill:#000000; fill-opacity:1.0000; stroke:none;">
<circle cx="143.3411" cy="117.3102" r="0.4000" /> 
</g>
<g style="fill:#000000; fill-opacity:1.0000; stroke:none;">
<circle cx="141.9211" cy="111.7902" r="0.4000" /> 
</g>
<g style="fill:#000000; fill-opacity:1.0000; stroke:none;">
<circle cx="140.1611" cy="87.1102" r="0.4000" /> 
</g>
<g style="fill:#000000; fill-opacity:1.0000; stroke:none;">
<circle cx="141.1611" cy="92.2902" r="0.4000" /> 
</g>
<g style="fill:#000000; fill-opacity:1.0000; stroke:none;">
<circle cx="140.9411" cy="89.8302" r="0.4000" /> 
</g>
<g style="fill:#000000; fill-opacity:1.0000; stroke:none;">
<circle cx="141.2811" cy="79.2102" r="0.4000" /> 
</g>
<g style="fill:#000000; fill-opacity:1.0000; stroke:none;">
<circle cx="155.9811" cy="100.0502" r="0.4000" /> 
</g>
<g style="fill:#000000; fill-opacity:1.0000; stroke:none;">
<circle cx="147.8811" cy="90.6502" r="0.4000" /> 
</g>
<g style="fill:#000000; fill-opacity:1.0000; stroke:none;">
<circle cx="143.5211" cy="84.1502" r="0.4000" /> 
</g>
<g style="fill:#000000; fill-opacity:1.0000; stroke:none;">
<circle cx="137.6811" cy="91.1302" r="0.4000" /> 
</g>
<g style="fill:#000000; fill-opacity:1.0000; stroke:none;">
<circle cx="140.9011" cy="71.8702" r="0.4000" /> 
</g>
<g style="fill:#000000; fill-opacity:1.0000; stroke:none;">
<circle cx="140.6411" cy="74.5302" r="0.4000" /> 
</g>
<g style="fill:#000000; fill-opacity:1.0000; stroke:none;">
<circle cx="139.6811" cy="123.7902" r="0.4000" /> 
</g>
<g style="fill:#000000; fill-opacity:1.0000; stroke:none;">
<circle cx="156.8411" cy="92.3702" r="0.4000" /> 
</g>
<g style="fill:#000000; fill-opacity:1.0000; stroke:none;">
<circle cx="148.9411" cy="78.7502" r="0.6000" /> 
</g>
<g style="fill:#000000; fill-opacity:1.0000; stroke:none;">
<circle cx="140.1611" cy="76.8702" r="0.4000" /> 
</g>
<g style="fill:#000000; fill-opacity:1.0000; stroke:none;">
<circle cx="155.6811" cy="97.1502" r="0.4000" /> 
</g>
<g style="fill:#000000; fill-opacity:1.0000; stroke:none;">
<circle cx="148.0611" cy="94.3702" r="0.4000" /> 
</g>
<g style="fill:#000000; fill-opacity:1.0000; stroke:none;">
<circle cx="154.0411" cy="67.4502" r="0.4000" /> 
</g>
<g style="fill:#000000; fill-opacity:1.0000; stroke:none;">
<circle cx="139.0811" cy="110.3102" r="0.4000" /> 
</g>
<g style="fill:#000000; fill-opacity:1.0000; stroke:none;">
<circle cx="141.0011" cy="81.9302" r="0.4000" /> 
</g>
<g style="fill:#000000; fill-opacity:1.0000; stroke:none;">
<circle cx="155.2211" cy="108.1302" r="0.4000" /> 
</g>
<g style="fill:#000000; fill-opacity:1.0000; stroke:none;">
<circle cx="157.8811" cy="69.6502" r="0.6000" /> 
</g>
<g style="fill:#000000; fill-opacity:1.0000; stroke:none;">
<circle cx="150.8011" cy="85.1902" r="0.6000" /> 
</g>
<g style="fill:#000000; fill-opacity:1.0000; stroke:none;">
<circle cx="150.1411" cy="71.9002" r="0.6000" /> 
</g>
<g style="fill:#000000; fill-opacity:1.0000; stroke:none;">
<circle cx="146.4211" cy="89.9302" r="0.6000" /> 
</g>
<g style="fill:#000000; fill-opacity:1.0000; stroke:none;">
<circle cx="139.0411" cy="82.1502" r="0.6000" /> 
</g>
<g style="fill:#000000; fill-opacity:1.0000; stroke:none;">
<circle cx="149.6011" cy="88.9502" r="0.6000" /> 
</g>
<g style="fill:#000000; fill-opacity:1.0000; stroke:none;">
<circle cx="138.9211" cy="71.8702" r="0.6000" /> 
</g>
<g style="fill:#000000; fill-opacity:1.0000; stroke:none;">
<circle cx="146.2611" cy="88.4102" r="0.6000" /> 
</g>
<g style="fill:#000000; fill-opacity:1.0000; stroke:none;">
<circle cx="139.0211" cy="79.5702" r="0.6000" /> 
</g>
<g style="fill:#000000; fill-opacity:1.0000; stroke:none;">
<circle cx="139.0011" cy="107.4302" r="0.6000" /> 
</g>
<g style="fill:#000000; fill-opacity:1.0000; stroke:none;">
<circle cx="146.2811" cy="96.7102" r="0.6000" /> 
</g>
<g style="fill:#000000; fill-opacity:1.0000; stroke:none;">
<circle cx="139.0211" cy="112.4902" r="0.6000" /> 
</g>
<g style="fill:#000000; fill-opacity:1.0000; stroke:none;">
<circle cx="146.4611" cy="98.2302" r="0.6000" /> 
</g>
<g style="fill:#000000; fill-opacity:1.0000; stroke:none;">
<circle cx="146.2211" cy="95.1302" r="0.6000" /> 
</g>
<g style="fill:#000000; fill-opacity:1.0000; stroke:none;">
<circle cx="139.0211" cy="102.3902" r="0.6000" /> 
<path style="fill:#000000; fill-opacity:1.0000; stroke:none;fill-rule:evenodd;"
d="M 137.4274,66.5496
137.3544,66.6502
137.3544,66.7746
137.3839,66.8320
137.4126,66.8708
137.5935,67.1810
137.6304,67.2637
137.6304,67.2637
137.7401,67.6056
137.7583,67.6943
137.7583,67.6943
137.7915,68.0502
137.7933,68.0890
137.7933,68.0917
137.7905,68.1401
137.7684,68.3290
137.7492,68.4929
137.7301,68.5782
137.7301,68.5782
137.6159,68.9158
137.6159,68.9158
137.5794,68.9952
137.4214,69.2613
137.3975,69.3017
137.3453,69.3717
137.3453,69.3717
137.1035,69.6336
137.1035,69.6336
137.0379,69.6912
137.0379,69.6912
136.7469,69.8971
136.7469,69.8971
136.7469,69.8971
136.6707,69.9398
136.6707,69.9398
136.6707,69.9398
136.3432,70.0806
136.3432,70.0806
136.3432,70.0806
136.2640,70.1052
136.2598,70.1065
135.9104,70.1760
135.8290,70.1840
134.4633,70.1840
134.3450,70.2224
134.2719,70.3230
134.2621,70.3852
134.2621,70.8752
134.3005,70.9934
134.4011,71.0665
134.4633,71.0764
135.8287,71.0764
135.9006,71.0826
135.9006,71.0826
135.9006,71.0826
135.9006,71.0826
135.9006,71.0826
136.2537,71.1443
136.2537,71.1443
136.3407,71.1695
136.3407,71.1695
136.6727,71.3062
136.6727,71.3062
136.7522,71.3496
136.7522,71.3496
137.0469,71.5546
137.0469,71.5546
137.1152,71.6142
137.1153,71.6142
137.3588,71.8780
137.4126,71.9508
137.4126,71.9508
137.5567,72.1978
137.6495,72.2806
137.7732,72.2931
137.8806,72.2305
137.9307,72.1166
137.9248,72.0444
137.9217,72.0328
137.9137,72.0028
137.9137,71.7376
137.9824,71.4813
138.1150,71.2516
138.3025,71.0641
138.3025,71.0641
138.5323,70.9314
138.5323,70.9314
138.6009,70.9130
138.7885,70.8628
138.7885,70.8628
139.0537,70.8628
139.0537,70.8628
139.3099,70.9314
139.5397,71.0641
139.5397,71.0641
139.5397,71.0641
139.7272,71.2516
139.7272,71.2516
139.7272,71.2516
139.8598,71.4813
139.9285,71.7375
139.9285,72.0028
139.8598,72.2590
139.7272,72.4887
139.7272,72.4887
139.5397,72.6763
139.5397,72.6763
139.3099,72.8089
139.3099,72.8089
139.3099,72.8089
139.0537,72.8776
138.7885,72.8776
138.5323,72.8089
138.3025,72.6763
138.1150,72.4887
138.0695,72.4099
137.9771,72.3267
137.8534,72.3137
137.7457,72.3759
137.6951,72.4895
137.7037,72.5720
137.7401,72.6856
137.7583,72.7743
137.7583,72.7743
137.7915,73.1302
137.7933,73.1690
137.7933,73.1717
137.7905,73.2201
137.7684,73.4090
137.7492,73.5729
137.7301,73.6582
137.7301,73.6582
137.6159,73.9958
137.6159,73.9958
137.5794,74.0752
137.3975,74.3817
137.3975,74.3817
137.3453,74.4517
137.3453,74.4517
137.1035,74.7136
137.1035,74.7136
137.0379,74.7712
137.0379,74.7712
136.7469,74.9771
136.7469,74.9771
136.7469,74.9771
136.6707,75.0198
136.6707,75.0198
136.6707,75.0198
136.3432,75.1606
136.3432,75.1606
136.3432,75.1606
136.2640,75.1852
136.2598,75.1865
135.9104,75.2560
135.8290,75.2640
134.4633,75.2640
134.3450,75.3024
134.2719,75.4030
134.2621,75.4652
134.2621,75.9552
134.3005,76.0734
134.4011,76.1465
134.4633,76.1564
135.8287,76.1564
135.9006,76.1626
135.9006,76.1626
135.9006,76.1626
135.9006,76.1626
135.9006,76.1626
136.2537,76.2243
136.2537,76.2243
136.3407,76.2495
136.3407,76.2495
136.6727,76.3862
136.6727,76.3862
136.7522,76.4296
136.7522,76.4296
137.0469,76.6346
137.0469,76.6346
137.1152,76.6942
137.1153,76.6942
137.3588,76.9580
137.4126,77.0308
137.5935,77.3410
137.6304,77.4237
137.6304,77.4237
137.7401,77.7656
137.7583,77.8543
137.7583,77.8543
137.7915,78.2102
137.7933,78.2490
137.7933,78.2517
137.7905,78.3001
137.7684,78.4890
137.7492,78.6529
137.7301,78.7382
137.7301,78.7382
137.6159,79.0758
137.6159,79.0758
137.5794,79.1552
137.4118,79.4375
137.3975,79.4617
137.3453,79.5317
137.1873,79.7028
137.1035,79.7936
137.1035,79.7936
137.0379,79.8512
137.0379,79.8512
136.7469,80.0571
136.7469,80.0571
136.7469,80.0571
136.6707,80.0998
136.6707,80.0998
136.6707,80.0998
136.3432,80.2406
136.3432,80.2406
136.3432,80.2406
136.2640,80.2652
136.2598,80.2665
135.9104,80.3360
135.8290,80.3440
134.4633,80.3440
134.3450,80.3824
134.2719,80.4830
134.2621,80.5452
134.2621,81.0352
134.3005,81.1534
134.4011,81.2265
134.4633,81.2364
135.8287,81.2364
135.9006,81.2426
135.9006,81.2426
135.9006,81.2426
135.9006,81.2426
135.9006,81.2426
136.2537,81.3043
136.2537,81.3043
136.3407,81.3295
136.3407,81.3295
136.6727,81.4662
136.6727,81.4662
136.7522,81.5096
136.7522,81.5096
137.0469,81.7146
137.0469,81.7146
137.1152,81.7742
137.1153,81.7742
137.3588,82.0380
137.4126,82.1108
137.5935,82.4210
137.6304,82.5037
137.6304,82.5037
137.7401,82.8456
137.7583,82.9343
137.7583,82.9343
137.7915,83.2902
137.7933,83.3290
137.7933,83.3317
137.7905,83.3801
137.7684,83.5690
137.7492,83.7329
137.7301,83.8182
137.7301,83.8182
137.6159,84.1558
137.6159,84.1558
137.5794,84.2352
137.4910,84.3841
137.3975,84.5417
137.3453,84.6117
137.3453,84.6117
137.1035,84.8736
137.1035,84.8736
137.0379,84.9312
137.0379,84.9312
136.7469,85.1371
136.7469,85.1371
136.7469,85.1371
136.6707,85.1798
136.6707,85.1798
136.6707,85.1798
136.3432,85.3206
136.3432,85.3206
136.3432,85.3206
136.2640,85.3452
136.2598,85.3465
135.9104,85.4160
135.8290,85.4240
134.4633,85.4240
134.3450,85.4624
134.2719,85.5630
134.2621,85.6252
134.2621,86.1152
134.3005,86.2334
134.4011,86.3065
134.4633,86.3164
135.8287,86.3164
135.9006,86.3226
135.9006,86.3226
135.9006,86.3226
135.9006,86.3226
135.9006,86.3226
136.2537,86.3843
136.2537,86.3843
136.3407,86.4095
136.3407,86.4095
136.6727,86.5462
136.6727,86.5462
136.7522,86.5896
136.7522,86.5896
137.0469,86.7946
137.0469,86.7946
137.1152,86.8542
137.1153,86.8542
137.3588,87.1180
137.4126,87.1908
137.5935,87.5010
137.6304,87.5837
137.6304,87.5837
137.7401,87.9256
137.7583,88.0143
137.7583,88.0143
137.7915,88.3702
137.7933,88.4090
137.7933,88.4117
137.7905,88.4601
137.7684,88.6490
137.7492,88.8129
137.7492,88.8129
137.7301,88.8982
137.7301,88.8982
137.6159,89.2358
137.6159,89.2358
137.5794,89.3152
137.4289,89.5687
137.3975,89.6217
137.3453,89.6917
137.3453,89.6917
137.1035,89.9536
137.1035,89.9536
137.0379,90.0112
137.0379,90.0112
136.7469,90.2171
136.7469,90.2171
136.7469,90.2171
136.6707,90.2598
136.6707,90.2598
136.6707,90.2598
136.3432,90.4006
136.3432,90.4006
136.3432,90.4006
136.2640,90.4252
136.2598,90.4265
135.9104,90.4960
135.8290,90.5040
134.4633,90.5040
134.3450,90.5424
134.2719,90.6430
134.2621,90.7052
134.2621,91.1952
134.3005,91.3134
134.4011,91.3865
134.4633,91.3964
135.8287,91.3964
135.9006,91.4026
135.9006,91.4026
135.9006,91.4026
135.9006,91.4026
135.9006,91.4026
136.2537,91.4643
136.2537,91.4643
136.3407,91.4895
136.3407,91.4895
136.6727,91.6262
136.6727,91.6262
136.7522,91.6696
136.7522,91.6696
137.0469,91.8746
137.0469,91.8746
137.1152,91.9342
137.1153,91.9342
137.3588,92.1980
137.4126,92.2708
137.5935,92.5810
137.6304,92.6637
137.6304,92.6637
137.7401,93.0056
137.7583,93.0943
137.7583,93.0943
137.7915,93.4502
137.7933,93.4890
137.7933,93.4917
137.7905,93.5401
137.7684,93.7290
137.7492,93.8929
137.7301,93.9782
137.7301,93.9782
137.6159,94.3158
137.6159,94.3158
137.5794,94.3952
137.3975,94.7017
137.3975,94.7017
137.3453,94.7717
137.3453,94.7717
137.1035,95.0336
137.1035,95.0336
137.0379,95.0912
137.0379,95.0912
136.7469,95.2971
136.7469,95.2971
136.7469,95.2971
136.6707,95.3398
136.6707,95.3398
136.6707,95.3398
136.3432,95.4806
136.3432,95.4806
136.3432,95.4806
136.2640,95.5052
136.2598,95.5065
135.9104,95.5760
135.8290,95.5840
134.4633,95.5840
134.3450,95.6224
134.2719,95.7230
134.2621,95.7852
134.2621,96.2752
134.3005,96.3934
134.4011,96.4665
134.4633,96.4764
135.8287,96.4764
135.9006,96.4826
135.9006,96.4826
135.9006,96.4826
135.9006,96.4826
135.9006,96.4826
136.2537,96.5443
136.2537,96.5443
136.3407,96.5695
136.3407,96.5695
136.6727,96.7062
136.6727,96.7062
136.7522,96.7496
136.7522,96.7496
137.0469,96.9546
137.0469,96.9546
137.1152,97.0142
137.1153,97.0142
137.3588,97.2780
137.4126,97.3508
137.4126,97.3508
137.5337,97.5585
137.5935,97.6610
137.6304,97.7437
137.6304,97.7437
137.7401,98.0856
137.7583,98.1743
137.7583,98.1743
137.7915,98.5302
137.7933,98.5690
137.7933,98.5717
137.7905,98.6201
137.7684,98.8090
137.7492,98.9729
137.7350,99.0363
137.7301,99.0582
137.7301,99.0582
137.6159,99.3958
137.6159,99.3958
137.5794,99.4752
137.3975,99.7817
137.3975,99.7817
137.3453,99.8517
137.3453,99.8517
137.1035,100.1136
137.1035,100.1136
137.0379,100.1712
137.0379,100.1712
136.7469,100.3771
136.7469,100.3771
136.7469,100.3771
136.6707,100.4198
136.6707,100.4198
136.6707,100.4198
136.3432,100.5606
136.3432,100.5606
136.3432,100.5606
136.2640,100.5852
136.2598,100.5865
135.9104,100.6560
135.8290,100.6640
134.4633,100.6640
134.3450,100.7024
134.2719,100.8030
134.2621,100.8652
134.2621,101.3552
134.3005,101.4734
134.4011,101.5465
134.4633,101.5564
135.8287,101.5564
135.9006,101.5626
135.9006,101.5626
135.9006,101.5626
135.9006,101.5626
135.9006,101.5626
136.2537,101.6243
136.2537,101.6243
136.3407,101.6495
136.3407,101.6495
136.6727,101.7862
136.6727,101.7862
136.7522,101.8296
136.7522,101.8296
137.0469,102.0346
137.0469,102.0346
137.1152,102.0942
137.1153,102.0942
137.3588,102.3580
137.4126,102.4308
137.4126,102.4308
137.4663,102.5228
137.5935,102.7410
137.6304,102.8237
137.6304,102.8237
137.7401,103.1656
137.7583,103.2543
137.7583,103.2543
137.7915,103.6102
137.7933,103.6490
137.7933,103.6517
137.7905,103.7001
137.7684,103.8890
137.7492,104.0529
137.7301,104.1382
137.7301,104.1382
137.6159,104.4758
137.6159,104.4758
137.5794,104.5552
137.3975,104.8617
137.3975,104.8617
137.3453,104.9317
137.3453,104.9317
137.1035,105.1936
137.1035,105.1936
137.0379,105.2512
137.0379,105.2512
136.7469,105.4571
136.7469,105.4571
136.7469,105.4571
136.6707,105.4998
136.6707,105.4998
136.6707,105.4998
136.3432,105.6406
136.3432,105.6406
136.3432,105.6406
136.2640,105.6652
136.2598,105.6665
135.9104,105.7360
135.8290,105.7440
134.4633,105.7440
134.3450,105.7824
134.2719,105.8830
134.2621,105.9452
134.2621,106.4352
134.3005,106.5534
134.4011,106.6265
134.4633,106.6364
135.8287,106.6364
135.9006,106.6426
135.9006,106.6426
135.9006,106.6426
135.9006,106.6426
135.9006,106.6426
136.2537,106.7043
136.2537,106.7043
136.3407,106.7295
136.3407,106.7295
136.6727,106.8662
136.6727,106.8662
136.7522,106.9096
136.7522,106.9096
137.0469,107.1146
137.0469,107.1146
137.1152,107.1742
137.1153,107.1742
137.3588,107.4380
137.4126,107.5108
137.5935,107.8210
137.6304,107.9037
137.6304,107.9037
137.7401,108.2456
137.7583,108.3343
137.7583,108.3343
137.7915,108.6902
137.7933,108.7290
137.7933,108.7317
137.7905,108.7801
137.7684,108.9690
137.7492,109.1329
137.7301,109.2182
137.7301,109.2182
137.6159,109.5558
137.6159,109.5558
137.5794,109.6352
137.3975,109.9417
137.3975,109.9417
137.3453,110.0117
137.3453,110.0117
137.1035,110.2736
137.1035,110.2736
137.0379,110.3312
137.0379,110.3312
136.7469,110.5371
136.7469,110.5371
136.7469,110.5371
136.6707,110.5798
136.6707,110.5798
136.6707,110.5798
136.3432,110.7206
136.3432,110.7206
136.3432,110.7206
136.2640,110.7452
136.2598,110.7465
135.9104,110.8160
135.8290,110.8240
134.4633,110.8240
134.3450,110.8624
134.2719,110.9630
134.2621,111.0252
134.2621,111.5152
134.3005,111.6334
134.4011,111.7065
134.4633,111.7164
135.8287,111.7164
135.9006,111.7226
135.9006,111.7226
135.9006,111.7226
135.9006,111.7226
135.9006,111.7226
136.2537,111.7843
136.2537,111.7843
136.3407,111.8095
136.3407,111.8095
136.6727,111.9462
136.6727,111.9462
136.7522,111.9896
136.7522,111.9896
137.0469,112.1946
137.0469,112.1946
137.1152,112.2542
137.1153,112.2542
137.3588,112.5180
137.4126,112.5908
137.4126,112.5908
137.4313,112.6228
137.5935,112.9010
137.6304,112.9837
137.6304,112.9837
137.7401,113.3256
137.7583,113.4143
137.7583,113.4143
137.7915,113.7702
137.7933,113.8090
137.7933,113.8117
137.7905,113.8601
137.7684,114.0490
137.7492,114.2129
137.7301,114.2982
137.7301,114.2982
137.6159,114.6358
137.6159,114.6358
137.5794,114.7152
137.3975,115.0217
137.3975,115.0217
137.3453,115.0917
137.3453,115.0917
137.1035,115.3536
137.1035,115.3536
137.0379,115.4112
137.0379,115.4112
136.7469,115.6171
136.7469,115.6171
136.7469,115.6171
136.6707,115.6598
136.6707,115.6598
136.6707,115.6598
136.3432,115.8006
136.3432,115.8006
136.3432,115.8006
136.2640,115.8252
136.2598,115.8265
135.9104,115.8960
135.8290,115.9040
134.4633,115.9040
134.3450,115.9424
134.2719,116.0430
134.2621,116.1052
134.2621,116.5952
134.3005,116.7134
134.4011,116.7865
134.4633,116.7964
135.8287,116.7964
135.9006,116.8026
135.9006,116.8026
135.9006,116.8026
135.9006,116.8026
135.9006,116.8026
136.2537,116.8643
136.2537,116.8643
136.3407,116.8895
136.3407,116.8895
136.6727,117.0262
136.6727,117.0262
136.7522,117.0696
136.7522,117.0696
137.0469,117.2746
137.0469,117.2746
137.1152,117.3342
137.1153,117.3342
137.3588,117.5980
137.4126,117.6708
137.5935,117.9810
137.6304,118.0637
137.6304,118.0637
137.7401,118.4056
137.7583,118.4943
137.7583,118.4943
137.7915,118.8502
137.7933,118.8890
137.7933,118.8917
137.7905,118.9401
137.7684,119.1290
137.7492,119.2929
137.7301,119.3782
137.7301,119.3782
137.6159,119.7158
137.6159,119.7158
137.5794,119.7952
137.3975,120.1017
137.3975,120.1017
137.3453,120.1717
137.3453,120.1717
137.1035,120.4336
137.1035,120.4336
137.0379,120.4912
137.0379,120.4912
136.7469,120.6971
136.7469,120.6971
136.7469,120.6971
136.6707,120.7398
136.6707,120.7398
136.6707,120.7398
136.3432,120.8806
136.3432,120.8806
136.3432,120.8806
136.2640,120.9052
136.2598,120.9065
135.9104,120.9760
135.8290,120.9840
134.4633,120.9840
134.3450,121.0224
134.2719,121.1230
134.2621,121.1852
134.2621,125.3080
134.3005,125.4262
134.4011,125.4993
134.4633,125.5092
159.4479,125.5092
159.5662,125.4708
159.6393,125.3702
159.6393,125.2458
159.6092,125.1877
159.6081,125.1862
159.6047,125.1817
159.4228,124.8752
159.3863,124.7958
159.2721,124.4582
159.2530,124.3729
159.2117,124.0201
159.2089,123.9717
159.2089,123.9690
159.2089,123.9690
159.2107,123.9302
159.2107,123.9302
159.2439,123.5743
159.2621,123.4855
159.3718,123.1437
159.4087,123.0609
159.5896,122.7508
159.6434,122.6780
159.8870,122.4141
159.9553,122.3546
159.9553,122.3546
159.9553,122.3546
160.2500,122.1496
160.2500,122.1496
160.3295,122.1062
160.3295,122.1062
160.6615,121.9695
160.6615,121.9695
160.6615,121.9695
160.7050,121.9569
160.7485,121.9443
160.7485,121.9443
161.1016,121.8826
161.1016,121.8826
161.1016,121.8826
161.1062,121.8822
161.1735,121.8764
161.1735,121.8764
162.5389,121.8764
162.6572,121.8380
162.7303,121.7374
162.7401,121.6752
162.7401,121.1852
162.7017,121.0669
162.6011,120.9938
162.5389,120.9840
161.1732,120.9840
161.0918,120.9760
160.7424,120.9065
160.6960,120.8921
160.6590,120.8806
160.6590,120.8806
160.6590,120.8806
160.3315,120.7398
160.2553,120.6971
159.9643,120.4912
159.8987,120.4336
159.6569,120.1717
159.6047,120.1017
159.4228,119.7952
159.3863,119.7158
159.2721,119.3782
159.2530,119.2929
159.2117,118.9401
159.2089,118.8917
159.2089,118.8890
159.2089,118.8890
159.2107,118.8502
159.2107,118.8502
159.2439,118.4943
159.2621,118.4055
159.3718,118.0637
159.4087,117.9809
159.5896,117.6708
159.6434,117.5980
159.8870,117.3341
159.9553,117.2746
159.9553,117.2746
159.9553,117.2746
160.2500,117.0696
160.2500,117.0696
160.3295,117.0262
160.3295,117.0262
160.6615,116.8895
160.6615,116.8895
160.6615,116.8895
160.7050,116.8769
160.7485,116.8643
160.7485,116.8643
161.1016,116.8026
161.1016,116.8026
161.1016,116.8026
161.1062,116.8022
161.1735,116.7964
161.1735,116.7964
162.5389,116.7964
162.6572,116.7580
162.7303,116.6574
162.7401,116.5952
162.7401,116.1052
162.7017,115.9869
162.6011,115.9138
162.5389,115.9040
161.1732,115.9040
161.0918,115.8960
160.7424,115.8265
160.6960,115.8121
160.6590,115.8006
160.6590,115.8006
160.6590,115.8006
160.3315,115.6598
160.2553,115.6171
159.9643,115.4112
159.8987,115.3536
159.6569,115.0917
159.6047,115.0217
159.4228,114.7152
159.3863,114.6358
159.2721,114.2982
159.2530,114.2129
159.2117,113.8601
159.2089,113.8117
159.2089,113.8090
159.2089,113.8090
159.2107,113.7702
159.2107,113.7702
159.2439,113.4143
159.2621,113.3255
159.3718,112.9837
159.4087,112.9009
159.5896,112.5908
159.6434,112.5180
159.7915,112.3575
140.0285,112.3575
140.0285,112.6228
139.9598,112.8790
139.8994,112.9837
139.8272,113.1087
139.6397,113.2963
139.6397,113.2963
139.4099,113.4289
139.4099,113.4289
139.4099,113.4289
139.1537,113.4976
138.8885,113.4976
138.6323,113.4289
138.4025,113.2963
138.2150,113.1087
138.0824,112.8790
138.0137,112.6228
138.0137,112.3576
138.0824,112.1013
138.0868,112.0936
138.2150,111.8716
138.2150,111.8716
138.4025,111.6841
138.4025,111.6841
138.6323,111.5514
138.6323,111.5514
138.7009,111.5330
138.8885,111.4828
138.8885,111.4828
139.1537,111.4828
139.1537,111.4828
139.4099,111.5514
139.6397,111.6841
139.6397,111.6841
139.6397,111.6841
139.8272,111.8716
139.8272,111.8716
139.8272,111.8716
139.9598,112.1013
140.0285,112.3575
159.7915,112.3575
159.8870,112.2541
159.9553,112.1946
159.9553,112.1946
159.9553,112.1946
160.2500,111.9896
160.2500,111.9896
160.3295,111.9462
160.3295,111.9462
160.6615,111.8095
160.6615,111.8095
160.6615,111.8095
160.7050,111.7969
160.7485,111.7843
160.7485,111.7843
161.1016,111.7226
161.1016,111.7226
161.1016,111.7226
161.1062,111.7222
161.1735,111.7164
161.1735,111.7164
162.5389,111.7164
162.6572,111.6780
162.7303,111.5774
162.7401,111.5152
162.7401,111.0252
162.7017,110.9069
162.6011,110.8338
162.5389,110.8240
161.1732,110.8240
161.0918,110.8160
160.7424,110.7465
160.6960,110.7321
160.6590,110.7206
160.6590,110.7206
160.6590,110.7206
160.3315,110.5798
160.2553,110.5371
159.9643,110.3312
159.8987,110.2736
159.6569,110.0117
159.6047,109.9417
159.4228,109.6352
159.3863,109.5558
159.2721,109.2182
159.2530,109.1329
159.2117,108.7801
159.2089,108.7317
159.2089,108.7290
159.2089,108.7290
159.2107,108.6902
159.2107,108.6902
159.2439,108.3343
159.2621,108.2455
159.3718,107.9037
159.4087,107.8209
159.5896,107.5108
159.6434,107.4380
159.7730,107.2976
159.7731,107.2975
140.0085,107.2975
140.0085,107.5628
139.9398,107.8190
139.8072,108.0487
139.8072,108.0487
139.6197,108.2363
139.6197,108.2363
139.3899,108.3689
139.3899,108.3689
139.3899,108.3689
139.1337,108.4376
138.8685,108.4376
138.6123,108.3689
138.3825,108.2363
138.1950,108.0487
138.0624,107.8190
137.9937,107.5628
137.9937,107.2976
138.0624,107.0413
138.1950,106.8116
138.3825,106.6241
138.3825,106.6241
138.6123,106.4914
138.6123,106.4914
138.6809,106.4730
138.8685,106.4228
138.8685,106.4228
139.1337,106.4228
139.1337,106.4228
139.3899,106.4914
139.6197,106.6241
139.6197,106.6241
139.6197,106.6241
139.8072,106.8116
139.8072,106.8116
139.8072,106.8116
139.9398,107.0413
140.0085,107.2975
159.7731,107.2975
159.8869,107.1742
159.8870,107.1742
159.8870,107.1741
159.9553,107.1146
159.9553,107.1146
159.9553,107.1146
160.2500,106.9096
160.2500,106.9096
160.3295,106.8662
160.3295,106.8662
160.6615,106.7295
160.6615,106.7295
160.6615,106.7295
160.7050,106.7169
160.7485,106.7043
160.7485,106.7043
161.1016,106.6426
161.1016,106.6426
161.1016,106.6426
161.1062,106.6422
161.1735,106.6364
161.1735,106.6364
162.5389,106.6364
162.6572,106.5980
162.7303,106.4974
162.7401,106.4352
162.7401,105.9452
162.7017,105.8269
162.6011,105.7538
162.5389,105.7440
161.1732,105.7440
161.0918,105.7360
160.7424,105.6665
160.6960,105.6521
160.6590,105.6406
160.6590,105.6406
160.6590,105.6406
160.3315,105.4998
160.2553,105.4571
159.9643,105.2512
159.8987,105.1936
159.6569,104.9317
159.6047,104.8617
159.4228,104.5552
159.3863,104.4758
159.2721,104.1382
159.2530,104.0529
159.2117,103.7001
159.2089,103.6517
159.2089,103.6490
159.2089,103.6490
159.2107,103.6102
159.2107,103.6102
159.2439,103.2543
159.2621,103.1655
159.3718,102.8237
159.4087,102.7409
159.5896,102.4308
159.6434,102.3580
159.7361,102.2575
140.0285,102.2575
140.0285,102.5228
139.9598,102.7790
139.8272,103.0087
139.8272,103.0087
139.6397,103.1963
139.6397,103.1963
139.4099,103.3289
139.4099,103.3289
139.4099,103.3289
139.1537,103.3976
138.8885,103.3976
138.6323,103.3289
138.4025,103.1963
138.2150,103.0087
138.0824,102.7790
138.0137,102.5228
138.0137,102.2576
138.0824,102.0013
138.2150,101.7716
138.4025,101.5841
138.4332,101.5664
138.6323,101.4514
138.6323,101.4514
138.7009,101.4330
138.8885,101.3828
138.8885,101.3828
139.1537,101.3828
139.1537,101.3828
139.4099,101.4514
139.6397,101.5841
139.6397,101.5841
139.6397,101.5841
139.8272,101.7716
139.8272,101.7716
139.8272,101.7716
139.9598,102.0013
140.0285,102.2575
159.7361,102.2575
159.8870,102.0941
159.9553,102.0346
159.9553,102.0346
159.9553,102.0346
160.2500,101.8296
160.2500,101.8296
160.3295,101.7862
160.3295,101.7862
160.6615,101.6495
160.6615,101.6495
160.6615,101.6495
160.7050,101.6369
160.7485,101.6243
160.7485,101.6243
161.1016,101.5626
161.1016,101.5626
161.1016,101.5626
161.1062,101.5622
161.1735,101.5564
161.1735,101.5564
162.5389,101.5564
162.6572,101.5180
162.7303,101.4174
162.7401,101.3552
162.7401,100.8652
162.7017,100.7469
162.6011,100.6738
162.5389,100.6640
161.1732,100.6640
161.0918,100.6560
160.7424,100.5865
160.6960,100.5721
160.6590,100.5606
160.6590,100.5606
160.6590,100.5606
160.3315,100.4198
160.2553,100.3771
159.9643,100.1712
159.8987,100.1136
159.6569,99.8517
159.6047,99.7817
159.4228,99.4752
159.3863,99.3958
159.2721,99.0582
159.2530,98.9729
159.2117,98.6201
159.2089,98.5717
159.2089,98.5690
159.2089,98.5690
159.2107,98.5302
159.2107,98.5302
159.2439,98.1743
159.2596,98.0975
147.4685,98.0975
147.4685,98.3628
147.4236,98.5302
147.4133,98.5690
147.3998,98.6190
147.2672,98.8487
147.2672,98.8487
147.0797,99.0363
147.0797,99.0363
146.8500,99.1689
146.8499,99.1689
146.8499,99.1689
146.5937,99.2376
146.3285,99.2376
146.0723,99.1689
145.8425,99.0363
145.6550,98.8487
145.5224,98.6190
145.4537,98.3628
145.4537,98.0976
145.5224,97.8413
145.6154,97.6801
145.6413,97.5585
145.5907,97.4449
145.5835,97.4373
145.4750,97.3287
145.3424,97.0990
145.2737,96.8428
145.2737,96.5776
145.3424,96.3213
145.3690,96.2752
145.4750,96.0916
145.4750,96.0916
145.4750,96.0916
145.4830,96.0812
145.4808,96.0794
145.5306,95.9816
145.5111,95.8588
145.4742,95.8079
145.4150,95.7487
145.2824,95.5190
145.2137,95.2628
145.2137,94.9976
145.2824,94.7413
145.3053,94.7017
145.4150,94.5116
145.4150,94.5116
145.6025,94.3241
145.6168,94.3158
145.8323,94.1914
145.8323,94.1914
145.9009,94.1730
146.0885,94.1228
146.0885,94.1228
146.3537,94.1228
146.3537,94.1228
146.6099,94.1914
146.8397,94.3241
146.8397,94.3241
146.8397,94.3241
147.0272,94.5116
147.0272,94.5116
147.0272,94.5116
147.1598,94.7413
147.2285,94.9975
147.2285,95.2628
147.1598,95.5190
147.0272,95.7487
147.0192,95.7592
147.0214,95.7609
146.9716,95.8587
146.9910,95.9815
147.0280,96.0324
147.0872,96.0916
147.0872,96.0916
147.2198,96.3213
147.2885,96.5775
147.2885,96.8428
147.2198,97.0990
147.1268,97.2603
147.1009,97.3819
147.1515,97.4955
147.1587,97.5031
147.2672,97.6116
147.2672,97.6116
147.3998,97.8413
147.4685,98.0975
159.2596,98.0975
159.2621,98.0855
159.3718,97.7437
159.4087,97.6609
159.5896,97.3508
159.6434,97.2780
159.8870,97.0141
159.9553,96.9546
159.9553,96.9546
159.9553,96.9546
160.2500,96.7496
160.2500,96.7496
160.3295,96.7062
160.3295,96.7062
160.6615,96.5695
160.6615,96.5695
160.6615,96.5695
160.7050,96.5569
160.7485,96.5443
160.7485,96.5443
161.1016,96.4826
161.1016,96.4826
161.1016,96.4826
161.1062,96.4822
161.1735,96.4764
161.1735,96.4764
162.5389,96.4764
162.6572,96.4380
162.7303,96.3374
162.7401,96.2752
162.7401,95.7852
162.7017,95.6669
162.6011,95.5938
162.5389,95.5840
161.1732,95.5840
161.0918,95.5760
160.7424,95.5065
160.6960,95.4921
160.6590,95.4806
160.6590,95.4806
160.6590,95.4806
160.3315,95.3398
160.2553,95.2971
159.9643,95.0912
159.8987,95.0336
159.6569,94.7717
159.6047,94.7017
159.4228,94.3952
159.3863,94.3158
159.2721,93.9782
159.2530,93.8929
159.2117,93.5401
159.2089,93.4917
159.2089,93.4890
159.2089,93.4890
159.2107,93.4502
159.2107,93.4502
159.2439,93.0943
159.2621,93.0055
159.3718,92.6637
159.4087,92.5809
159.5896,92.2708
159.6434,92.1980
159.8870,91.9341
159.9553,91.8746
159.9553,91.8746
159.9553,91.8746
160.2500,91.6696
160.2500,91.6696
160.3295,91.6262
160.3295,91.6262
160.6615,91.4895
160.6615,91.4895
160.6615,91.4895
160.7050,91.4769
160.7485,91.4643
160.7485,91.4643
161.1016,91.4026
161.1016,91.4026
161.1016,91.4026
161.1062,91.4022
161.1735,91.3964
161.1735,91.3964
162.5389,91.3964
162.6572,91.3580
162.7303,91.2574
162.7401,91.1952
162.7401,90.7052
162.7017,90.5869
162.6011,90.5138
162.5389,90.5040
161.1732,90.5040
161.0918,90.4960
160.7424,90.4265
160.6960,90.4121
160.6590,90.4006
160.6590,90.4006
160.6590,90.4006
160.3315,90.2598
160.2553,90.2171
159.9643,90.0112
159.8987,89.9536
159.6569,89.6917
159.6047,89.6217
159.4228,89.3152
159.3863,89.2358
159.2721,88.8982
159.2540,88.8175
150.6085,88.8175
150.6085,89.0828
150.5661,89.2411
150.5462,89.3152
150.5398,89.3390
150.4230,89.5413
150.4072,89.5687
150.2197,89.7563
150.2197,89.7563
149.9899,89.8889
149.9899,89.8889
149.9899,89.8889
149.7337,89.9576
149.4685,89.9576
149.2123,89.8889
149.0540,89.7975
147.4285,89.7975
147.4285,90.0628
147.3598,90.3190
147.2474,90.5138
147.2272,90.5487
147.0397,90.7363
147.0397,90.7363
146.8099,90.8689
146.8099,90.8689
146.8099,90.8689
146.5537,90.9376
146.2885,90.9376
146.0323,90.8689
145.8025,90.7363
145.6150,90.5487
145.4824,90.3190
145.4137,90.0628
145.4137,89.7976
145.4824,89.5413
145.5828,89.3674
145.6086,89.2458
145.5580,89.1322
145.5509,89.1246
145.4550,89.0287
145.3224,88.7990
145.2537,88.5428
145.2537,88.2776
145.3224,88.0213
145.3677,87.9428
145.4550,87.7916
145.4550,87.7916
145.6425,87.6041
145.6425,87.6041
145.8723,87.4714
145.8723,87.4714
145.9409,87.4530
146.1285,87.4028
146.1285,87.4028
146.3937,87.4028
146.3937,87.4028
146.6499,87.4714
146.8797,87.6041
146.8797,87.6041
146.8797,87.6041
147.0672,87.7916
147.0672,87.7916
147.0672,87.7916
147.1998,88.0213
147.2685,88.2775
147.2685,88.5428
147.1998,88.7990
147.0994,88.9729
147.0736,89.0946
147.1242,89.2082
147.1314,89.2158
147.2272,89.3116
147.3598,89.5413
147.4285,89.7975
149.0540,89.7975
148.9825,89.7563
148.7950,89.5687
148.6624,89.3390
148.5937,89.0828
148.5937,88.8176
148.6624,88.5613
148.6731,88.5428
148.7950,88.3316
148.7950,88.3316
148.9825,88.1441
148.9825,88.1441
149.2123,88.0114
149.2123,88.0114
149.2809,87.9930
149.4685,87.9428
149.4685,87.9428
149.7337,87.9428
149.7337,87.9428
149.9899,88.0114
150.2197,88.1441
150.2197,88.1441
150.2197,88.1441
150.4072,88.3316
150.4072,88.3316
150.4072,88.3316
150.5398,88.5613
150.6085,88.8175
159.2540,88.8175
159.2530,88.8129
159.2117,88.4601
159.2089,88.4117
159.2089,88.4090
159.2089,88.4090
159.2107,88.3702
159.2107,88.3702
159.2439,88.0143
159.2621,87.9255
159.3718,87.5837
159.4087,87.5009
159.5896,87.1908
159.6434,87.1180
159.8870,86.8541
159.9553,86.7946
159.9553,86.7946
159.9553,86.7946
160.2500,86.5896
160.2500,86.5896
160.3295,86.5462
160.3295,86.5462
160.6615,86.4095
160.6615,86.4095
160.6615,86.4095
160.7050,86.3969
160.7485,86.3843
160.7485,86.3843
161.1016,86.3226
161.1016,86.3226
161.1016,86.3226
161.1062,86.3222
161.1735,86.3164
161.1735,86.3164
162.5389,86.3164
162.6572,86.2780
162.7303,86.1774
162.7401,86.1152
162.7401,85.6252
162.7017,85.5069
162.6011,85.4338
162.5389,85.4240
161.1732,85.4240
161.0918,85.4160
160.7424,85.3465
160.6960,85.3321
160.6590,85.3206
160.6590,85.3206
160.6590,85.3206
160.3315,85.1798
160.2553,85.1371
160.1429,85.0575
151.8085,85.0575
151.8085,85.3228
151.7398,85.5790
151.6072,85.8087
151.6072,85.8087
151.4197,85.9963
151.4197,85.9963
151.1899,86.1289
151.1899,86.1289
151.1899,86.1289
150.9337,86.1976
150.6685,86.1976
150.4123,86.1289
150.1825,85.9963
149.9950,85.8087
149.8624,85.5790
149.7937,85.3228
149.7937,85.0576
149.8624,84.8013
149.9950,84.5716
150.1825,84.3841
150.1825,84.3841
150.4123,84.2514
150.4123,84.2514
150.4809,84.2330
150.6685,84.1828
150.6685,84.1828
150.9337,84.1828
150.9337,84.1828
151.1899,84.2514
151.4197,84.3841
151.4197,84.3841
151.4197,84.3841
151.6072,84.5716
151.6072,84.5716
151.6072,84.5716
151.7398,84.8013
151.8085,85.0575
160.1429,85.0575
159.9643,84.9312
159.8987,84.8736
159.6569,84.6117
159.6047,84.5417
159.4228,84.2352
159.3863,84.1558
159.2721,83.8182
159.2530,83.7329
159.2117,83.3801
159.2089,83.3317
159.2089,83.3290
159.2089,83.3290
159.2107,83.2902
159.2107,83.2902
159.2439,82.9343
159.2621,82.8455
159.3718,82.5037
159.4087,82.4209
159.5896,82.1108
159.6434,82.0380
159.6623,82.0175
140.0485,82.0175
140.0485,82.2828
139.9798,82.5390
139.8472,82.7687
139.8472,82.7687
139.6597,82.9563
139.6597,82.9563
139.4299,83.0889
139.4299,83.0889
139.4299,83.0889
139.1737,83.1576
138.9085,83.1576
138.6523,83.0889
138.4225,82.9563
138.2350,82.7687
138.1024,82.5390
138.0337,82.2828
138.0337,82.0176
138.1024,81.7613
138.1293,81.7146
138.2350,81.5316
138.2350,81.5316
138.4225,81.3441
138.4477,81.3295
138.6523,81.2114
138.6523,81.2114
138.7209,81.1930
138.9085,81.1428
138.9085,81.1428
139.1737,81.1428
139.1737,81.1428
139.4299,81.2114
139.6597,81.3441
139.6597,81.3441
139.6597,81.3441
139.8472,81.5316
139.8472,81.5316
139.8472,81.5316
139.9798,81.7613
140.0485,82.0175
159.6623,82.0175
159.8870,81.7741
159.9553,81.7146
159.9553,81.7146
159.9553,81.7146
160.2500,81.5096
160.2500,81.5096
160.3295,81.4662
160.3295,81.4662
160.6615,81.3295
160.6615,81.3295
160.6615,81.3295
160.7050,81.3169
160.7485,81.3043
160.7485,81.3043
161.1016,81.2426
161.1016,81.2426
161.1016,81.2426
161.1062,81.2422
161.1735,81.2364
161.1735,81.2364
162.5389,81.2364
162.6572,81.1980
162.7303,81.0974
162.7401,81.0352
162.7401,80.5452
162.7017,80.4269
162.6011,80.3538
162.5389,80.3440
161.1732,80.3440
161.0918,80.3360
160.7424,80.2665
160.6960,80.2521
160.6590,80.2406
160.6590,80.2406
160.6590,80.2406
160.3315,80.0998
160.2553,80.0571
159.9643,79.8512
159.8987,79.7936
159.6569,79.5317
159.6047,79.4617
159.5904,79.4375
140.0285,79.4375
140.0285,79.7028
139.9598,79.9590
139.8272,80.1887
139.8272,80.1887
139.6397,80.3763
139.6397,80.3763
139.4099,80.5089
139.4099,80.5089
139.4099,80.5089
139.1537,80.5776
138.8885,80.5776
138.6323,80.5089
138.4025,80.3763
138.2150,80.1887
138.0824,79.9590
138.0137,79.7028
138.0137,79.4376
138.0824,79.1813
138.1433,79.0758
138.2150,78.9516
138.2150,78.9516
138.4025,78.7641
138.4025,78.7641
138.6323,78.6314
138.6323,78.6314
138.7009,78.6130
138.8885,78.5628
138.8885,78.5628
139.1537,78.5628
139.1537,78.5628
139.4099,78.6314
139.6397,78.7641
139.6397,78.7641
139.6397,78.7641
139.8272,78.9516
139.8272,78.9516
139.8272,78.9516
139.9598,79.1813
140.0285,79.4375
159.5904,79.4375
159.4228,79.1552
159.3863,79.0758
159.2721,78.7382
159.2530,78.6529
159.2117,78.3001
159.2089,78.2517
159.2089,78.2490
159.2089,78.2490
159.2107,78.2102
159.2107,78.2102
159.2439,77.8543
159.2621,77.7655
159.3718,77.4237
159.4087,77.3409
159.5896,77.0308
159.6434,76.9580
159.8870,76.6941
159.9553,76.6346
159.9553,76.6346
159.9553,76.6346
160.2500,76.4296
160.2500,76.4296
160.3295,76.3862
160.3295,76.3862
160.6615,76.2495
160.6615,76.2495
160.6615,76.2495
160.7050,76.2369
160.7485,76.2243
160.7485,76.2243
161.1016,76.1626
161.1016,76.1626
161.1016,76.1626
161.1062,76.1622
161.1735,76.1564
161.1735,76.1564
162.5389,76.1564
162.6572,76.1180
162.7303,76.0174
162.7401,75.9552
162.7401,75.4652
162.7017,75.3469
162.6011,75.2738
162.5389,75.2640
161.1732,75.2640
161.0918,75.2560
160.7424,75.1865
160.6960,75.1721
160.6590,75.1606
160.6590,75.1606
160.6590,75.1606
160.3315,75.0198
160.2553,74.9771
159.9643,74.7712
159.8987,74.7136
159.6569,74.4517
159.6047,74.3817
159.4228,74.0752
159.3863,73.9958
159.2721,73.6582
159.2530,73.5729
159.2117,73.2201
159.2089,73.1717
159.2089,73.1690
159.2089,73.1690
159.2107,73.1302
159.2107,73.1302
159.2439,72.7743
159.2621,72.6855
159.3718,72.3437
159.4087,72.2609
159.5896,71.9508
159.6434,71.8780
159.7454,71.7675
151.1485,71.7675
151.1485,72.0328
151.0982,72.2204
151.0879,72.2590
151.0798,72.2890
150.9641,72.4895
150.9472,72.5187
150.7597,72.7063
150.7597,72.7063
150.5299,72.8389
150.5299,72.8389
150.5299,72.8389
150.2737,72.9076
150.0085,72.9076
149.7523,72.8389
149.5225,72.7063
149.3350,72.5187
149.2024,72.2890
149.1337,72.0328
149.1337,71.7676
149.2024,71.5113
149.2197,71.4813
149.3043,71.3348
149.3350,71.2816
149.5225,71.0941
149.5424,71.0826
149.7523,70.9614
149.7523,70.9614
149.8642,70.9314
150.0085,70.8928
150.0085,70.8928
150.2737,70.8928
150.2737,70.8928
150.5299,70.9614
150.7597,71.0941
150.7597,71.0941
150.7597,71.0941
150.9472,71.2816
150.9472,71.2816
150.9472,71.2816
151.0798,71.5113
151.1485,71.7675
159.7454,71.7675
159.8870,71.6141
159.9553,71.5546
159.9553,71.5546
159.9553,71.5546
160.2500,71.3496
160.2500,71.3496
160.3295,71.3062
160.3295,71.3062
160.6615,71.1695
160.6615,71.1695
160.6615,71.1695
160.7050,71.1569
160.7485,71.1443
160.7485,71.1443
161.1016,71.0826
161.1016,71.0826
161.1016,71.0826
161.1062,71.0822
161.1735,71.0764
161.1735,71.0764
162.5389,71.0764
162.6572,71.0380
162.7303,70.9374
162.7401,70.8752
162.7401,70.3852
162.7017,70.2669
162.6011,70.1938
162.5389,70.1840
161.1732,70.1840
161.0918,70.1760
160.7424,70.1065
160.6960,70.0921
160.6590,70.0806
160.6590,70.0806
160.6590,70.0806
160.3315,69.9398
160.2553,69.8971
159.9643,69.6912
159.8987,69.6336
159.7916,69.5175
158.8885,69.5175
158.8885,69.7828
158.8198,70.0390
158.6872,70.2687
158.6872,70.2687
158.4997,70.4563
158.4997,70.4563
158.2699,70.5889
158.2699,70.5889
158.2699,70.5889
158.0137,70.6576
157.7485,70.6576
157.4923,70.5889
157.2625,70.4563
157.0750,70.2687
156.9424,70.0390
156.8737,69.7828
156.8737,69.5176
156.9424,69.2613
157.0750,69.0316
157.2625,68.8441
157.2625,68.8441
157.4923,68.7114
157.4923,68.7114
157.5609,68.6930
157.7485,68.6428
157.7485,68.6428
158.0137,68.6428
158.0137,68.6428
158.2699,68.7114
158.4997,68.8441
158.4997,68.8441
158.4997,68.8441
158.6872,69.0316
158.6872,69.0316
158.6872,69.0316
158.8198,69.2613
158.8885,69.5175
159.7916,69.5175
159.6569,69.3717
159.6047,69.3017
159.4228,68.9952
159.3863,68.9158
159.2721,68.5782
159.2530,68.4929
159.2117,68.1401
159.2089,68.0917
159.2089,68.0890
159.2089,68.0890
159.2107,68.0502
159.2107,68.0502
159.2439,67.6943
159.2621,67.6055
159.3718,67.2637
159.4087,67.1809
159.5896,66.8708
159.6183,66.8320
159.6577,66.7141
159.6202,66.5955
159.5203,66.5216
159.4565,66.5112
137.5457,66.5112
Z" /> 
</g>
<g style="fill:#FFFFFF; fill-opacity:1.0000; stroke:none;">
<circle cx="147.5011" cy="121.5102" r="0.3000" /> 
</g>
<g style="fill:#FFFFFF; fill-opacity:1.0000; stroke:none;">
<circle cx="155.9211" cy="69.4302" r="0.3000" /> 
</g>
<g style="fill:#FFFFFF; fill-opacity:1.0000; stroke:none;">
<circle cx="141.0011" cy="84.6902" r="0.3000" /> 
</g>
<g style="fill:#FFFFFF; fill-opacity:1.0000; stroke:none;">
<circle cx="156.9011" cy="77.0702" r="0.3000" /> 
</g>
<g style="fill:#FFFFFF; fill-opacity:1.0000; stroke:none;">
<circle cx="154.8611" cy="123.9702" r="0.3000" /> 
</g>
<g style="fill:#FFFFFF; fill-opacity:1.0000; stroke:none;">
<circle cx="137.6211" cy="121.4102" r="0.3000" /> 
</g>
<g style="fill:#FFFFFF; fill-opacity:1.0000; stroke:none;">
<circle cx="154.9411" cy="118.8702" r="0.3000" /> 
</g>
<g style="fill:#FFFFFF; fill-opacity:1.0000; stroke:none;">
<circle cx="155.4211" cy="84.3502" r="0.3000" /> 
</g>
<g style="fill:#FFFFFF; fill-opacity:1.0000; stroke:none;">
<circle cx="148.9411" cy="107.5502" r="0.3000" /> 
</g>
<g style="fill:#FFFFFF; fill-opacity:1.0000; stroke:none;">
<circle cx="156.8411" cy="81.8702" r="0.3000" /> 
</g>
<g style="fill:#FFFFFF; fill-opacity:1.0000; stroke:none;">
<circle cx="144.3611" cy="76.0302" r="0.3000" /> 
</g>
<g style="fill:#FFFFFF; fill-opacity:1.0000; stroke:none;">
<circle cx="137.7211" cy="100.6502" r="0.3000" /> 
</g>
<g style="fill:#FFFFFF; fill-opacity:1.0000; stroke:none;">
<circle cx="155.1611" cy="79.4302" r="0.3000" /> 
</g>
<g style="fill:#FFFFFF; fill-opacity:1.0000; stroke:none;">
<circle cx="152.1411" cy="78.7502" r="0.3000" /> 
</g>
<g style="fill:#FFFFFF; fill-opacity:1.0000; stroke:none;">
<circle cx="142.2611" cy="67.6902" r="0.3000" /> 
</g>
<g style="fill:#FFFFFF; fill-opacity:1.0000; stroke:none;">
<circle cx="142.3611" cy="101.5502" r="0.3000" /> 
</g>
<g style="fill:#FFFFFF; fill-opacity:1.0000; stroke:none;">
<circle cx="156.3011" cy="87.3102" r="0.3000" /> 
</g>
<g style="fill:#FFFFFF; fill-opacity:1.0000; stroke:none;">
<circle cx="155.1411" cy="113.2902" r="0.3000" /> 
</g>
<g style="fill:#FFFFFF; fill-opacity:1.0000; stroke:none;">
<circle cx="156.0211" cy="74.2502" r="0.3000" /> 
</g>
<g style="fill:#FFFFFF; fill-opacity:1.0000; stroke:none;">
<circle cx="155.3611" cy="104.3902" r="0.3000" /> 
</g>
<g style="fill:#FFFFFF; fill-opacity:1.0000; stroke:none;">
<circle cx="154.1411" cy="71.1502" r="0.3000" /> 
</g>
<g style="fill:#FFFFFF; fill-opacity:1.0000; stroke:none;">
<circle cx="159.1411" cy="85.6902" r="0.3000" /> 
</g>
<g style="fill:#FFFFFF; fill-opacity:1.0000; stroke:none;">
<circle cx="159.5011" cy="101.1102" r="0.3000" /> 
</g>
<g style="fill:#FFFFFF; fill-opacity:1.0000; stroke:none;">
<circle cx="139.8011" cy="66.9302" r="0.3000" /> 
</g>
<g style="fill:#FFFFFF; fill-opacity:1.0000; stroke:none;">
<circle cx="155.2011" cy="93.9502" r="0.3000" /> 
</g>
<g style="fill:#FFFFFF; fill-opacity:1.0000; stroke:none;">
<circle cx="143.3411" cy="117.3102" r="0.3000" /> 
</g>
<g style="fill:#FFFFFF; fill-opacity:1.0000; stroke:none;">
<circle cx="141.9211" cy="111.7902" r="0.3000" /> 
</g>
<g style="fill:#FFFFFF; fill-opacity:1.0000; stroke:none;">
<circle cx="140.1611" cy="87.1102" r="0.3000" /> 
</g>
<g style="fill:#FFFFFF; fill-opacity:1.0000; stroke:none;">
<circle cx="141.1611" cy="92.2902" r="0.3000" /> 
</g>
<g style="fill:#FFFFFF; fill-opacity:1.0000; stroke:none;">
<circle cx="140.9411" cy="89.8302" r="0.3000" /> 
</g>
<g style="fill:#FFFFFF; fill-opacity:1.0000; stroke:none;">
<circle cx="141.2811" cy="79.2102" r="0.3000" /> 
</g>
<g style="fill:#FFFFFF; fill-opacity:1.0000; stroke:none;">
<circle cx="155.9811" cy="100.0502" r="0.3000" /> 
</g>
<g style="fill:#FFFFFF; fill-opacity:1.0000; stroke:none;">
<circle cx="147.8811" cy="90.6502" r="0.3000" /> 
</g>
<g style="fill:#FFFFFF; fill-opacity:1.0000; stroke:none;">
<circle cx="143.5211" cy="84.1502" r="0.3000" /> 
</g>
<g style="fill:#FFFFFF; fill-opacity:1.0000; stroke:none;">
<circle cx="137.6811" cy="91.1302" r="0.3000" /> 
</g>
<g style="fill:#FFFFFF; fill-opacity:1.0000; stroke:none;">
<circle cx="140.9011" cy="71.8702" r="0.3000" /> 
</g>
<g style="fill:#FFFFFF; fill-opacity:1.0000; stroke:none;">
<circle cx="140.6411" cy="74.5302" r="0.3000" /> 
</g>
<g style="fill:#FFFFFF; fill-opacity:1.0000; stroke:none;">
<circle cx="139.6811" cy="123.7902" r="0.3000" /> 
</g>
<g style="fill:#FFFFFF; fill-opacity:1.0000; stroke:none;">
<circle cx="156.8411" cy="92.3702" r="0.3000" /> 
</g>
<g style="fill:#FFFFFF; fill-opacity:1.0000; stroke:none;">
<circle cx="148.9411" cy="78.7502" r="0.3000" /> 
</g>
<g style="fill:#FFFFFF; fill-opacity:1.0000; stroke:none;">
<circle cx="140.1611" cy="76.8702" r="0.3000" /> 
</g>
<g style="fill:#FFFFFF; fill-opacity:1.0000; stroke:none;">
<circle cx="155.6811" cy="97.1502" r="0.3000" /> 
</g>
<g style="fill:#FFFFFF; fill-opacity:1.0000; stroke:none;">
<circle cx="148.0611" cy="94.3702" r="0.3000" /> 
</g>
<g style="fill:#FFFFFF; fill-opacity:1.0000; stroke:none;">
<circle cx="154.0411" cy="67.4502" r="0.3000" /> 
</g>
<g style="fill:#FFFFFF; fill-opacity:1.0000; stroke:none;">
<circle cx="139.0811" cy="110.3102" r="0.3000" /> 
</g>
<g style="fill:#FFFFFF; fill-opacity:1.0000; stroke:none;">
<circle cx="141.0011" cy="81.9302" r="0.3000" /> 
</g>
<g style="fill:#FFFFFF; fill-opacity:1.0000; stroke:none;">
<circle cx="155.2211" cy="108.1302" r="0.3000" /> 
</g>
<g style="fill:#FFFFFF; fill-opacity:1.0000; stroke:none;">
<circle cx="157.8811" cy="69.6502" r="0.3000" /> 
</g>
<g style="fill:#FFFFFF; fill-opacity:1.0000; stroke:none;">
<circle cx="150.8011" cy="85.1902" r="0.3000" /> 
</g>
<g style="fill:#FFFFFF; fill-opacity:1.0000; stroke:none;">
<circle cx="150.1411" cy="71.9002" r="0.3000" /> 
</g>
<g style="fill:#FFFFFF; fill-opacity:1.0000; stroke:none;">
<circle cx="146.4211" cy="89.9302" r="0.3000" /> 
</g>
<g style="fill:#FFFFFF; fill-opacity:1.0000; stroke:none;">
<circle cx="139.0411" cy="82.1502" r="0.3000" /> 
</g>
<g style="fill:#FFFFFF; fill-opacity:1.0000; stroke:none;">
<circle cx="149.6011" cy="88.9502" r="0.3000" /> 
</g>
<g style="fill:#FFFFFF; fill-opacity:1.0000; stroke:none;">
<circle cx="138.9211" cy="71.8702" r="0.3000" /> 
</g>
<g style="fill:#FFFFFF; fill-opacity:1.0000; stroke:none;">
<circle cx="146.2611" cy="88.4102" r="0.3000" /> 
</g>
<g style="fill:#FFFFFF; fill-opacity:1.0000; stroke:none;">
<circle cx="139.0211" cy="79.5702" r="0.3000" /> 
</g>
<g style="fill:#FFFFFF; fill-opacity:1.0000; stroke:none;">
<circle cx="139.0011" cy="107.4302" r="0.3000" /> 
</g>
<g style="fill:#FFFFFF; fill-opacity:1.0000; stroke:none;">
<circle cx="146.2811" cy="96.7102" r="0.3000" /> 
</g>
<g style="fill:#FFFFFF; fill-opacity:1.0000; stroke:none;">
<circle cx="139.0211" cy="112.4902" r="0.3000" /> 
</g>
<g style="fill:#FFFFFF; fill-opacity:1.0000; stroke:none;">
<circle cx="146.4611" cy="98.2302" r="0.3000" /> 
</g>
<g style="fill:#FFFFFF; fill-opacity:1.0000; stroke:none;">
<circle cx="146.2211" cy="95.1302" r="0.3000" /> 
</g>
<g style="fill:#FFFFFF; fill-opacity:1.0000; stroke:none;">
<circle cx="139.0211" cy="102.3902" r="0.3000" /> 
</g>
<g style="fill:#FFFFFF; fill-opacity:1.0000; stroke:none;">
<circle cx="133.2611" cy="68.0902" r="0.9000" /> 
</g>
<g style="fill:#FFFFFF; fill-opacity:1.0000; stroke:none;">
<circle cx="135.8011" cy="68.0902" r="0.8500" /> 
</g>
<g style="fill:#FFFFFF; fill-opacity:1.0000; stroke:none;">
<circle cx="133.2611" cy="73.1702" r="0.9000" /> 
</g>
<g style="fill:#FFFFFF; fill-opacity:1.0000; stroke:none;">
<circle cx="135.8011" cy="73.1702" r="0.8500" /> 
</g>
<g style="fill:#FFFFFF; fill-opacity:1.0000; stroke:none;">
<circle cx="133.2611" cy="78.2502" r="0.9000" /> 
</g>
<g style="fill:#FFFFFF; fill-opacity:1.0000; stroke:none;">
<circle cx="135.8011" cy="78.2502" r="0.8500" /> 
</g>
<g style="fill:#FFFFFF; fill-opacity:1.0000; stroke:none;">
<circle cx="133.2611" cy="83.3302" r="0.9000" /> 
</g>
<g style="fill:#FFFFFF; fill-opacity:1.0000; stroke:none;">
<circle cx="135.8011" cy="83.3302" r="0.8500" /> 
</g>
<g style="fill:#FFFFFF; fill-opacity:1.0000; stroke:none;">
<circle cx="133.2611" cy="88.4102" r="0.9000" /> 
</g>
<g style="fill:#FFFFFF; fill-opacity:1.0000; stroke:none;">
<circle cx="135.8011" cy="88.4102" r="0.8500" /> 
</g>
<g style="fill:#FFFFFF; fill-opacity:1.0000; stroke:none;">
<circle cx="133.2611" cy="93.4902" r="0.9000" /> 
</g>
<g style="fill:#FFFFFF; fill-opacity:1.0000; stroke:none;">
<circle cx="135.8011" cy="93.4902" r="0.8500" /> 
</g>
<g style="fill:#FFFFFF; fill-opacity:1.0000; stroke:none;">
<circle cx="133.2611" cy="98.5702" r="0.9000" /> 
</g>
<g style="fill:#FFFFFF; fill-opacity:1.0000; stroke:none;">
<circle cx="135.8011" cy="98.5702" r="0.8500" /> 
</g>
<g style="fill:#FFFFFF; fill-opacity:1.0000; stroke:none;">
<circle cx="133.2611" cy="103.6502" r="0.9000" /> 
</g>
<g style="fill:#FFFFFF; fill-opacity:1.0000; stroke:none;">
<circle cx="135.8011" cy="103.6502" r="0.8500" /> 
</g>
<g style="fill:#FFFFFF; fill-opacity:1.0000; stroke:none;">
<circle cx="133.2611" cy="108.7302" r="0.9000" /> 
</g>
<g style="fill:#FFFFFF; fill-opacity:1.0000; stroke:none;">
<circle cx="135.8011" cy="108.7302" r="0.8500" /> 
</g>
<g style="fill:#FFFFFF; fill-opacity:1.0000; stroke:none;">
<circle cx="133.2611" cy="113.8102" r="0.9000" /> 
</g>
<g style="fill:#FFFFFF; fill-opacity:1.0000; stroke:none;">
<circle cx="135.8011" cy="113.8102" r="0.8500" /> 
</g>
<g style="fill:#FFFFFF; fill-opacity:1.0000; stroke:none;">
<circle cx="133.2611" cy="118.8902" r="0.9000" /> 
</g>
<g style="fill:#FFFFFF; fill-opacity:1.0000; stroke:none;">
<circle cx="135.8011" cy="118.8902" r="0.8500" /> 
</g>
<g style="fill:#FFFFFF; fill-opacity:1.0000; stroke:none;">
<circle cx="133.2611" cy="123.9702" r="0.9000" /> 
</g>
<g style="fill:#FFFFFF; fill-opacity:1.0000; stroke:none;">
<circle cx="135.8011" cy="123.9702" r="0.8500" /> 
</g>
<g style="fill:#FFFFFF; fill-opacity:1.0000; stroke:none;">
<circle cx="161.2011" cy="68.0902" r="0.8500" /> 
</g>
<g style="fill:#FFFFFF; fill-opacity:1.0000; stroke:none;">
<circle cx="163.7411" cy="68.0902" r="0.9000" /> 
</g>
<g style="fill:#FFFFFF; fill-opacity:1.0000; stroke:none;">
<circle cx="161.2011" cy="73.1702" r="0.8500" /> 
</g>
<g style="fill:#FFFFFF; fill-opacity:1.0000; stroke:none;">
<circle cx="163.7411" cy="73.1702" r="0.9000" /> 
</g>
<g style="fill:#FFFFFF; fill-opacity:1.0000; stroke:none;">
<circle cx="161.2011" cy="78.2502" r="0.8500" /> 
</g>
<g style="fill:#FFFFFF; fill-opacity:1.0000; stroke:none;">
<circle cx="163.7411" cy="78.2502" r="0.9000" /> 
</g>
<g style="fill:#FFFFFF; fill-opacity:1.0000; stroke:none;">
<circle cx="161.2011" cy="83.3302" r="0.8500" /> 
</g>
<g style="fill:#FFFFFF; fill-opacity:1.0000; stroke:none;">
<circle cx="163.7411" cy="83.3302" r="0.9000" /> 
</g>
<g style="fill:#FFFFFF; fill-opacity:1.0000; stroke:none;">
<circle cx="161.2011" cy="88.4102" r="0.8500" /> 
</g>
<g style="fill:#FFFFFF; fill-opacity:1.0000; stroke:none;">
<circle cx="163.7411" cy="88.4102" r="0.9000" /> 
</g>
<g style="fill:#FFFFFF; fill-opacity:1.0000; stroke:none;">
<circle cx="161.2011" cy="93.4902" r="0.8500" /> 
</g>
<g style="fill:#FFFFFF; fill-opacity:1.0000; stroke:none;">
<circle cx="163.7411" cy="93.4902" r="0.9000" /> 
</g>
<g style="fill:#FFFFFF; fill-opacity:1.0000; stroke:none;">
<circle cx="161.2011" cy="98.5702" r="0.8500" /> 
</g>
<g style="fill:#FFFFFF; fill-opacity:1.0000; stroke:none;">
<circle cx="163.7411" cy="98.5702" r="0.9000" /> 
</g>
<g style="fill:#FFFFFF; fill-opacity:1.0000; stroke:none;">
<circle cx="161.2011" cy="103.6502" r="0.8500" /> 
</g>
<g style="fill:#FFFFFF; fill-opacity:1.0000; stroke:none;">
<circle cx="163.7411" cy="103.6502" r="0.9000" /> 
</g>
<g style="fill:#FFFFFF; fill-opacity:1.0000; stroke:none;">
<circle cx="161.2011" cy="108.7302" r="0.8500" /> 
</g>
<g style="fill:#FFFFFF; fill-opacity:1.0000; stroke:none;">
<circle cx="163.7411" cy="108.7302" r="0.9000" /> 
</g>
<g style="fill:#FFFFFF; fill-opacity:1.0000; stroke:none;">
<circle cx="161.2011" cy="113.8102" r="0.8500" /> 
</g>
<g style="fill:#FFFFFF; fill-opacity:1.0000; stroke:none;">
<circle cx="163.7411" cy="113.8102" r="0.9000" /> 
</g>
<g style="fill:#FFFFFF; fill-opacity:1.0000; stroke:none;">
<circle cx="161.2011" cy="118.8902" r="0.8500" /> 
</g>
<g style="fill:#FFFFFF; fill-opacity:1.0000; stroke:none;">
<circle cx="163.7411" cy="118.8902" r="0.9000" /> 
</g>
<g style="fill:#FFFFFF; fill-opacity:1.0000; stroke:none;">
<circle cx="161.2011" cy="123.9702" r="0.8500" /> 
</g>
<g style="fill:#FFFFFF; fill-opacity:1.0000; stroke:none;">
<circle cx="163.7411" cy="123.9702" r="0.9000" /> 
</g> 
</svg>
