<?xml version='1.0' encoding='ASCII' standalone='yes'?>
<svg xmlns="http://www.w3.org/2000/svg" version="1.1" width="297.0022mm" height="210.0072mm" viewBox="0.0000 0.0000 297.0022 210.0072">
            <title>Picture generated by PcbDraw </title>
            <desc>Picture generated by PcbDraw</desc>
        <defs><clipPath id="cut-off"><path d="M143.5100 97.7900 L143.5100 67.2900 M 158.75 67.29 L 158.75 97.79 L 143.51 97.79 L 143.51 67.29 L 158.75 67.29 " style="fill-rule: evenodd;"/></clipPath><mask id="pads-mask-silkscreen"><rect x="143.46" y="67.265" width="15.340001" height="39.543422" fill="white"/><g style="fill:#000000; fill-opacity:1.0000;stroke:#000000; stroke-opacity:1.0000; stroke-linecap:round; stroke-linejoin:round;" transform="translate(0 0) scale(1 1)">
<path style="fill:#000000; fill-opacity:1.0000; stroke:none;fill-rule:evenodd;" d="M 159.5882,67.7418 159.5882,69.4182 157.9118,69.4182 157.9118,67.7418 Z"/> 
<path style="fill:#000000; fill-opacity:1.0000; stroke:none;fill-rule:evenodd;" d="M 158.7500,69.4182 157.4660,69.4182 157.2913,69.3835 157.1276,69.3131 156.9821,69.2102 156.8613,69.0792 156.7703,68.9260 156.7132,68.7571 156.6926,68.5807 156.6926,68.5794 156.7092,68.4015 156.7641,68.2305 156.8545,68.0755 156.9763,67.9435 157.1236,67.8410 157.2896,67.7727 157.4662,67.7418 158.7500,67.7418 Z"/> 
<path style="fill:#000000; fill-opacity:1.0000; stroke:none;fill-rule:evenodd;" d="M 159.5882,70.2818 159.5882,71.9582 157.9118,71.9582 157.9118,70.2818 Z"/> 
<path style="fill:#000000; fill-opacity:1.0000; stroke:none;fill-rule:evenodd;" d="M 158.7500,71.9582 157.4660,71.9582 157.2913,71.9235 157.1276,71.8531 156.9821,71.7502 156.8613,71.6192 156.7703,71.4660 156.7132,71.2972 156.6926,71.1207 156.6926,71.1194 156.7092,70.9415 156.7641,70.7705 156.8545,70.6155 156.9763,70.4835 157.1236,70.3810 157.2896,70.3127 157.4662,70.2818 158.7500,70.2818 Z"/> 
<path style="fill:#000000; fill-opacity:1.0000; stroke:none;fill-rule:evenodd;" d="M 159.5882,72.8218 159.5882,74.4982 157.9118,74.4982 157.9118,72.8218 Z"/> 
<path style="fill:#000000; fill-opacity:1.0000; stroke:none;fill-rule:evenodd;" d="M 158.7500,74.4982 157.4660,74.4982 157.2913,74.4635 157.1276,74.3931 156.9821,74.2902 156.8613,74.1592 156.7703,74.0060 156.7132,73.8371 156.6926,73.6607 156.6926,73.6594 156.7092,73.4815 156.7641,73.3105 156.8545,73.1555 156.9763,73.0235 157.1236,72.9210 157.2896,72.8527 157.4662,72.8218 158.7500,72.8218 Z"/> 
<path style="fill:#000000; fill-opacity:1.0000; stroke:none;fill-rule:evenodd;" d="M 159.5882,75.3618 159.5882,77.0382 157.9118,77.0382 157.9118,75.3618 Z"/> 
<path style="fill:#000000; fill-opacity:1.0000; stroke:none;fill-rule:evenodd;" d="M 158.7500,77.0382 157.4660,77.0382 157.2913,77.0035 157.1276,76.9331 156.9821,76.8302 156.8613,76.6992 156.7703,76.5460 156.7132,76.3772 156.6926,76.2007 156.6926,76.1994 156.7092,76.0215 156.7641,75.8505 156.8545,75.6955 156.9763,75.5635 157.1236,75.4610 157.2896,75.3927 157.4662,75.3618 158.7500,75.3618 Z"/> 
<path style="fill:#000000; fill-opacity:1.0000; stroke:none;fill-rule:evenodd;" d="M 159.5882,77.9018 159.5882,79.5782 157.9118,79.5782 157.9118,77.9018 Z"/> 
<path style="fill:#000000; fill-opacity:1.0000; stroke:none;fill-rule:evenodd;" d="M 158.7500,79.5782 157.4660,79.5782 157.2913,79.5435 157.1276,79.4731 156.9821,79.3702 156.8613,79.2392 156.7703,79.0860 156.7132,78.9171 156.6926,78.7407 156.6926,78.7394 156.7092,78.5615 156.7641,78.3905 156.8545,78.2355 156.9763,78.1035 157.1236,78.0010 157.2896,77.9327 157.4662,77.9018 158.7500,77.9018 Z"/> 
<path style="fill:#000000; fill-opacity:1.0000; stroke:none;fill-rule:evenodd;" d="M 159.5882,80.4418 159.5882,82.1182 157.9118,82.1182 157.9118,80.4418 Z"/> 
<path style="fill:#000000; fill-opacity:1.0000; stroke:none;fill-rule:evenodd;" d="M 158.7500,82.1182 157.4660,82.1182 157.2913,82.0835 157.1276,82.0131 156.9821,81.9102 156.8613,81.7792 156.7703,81.6260 156.7132,81.4571 156.6926,81.2807 156.6926,81.2794 156.7092,81.1015 156.7641,80.9305 156.8545,80.7755 156.9763,80.6435 157.1236,80.5410 157.2896,80.4727 157.4662,80.4418 158.7500,80.4418 Z"/> 
<path style="fill:#000000; fill-opacity:1.0000; stroke:none;fill-rule:evenodd;" d="M 159.5882,82.9818 159.5882,84.6582 157.9118,84.6582 157.9118,82.9818 Z"/> 
<path style="fill:#000000; fill-opacity:1.0000; stroke:none;fill-rule:evenodd;" d="M 158.7500,84.6582 157.4660,84.6582 157.2913,84.6235 157.1276,84.5531 156.9821,84.4502 156.8613,84.3192 156.7703,84.1660 156.7132,83.9971 156.6926,83.8207 156.6926,83.8194 156.7092,83.6415 156.7641,83.4705 156.8545,83.3155 156.9763,83.1835 157.1236,83.0810 157.2896,83.0127 157.4662,82.9818 158.7500,82.9818 Z"/> 
<path style="fill:#000000; fill-opacity:1.0000; stroke:none;fill-rule:evenodd;" d="M 159.5882,85.5218 159.5882,87.1982 157.9118,87.1982 157.9118,85.5218 Z"/> 
<path style="fill:#000000; fill-opacity:1.0000; stroke:none;fill-rule:evenodd;" d="M 158.7500,87.1982 157.4660,87.1982 157.2913,87.1635 157.1276,87.0931 156.9821,86.9902 156.8613,86.8592 156.7703,86.7060 156.7132,86.5371 156.6926,86.3607 156.6926,86.3594 156.7092,86.1815 156.7641,86.0105 156.8545,85.8555 156.9763,85.7235 157.1236,85.6210 157.2896,85.5527 157.4662,85.5218 158.7500,85.5218 Z"/> 
<path style="fill:#000000; fill-opacity:1.0000; stroke:none;fill-rule:evenodd;" d="M 159.5882,88.0618 159.5882,89.7382 157.9118,89.7382 157.9118,88.0618 Z"/> 
<path style="fill:#000000; fill-opacity:1.0000; stroke:none;fill-rule:evenodd;" d="M 158.7500,89.7382 157.4660,89.7382 157.2913,89.7035 157.1276,89.6331 156.9821,89.5302 156.8613,89.3992 156.7703,89.2460 156.7132,89.0771 156.6926,88.9007 156.6926,88.8994 156.7092,88.7215 156.7641,88.5505 156.8545,88.3955 156.9763,88.2635 157.1236,88.1610 157.2896,88.0927 157.4662,88.0618 158.7500,88.0618 Z"/> 
<path style="fill:#000000; fill-opacity:1.0000; stroke:none;fill-rule:evenodd;" d="M 159.5882,90.6018 159.5882,92.2782 157.9118,92.2782 157.9118,90.6018 Z"/> 
<path style="fill:#000000; fill-opacity:1.0000; stroke:none;fill-rule:evenodd;" d="M 158.7500,92.2782 157.4660,92.2782 157.2913,92.2435 157.1276,92.1731 156.9821,92.0702 156.8613,91.9392 156.7703,91.7860 156.7132,91.6171 156.6926,91.4407 156.6926,91.4394 156.7092,91.2615 156.7641,91.0905 156.8545,90.9355 156.9763,90.8035 157.1236,90.7010 157.2896,90.6327 157.4662,90.6018 158.7500,90.6018 Z"/> 
<path style="fill:#000000; fill-opacity:1.0000; stroke:none;fill-rule:evenodd;" d="M 159.5882,93.1418 159.5882,94.8182 157.9118,94.8182 157.9118,93.1418 Z"/> 
<path style="fill:#000000; fill-opacity:1.0000; stroke:none;fill-rule:evenodd;" d="M 158.7500,94.8182 157.4660,94.8182 157.2913,94.7835 157.1276,94.7131 156.9821,94.6102 156.8613,94.4792 156.7703,94.3260 156.7132,94.1572 156.6926,93.9807 156.6926,93.9794 156.7092,93.8015 156.7641,93.6305 156.8545,93.4755 156.9763,93.3435 157.1236,93.2410 157.2896,93.1727 157.4662,93.1418 158.7500,93.1418 Z"/> 
<path style="fill:#000000; fill-opacity:1.0000; stroke:none;fill-rule:evenodd;" d="M 159.5882,95.6818 159.5882,97.3582 157.9118,97.3582 157.9118,95.6818 Z"/> 
<path style="fill:#000000; fill-opacity:1.0000; stroke:none;fill-rule:evenodd;" d="M 158.7500,97.3582 157.4660,97.3582 157.2913,97.3235 157.1276,97.2531 156.9821,97.1502 156.8613,97.0192 156.7703,96.8660 156.7132,96.6971 156.6926,96.5207 156.6926,96.5194 156.7092,96.3415 156.7641,96.1705 156.8545,96.0155 156.9763,95.8835 157.1236,95.7810 157.2896,95.7127 157.4662,95.6818 158.7500,95.6818 Z"/> 
<path style="fill:#000000; fill-opacity:1.0000; stroke:none;fill-rule:evenodd;" d="M 143.5100,67.7418 144.7938,67.7418 144.9704,67.7727 145.1364,67.8410 145.2837,67.9435 145.4055,68.0755 145.4959,68.2305 145.5508,68.4015 145.5674,68.5794 145.5674,68.5807 145.5468,68.7571 145.4897,68.9260 145.3987,69.0792 145.2779,69.2102 145.1324,69.3131 144.9687,69.3835 144.7940,69.4182 143.5100,69.4182 Z"/> 
<path style="fill:#000000; fill-opacity:1.0000; stroke:none;fill-rule:evenodd;" d="M 142.6718,69.4182 142.6718,67.7418 144.3482,67.7418 144.3482,69.4182 Z"/> 
<path style="fill:#000000; fill-opacity:1.0000; stroke:none;fill-rule:evenodd;" d="M 143.5100,70.2818 144.7938,70.2818 144.9704,70.3127 145.1364,70.3810 145.2837,70.4835 145.4055,70.6155 145.4959,70.7705 145.5508,70.9415 145.5674,71.1194 145.5674,71.1207 145.5468,71.2972 145.4897,71.4660 145.3987,71.6192 145.2779,71.7502 145.1324,71.8531 144.9687,71.9235 144.7940,71.9582 143.5100,71.9582 Z"/> 
<path style="fill:#000000; fill-opacity:1.0000; stroke:none;fill-rule:evenodd;" d="M 142.6718,71.9582 142.6718,70.2818 144.3482,70.2818 144.3482,71.9582 Z"/> 
<path style="fill:#000000; fill-opacity:1.0000; stroke:none;fill-rule:evenodd;" d="M 143.5100,72.8218 144.7938,72.8218 144.9704,72.8527 145.1364,72.9210 145.2837,73.0235 145.4055,73.1555 145.4959,73.3105 145.5508,73.4815 145.5674,73.6594 145.5674,73.6607 145.5468,73.8371 145.4897,74.0060 145.3987,74.1592 145.2779,74.2902 145.1324,74.3931 144.9687,74.4635 144.7940,74.4982 143.5100,74.4982 Z"/> 
<path style="fill:#000000; fill-opacity:1.0000; stroke:none;fill-rule:evenodd;" d="M 142.6718,74.4982 142.6718,72.8218 144.3482,72.8218 144.3482,74.4982 Z"/> 
<path style="fill:#000000; fill-opacity:1.0000; stroke:none;fill-rule:evenodd;" d="M 143.5100,75.3618 144.7938,75.3618 144.9704,75.3927 145.1364,75.4610 145.2837,75.5635 145.4055,75.6955 145.4959,75.8505 145.5508,76.0215 145.5674,76.1994 145.5674,76.2007 145.5468,76.3772 145.4897,76.5460 145.3987,76.6992 145.2779,76.8302 145.1324,76.9331 144.9687,77.0035 144.7940,77.0382 143.5100,77.0382 Z"/> 
<path style="fill:#000000; fill-opacity:1.0000; stroke:none;fill-rule:evenodd;" d="M 142.6718,77.0382 142.6718,75.3618 144.3482,75.3618 144.3482,77.0382 Z"/> 
<path style="fill:#000000; fill-opacity:1.0000; stroke:none;fill-rule:evenodd;" d="M 143.5100,77.9018 144.7938,77.9018 144.9704,77.9327 145.1364,78.0010 145.2837,78.1035 145.4055,78.2355 145.4959,78.3905 145.5508,78.5615 145.5674,78.7394 145.5674,78.7407 145.5468,78.9171 145.4897,79.0860 145.3987,79.2392 145.2779,79.3702 145.1324,79.4731 144.9687,79.5435 144.7940,79.5782 143.5100,79.5782 Z"/> 
<path style="fill:#000000; fill-opacity:1.0000; stroke:none;fill-rule:evenodd;" d="M 142.6718,79.5782 142.6718,77.9018 144.3482,77.9018 144.3482,79.5782 Z"/> 
<path style="fill:#000000; fill-opacity:1.0000; stroke:none;fill-rule:evenodd;" d="M 143.5100,80.4418 144.7938,80.4418 144.9704,80.4727 145.1364,80.5410 145.2837,80.6435 145.4055,80.7755 145.4959,80.9305 145.5508,81.1015 145.5674,81.2794 145.5674,81.2807 145.5468,81.4571 145.4897,81.6260 145.3987,81.7792 145.2779,81.9102 145.1324,82.0131 144.9687,82.0835 144.7940,82.1182 143.5100,82.1182 Z"/> 
<path style="fill:#000000; fill-opacity:1.0000; stroke:none;fill-rule:evenodd;" d="M 142.6718,82.1182 142.6718,80.4418 144.3482,80.4418 144.3482,82.1182 Z"/> 
<path style="fill:#000000; fill-opacity:1.0000; stroke:none;fill-rule:evenodd;" d="M 143.5100,82.9818 144.7938,82.9818 144.9704,83.0127 145.1364,83.0810 145.2837,83.1835 145.4055,83.3155 145.4959,83.4705 145.5508,83.6415 145.5674,83.8194 145.5674,83.8207 145.5468,83.9971 145.4897,84.1660 145.3987,84.3192 145.2779,84.4502 145.1324,84.5531 144.9687,84.6235 144.7940,84.6582 143.5100,84.6582 Z"/> 
<path style="fill:#000000; fill-opacity:1.0000; stroke:none;fill-rule:evenodd;" d="M 142.6718,84.6582 142.6718,82.9818 144.3482,82.9818 144.3482,84.6582 Z"/> 
<path style="fill:#000000; fill-opacity:1.0000; stroke:none;fill-rule:evenodd;" d="M 143.5100,85.5218 144.7938,85.5218 144.9704,85.5527 145.1364,85.6210 145.2837,85.7235 145.4055,85.8555 145.4959,86.0105 145.5508,86.1815 145.5674,86.3594 145.5674,86.3607 145.5468,86.5371 145.4897,86.7060 145.3987,86.8592 145.2779,86.9902 145.1324,87.0931 144.9687,87.1635 144.7940,87.1982 143.5100,87.1982 Z"/> 
<path style="fill:#000000; fill-opacity:1.0000; stroke:none;fill-rule:evenodd;" d="M 142.6718,87.1982 142.6718,85.5218 144.3482,85.5218 144.3482,87.1982 Z"/> 
<path style="fill:#000000; fill-opacity:1.0000; stroke:none;fill-rule:evenodd;" d="M 143.5100,88.0618 144.7938,88.0618 144.9704,88.0927 145.1364,88.1610 145.2837,88.2635 145.4055,88.3955 145.4959,88.5505 145.5508,88.7215 145.5674,88.8994 145.5674,88.9007 145.5468,89.0771 145.4897,89.2460 145.3987,89.3992 145.2779,89.5302 145.1324,89.6331 144.9687,89.7035 144.7940,89.7382 143.5100,89.7382 Z"/> 
<path style="fill:#000000; fill-opacity:1.0000; stroke:none;fill-rule:evenodd;" d="M 142.6718,89.7382 142.6718,88.0618 144.3482,88.0618 144.3482,89.7382 Z"/> 
<path style="fill:#000000; fill-opacity:1.0000; stroke:none;fill-rule:evenodd;" d="M 143.5100,90.6018 144.7938,90.6018 144.9704,90.6327 145.1364,90.7010 145.2837,90.8035 145.4055,90.9355 145.4959,91.0905 145.5508,91.2615 145.5674,91.4394 145.5674,91.4407 145.5468,91.6171 145.4897,91.7860 145.3987,91.9392 145.2779,92.0702 145.1324,92.1731 144.9687,92.2435 144.7940,92.2782 143.5100,92.2782 Z"/> 
<path style="fill:#000000; fill-opacity:1.0000; stroke:none;fill-rule:evenodd;" d="M 142.6718,92.2782 142.6718,90.6018 144.3482,90.6018 144.3482,92.2782 Z"/> 
<path style="fill:#000000; fill-opacity:1.0000; stroke:none;fill-rule:evenodd;" d="M 143.5100,93.1418 144.7938,93.1418 144.9704,93.1727 145.1364,93.2410 145.2837,93.3435 145.4055,93.4755 145.4959,93.6305 145.5508,93.8015 145.5674,93.9794 145.5674,93.9807 145.5468,94.1572 145.4897,94.3260 145.3987,94.4792 145.2779,94.6102 145.1324,94.7131 144.9687,94.7835 144.7940,94.8182 143.5100,94.8182 Z"/> 
<path style="fill:#000000; fill-opacity:1.0000; stroke:none;fill-rule:evenodd;" d="M 142.6718,94.8182 142.6718,93.1418 144.3482,93.1418 144.3482,94.8182 Z"/> 
<path style="fill:#000000; fill-opacity:1.0000; stroke:none;fill-rule:evenodd;" d="M 143.5100,95.6818 144.7938,95.6818 144.9704,95.7127 145.1364,95.7810 145.2837,95.8835 145.4055,96.0155 145.4959,96.1705 145.5508,96.3415 145.5674,96.5194 145.5674,96.5207 145.5468,96.6971 145.4897,96.8660 145.3987,97.0192 145.2779,97.1502 145.1324,97.2531 144.9687,97.3235 144.7940,97.3582 143.5100,97.3582 Z"/> 
<path style="fill:#000000; fill-opacity:1.0000; stroke:none;fill-rule:evenodd;" d="M 142.6718,97.3582 142.6718,95.6818 144.3482,95.6818 144.3482,97.3582 Z"/> 
</g> 
</mask></defs><g transform="scale(-2.0,2.0) translate(-225.38055,-34.534910999999994)" id="boardContainer"><g id="substrate" clip-path="url(#cut-off)" mask="url(#pads-mask-silkscreen)"><g id="substrate-board" style="fill:#143324; fill-opacity:0.25098039215686274; stroke:#143324; stroke-width:0;"><path d="M143.5100 97.7900 L143.5100 67.2900 M 158.75 67.29 L 158.75 97.79 L 143.51 97.79 L 143.51 67.29 L 158.75 67.29 " style="fill-rule: evenodd;"/><g style="fill: #4ca06c;fill-opacity: 1.0000;stroke: #4ca06c;stroke-opacity: 1.0000;stroke-linecap: round;stroke-linejoin: round" transform="translate(0 0) scale(1 1)">
<path style="fill: none;stroke: #4ca06c;stroke-width: 0.0500;stroke-opacity: 1;stroke-linecap: round;stroke-linejoin: round" d="M 143.5100,67.2900 158.7500,67.2900 158.7500,97.7900 143.5100,97.7900 Z"/> 
</g> 
</g></g></g></svg>
