<?xml version="1.0" standalone="no"?>
 <!DOCTYPE svg PUBLIC "-//W3C//DTD SVG 1.1//EN" 
 "http://www.w3.org/Graphics/SVG/1.1/DTD/svg11.dtd"> 
<svg
  xmlns:svg="http://www.w3.org/2000/svg"
  xmlns="http://www.w3.org/2000/svg"
  xmlns:xlink="http://www.w3.org/1999/xlink"
  version="1.1"
  width="297.0022mm" height="210.0072mm" viewBox="0.0000 0.0000 297.0022 210.0072">
<title>SVG Image created as txe8116-module-F_Fab3.svg date 2026/03/24 20:18:09 </title>
  <desc>Image generated by PCBNEW </desc>
<g style="fill:#000000; fill-opacity:1.0000;stroke:#000000; stroke-opacity:1.0000;
stroke-linecap:round; stroke-linejoin:round;"
 transform="translate(0 0) scale(1 1)">
</g>
<g style="fill:none; 
stroke:#000000; stroke-width:0.3000; stroke-opacity:1; 
stroke-linecap:round; stroke-linejoin:round;">
<g transform="rotate(-90.000000 144.6411 77.8302)">
<text x="144.6411" y="78.8302"
textLength="6.1190" font-size="2.6667" lengthAdjust="spacingAndGlyphs"
text-anchor="middle" opacity="0" stroke-opacity="0">4u7</text>
</g>
<g class="stroked-text"><desc>4u7</desc>
<path d="M144.2174 79.3064
L145.5507 79.3064
" />
<path d="M143.4555 79.7826
L144.8841 80.2587
" />
<path d="M144.8841 80.2587
L144.8841 79.0207
" />
<path d="M144.2174 77.4016
L145.5507 77.4016
" />
<path d="M144.2174 78.2587
L145.2650 78.2587
" />
<path d="M145.2650 78.2587
L145.4555 78.1635
" />
<path d="M145.4555 78.1635
L145.5507 77.9730
" />
<path d="M145.5507 77.9730
L145.5507 77.6873
" />
<path d="M145.5507 77.6873
L145.4555 77.4968
" />
<path d="M145.4555 77.4968
L145.3603 77.4016
" />
<path d="M143.5507 76.6397
L143.5507 75.3064
" />
<path d="M143.5507 75.3064
L145.5507 76.1635
" />
</g></g>
<g style="fill:none; 
stroke:#000000; stroke-width:0.1200; stroke-opacity:1; 
stroke-linecap:round; stroke-linejoin:round;">
<g transform="rotate(-90.000000 144.6411 83.6802)">
<text x="144.6411" y="84.0802"
textLength="1.7619" font-size="1.0667" lengthAdjust="spacingAndGlyphs"
text-anchor="middle" opacity="0" stroke-opacity="0">C4</text>
</g>
<g class="stroked-text"><desc>C4</desc>
<path d="M144.9288 83.8135
L144.9669 83.8516
" />
<path d="M144.9669 83.8516
L145.0050 83.9659
" />
<path d="M145.0050 83.9659
L145.0050 84.0421
" />
<path d="M145.0050 84.0421
L144.9669 84.1564
" />
<path d="M144.9669 84.1564
L144.8907 84.2326
" />
<path d="M144.8907 84.2326
L144.8145 84.2707
" />
<path d="M144.8145 84.2707
L144.6621 84.3087
" />
<path d="M144.6621 84.3087
L144.5478 84.3087
" />
<path d="M144.5478 84.3087
L144.3954 84.2707
" />
<path d="M144.3954 84.2707
L144.3192 84.2326
" />
<path d="M144.3192 84.2326
L144.2430 84.1564
" />
<path d="M144.2430 84.1564
L144.2050 84.0421
" />
<path d="M144.2050 84.0421
L144.2050 83.9659
" />
<path d="M144.2050 83.9659
L144.2430 83.8516
" />
<path d="M144.2430 83.8516
L144.2811 83.8135
" />
<path d="M144.4716 83.1278
L145.0050 83.1278
" />
<path d="M144.1669 83.3183
L144.7383 83.5087
" />
<path d="M144.7383 83.5087
L144.7383 83.0135
" />
</g></g>
<g style="fill:none; 
stroke:#000000; stroke-width:0.3000; stroke-opacity:1; 
stroke-linecap:round; stroke-linejoin:round;">
<text x="157.0911" y="86.7302"
textLength="6.3095" font-size="2.6667" lengthAdjust="spacingAndGlyphs"
text-anchor="middle" opacity="0" stroke-opacity="0">D16</text>
<g class="stroked-text"><desc>D16</desc>
<path d="M154.6625 86.6398
L154.6625 84.6398
" />
<path d="M154.6625 84.6398
L155.1387 84.6398
" />
<path d="M155.1387 84.6398
L155.4244 84.7351
" />
<path d="M155.4244 84.7351
L155.6149 84.9255
" />
<path d="M155.6149 84.9255
L155.7101 85.1160
" />
<path d="M155.7101 85.1160
L155.8054 85.4970
" />
<path d="M155.8054 85.4970
L155.8054 85.7827
" />
<path d="M155.8054 85.7827
L155.7101 86.1636
" />
<path d="M155.7101 86.1636
L155.6149 86.3541
" />
<path d="M155.6149 86.3541
L155.4244 86.5446
" />
<path d="M155.4244 86.5446
L155.1387 86.6398
" />
<path d="M155.1387 86.6398
L154.6625 86.6398
" />
<path d="M157.7101 86.6398
L156.5673 86.6398
" />
<path d="M157.1387 86.6398
L157.1387 84.6398
" />
<path d="M157.1387 84.6398
L156.9482 84.9255
" />
<path d="M156.9482 84.9255
L156.7578 85.1160
" />
<path d="M156.7578 85.1160
L156.5673 85.2112
" />
<path d="M159.4244 84.6398
L159.0435 84.6398
" />
<path d="M159.0435 84.6398
L158.8530 84.7351
" />
<path d="M158.8530 84.7351
L158.7578 84.8303
" />
<path d="M158.7578 84.8303
L158.5673 85.1160
" />
<path d="M158.5673 85.1160
L158.4721 85.4970
" />
<path d="M158.4721 85.4970
L158.4721 86.2589
" />
<path d="M158.4721 86.2589
L158.5673 86.4493
" />
<path d="M158.5673 86.4493
L158.6625 86.5446
" />
<path d="M158.6625 86.5446
L158.8530 86.6398
" />
<path d="M158.8530 86.6398
L159.2340 86.6398
" />
<path d="M159.2340 86.6398
L159.4244 86.5446
" />
<path d="M159.4244 86.5446
L159.5197 86.4493
" />
<path d="M159.5197 86.4493
L159.6149 86.2589
" />
<path d="M159.6149 86.2589
L159.6149 85.7827
" />
<path d="M159.6149 85.7827
L159.5197 85.5922
" />
<path d="M159.5197 85.5922
L159.4244 85.4970
" />
<path d="M159.4244 85.4970
L159.2340 85.4017
" />
<path d="M159.2340 85.4017
L158.8530 85.4017
" />
<path d="M158.8530 85.4017
L158.6625 85.4970
" />
<path d="M158.6625 85.4970
L158.5673 85.5922
" />
<path d="M158.5673 85.5922
L158.4721 85.7827
" />
</g><text x="139.8911" y="71.7802"
textLength="4.4048" font-size="2.6667" lengthAdjust="spacingAndGlyphs"
text-anchor="middle" opacity="0" stroke-opacity="0">D2</text>
<g class="stroked-text"><desc>D2</desc>
<path d="M138.4149 71.6898
L138.4149 69.6898
" />
<path d="M138.4149 69.6898
L138.8911 69.6898
" />
<path d="M138.8911 69.6898
L139.1768 69.7851
" />
<path d="M139.1768 69.7851
L139.3673 69.9755
" />
<path d="M139.3673 69.9755
L139.4625 70.1660
" />
<path d="M139.4625 70.1660
L139.5578 70.5470
" />
<path d="M139.5578 70.5470
L139.5578 70.8327
" />
<path d="M139.5578 70.8327
L139.4625 71.2136
" />
<path d="M139.4625 71.2136
L139.3673 71.4041
" />
<path d="M139.3673 71.4041
L139.1768 71.5946
" />
<path d="M139.1768 71.5946
L138.8911 71.6898
" />
<path d="M138.8911 71.6898
L138.4149 71.6898
" />
<path d="M140.3197 69.8803
L140.4149 69.7851
" />
<path d="M140.4149 69.7851
L140.6054 69.6898
" />
<path d="M140.6054 69.6898
L141.0816 69.6898
" />
<path d="M141.0816 69.6898
L141.2721 69.7851
" />
<path d="M141.2721 69.7851
L141.3673 69.8803
" />
<path d="M141.3673 69.8803
L141.4625 70.0708
" />
<path d="M141.4625 70.0708
L141.4625 70.2612
" />
<path d="M141.4625 70.2612
L141.3673 70.5470
" />
<path d="M141.3673 70.5470
L140.2244 71.6898
" />
<path d="M140.2244 71.6898
L141.4625 71.6898
" />
</g><text x="139.8911" y="97.1802"
textLength="4.4048" font-size="2.6667" lengthAdjust="spacingAndGlyphs"
text-anchor="middle" opacity="0" stroke-opacity="0">D7</text>
<g class="stroked-text"><desc>D7</desc>
<path d="M138.4149 97.0898
L138.4149 95.0898
" />
<path d="M138.4149 95.0898
L138.8911 95.0898
" />
<path d="M138.8911 95.0898
L139.1768 95.1851
" />
<path d="M139.1768 95.1851
L139.3673 95.3755
" />
<path d="M139.3673 95.3755
L139.4625 95.5660
" />
<path d="M139.4625 95.5660
L139.5578 95.9470
" />
<path d="M139.5578 95.9470
L139.5578 96.2327
" />
<path d="M139.5578 96.2327
L139.4625 96.6136
" />
<path d="M139.4625 96.6136
L139.3673 96.8041
" />
<path d="M139.3673 96.8041
L139.1768 96.9946
" />
<path d="M139.1768 96.9946
L138.8911 97.0898
" />
<path d="M138.8911 97.0898
L138.4149 97.0898
" />
<path d="M140.2244 95.0898
L141.5578 95.0898
" />
<path d="M141.5578 95.0898
L140.7006 97.0898
" />
</g><text x="157.1411" y="76.5802"
textLength="6.3095" font-size="2.6667" lengthAdjust="spacingAndGlyphs"
text-anchor="middle" opacity="0" stroke-opacity="0">D14</text>
<g class="stroked-text"><desc>D14</desc>
<path d="M154.7125 76.4898
L154.7125 74.4898
" />
<path d="M154.7125 74.4898
L155.1887 74.4898
" />
<path d="M155.1887 74.4898
L155.4744 74.5851
" />
<path d="M155.4744 74.5851
L155.6649 74.7755
" />
<path d="M155.6649 74.7755
L155.7601 74.9660
" />
<path d="M155.7601 74.9660
L155.8554 75.3470
" />
<path d="M155.8554 75.3470
L155.8554 75.6327
" />
<path d="M155.8554 75.6327
L155.7601 76.0136
" />
<path d="M155.7601 76.0136
L155.6649 76.2041
" />
<path d="M155.6649 76.2041
L155.4744 76.3946
" />
<path d="M155.4744 76.3946
L155.1887 76.4898
" />
<path d="M155.1887 76.4898
L154.7125 76.4898
" />
<path d="M157.7601 76.4898
L156.6173 76.4898
" />
<path d="M157.1887 76.4898
L157.1887 74.4898
" />
<path d="M157.1887 74.4898
L156.9982 74.7755
" />
<path d="M156.9982 74.7755
L156.8078 74.9660
" />
<path d="M156.8078 74.9660
L156.6173 75.0612
" />
<path d="M159.4744 75.1565
L159.4744 76.4898
" />
<path d="M158.9982 74.3946
L158.5221 75.8231
" />
<path d="M158.5221 75.8231
L159.7601 75.8231
" />
</g><text x="139.8911" y="87.0302"
textLength="4.4048" font-size="2.6667" lengthAdjust="spacingAndGlyphs"
text-anchor="middle" opacity="0" stroke-opacity="0">D5</text>
<g class="stroked-text"><desc>D5</desc>
<path d="M138.4149 86.9398
L138.4149 84.9398
" />
<path d="M138.4149 84.9398
L138.8911 84.9398
" />
<path d="M138.8911 84.9398
L139.1768 85.0351
" />
<path d="M139.1768 85.0351
L139.3673 85.2255
" />
<path d="M139.3673 85.2255
L139.4625 85.4160
" />
<path d="M139.4625 85.4160
L139.5578 85.7970
" />
<path d="M139.5578 85.7970
L139.5578 86.0827
" />
<path d="M139.5578 86.0827
L139.4625 86.4636
" />
<path d="M139.4625 86.4636
L139.3673 86.6541
" />
<path d="M139.3673 86.6541
L139.1768 86.8446
" />
<path d="M139.1768 86.8446
L138.8911 86.9398
" />
<path d="M138.8911 86.9398
L138.4149 86.9398
" />
<path d="M141.3673 84.9398
L140.4149 84.9398
" />
<path d="M140.4149 84.9398
L140.3197 85.8922
" />
<path d="M140.3197 85.8922
L140.4149 85.7970
" />
<path d="M140.4149 85.7970
L140.6054 85.7017
" />
<path d="M140.6054 85.7017
L141.0816 85.7017
" />
<path d="M141.0816 85.7017
L141.2721 85.7970
" />
<path d="M141.2721 85.7970
L141.3673 85.8922
" />
<path d="M141.3673 85.8922
L141.4625 86.0827
" />
<path d="M141.4625 86.0827
L141.4625 86.5589
" />
<path d="M141.4625 86.5589
L141.3673 86.7493
" />
<path d="M141.3673 86.7493
L141.2721 86.8446
" />
<path d="M141.2721 86.8446
L141.0816 86.9398
" />
<path d="M141.0816 86.9398
L140.6054 86.9398
" />
<path d="M140.6054 86.9398
L140.4149 86.8446
" />
<path d="M140.4149 86.8446
L140.3197 86.7493
" />
</g><text x="139.8911" y="107.3302"
textLength="4.4048" font-size="2.6667" lengthAdjust="spacingAndGlyphs"
text-anchor="middle" opacity="0" stroke-opacity="0">D9</text>
<g class="stroked-text"><desc>D9</desc>
<path d="M138.4149 107.2398
L138.4149 105.2398
" />
<path d="M138.4149 105.2398
L138.8911 105.2398
" />
<path d="M138.8911 105.2398
L139.1768 105.3351
" />
<path d="M139.1768 105.3351
L139.3673 105.5255
" />
<path d="M139.3673 105.5255
L139.4625 105.7160
" />
<path d="M139.4625 105.7160
L139.5578 106.0970
" />
<path d="M139.5578 106.0970
L139.5578 106.3827
" />
<path d="M139.5578 106.3827
L139.4625 106.7636
" />
<path d="M139.4625 106.7636
L139.3673 106.9541
" />
<path d="M139.3673 106.9541
L139.1768 107.1446
" />
<path d="M139.1768 107.1446
L138.8911 107.2398
" />
<path d="M138.8911 107.2398
L138.4149 107.2398
" />
<path d="M140.5101 107.2398
L140.8911 107.2398
" />
<path d="M140.8911 107.2398
L141.0816 107.1446
" />
<path d="M141.0816 107.1446
L141.1768 107.0493
" />
<path d="M141.1768 107.0493
L141.3673 106.7636
" />
<path d="M141.3673 106.7636
L141.4625 106.3827
" />
<path d="M141.4625 106.3827
L141.4625 105.6208
" />
<path d="M141.4625 105.6208
L141.3673 105.4303
" />
<path d="M141.3673 105.4303
L141.2721 105.3351
" />
<path d="M141.2721 105.3351
L141.0816 105.2398
" />
<path d="M141.0816 105.2398
L140.7006 105.2398
" />
<path d="M140.7006 105.2398
L140.5101 105.3351
" />
<path d="M140.5101 105.3351
L140.4149 105.4303
" />
<path d="M140.4149 105.4303
L140.3197 105.6208
" />
<path d="M140.3197 105.6208
L140.3197 106.0970
" />
<path d="M140.3197 106.0970
L140.4149 106.2874
" />
<path d="M140.4149 106.2874
L140.5101 106.3827
" />
<path d="M140.5101 106.3827
L140.7006 106.4779
" />
<path d="M140.7006 106.4779
L141.0816 106.4779
" />
<path d="M141.0816 106.4779
L141.2721 106.3827
" />
<path d="M141.2721 106.3827
L141.3673 106.2874
" />
<path d="M141.3673 106.2874
L141.4625 106.0970
" />
</g><text x="157.1411" y="117.2302"
textLength="6.3095" font-size="2.6667" lengthAdjust="spacingAndGlyphs"
text-anchor="middle" opacity="0" stroke-opacity="0">D22</text>
<g class="stroked-text"><desc>D22</desc>
<path d="M154.7125 117.1398
L154.7125 115.1398
" />
<path d="M154.7125 115.1398
L155.1887 115.1398
" />
<path d="M155.1887 115.1398
L155.4744 115.2351
" />
<path d="M155.4744 115.2351
L155.6649 115.4255
" />
<path d="M155.6649 115.4255
L155.7601 115.6160
" />
<path d="M155.7601 115.6160
L155.8554 115.9970
" />
<path d="M155.8554 115.9970
L155.8554 116.2827
" />
<path d="M155.8554 116.2827
L155.7601 116.6636
" />
<path d="M155.7601 116.6636
L155.6649 116.8541
" />
<path d="M155.6649 116.8541
L155.4744 117.0446
" />
<path d="M155.4744 117.0446
L155.1887 117.1398
" />
<path d="M155.1887 117.1398
L154.7125 117.1398
" />
<path d="M156.6173 115.3303
L156.7125 115.2351
" />
<path d="M156.7125 115.2351
L156.9030 115.1398
" />
<path d="M156.9030 115.1398
L157.3792 115.1398
" />
<path d="M157.3792 115.1398
L157.5697 115.2351
" />
<path d="M157.5697 115.2351
L157.6649 115.3303
" />
<path d="M157.6649 115.3303
L157.7601 115.5208
" />
<path d="M157.7601 115.5208
L157.7601 115.7112
" />
<path d="M157.7601 115.7112
L157.6649 115.9970
" />
<path d="M157.6649 115.9970
L156.5221 117.1398
" />
<path d="M156.5221 117.1398
L157.7601 117.1398
" />
<path d="M158.5221 115.3303
L158.6173 115.2351
" />
<path d="M158.6173 115.2351
L158.8078 115.1398
" />
<path d="M158.8078 115.1398
L159.2840 115.1398
" />
<path d="M159.2840 115.1398
L159.4744 115.2351
" />
<path d="M159.4744 115.2351
L159.5697 115.3303
" />
<path d="M159.5697 115.3303
L159.6649 115.5208
" />
<path d="M159.6649 115.5208
L159.6649 115.7112
" />
<path d="M159.6649 115.7112
L159.5697 115.9970
" />
<path d="M159.5697 115.9970
L158.4268 117.1398
" />
<path d="M158.4268 117.1398
L159.6649 117.1398
" />
</g><text x="139.8911" y="122.5802"
textLength="6.3095" font-size="2.6667" lengthAdjust="spacingAndGlyphs"
text-anchor="middle" opacity="0" stroke-opacity="0">D12</text>
<g class="stroked-text"><desc>D12</desc>
<path d="M137.4625 122.4898
L137.4625 120.4898
" />
<path d="M137.4625 120.4898
L137.9387 120.4898
" />
<path d="M137.9387 120.4898
L138.2244 120.5851
" />
<path d="M138.2244 120.5851
L138.4149 120.7755
" />
<path d="M138.4149 120.7755
L138.5101 120.9660
" />
<path d="M138.5101 120.9660
L138.6054 121.3470
" />
<path d="M138.6054 121.3470
L138.6054 121.6327
" />
<path d="M138.6054 121.6327
L138.5101 122.0136
" />
<path d="M138.5101 122.0136
L138.4149 122.2041
" />
<path d="M138.4149 122.2041
L138.2244 122.3946
" />
<path d="M138.2244 122.3946
L137.9387 122.4898
" />
<path d="M137.9387 122.4898
L137.4625 122.4898
" />
<path d="M140.5101 122.4898
L139.3673 122.4898
" />
<path d="M139.9387 122.4898
L139.9387 120.4898
" />
<path d="M139.9387 120.4898
L139.7482 120.7755
" />
<path d="M139.7482 120.7755
L139.5578 120.9660
" />
<path d="M139.5578 120.9660
L139.3673 121.0612
" />
<path d="M141.2721 120.6803
L141.3673 120.5851
" />
<path d="M141.3673 120.5851
L141.5578 120.4898
" />
<path d="M141.5578 120.4898
L142.0340 120.4898
" />
<path d="M142.0340 120.4898
L142.2244 120.5851
" />
<path d="M142.2244 120.5851
L142.3197 120.6803
" />
<path d="M142.3197 120.6803
L142.4149 120.8708
" />
<path d="M142.4149 120.8708
L142.4149 121.0612
" />
<path d="M142.4149 121.0612
L142.3197 121.3470
" />
<path d="M142.3197 121.3470
L141.1768 122.4898
" />
<path d="M141.1768 122.4898
L142.4149 122.4898
" />
</g><g transform="rotate(-90.000000 142.4011 73.5502)">
<text x="142.4011" y="74.5502"
textLength="5.9286" font-size="2.6667" lengthAdjust="spacingAndGlyphs"
text-anchor="middle" opacity="0" stroke-opacity="0">10k</text>
</g>
<g class="stroked-text"><desc>10k</desc>
<path d="M143.3107 74.7407
L143.3107 75.8835
" />
<path d="M143.3107 75.3121
L141.3107 75.3121
" />
<path d="M141.3107 75.3121
L141.5965 75.5026
" />
<path d="M141.5965 75.5026
L141.7869 75.6930
" />
<path d="M141.7869 75.6930
L141.8822 75.8835
" />
<path d="M141.3107 73.5026
L141.3107 73.3121
" />
<path d="M141.3107 73.3121
L141.4060 73.1216
" />
<path d="M141.4060 73.1216
L141.5012 73.0264
" />
<path d="M141.5012 73.0264
L141.6917 72.9311
" />
<path d="M141.6917 72.9311
L142.0726 72.8359
" />
<path d="M142.0726 72.8359
L142.5488 72.8359
" />
<path d="M142.5488 72.8359
L142.9298 72.9311
" />
<path d="M142.9298 72.9311
L143.1203 73.0264
" />
<path d="M143.1203 73.0264
L143.2155 73.1216
" />
<path d="M143.2155 73.1216
L143.3107 73.3121
" />
<path d="M143.3107 73.3121
L143.3107 73.5026
" />
<path d="M143.3107 73.5026
L143.2155 73.6930
" />
<path d="M143.2155 73.6930
L143.1203 73.7883
" />
<path d="M143.1203 73.7883
L142.9298 73.8835
" />
<path d="M142.9298 73.8835
L142.5488 73.9787
" />
<path d="M142.5488 73.9787
L142.0726 73.9787
" />
<path d="M142.0726 73.9787
L141.6917 73.8835
" />
<path d="M141.6917 73.8835
L141.5012 73.7883
" />
<path d="M141.5012 73.7883
L141.4060 73.6930
" />
<path d="M141.4060 73.6930
L141.3107 73.5026
" />
<path d="M143.3107 71.9787
L141.3107 71.9787
" />
<path d="M142.5488 71.7883
L143.3107 71.2168
" />
<path d="M141.9774 71.2168
L142.7393 71.9787
" />
</g></g>
<g style="fill:none; 
stroke:#000000; stroke-width:0.1200; stroke-opacity:1; 
stroke-linecap:round; stroke-linejoin:round;">
<g transform="rotate(-90.000000 145.2611 73.5502)">
<text x="145.2611" y="73.9502"
textLength="1.7619" font-size="1.0667" lengthAdjust="spacingAndGlyphs"
text-anchor="middle" opacity="0" stroke-opacity="0">R2</text>
</g>
<g class="stroked-text"><desc>R2</desc>
<path d="M145.6250 73.6835
L145.2440 73.9502
" />
<path d="M145.6250 74.1407
L144.8250 74.1407
" />
<path d="M144.8250 74.1407
L144.8250 73.8359
" />
<path d="M144.8250 73.8359
L144.8630 73.7597
" />
<path d="M144.8630 73.7597
L144.9011 73.7216
" />
<path d="M144.9011 73.7216
L144.9773 73.6835
" />
<path d="M144.9773 73.6835
L145.0916 73.6835
" />
<path d="M145.0916 73.6835
L145.1678 73.7216
" />
<path d="M145.1678 73.7216
L145.2059 73.7597
" />
<path d="M145.2059 73.7597
L145.2440 73.8359
" />
<path d="M145.2440 73.8359
L145.2440 74.1407
" />
<path d="M144.9011 73.3787
L144.8630 73.3407
" />
<path d="M144.8630 73.3407
L144.8250 73.2645
" />
<path d="M144.8250 73.2645
L144.8250 73.0740
" />
<path d="M144.8250 73.0740
L144.8630 72.9978
" />
<path d="M144.8630 72.9978
L144.9011 72.9597
" />
<path d="M144.9011 72.9597
L144.9773 72.9216
" />
<path d="M144.9773 72.9216
L145.0535 72.9216
" />
<path d="M145.0535 72.9216
L145.1678 72.9597
" />
<path d="M145.1678 72.9597
L145.6250 73.4168
" />
<path d="M145.6250 73.4168
L145.6250 72.9216
" />
</g></g>
<g style="fill:none; 
stroke:#000000; stroke-width:0.2000; stroke-opacity:1; 
stroke-linecap:round; stroke-linejoin:round;">
<g transform="rotate(-90.000000 164.7571 68.0902)">
<text x="164.7571" y="68.5902"
textLength="2.1143" font-size="1.3333" lengthAdjust="spacingAndGlyphs"
text-anchor="middle" opacity="0" stroke-opacity="0">J2</text>
</g>
<g class="stroked-text"><desc>J2</desc>
<path d="M164.2093 68.4235
L164.9236 68.4235
" />
<path d="M164.9236 68.4235
L165.0665 68.4711
" />
<path d="M165.0665 68.4711
L165.1617 68.5664
" />
<path d="M165.1617 68.5664
L165.2093 68.7092
" />
<path d="M165.2093 68.7092
L165.2093 68.8045
" />
<path d="M164.3046 67.9949
L164.2569 67.9473
" />
<path d="M164.2569 67.9473
L164.2093 67.8521
" />
<path d="M164.2093 67.8521
L164.2093 67.6140
" />
<path d="M164.2093 67.6140
L164.2569 67.5187
" />
<path d="M164.2569 67.5187
L164.3046 67.4711
" />
<path d="M164.3046 67.4711
L164.3998 67.4235
" />
<path d="M164.3998 67.4235
L164.4950 67.4235
" />
<path d="M164.4950 67.4235
L164.6379 67.4711
" />
<path d="M164.6379 67.4711
L165.2093 68.0426
" />
<path d="M165.2093 68.0426
L165.2093 67.4235
" />
</g></g>
<g style="fill:none; 
stroke:#000000; stroke-width:0.3000; stroke-opacity:1; 
stroke-linecap:round; stroke-linejoin:round;">
<text x="157.1411" y="81.6302"
textLength="6.3095" font-size="2.6667" lengthAdjust="spacingAndGlyphs"
text-anchor="middle" opacity="0" stroke-opacity="0">D15</text>
<g class="stroked-text"><desc>D15</desc>
<path d="M154.7125 81.5398
L154.7125 79.5398
" />
<path d="M154.7125 79.5398
L155.1887 79.5398
" />
<path d="M155.1887 79.5398
L155.4744 79.6351
" />
<path d="M155.4744 79.6351
L155.6649 79.8255
" />
<path d="M155.6649 79.8255
L155.7601 80.0160
" />
<path d="M155.7601 80.0160
L155.8554 80.3970
" />
<path d="M155.8554 80.3970
L155.8554 80.6827
" />
<path d="M155.8554 80.6827
L155.7601 81.0636
" />
<path d="M155.7601 81.0636
L155.6649 81.2541
" />
<path d="M155.6649 81.2541
L155.4744 81.4446
" />
<path d="M155.4744 81.4446
L155.1887 81.5398
" />
<path d="M155.1887 81.5398
L154.7125 81.5398
" />
<path d="M157.7601 81.5398
L156.6173 81.5398
" />
<path d="M157.1887 81.5398
L157.1887 79.5398
" />
<path d="M157.1887 79.5398
L156.9982 79.8255
" />
<path d="M156.9982 79.8255
L156.8078 80.0160
" />
<path d="M156.8078 80.0160
L156.6173 80.1112
" />
<path d="M159.5697 79.5398
L158.6173 79.5398
" />
<path d="M158.6173 79.5398
L158.5221 80.4922
" />
<path d="M158.5221 80.4922
L158.6173 80.3970
" />
<path d="M158.6173 80.3970
L158.8078 80.3017
" />
<path d="M158.8078 80.3017
L159.2840 80.3017
" />
<path d="M159.2840 80.3017
L159.4744 80.3970
" />
<path d="M159.4744 80.3970
L159.5697 80.4922
" />
<path d="M159.5697 80.4922
L159.6649 80.6827
" />
<path d="M159.6649 80.6827
L159.6649 81.1589
" />
<path d="M159.6649 81.1589
L159.5697 81.3493
" />
<path d="M159.5697 81.3493
L159.4744 81.4446
" />
<path d="M159.4744 81.4446
L159.2840 81.5398
" />
<path d="M159.2840 81.5398
L158.8078 81.5398
" />
<path d="M158.8078 81.5398
L158.6173 81.4446
" />
<path d="M158.6173 81.4446
L158.5221 81.3493
" />
</g><text x="158.0211" y="102.0702"
textLength="6.3095" font-size="2.6667" lengthAdjust="spacingAndGlyphs"
text-anchor="middle" opacity="0" stroke-opacity="0">D19</text>
<g class="stroked-text"><desc>D19</desc>
<path d="M155.5925 101.9798
L155.5925 99.9798
" />
<path d="M155.5925 99.9798
L156.0687 99.9798
" />
<path d="M156.0687 99.9798
L156.3544 100.0751
" />
<path d="M156.3544 100.0751
L156.5449 100.2655
" />
<path d="M156.5449 100.2655
L156.6401 100.4560
" />
<path d="M156.6401 100.4560
L156.7354 100.8370
" />
<path d="M156.7354 100.8370
L156.7354 101.1227
" />
<path d="M156.7354 101.1227
L156.6401 101.5036
" />
<path d="M156.6401 101.5036
L156.5449 101.6941
" />
<path d="M156.5449 101.6941
L156.3544 101.8846
" />
<path d="M156.3544 101.8846
L156.0687 101.9798
" />
<path d="M156.0687 101.9798
L155.5925 101.9798
" />
<path d="M158.6401 101.9798
L157.4973 101.9798
" />
<path d="M158.0687 101.9798
L158.0687 99.9798
" />
<path d="M158.0687 99.9798
L157.8782 100.2655
" />
<path d="M157.8782 100.2655
L157.6878 100.4560
" />
<path d="M157.6878 100.4560
L157.4973 100.5512
" />
<path d="M159.5925 101.9798
L159.9735 101.9798
" />
<path d="M159.9735 101.9798
L160.1640 101.8846
" />
<path d="M160.1640 101.8846
L160.2592 101.7893
" />
<path d="M160.2592 101.7893
L160.4497 101.5036
" />
<path d="M160.4497 101.5036
L160.5449 101.1227
" />
<path d="M160.5449 101.1227
L160.5449 100.3608
" />
<path d="M160.5449 100.3608
L160.4497 100.1703
" />
<path d="M160.4497 100.1703
L160.3544 100.0751
" />
<path d="M160.3544 100.0751
L160.1640 99.9798
" />
<path d="M160.1640 99.9798
L159.7830 99.9798
" />
<path d="M159.7830 99.9798
L159.5925 100.0751
" />
<path d="M159.5925 100.0751
L159.4973 100.1703
" />
<path d="M159.4973 100.1703
L159.4021 100.3608
" />
<path d="M159.4021 100.3608
L159.4021 100.8370
" />
<path d="M159.4021 100.8370
L159.4973 101.0274
" />
<path d="M159.4973 101.0274
L159.5925 101.1227
" />
<path d="M159.5925 101.1227
L159.7830 101.2179
" />
<path d="M159.7830 101.2179
L160.1640 101.2179
" />
<path d="M160.1640 101.2179
L160.3544 101.1227
" />
<path d="M160.3544 101.1227
L160.4497 101.0274
" />
<path d="M160.4497 101.0274
L160.5449 100.8370
" />
</g><text x="148.3611" y="101.8702"
textLength="10.8657" font-size="2.1333" lengthAdjust="spacingAndGlyphs"
text-anchor="middle" opacity="0" stroke-opacity="0">TXE8116</text>
<g class="stroked-text"><desc>TXE8116</desc>
<path d="M143.3706 100.1948
L144.2849 100.1948
" />
<path d="M143.8278 101.7948
L143.8278 100.1948
" />
<path d="M144.6659 100.1948
L145.7325 101.7948
" />
<path d="M145.7325 100.1948
L144.6659 101.7948
" />
<path d="M146.3421 100.9567
L146.8754 100.9567
" />
<path d="M147.1040 101.7948
L146.3421 101.7948
" />
<path d="M146.3421 101.7948
L146.3421 100.1948
" />
<path d="M146.3421 100.1948
L147.1040 100.1948
" />
<path d="M148.0182 100.8805
L147.8659 100.8043
" />
<path d="M147.8659 100.8043
L147.7897 100.7281
" />
<path d="M147.7897 100.7281
L147.7135 100.5757
" />
<path d="M147.7135 100.5757
L147.7135 100.4995
" />
<path d="M147.7135 100.4995
L147.7897 100.3471
" />
<path d="M147.7897 100.3471
L147.8659 100.2710
" />
<path d="M147.8659 100.2710
L148.0182 100.1948
" />
<path d="M148.0182 100.1948
L148.3230 100.1948
" />
<path d="M148.3230 100.1948
L148.4754 100.2710
" />
<path d="M148.4754 100.2710
L148.5516 100.3471
" />
<path d="M148.5516 100.3471
L148.6278 100.4995
" />
<path d="M148.6278 100.4995
L148.6278 100.5757
" />
<path d="M148.6278 100.5757
L148.5516 100.7281
" />
<path d="M148.5516 100.7281
L148.4754 100.8043
" />
<path d="M148.4754 100.8043
L148.3230 100.8805
" />
<path d="M148.3230 100.8805
L148.0182 100.8805
" />
<path d="M148.0182 100.8805
L147.8659 100.9567
" />
<path d="M147.8659 100.9567
L147.7897 101.0329
" />
<path d="M147.7897 101.0329
L147.7135 101.1852
" />
<path d="M147.7135 101.1852
L147.7135 101.4900
" />
<path d="M147.7135 101.4900
L147.7897 101.6424
" />
<path d="M147.7897 101.6424
L147.8659 101.7186
" />
<path d="M147.8659 101.7186
L148.0182 101.7948
" />
<path d="M148.0182 101.7948
L148.3230 101.7948
" />
<path d="M148.3230 101.7948
L148.4754 101.7186
" />
<path d="M148.4754 101.7186
L148.5516 101.6424
" />
<path d="M148.5516 101.6424
L148.6278 101.4900
" />
<path d="M148.6278 101.4900
L148.6278 101.1852
" />
<path d="M148.6278 101.1852
L148.5516 101.0329
" />
<path d="M148.5516 101.0329
L148.4754 100.9567
" />
<path d="M148.4754 100.9567
L148.3230 100.8805
" />
<path d="M150.1516 101.7948
L149.2373 101.7948
" />
<path d="M149.6944 101.7948
L149.6944 100.1948
" />
<path d="M149.6944 100.1948
L149.5421 100.4233
" />
<path d="M149.5421 100.4233
L149.3897 100.5757
" />
<path d="M149.3897 100.5757
L149.2373 100.6519
" />
<path d="M151.6754 101.7948
L150.7611 101.7948
" />
<path d="M151.2182 101.7948
L151.2182 100.1948
" />
<path d="M151.2182 100.1948
L151.0659 100.4233
" />
<path d="M151.0659 100.4233
L150.9135 100.5757
" />
<path d="M150.9135 100.5757
L150.7611 100.6519
" />
<path d="M153.0468 100.1948
L152.7421 100.1948
" />
<path d="M152.7421 100.1948
L152.5897 100.2710
" />
<path d="M152.5897 100.2710
L152.5135 100.3471
" />
<path d="M152.5135 100.3471
L152.3611 100.5757
" />
<path d="M152.3611 100.5757
L152.2849 100.8805
" />
<path d="M152.2849 100.8805
L152.2849 101.4900
" />
<path d="M152.2849 101.4900
L152.3611 101.6424
" />
<path d="M152.3611 101.6424
L152.4373 101.7186
" />
<path d="M152.4373 101.7186
L152.5897 101.7948
" />
<path d="M152.5897 101.7948
L152.8944 101.7948
" />
<path d="M152.8944 101.7948
L153.0468 101.7186
" />
<path d="M153.0468 101.7186
L153.1230 101.6424
" />
<path d="M153.1230 101.6424
L153.1992 101.4900
" />
<path d="M153.1992 101.4900
L153.1992 101.1091
" />
<path d="M153.1992 101.1091
L153.1230 100.9567
" />
<path d="M153.1230 100.9567
L153.0468 100.8805
" />
<path d="M153.0468 100.8805
L152.8944 100.8043
" />
<path d="M152.8944 100.8043
L152.5897 100.8043
" />
<path d="M152.5897 100.8043
L152.4373 100.8805
" />
<path d="M152.4373 100.8805
L152.3611 100.9567
" />
<path d="M152.3611 100.9567
L152.2849 101.1091
" />
</g><g transform="rotate(-90.000000 148.9411 93.4302)">
<text x="148.9411" y="94.4302"
textLength="4.5000" font-size="2.6667" lengthAdjust="spacingAndGlyphs"
text-anchor="middle" opacity="0" stroke-opacity="0">U1</text>
</g>
<g class="stroked-text"><desc>U1</desc>
<path d="M147.8507 94.9540
L149.4698 94.9540
" />
<path d="M149.4698 94.9540
L149.6603 94.8587
" />
<path d="M149.6603 94.8587
L149.7555 94.7635
" />
<path d="M149.7555 94.7635
L149.8507 94.5730
" />
<path d="M149.8507 94.5730
L149.8507 94.1921
" />
<path d="M149.8507 94.1921
L149.7555 94.0016
" />
<path d="M149.7555 94.0016
L149.6603 93.9064
" />
<path d="M149.6603 93.9064
L149.4698 93.8111
" />
<path d="M149.4698 93.8111
L147.8507 93.8111
" />
<path d="M149.8507 91.8111
L149.8507 92.9540
" />
<path d="M149.8507 92.3826
L147.8507 92.3826
" />
<path d="M147.8507 92.3826
L148.1365 92.5730
" />
<path d="M148.1365 92.5730
L148.3269 92.7635
" />
<path d="M148.3269 92.7635
L148.4222 92.9540
" />
</g><text x="157.1411" y="122.2802"
textLength="6.3095" font-size="2.6667" lengthAdjust="spacingAndGlyphs"
text-anchor="middle" opacity="0" stroke-opacity="0">D23</text>
<g class="stroked-text"><desc>D23</desc>
<path d="M154.7125 122.1898
L154.7125 120.1898
" />
<path d="M154.7125 120.1898
L155.1887 120.1898
" />
<path d="M155.1887 120.1898
L155.4744 120.2851
" />
<path d="M155.4744 120.2851
L155.6649 120.4755
" />
<path d="M155.6649 120.4755
L155.7601 120.6660
" />
<path d="M155.7601 120.6660
L155.8554 121.0470
" />
<path d="M155.8554 121.0470
L155.8554 121.3327
" />
<path d="M155.8554 121.3327
L155.7601 121.7136
" />
<path d="M155.7601 121.7136
L155.6649 121.9041
" />
<path d="M155.6649 121.9041
L155.4744 122.0946
" />
<path d="M155.4744 122.0946
L155.1887 122.1898
" />
<path d="M155.1887 122.1898
L154.7125 122.1898
" />
<path d="M156.6173 120.3803
L156.7125 120.2851
" />
<path d="M156.7125 120.2851
L156.9030 120.1898
" />
<path d="M156.9030 120.1898
L157.3792 120.1898
" />
<path d="M157.3792 120.1898
L157.5697 120.2851
" />
<path d="M157.5697 120.2851
L157.6649 120.3803
" />
<path d="M157.6649 120.3803
L157.7601 120.5708
" />
<path d="M157.7601 120.5708
L157.7601 120.7612
" />
<path d="M157.7601 120.7612
L157.6649 121.0470
" />
<path d="M157.6649 121.0470
L156.5221 122.1898
" />
<path d="M156.5221 122.1898
L157.7601 122.1898
" />
<path d="M158.4268 120.1898
L159.6649 120.1898
" />
<path d="M159.6649 120.1898
L158.9982 120.9517
" />
<path d="M158.9982 120.9517
L159.2840 120.9517
" />
<path d="M159.2840 120.9517
L159.4744 121.0470
" />
<path d="M159.4744 121.0470
L159.5697 121.1422
" />
<path d="M159.5697 121.1422
L159.6649 121.3327
" />
<path d="M159.6649 121.3327
L159.6649 121.8089
" />
<path d="M159.6649 121.8089
L159.5697 121.9993
" />
<path d="M159.5697 121.9993
L159.4744 122.0946
" />
<path d="M159.4744 122.0946
L159.2840 122.1898
" />
<path d="M159.2840 122.1898
L158.7125 122.1898
" />
<path d="M158.7125 122.1898
L158.5221 122.0946
" />
<path d="M158.5221 122.0946
L158.4268 121.9993
" />
</g><text x="157.1411" y="91.8302"
textLength="6.3095" font-size="2.6667" lengthAdjust="spacingAndGlyphs"
text-anchor="middle" opacity="0" stroke-opacity="0">D17</text>
<g class="stroked-text"><desc>D17</desc>
<path d="M154.7125 91.7398
L154.7125 89.7398
" />
<path d="M154.7125 89.7398
L155.1887 89.7398
" />
<path d="M155.1887 89.7398
L155.4744 89.8351
" />
<path d="M155.4744 89.8351
L155.6649 90.0255
" />
<path d="M155.6649 90.0255
L155.7601 90.2160
" />
<path d="M155.7601 90.2160
L155.8554 90.5970
" />
<path d="M155.8554 90.5970
L155.8554 90.8827
" />
<path d="M155.8554 90.8827
L155.7601 91.2636
" />
<path d="M155.7601 91.2636
L155.6649 91.4541
" />
<path d="M155.6649 91.4541
L155.4744 91.6446
" />
<path d="M155.4744 91.6446
L155.1887 91.7398
" />
<path d="M155.1887 91.7398
L154.7125 91.7398
" />
<path d="M157.7601 91.7398
L156.6173 91.7398
" />
<path d="M157.1887 91.7398
L157.1887 89.7398
" />
<path d="M157.1887 89.7398
L156.9982 90.0255
" />
<path d="M156.9982 90.0255
L156.8078 90.2160
" />
<path d="M156.8078 90.2160
L156.6173 90.3112
" />
<path d="M158.4268 89.7398
L159.7601 89.7398
" />
<path d="M159.7601 89.7398
L158.9030 91.7398
" />
</g><text x="157.1411" y="96.8802"
textLength="6.3095" font-size="2.6667" lengthAdjust="spacingAndGlyphs"
text-anchor="middle" opacity="0" stroke-opacity="0">D18</text>
<g class="stroked-text"><desc>D18</desc>
<path d="M154.7125 96.7898
L154.7125 94.7898
" />
<path d="M154.7125 94.7898
L155.1887 94.7898
" />
<path d="M155.1887 94.7898
L155.4744 94.8851
" />
<path d="M155.4744 94.8851
L155.6649 95.0755
" />
<path d="M155.6649 95.0755
L155.7601 95.2660
" />
<path d="M155.7601 95.2660
L155.8554 95.6470
" />
<path d="M155.8554 95.6470
L155.8554 95.9327
" />
<path d="M155.8554 95.9327
L155.7601 96.3136
" />
<path d="M155.7601 96.3136
L155.6649 96.5041
" />
<path d="M155.6649 96.5041
L155.4744 96.6946
" />
<path d="M155.4744 96.6946
L155.1887 96.7898
" />
<path d="M155.1887 96.7898
L154.7125 96.7898
" />
<path d="M157.7601 96.7898
L156.6173 96.7898
" />
<path d="M157.1887 96.7898
L157.1887 94.7898
" />
<path d="M157.1887 94.7898
L156.9982 95.0755
" />
<path d="M156.9982 95.0755
L156.8078 95.2660
" />
<path d="M156.8078 95.2660
L156.6173 95.3612
" />
<path d="M158.9030 95.6470
L158.7125 95.5517
" />
<path d="M158.7125 95.5517
L158.6173 95.4565
" />
<path d="M158.6173 95.4565
L158.5221 95.2660
" />
<path d="M158.5221 95.2660
L158.5221 95.1708
" />
<path d="M158.5221 95.1708
L158.6173 94.9803
" />
<path d="M158.6173 94.9803
L158.7125 94.8851
" />
<path d="M158.7125 94.8851
L158.9030 94.7898
" />
<path d="M158.9030 94.7898
L159.2840 94.7898
" />
<path d="M159.2840 94.7898
L159.4744 94.8851
" />
<path d="M159.4744 94.8851
L159.5697 94.9803
" />
<path d="M159.5697 94.9803
L159.6649 95.1708
" />
<path d="M159.6649 95.1708
L159.6649 95.2660
" />
<path d="M159.6649 95.2660
L159.5697 95.4565
" />
<path d="M159.5697 95.4565
L159.4744 95.5517
" />
<path d="M159.4744 95.5517
L159.2840 95.6470
" />
<path d="M159.2840 95.6470
L158.9030 95.6470
" />
<path d="M158.9030 95.6470
L158.7125 95.7422
" />
<path d="M158.7125 95.7422
L158.6173 95.8374
" />
<path d="M158.6173 95.8374
L158.5221 96.0279
" />
<path d="M158.5221 96.0279
L158.5221 96.4089
" />
<path d="M158.5221 96.4089
L158.6173 96.5993
" />
<path d="M158.6173 96.5993
L158.7125 96.6946
" />
<path d="M158.7125 96.6946
L158.9030 96.7898
" />
<path d="M158.9030 96.7898
L159.2840 96.7898
" />
<path d="M159.2840 96.7898
L159.4744 96.6946
" />
<path d="M159.4744 96.6946
L159.5697 96.5993
" />
<path d="M159.5697 96.5993
L159.6649 96.4089
" />
<path d="M159.6649 96.4089
L159.6649 96.0279
" />
<path d="M159.6649 96.0279
L159.5697 95.8374
" />
<path d="M159.5697 95.8374
L159.4744 95.7422
" />
<path d="M159.4744 95.7422
L159.2840 95.6470
" />
</g></g>
<g style="fill:none; 
stroke:#000000; stroke-width:0.2000; stroke-opacity:1; 
stroke-linecap:round; stroke-linejoin:round;">
<g transform="rotate(-90.000000 139.3571 123.8902)">
<text x="139.3571" y="124.3902"
textLength="2.1143" font-size="1.3333" lengthAdjust="spacingAndGlyphs"
text-anchor="middle" opacity="0" stroke-opacity="0">J1</text>
</g>
<g class="stroked-text"><desc>J1</desc>
<path d="M138.8093 124.2235
L139.5236 124.2235
" />
<path d="M139.5236 124.2235
L139.6665 124.2711
" />
<path d="M139.6665 124.2711
L139.7617 124.3664
" />
<path d="M139.7617 124.3664
L139.8093 124.5092
" />
<path d="M139.8093 124.5092
L139.8093 124.6045
" />
<path d="M139.8093 123.2235
L139.8093 123.7949
" />
<path d="M139.8093 123.5092
L138.8093 123.5092
" />
<path d="M138.8093 123.5092
L138.9522 123.6045
" />
<path d="M138.9522 123.6045
L139.0474 123.6997
" />
<path d="M139.0474 123.6997
L139.0950 123.7949
" />
</g></g>
<g style="fill:none; 
stroke:#000000; stroke-width:0.3000; stroke-opacity:1; 
stroke-linecap:round; stroke-linejoin:round;">
<g transform="rotate(-90.000000 147.8211 77.9102)">
<text x="147.8211" y="78.9102"
textLength="6.1190" font-size="2.6667" lengthAdjust="spacingAndGlyphs"
text-anchor="middle" opacity="0" stroke-opacity="0">0u1</text>
</g>
<g class="stroked-text"><desc>0u1</desc>
<path d="M146.7307 79.8626
L146.7307 79.6721
" />
<path d="M146.7307 79.6721
L146.8260 79.4816
" />
<path d="M146.8260 79.4816
L146.9212 79.3864
" />
<path d="M146.9212 79.3864
L147.1117 79.2911
" />
<path d="M147.1117 79.2911
L147.4926 79.1959
" />
<path d="M147.4926 79.1959
L147.9688 79.1959
" />
<path d="M147.9688 79.1959
L148.3498 79.2911
" />
<path d="M148.3498 79.2911
L148.5403 79.3864
" />
<path d="M148.5403 79.3864
L148.6355 79.4816
" />
<path d="M148.6355 79.4816
L148.7307 79.6721
" />
<path d="M148.7307 79.6721
L148.7307 79.8626
" />
<path d="M148.7307 79.8626
L148.6355 80.0530
" />
<path d="M148.6355 80.0530
L148.5403 80.1483
" />
<path d="M148.5403 80.1483
L148.3498 80.2435
" />
<path d="M148.3498 80.2435
L147.9688 80.3387
" />
<path d="M147.9688 80.3387
L147.4926 80.3387
" />
<path d="M147.4926 80.3387
L147.1117 80.2435
" />
<path d="M147.1117 80.2435
L146.9212 80.1483
" />
<path d="M146.9212 80.1483
L146.8260 80.0530
" />
<path d="M146.8260 80.0530
L146.7307 79.8626
" />
<path d="M147.3974 77.4816
L148.7307 77.4816
" />
<path d="M147.3974 78.3387
L148.4450 78.3387
" />
<path d="M148.4450 78.3387
L148.6355 78.2435
" />
<path d="M148.6355 78.2435
L148.7307 78.0530
" />
<path d="M148.7307 78.0530
L148.7307 77.7673
" />
<path d="M148.7307 77.7673
L148.6355 77.5768
" />
<path d="M148.6355 77.5768
L148.5403 77.4816
" />
<path d="M148.7307 75.4816
L148.7307 76.6245
" />
<path d="M148.7307 76.0530
L146.7307 76.0530
" />
<path d="M146.7307 76.0530
L147.0165 76.2435
" />
<path d="M147.0165 76.2435
L147.2069 76.4340
" />
<path d="M147.2069 76.4340
L147.3022 76.6245
" />
</g></g>
<g style="fill:none; 
stroke:#000000; stroke-width:0.1200; stroke-opacity:1; 
stroke-linecap:round; stroke-linejoin:round;">
<g transform="rotate(-90.000000 147.7911 83.6802)">
<text x="147.7911" y="84.0802"
textLength="1.7619" font-size="1.0667" lengthAdjust="spacingAndGlyphs"
text-anchor="middle" opacity="0" stroke-opacity="0">C3</text>
</g>
<g class="stroked-text"><desc>C3</desc>
<path d="M148.0788 83.8135
L148.1169 83.8516
" />
<path d="M148.1169 83.8516
L148.1550 83.9659
" />
<path d="M148.1550 83.9659
L148.1550 84.0421
" />
<path d="M148.1550 84.0421
L148.1169 84.1564
" />
<path d="M148.1169 84.1564
L148.0407 84.2326
" />
<path d="M148.0407 84.2326
L147.9645 84.2707
" />
<path d="M147.9645 84.2707
L147.8121 84.3087
" />
<path d="M147.8121 84.3087
L147.6978 84.3087
" />
<path d="M147.6978 84.3087
L147.5454 84.2707
" />
<path d="M147.5454 84.2707
L147.4692 84.2326
" />
<path d="M147.4692 84.2326
L147.3930 84.1564
" />
<path d="M147.3930 84.1564
L147.3550 84.0421
" />
<path d="M147.3550 84.0421
L147.3550 83.9659
" />
<path d="M147.3550 83.9659
L147.3930 83.8516
" />
<path d="M147.3930 83.8516
L147.4311 83.8135
" />
<path d="M147.3550 83.5468
L147.3550 83.0516
" />
<path d="M147.3550 83.0516
L147.6597 83.3183
" />
<path d="M147.6597 83.3183
L147.6597 83.2040
" />
<path d="M147.6597 83.2040
L147.6978 83.1278
" />
<path d="M147.6978 83.1278
L147.7359 83.0897
" />
<path d="M147.7359 83.0897
L147.8121 83.0516
" />
<path d="M147.8121 83.0516
L148.0026 83.0516
" />
<path d="M148.0026 83.0516
L148.0788 83.0897
" />
<path d="M148.0788 83.0897
L148.1169 83.1278
" />
<path d="M148.1169 83.1278
L148.1550 83.2040
" />
<path d="M148.1550 83.2040
L148.1550 83.4326
" />
<path d="M148.1550 83.4326
L148.1169 83.5087
" />
<path d="M148.1169 83.5087
L148.0788 83.5468
" />
</g></g>
<g style="fill:none; 
stroke:#000000; stroke-width:0.3000; stroke-opacity:1; 
stroke-linecap:round; stroke-linejoin:round;">
<text x="157.1411" y="112.1302"
textLength="6.3095" font-size="2.6667" lengthAdjust="spacingAndGlyphs"
text-anchor="middle" opacity="0" stroke-opacity="0">D21</text>
<g class="stroked-text"><desc>D21</desc>
<path d="M154.7125 112.0398
L154.7125 110.0398
" />
<path d="M154.7125 110.0398
L155.1887 110.0398
" />
<path d="M155.1887 110.0398
L155.4744 110.1351
" />
<path d="M155.4744 110.1351
L155.6649 110.3255
" />
<path d="M155.6649 110.3255
L155.7601 110.5160
" />
<path d="M155.7601 110.5160
L155.8554 110.8970
" />
<path d="M155.8554 110.8970
L155.8554 111.1827
" />
<path d="M155.8554 111.1827
L155.7601 111.5636
" />
<path d="M155.7601 111.5636
L155.6649 111.7541
" />
<path d="M155.6649 111.7541
L155.4744 111.9446
" />
<path d="M155.4744 111.9446
L155.1887 112.0398
" />
<path d="M155.1887 112.0398
L154.7125 112.0398
" />
<path d="M156.6173 110.2303
L156.7125 110.1351
" />
<path d="M156.7125 110.1351
L156.9030 110.0398
" />
<path d="M156.9030 110.0398
L157.3792 110.0398
" />
<path d="M157.3792 110.0398
L157.5697 110.1351
" />
<path d="M157.5697 110.1351
L157.6649 110.2303
" />
<path d="M157.6649 110.2303
L157.7601 110.4208
" />
<path d="M157.7601 110.4208
L157.7601 110.6112
" />
<path d="M157.7601 110.6112
L157.6649 110.8970
" />
<path d="M157.6649 110.8970
L156.5221 112.0398
" />
<path d="M156.5221 112.0398
L157.7601 112.0398
" />
<path d="M159.6649 112.0398
L158.5221 112.0398
" />
<path d="M159.0935 112.0398
L159.0935 110.0398
" />
<path d="M159.0935 110.0398
L158.9030 110.3255
" />
<path d="M158.9030 110.3255
L158.7125 110.5160
" />
<path d="M158.7125 110.5160
L158.5221 110.6112
" />
</g><text x="139.8911" y="117.4802"
textLength="6.3095" font-size="2.6667" lengthAdjust="spacingAndGlyphs"
text-anchor="middle" opacity="0" stroke-opacity="0">D11</text>
<g class="stroked-text"><desc>D11</desc>
<path d="M137.4625 117.3898
L137.4625 115.3898
" />
<path d="M137.4625 115.3898
L137.9387 115.3898
" />
<path d="M137.9387 115.3898
L138.2244 115.4851
" />
<path d="M138.2244 115.4851
L138.4149 115.6755
" />
<path d="M138.4149 115.6755
L138.5101 115.8660
" />
<path d="M138.5101 115.8660
L138.6054 116.2470
" />
<path d="M138.6054 116.2470
L138.6054 116.5327
" />
<path d="M138.6054 116.5327
L138.5101 116.9136
" />
<path d="M138.5101 116.9136
L138.4149 117.1041
" />
<path d="M138.4149 117.1041
L138.2244 117.2946
" />
<path d="M138.2244 117.2946
L137.9387 117.3898
" />
<path d="M137.9387 117.3898
L137.4625 117.3898
" />
<path d="M140.5101 117.3898
L139.3673 117.3898
" />
<path d="M139.9387 117.3898
L139.9387 115.3898
" />
<path d="M139.9387 115.3898
L139.7482 115.6755
" />
<path d="M139.7482 115.6755
L139.5578 115.8660
" />
<path d="M139.5578 115.8660
L139.3673 115.9612
" />
<path d="M142.4149 117.3898
L141.2721 117.3898
" />
<path d="M141.8435 117.3898
L141.8435 115.3898
" />
<path d="M141.8435 115.3898
L141.6530 115.6755
" />
<path d="M141.6530 115.6755
L141.4625 115.8660
" />
<path d="M141.4625 115.8660
L141.2721 115.9612
" />
</g><text x="139.8911" y="81.9302"
textLength="4.4048" font-size="2.6667" lengthAdjust="spacingAndGlyphs"
text-anchor="middle" opacity="0" stroke-opacity="0">D4</text>
<g class="stroked-text"><desc>D4</desc>
<path d="M138.4149 81.8398
L138.4149 79.8398
" />
<path d="M138.4149 79.8398
L138.8911 79.8398
" />
<path d="M138.8911 79.8398
L139.1768 79.9351
" />
<path d="M139.1768 79.9351
L139.3673 80.1255
" />
<path d="M139.3673 80.1255
L139.4625 80.3160
" />
<path d="M139.4625 80.3160
L139.5578 80.6970
" />
<path d="M139.5578 80.6970
L139.5578 80.9827
" />
<path d="M139.5578 80.9827
L139.4625 81.3636
" />
<path d="M139.4625 81.3636
L139.3673 81.5541
" />
<path d="M139.3673 81.5541
L139.1768 81.7446
" />
<path d="M139.1768 81.7446
L138.8911 81.8398
" />
<path d="M138.8911 81.8398
L138.4149 81.8398
" />
<path d="M141.2721 80.5065
L141.2721 81.8398
" />
<path d="M140.7959 79.7446
L140.3197 81.1731
" />
<path d="M140.3197 81.1731
L141.5578 81.1731
" />
</g><text x="139.8911" y="92.0802"
textLength="4.4048" font-size="2.6667" lengthAdjust="spacingAndGlyphs"
text-anchor="middle" opacity="0" stroke-opacity="0">D6</text>
<g class="stroked-text"><desc>D6</desc>
<path d="M138.4149 91.9898
L138.4149 89.9898
" />
<path d="M138.4149 89.9898
L138.8911 89.9898
" />
<path d="M138.8911 89.9898
L139.1768 90.0851
" />
<path d="M139.1768 90.0851
L139.3673 90.2755
" />
<path d="M139.3673 90.2755
L139.4625 90.4660
" />
<path d="M139.4625 90.4660
L139.5578 90.8470
" />
<path d="M139.5578 90.8470
L139.5578 91.1327
" />
<path d="M139.5578 91.1327
L139.4625 91.5136
" />
<path d="M139.4625 91.5136
L139.3673 91.7041
" />
<path d="M139.3673 91.7041
L139.1768 91.8946
" />
<path d="M139.1768 91.8946
L138.8911 91.9898
" />
<path d="M138.8911 91.9898
L138.4149 91.9898
" />
<path d="M141.2721 89.9898
L140.8911 89.9898
" />
<path d="M140.8911 89.9898
L140.7006 90.0851
" />
<path d="M140.7006 90.0851
L140.6054 90.1803
" />
<path d="M140.6054 90.1803
L140.4149 90.4660
" />
<path d="M140.4149 90.4660
L140.3197 90.8470
" />
<path d="M140.3197 90.8470
L140.3197 91.6089
" />
<path d="M140.3197 91.6089
L140.4149 91.7993
" />
<path d="M140.4149 91.7993
L140.5101 91.8946
" />
<path d="M140.5101 91.8946
L140.7006 91.9898
" />
<path d="M140.7006 91.9898
L141.0816 91.9898
" />
<path d="M141.0816 91.9898
L141.2721 91.8946
" />
<path d="M141.2721 91.8946
L141.3673 91.7993
" />
<path d="M141.3673 91.7993
L141.4625 91.6089
" />
<path d="M141.4625 91.6089
L141.4625 91.1327
" />
<path d="M141.4625 91.1327
L141.3673 90.9422
" />
<path d="M141.3673 90.9422
L141.2721 90.8470
" />
<path d="M141.2721 90.8470
L141.0816 90.7517
" />
<path d="M141.0816 90.7517
L140.7006 90.7517
" />
<path d="M140.7006 90.7517
L140.5101 90.8470
" />
<path d="M140.5101 90.8470
L140.4149 90.9422
" />
<path d="M140.4149 90.9422
L140.3197 91.1327
" />
</g><g transform="rotate(-90.000000 145.6011 73.5502)">
<text x="145.6011" y="74.5502"
textLength="5.9286" font-size="2.6667" lengthAdjust="spacingAndGlyphs"
text-anchor="middle" opacity="0" stroke-opacity="0">10k</text>
</g>
<g class="stroked-text"><desc>10k</desc>
<path d="M146.5107 74.7407
L146.5107 75.8835
" />
<path d="M146.5107 75.3121
L144.5107 75.3121
" />
<path d="M144.5107 75.3121
L144.7965 75.5026
" />
<path d="M144.7965 75.5026
L144.9869 75.6930
" />
<path d="M144.9869 75.6930
L145.0822 75.8835
" />
<path d="M144.5107 73.5026
L144.5107 73.3121
" />
<path d="M144.5107 73.3121
L144.6060 73.1216
" />
<path d="M144.6060 73.1216
L144.7012 73.0264
" />
<path d="M144.7012 73.0264
L144.8917 72.9311
" />
<path d="M144.8917 72.9311
L145.2726 72.8359
" />
<path d="M145.2726 72.8359
L145.7488 72.8359
" />
<path d="M145.7488 72.8359
L146.1298 72.9311
" />
<path d="M146.1298 72.9311
L146.3203 73.0264
" />
<path d="M146.3203 73.0264
L146.4155 73.1216
" />
<path d="M146.4155 73.1216
L146.5107 73.3121
" />
<path d="M146.5107 73.3121
L146.5107 73.5026
" />
<path d="M146.5107 73.5026
L146.4155 73.6930
" />
<path d="M146.4155 73.6930
L146.3203 73.7883
" />
<path d="M146.3203 73.7883
L146.1298 73.8835
" />
<path d="M146.1298 73.8835
L145.7488 73.9787
" />
<path d="M145.7488 73.9787
L145.2726 73.9787
" />
<path d="M145.2726 73.9787
L144.8917 73.8835
" />
<path d="M144.8917 73.8835
L144.7012 73.7883
" />
<path d="M144.7012 73.7883
L144.6060 73.6930
" />
<path d="M144.6060 73.6930
L144.5107 73.5026
" />
<path d="M146.5107 71.9787
L144.5107 71.9787
" />
<path d="M145.7488 71.7883
L146.5107 71.2168
" />
<path d="M145.1774 71.2168
L145.9393 71.9787
" />
</g></g>
<g style="fill:none; 
stroke:#000000; stroke-width:0.1200; stroke-opacity:1; 
stroke-linecap:round; stroke-linejoin:round;">
<g transform="rotate(-90.000000 148.4611 73.5502)">
<text x="148.4611" y="73.9502"
textLength="1.7619" font-size="1.0667" lengthAdjust="spacingAndGlyphs"
text-anchor="middle" opacity="0" stroke-opacity="0">R1</text>
</g>
<g class="stroked-text"><desc>R1</desc>
<path d="M148.8250 73.6835
L148.4440 73.9502
" />
<path d="M148.8250 74.1407
L148.0250 74.1407
" />
<path d="M148.0250 74.1407
L148.0250 73.8359
" />
<path d="M148.0250 73.8359
L148.0631 73.7597
" />
<path d="M148.0631 73.7597
L148.1011 73.7216
" />
<path d="M148.1011 73.7216
L148.1773 73.6835
" />
<path d="M148.1773 73.6835
L148.2916 73.6835
" />
<path d="M148.2916 73.6835
L148.3678 73.7216
" />
<path d="M148.3678 73.7216
L148.4059 73.7597
" />
<path d="M148.4059 73.7597
L148.4440 73.8359
" />
<path d="M148.4440 73.8359
L148.4440 74.1407
" />
<path d="M148.8250 72.9216
L148.8250 73.3787
" />
<path d="M148.8250 73.1502
L148.0250 73.1502
" />
<path d="M148.0250 73.1502
L148.1392 73.2264
" />
<path d="M148.1392 73.2264
L148.2154 73.3026
" />
<path d="M148.2154 73.3026
L148.2535 73.3787
" />
</g></g>
<g style="fill:none; 
stroke:#000000; stroke-width:0.3000; stroke-opacity:1; 
stroke-linecap:round; stroke-linejoin:round;">
<text x="143.3611" y="68.6902"
textLength="4.4048" font-size="2.6667" lengthAdjust="spacingAndGlyphs"
text-anchor="middle" opacity="0" stroke-opacity="0">D1</text>
<g class="stroked-text"><desc>D1</desc>
<path d="M141.8849 68.5998
L141.8849 66.5998
" />
<path d="M141.8849 66.5998
L142.3611 66.5998
" />
<path d="M142.3611 66.5998
L142.6468 66.6951
" />
<path d="M142.6468 66.6951
L142.8373 66.8855
" />
<path d="M142.8373 66.8855
L142.9325 67.0760
" />
<path d="M142.9325 67.0760
L143.0278 67.4570
" />
<path d="M143.0278 67.4570
L143.0278 67.7427
" />
<path d="M143.0278 67.7427
L142.9325 68.1236
" />
<path d="M142.9325 68.1236
L142.8373 68.3141
" />
<path d="M142.8373 68.3141
L142.6468 68.5046
" />
<path d="M142.6468 68.5046
L142.3611 68.5998
" />
<path d="M142.3611 68.5998
L141.8849 68.5998
" />
<path d="M144.9325 68.5998
L143.7897 68.5998
" />
<path d="M144.3611 68.5998
L144.3611 66.5998
" />
<path d="M144.3611 66.5998
L144.1706 66.8855
" />
<path d="M144.1706 66.8855
L143.9801 67.0760
" />
<path d="M143.9801 67.0760
L143.7897 67.1712
" />
</g><text x="157.1411" y="107.0302"
textLength="6.3095" font-size="2.6667" lengthAdjust="spacingAndGlyphs"
text-anchor="middle" opacity="0" stroke-opacity="0">D20</text>
<g class="stroked-text"><desc>D20</desc>
<path d="M154.7125 106.9398
L154.7125 104.9398
" />
<path d="M154.7125 104.9398
L155.1887 104.9398
" />
<path d="M155.1887 104.9398
L155.4744 105.0351
" />
<path d="M155.4744 105.0351
L155.6649 105.2255
" />
<path d="M155.6649 105.2255
L155.7601 105.4160
" />
<path d="M155.7601 105.4160
L155.8554 105.7970
" />
<path d="M155.8554 105.7970
L155.8554 106.0827
" />
<path d="M155.8554 106.0827
L155.7601 106.4636
" />
<path d="M155.7601 106.4636
L155.6649 106.6541
" />
<path d="M155.6649 106.6541
L155.4744 106.8446
" />
<path d="M155.4744 106.8446
L155.1887 106.9398
" />
<path d="M155.1887 106.9398
L154.7125 106.9398
" />
<path d="M156.6173 105.1303
L156.7125 105.0351
" />
<path d="M156.7125 105.0351
L156.9030 104.9398
" />
<path d="M156.9030 104.9398
L157.3792 104.9398
" />
<path d="M157.3792 104.9398
L157.5697 105.0351
" />
<path d="M157.5697 105.0351
L157.6649 105.1303
" />
<path d="M157.6649 105.1303
L157.7601 105.3208
" />
<path d="M157.7601 105.3208
L157.7601 105.5112
" />
<path d="M157.7601 105.5112
L157.6649 105.7970
" />
<path d="M157.6649 105.7970
L156.5221 106.9398
" />
<path d="M156.5221 106.9398
L157.7601 106.9398
" />
<path d="M158.9982 104.9398
L159.1887 104.9398
" />
<path d="M159.1887 104.9398
L159.3792 105.0351
" />
<path d="M159.3792 105.0351
L159.4744 105.1303
" />
<path d="M159.4744 105.1303
L159.5697 105.3208
" />
<path d="M159.5697 105.3208
L159.6649 105.7017
" />
<path d="M159.6649 105.7017
L159.6649 106.1779
" />
<path d="M159.6649 106.1779
L159.5697 106.5589
" />
<path d="M159.5697 106.5589
L159.4744 106.7493
" />
<path d="M159.4744 106.7493
L159.3792 106.8446
" />
<path d="M159.3792 106.8446
L159.1887 106.9398
" />
<path d="M159.1887 106.9398
L158.9982 106.9398
" />
<path d="M158.9982 106.9398
L158.8078 106.8446
" />
<path d="M158.8078 106.8446
L158.7125 106.7493
" />
<path d="M158.7125 106.7493
L158.6173 106.5589
" />
<path d="M158.6173 106.5589
L158.5221 106.1779
" />
<path d="M158.5221 106.1779
L158.5221 105.7017
" />
<path d="M158.5221 105.7017
L158.6173 105.3208
" />
<path d="M158.6173 105.3208
L158.7125 105.1303
" />
<path d="M158.7125 105.1303
L158.8078 105.0351
" />
<path d="M158.8078 105.0351
L158.9982 104.9398
" />
</g><text x="157.1411" y="71.4802"
textLength="6.3095" font-size="2.6667" lengthAdjust="spacingAndGlyphs"
text-anchor="middle" opacity="0" stroke-opacity="0">D13</text>
<g class="stroked-text"><desc>D13</desc>
<path d="M154.7125 71.3898
L154.7125 69.3898
" />
<path d="M154.7125 69.3898
L155.1887 69.3898
" />
<path d="M155.1887 69.3898
L155.4744 69.4851
" />
<path d="M155.4744 69.4851
L155.6649 69.6755
" />
<path d="M155.6649 69.6755
L155.7601 69.8660
" />
<path d="M155.7601 69.8660
L155.8554 70.2470
" />
<path d="M155.8554 70.2470
L155.8554 70.5327
" />
<path d="M155.8554 70.5327
L155.7601 70.9136
" />
<path d="M155.7601 70.9136
L155.6649 71.1041
" />
<path d="M155.6649 71.1041
L155.4744 71.2946
" />
<path d="M155.4744 71.2946
L155.1887 71.3898
" />
<path d="M155.1887 71.3898
L154.7125 71.3898
" />
<path d="M157.7601 71.3898
L156.6173 71.3898
" />
<path d="M157.1887 71.3898
L157.1887 69.3898
" />
<path d="M157.1887 69.3898
L156.9982 69.6755
" />
<path d="M156.9982 69.6755
L156.8078 69.8660
" />
<path d="M156.8078 69.8660
L156.6173 69.9612
" />
<path d="M158.4268 69.3898
L159.6649 69.3898
" />
<path d="M159.6649 69.3898
L158.9982 70.1517
" />
<path d="M158.9982 70.1517
L159.2840 70.1517
" />
<path d="M159.2840 70.1517
L159.4744 70.2470
" />
<path d="M159.4744 70.2470
L159.5697 70.3422
" />
<path d="M159.5697 70.3422
L159.6649 70.5327
" />
<path d="M159.6649 70.5327
L159.6649 71.0089
" />
<path d="M159.6649 71.0089
L159.5697 71.1993
" />
<path d="M159.5697 71.1993
L159.4744 71.2946
" />
<path d="M159.4744 71.2946
L159.2840 71.3898
" />
<path d="M159.2840 71.3898
L158.7125 71.3898
" />
<path d="M158.7125 71.3898
L158.5221 71.2946
" />
<path d="M158.5221 71.2946
L158.4268 71.1993
" />
</g><text x="139.8911" y="76.8802"
textLength="4.4048" font-size="2.6667" lengthAdjust="spacingAndGlyphs"
text-anchor="middle" opacity="0" stroke-opacity="0">D3</text>
<g class="stroked-text"><desc>D3</desc>
<path d="M138.4149 76.7898
L138.4149 74.7898
" />
<path d="M138.4149 74.7898
L138.8911 74.7898
" />
<path d="M138.8911 74.7898
L139.1768 74.8851
" />
<path d="M139.1768 74.8851
L139.3673 75.0755
" />
<path d="M139.3673 75.0755
L139.4625 75.2660
" />
<path d="M139.4625 75.2660
L139.5578 75.6470
" />
<path d="M139.5578 75.6470
L139.5578 75.9327
" />
<path d="M139.5578 75.9327
L139.4625 76.3136
" />
<path d="M139.4625 76.3136
L139.3673 76.5041
" />
<path d="M139.3673 76.5041
L139.1768 76.6946
" />
<path d="M139.1768 76.6946
L138.8911 76.7898
" />
<path d="M138.8911 76.7898
L138.4149 76.7898
" />
<path d="M140.2244 74.7898
L141.4625 74.7898
" />
<path d="M141.4625 74.7898
L140.7959 75.5517
" />
<path d="M140.7959 75.5517
L141.0816 75.5517
" />
<path d="M141.0816 75.5517
L141.2721 75.6470
" />
<path d="M141.2721 75.6470
L141.3673 75.7422
" />
<path d="M141.3673 75.7422
L141.4625 75.9327
" />
<path d="M141.4625 75.9327
L141.4625 76.4089
" />
<path d="M141.4625 76.4089
L141.3673 76.5993
" />
<path d="M141.3673 76.5993
L141.2721 76.6946
" />
<path d="M141.2721 76.6946
L141.0816 76.7898
" />
<path d="M141.0816 76.7898
L140.5101 76.7898
" />
<path d="M140.5101 76.7898
L140.3197 76.6946
" />
<path d="M140.3197 76.6946
L140.2244 76.5993
" />
</g><text x="139.8911" y="112.4302"
textLength="6.3095" font-size="2.6667" lengthAdjust="spacingAndGlyphs"
text-anchor="middle" opacity="0" stroke-opacity="0">D10</text>
<g class="stroked-text"><desc>D10</desc>
<path d="M137.4625 112.3398
L137.4625 110.3398
" />
<path d="M137.4625 110.3398
L137.9387 110.3398
" />
<path d="M137.9387 110.3398
L138.2244 110.4351
" />
<path d="M138.2244 110.4351
L138.4149 110.6255
" />
<path d="M138.4149 110.6255
L138.5101 110.8160
" />
<path d="M138.5101 110.8160
L138.6054 111.1970
" />
<path d="M138.6054 111.1970
L138.6054 111.4827
" />
<path d="M138.6054 111.4827
L138.5101 111.8636
" />
<path d="M138.5101 111.8636
L138.4149 112.0541
" />
<path d="M138.4149 112.0541
L138.2244 112.2446
" />
<path d="M138.2244 112.2446
L137.9387 112.3398
" />
<path d="M137.9387 112.3398
L137.4625 112.3398
" />
<path d="M140.5101 112.3398
L139.3673 112.3398
" />
<path d="M139.9387 112.3398
L139.9387 110.3398
" />
<path d="M139.9387 110.3398
L139.7482 110.6255
" />
<path d="M139.7482 110.6255
L139.5578 110.8160
" />
<path d="M139.5578 110.8160
L139.3673 110.9112
" />
<path d="M141.7482 110.3398
L141.9387 110.3398
" />
<path d="M141.9387 110.3398
L142.1292 110.4351
" />
<path d="M142.1292 110.4351
L142.2244 110.5303
" />
<path d="M142.2244 110.5303
L142.3197 110.7208
" />
<path d="M142.3197 110.7208
L142.4149 111.1017
" />
<path d="M142.4149 111.1017
L142.4149 111.5779
" />
<path d="M142.4149 111.5779
L142.3197 111.9589
" />
<path d="M142.3197 111.9589
L142.2244 112.1493
" />
<path d="M142.2244 112.1493
L142.1292 112.2446
" />
<path d="M142.1292 112.2446
L141.9387 112.3398
" />
<path d="M141.9387 112.3398
L141.7482 112.3398
" />
<path d="M141.7482 112.3398
L141.5578 112.2446
" />
<path d="M141.5578 112.2446
L141.4625 112.1493
" />
<path d="M141.4625 112.1493
L141.3673 111.9589
" />
<path d="M141.3673 111.9589
L141.2721 111.5779
" />
<path d="M141.2721 111.5779
L141.2721 111.1017
" />
<path d="M141.2721 111.1017
L141.3673 110.7208
" />
<path d="M141.3673 110.7208
L141.4625 110.5303
" />
<path d="M141.4625 110.5303
L141.5578 110.4351
" />
<path d="M141.5578 110.4351
L141.7482 110.3398
" />
</g><text x="139.8861" y="102.2802"
textLength="4.4048" font-size="2.6667" lengthAdjust="spacingAndGlyphs"
text-anchor="middle" opacity="0" stroke-opacity="0">D8</text>
<g class="stroked-text"><desc>D8</desc>
<path d="M138.4099 102.1898
L138.4099 100.1898
" />
<path d="M138.4099 100.1898
L138.8861 100.1898
" />
<path d="M138.8861 100.1898
L139.1718 100.2851
" />
<path d="M139.1718 100.2851
L139.3623 100.4755
" />
<path d="M139.3623 100.4755
L139.4575 100.6660
" />
<path d="M139.4575 100.6660
L139.5528 101.0470
" />
<path d="M139.5528 101.0470
L139.5528 101.3327
" />
<path d="M139.5528 101.3327
L139.4575 101.7136
" />
<path d="M139.4575 101.7136
L139.3623 101.9041
" />
<path d="M139.3623 101.9041
L139.1718 102.0946
" />
<path d="M139.1718 102.0946
L138.8861 102.1898
" />
<path d="M138.8861 102.1898
L138.4099 102.1898
" />
<path d="M140.6956 101.0470
L140.5051 100.9517
" />
<path d="M140.5051 100.9517
L140.4099 100.8565
" />
<path d="M140.4099 100.8565
L140.3147 100.6660
" />
<path d="M140.3147 100.6660
L140.3147 100.5708
" />
<path d="M140.3147 100.5708
L140.4099 100.3803
" />
<path d="M140.4099 100.3803
L140.5051 100.2851
" />
<path d="M140.5051 100.2851
L140.6956 100.1898
" />
<path d="M140.6956 100.1898
L141.0766 100.1898
" />
<path d="M141.0766 100.1898
L141.2671 100.2851
" />
<path d="M141.2671 100.2851
L141.3623 100.3803
" />
<path d="M141.3623 100.3803
L141.4575 100.5708
" />
<path d="M141.4575 100.5708
L141.4575 100.6660
" />
<path d="M141.4575 100.6660
L141.3623 100.8565
" />
<path d="M141.3623 100.8565
L141.2671 100.9517
" />
<path d="M141.2671 100.9517
L141.0766 101.0470
" />
<path d="M141.0766 101.0470
L140.6956 101.0470
" />
<path d="M140.6956 101.0470
L140.5051 101.1422
" />
<path d="M140.5051 101.1422
L140.4099 101.2374
" />
<path d="M140.4099 101.2374
L140.3147 101.4279
" />
<path d="M140.3147 101.4279
L140.3147 101.8089
" />
<path d="M140.3147 101.8089
L140.4099 101.9993
" />
<path d="M140.4099 101.9993
L140.5051 102.0946
" />
<path d="M140.5051 102.0946
L140.6956 102.1898
" />
<path d="M140.6956 102.1898
L141.0766 102.1898
" />
<path d="M141.0766 102.1898
L141.2671 102.0946
" />
<path d="M141.2671 102.0946
L141.3623 101.9993
" />
<path d="M141.3623 101.9993
L141.4575 101.8089
" />
<path d="M141.4575 101.8089
L141.4575 101.4279
" />
<path d="M141.4575 101.4279
L141.3623 101.2374
" />
<path d="M141.3623 101.2374
L141.2671 101.1422
" />
<path d="M141.2671 101.1422
L141.0766 101.0470
" />
</g></g>
<g style="fill:none; 
stroke:#000000; stroke-width:0.2000; stroke-opacity:1; 
stroke-linecap:round; stroke-linejoin:round;">
<path d="M143.8411 82.0802
L145.4411 82.0802
" />
<path d="M143.8411 85.2802
L143.8411 82.0802
" />
<path d="M145.4411 82.0802
L145.4411 85.2802
" />
<path d="M145.4411 85.2802
L143.8411 85.2802
" />
<path d="M156.2911 82.7302
L157.8911 82.7302
" />
<path d="M156.2911 83.9302
L156.2911 82.7302
" />
<path d="M156.7911 82.9302
L156.7911 83.7302
" />
<path d="M156.7911 83.3302
L156.5911 83.3302
" />
<path d="M156.7911 83.7302
L157.3911 83.3302
" />
<path d="M157.3911 82.9302
L157.3911 83.7302
" />
<path d="M157.3911 83.3302
L156.7911 82.9302
" />
<path d="M157.3911 83.3302
L157.5911 83.3302
" />
<path d="M157.8911 82.7302
L157.8911 83.9302
" />
<path d="M157.8911 83.9302
L156.2911 83.9302
" />
<path d="M139.0911 72.5802
L140.6911 72.5802
" />
<path d="M139.0911 73.7802
L139.0911 72.5802
" />
<path d="M139.5911 73.1802
L139.3911 73.1802
" />
<path d="M139.5911 73.1802
L140.1911 73.5802
" />
<path d="M139.5911 73.5802
L139.5911 72.7802
" />
<path d="M140.1911 72.7802
L139.5911 73.1802
" />
<path d="M140.1911 73.1802
L140.3911 73.1802
" />
<path d="M140.1911 73.5802
L140.1911 72.7802
" />
<path d="M140.6911 72.5802
L140.6911 73.7802
" />
<path d="M140.6911 73.7802
L139.0911 73.7802
" />
<path d="M139.0911 97.9802
L140.6911 97.9802
" />
<path d="M139.0911 99.1802
L139.0911 97.9802
" />
<path d="M139.5911 98.5802
L139.3911 98.5802
" />
<path d="M139.5911 98.5802
L140.1911 98.9802
" />
<path d="M139.5911 98.9802
L139.5911 98.1802
" />
<path d="M140.1911 98.1802
L139.5911 98.5802
" />
<path d="M140.1911 98.5802
L140.3911 98.5802
" />
<path d="M140.1911 98.9802
L140.1911 98.1802
" />
<path d="M140.6911 97.9802
L140.6911 99.1802
" />
<path d="M140.6911 99.1802
L139.0911 99.1802
" />
<path d="M156.3411 72.5802
L157.9411 72.5802
" />
<path d="M156.3411 73.7802
L156.3411 72.5802
" />
<path d="M156.8411 72.7802
L156.8411 73.5802
" />
<path d="M156.8411 73.1802
L156.6411 73.1802
" />
<path d="M156.8411 73.5802
L157.4411 73.1802
" />
<path d="M157.4411 72.7802
L157.4411 73.5802
" />
<path d="M157.4411 73.1802
L156.8411 72.7802
" />
<path d="M157.4411 73.1802
L157.6411 73.1802
" />
<path d="M157.9411 72.5802
L157.9411 73.7802
" />
<path d="M157.9411 73.7802
L156.3411 73.7802
" />
<path d="M139.0911 87.8302
L140.6911 87.8302
" />
<path d="M139.0911 89.0302
L139.0911 87.8302
" />
<path d="M139.5911 88.4302
L139.3911 88.4302
" />
<path d="M139.5911 88.4302
L140.1911 88.8302
" />
<path d="M139.5911 88.8302
L139.5911 88.0302
" />
<path d="M140.1911 88.0302
L139.5911 88.4302
" />
<path d="M140.1911 88.4302
L140.3911 88.4302
" />
<path d="M140.1911 88.8302
L140.1911 88.0302
" />
<path d="M140.6911 87.8302
L140.6911 89.0302
" />
<path d="M140.6911 89.0302
L139.0911 89.0302
" />
<path d="M139.0911 108.1302
L140.6911 108.1302
" />
<path d="M139.0911 109.3302
L139.0911 108.1302
" />
<path d="M139.5911 108.7302
L139.3911 108.7302
" />
<path d="M139.5911 108.7302
L140.1911 109.1302
" />
<path d="M139.5911 109.1302
L139.5911 108.3302
" />
<path d="M140.1911 108.3302
L139.5911 108.7302
" />
<path d="M140.1911 108.7302
L140.3911 108.7302
" />
<path d="M140.1911 109.1302
L140.1911 108.3302
" />
<path d="M140.6911 108.1302
L140.6911 109.3302
" />
<path d="M140.6911 109.3302
L139.0911 109.3302
" />
<path d="M156.3411 113.2302
L157.9411 113.2302
" />
<path d="M156.3411 114.4302
L156.3411 113.2302
" />
<path d="M156.8411 113.4302
L156.8411 114.2302
" />
<path d="M156.8411 113.8302
L156.6411 113.8302
" />
<path d="M156.8411 114.2302
L157.4411 113.8302
" />
<path d="M157.4411 113.4302
L157.4411 114.2302
" />
<path d="M157.4411 113.8302
L156.8411 113.4302
" />
<path d="M157.4411 113.8302
L157.6411 113.8302
" />
<path d="M157.9411 113.2302
L157.9411 114.4302
" />
<path d="M157.9411 114.4302
L156.3411 114.4302
" />
<path d="M139.0911 123.3802
L140.6911 123.3802
" />
<path d="M139.0911 124.5802
L139.0911 123.3802
" />
<path d="M139.5911 123.9802
L139.3911 123.9802
" />
<path d="M139.5911 123.9802
L140.1911 124.3802
" />
<path d="M139.5911 124.3802
L139.5911 123.5802
" />
<path d="M140.1911 123.5802
L139.5911 123.9802
" />
<path d="M140.1911 123.9802
L140.3911 123.9802
" />
<path d="M140.1911 124.3802
L140.1911 123.5802
" />
<path d="M140.6911 123.3802
L140.6911 124.5802
" />
<path d="M140.6911 124.5802
L139.0911 124.5802
" />
<path style="fill:none; 
stroke:#000000; stroke-width:0.2000; stroke-opacity:1; 
stroke-linecap:round; stroke-linejoin:round;fill:none"
d="M 146.0861,71.9502
144.4361,71.9502
144.4361,75.1502
146.0861,75.1502
Z" /> 
<path style="fill:#000000; fill-opacity:1.0000; stroke:none;fill-rule:evenodd;"
d="M 161.7091,67.5822
160.6931,67.5822
160.6931,68.5982
161.7091,68.5982
Z" /> 
<path style="fill:#000000; fill-opacity:1.0000; stroke:none;fill-rule:evenodd;"
d="M 161.7091,72.6622
160.6931,72.6622
160.6931,73.6782
161.7091,73.6782
Z" /> 
<path style="fill:#000000; fill-opacity:1.0000; stroke:none;fill-rule:evenodd;"
d="M 161.7091,77.7422
160.6931,77.7422
160.6931,78.7582
161.7091,78.7582
Z" /> 
<path style="fill:#000000; fill-opacity:1.0000; stroke:none;fill-rule:evenodd;"
d="M 161.7091,82.8222
160.6931,82.8222
160.6931,83.8382
161.7091,83.8382
Z" /> 
<path style="fill:#000000; fill-opacity:1.0000; stroke:none;fill-rule:evenodd;"
d="M 161.7091,87.9022
160.6931,87.9022
160.6931,88.9182
161.7091,88.9182
Z" /> 
<path style="fill:#000000; fill-opacity:1.0000; stroke:none;fill-rule:evenodd;"
d="M 161.7091,92.9822
160.6931,92.9822
160.6931,93.9982
161.7091,93.9982
Z" /> 
<path style="fill:#000000; fill-opacity:1.0000; stroke:none;fill-rule:evenodd;"
d="M 161.7091,98.0622
160.6931,98.0622
160.6931,99.0782
161.7091,99.0782
Z" /> 
<path style="fill:#000000; fill-opacity:1.0000; stroke:none;fill-rule:evenodd;"
d="M 161.7091,103.1422
160.6931,103.1422
160.6931,104.1582
161.7091,104.1582
Z" /> 
<path style="fill:#000000; fill-opacity:1.0000; stroke:none;fill-rule:evenodd;"
d="M 161.7091,108.2222
160.6931,108.2222
160.6931,109.2382
161.7091,109.2382
Z" /> 
<path style="fill:#000000; fill-opacity:1.0000; stroke:none;fill-rule:evenodd;"
d="M 161.7091,113.3022
160.6931,113.3022
160.6931,114.3182
161.7091,114.3182
Z" /> 
<path style="fill:#000000; fill-opacity:1.0000; stroke:none;fill-rule:evenodd;"
d="M 161.7091,118.3822
160.6931,118.3822
160.6931,119.3982
161.7091,119.3982
Z" /> 
<path style="fill:#000000; fill-opacity:1.0000; stroke:none;fill-rule:evenodd;"
d="M 161.7091,123.4622
160.6931,123.4622
160.6931,124.4782
161.7091,124.4782
Z" /> 
</g>
<g style="fill:none; 
stroke:#000000; stroke-width:0.2000; stroke-opacity:1; 
stroke-linecap:round; stroke-linejoin:round;">
<path d="M156.3411 77.6302
L157.9411 77.6302
" />
<path d="M156.3411 78.8302
L156.3411 77.6302
" />
<path d="M156.8411 77.8302
L156.8411 78.6302
" />
<path d="M156.8411 78.2302
L156.6411 78.2302
" />
<path d="M156.8411 78.6302
L157.4411 78.2302
" />
<path d="M157.4411 77.8302
L157.4411 78.6302
" />
<path d="M157.4411 78.2302
L156.8411 77.8302
" />
<path d="M157.4411 78.2302
L157.6411 78.2302
" />
<path d="M157.9411 77.6302
L157.9411 78.8302
" />
<path d="M157.9411 78.8302
L156.3411 78.8302
" />
<path d="M156.3461 97.9802
L157.9461 97.9802
" />
<path d="M156.3461 99.1802
L156.3461 97.9802
" />
<path d="M156.8461 98.1802
L156.8461 98.9802
" />
<path d="M156.8461 98.5802
L156.6461 98.5802
" />
<path d="M156.8461 98.9802
L157.4461 98.5802
" />
<path d="M157.4461 98.1802
L157.4461 98.9802
" />
<path d="M157.4461 98.5802
L156.8461 98.1802
" />
<path d="M157.4461 98.5802
L157.6461 98.5802
" />
<path d="M157.9461 97.9802
L157.9461 99.1802
" />
<path d="M157.9461 99.1802
L156.3461 99.1802
" />
<path style="fill:none; 
stroke:#000000; stroke-width:0.2000; stroke-opacity:1; 
stroke-linecap:round; stroke-linejoin:round;fill:none"
d="M 151.9411,99.5302
145.9411,99.5302
145.9411,88.8302
147.4411,87.3302
151.9411,87.3302
Z" /> 
<path d="M156.3411 118.2802
L157.9411 118.2802
" />
<path d="M156.3411 119.4802
L156.3411 118.2802
" />
<path d="M156.8411 118.4802
L156.8411 119.2802
" />
<path d="M156.8411 118.8802
L156.6411 118.8802
" />
<path d="M156.8411 119.2802
L157.4411 118.8802
" />
<path d="M157.4411 118.4802
L157.4411 119.2802
" />
<path d="M157.4411 118.8802
L156.8411 118.4802
" />
<path d="M157.4411 118.8802
L157.6411 118.8802
" />
<path d="M157.9411 118.2802
L157.9411 119.4802
" />
<path d="M157.9411 119.4802
L156.3411 119.4802
" />
<path d="M156.3411 87.8302
L157.9411 87.8302
" />
<path d="M156.3411 89.0302
L156.3411 87.8302
" />
<path d="M156.8411 88.0302
L156.8411 88.8302
" />
<path d="M156.8411 88.4302
L156.6411 88.4302
" />
<path d="M156.8411 88.8302
L157.4411 88.4302
" />
<path d="M157.4411 88.0302
L157.4411 88.8302
" />
<path d="M157.4411 88.4302
L156.8411 88.0302
" />
<path d="M157.4411 88.4302
L157.6411 88.4302
" />
<path d="M157.9411 87.8302
L157.9411 89.0302
" />
<path d="M157.9411 89.0302
L156.3411 89.0302
" />
<path d="M156.3411 92.8802
L157.9411 92.8802
" />
<path d="M156.3411 94.0802
L156.3411 92.8802
" />
<path d="M156.8411 93.0802
L156.8411 93.8802
" />
<path d="M156.8411 93.4802
L156.6411 93.4802
" />
<path d="M156.8411 93.8802
L157.4411 93.4802
" />
<path d="M157.4411 93.0802
L157.4411 93.8802
" />
<path d="M157.4411 93.4802
L156.8411 93.0802
" />
<path d="M157.4411 93.4802
L157.6411 93.4802
" />
<path d="M157.9411 92.8802
L157.9411 94.0802
" />
<path d="M157.9411 94.0802
L156.3411 94.0802
" />
<path style="fill:#000000; fill-opacity:1.0000; stroke:none;fill-rule:evenodd;"
d="M 135.2931,67.5822
136.3091,67.5822
136.3091,68.5982
135.2931,68.5982
Z" /> 
<path style="fill:#000000; fill-opacity:1.0000; stroke:none;fill-rule:evenodd;"
d="M 135.2931,72.6622
136.3091,72.6622
136.3091,73.6782
135.2931,73.6782
Z" /> 
<path style="fill:#000000; fill-opacity:1.0000; stroke:none;fill-rule:evenodd;"
d="M 135.2931,77.7422
136.3091,77.7422
136.3091,78.7582
135.2931,78.7582
Z" /> 
<path style="fill:#000000; fill-opacity:1.0000; stroke:none;fill-rule:evenodd;"
d="M 135.2931,82.8222
136.3091,82.8222
136.3091,83.8382
135.2931,83.8382
Z" /> 
<path style="fill:#000000; fill-opacity:1.0000; stroke:none;fill-rule:evenodd;"
d="M 135.2931,87.9022
136.3091,87.9022
136.3091,88.9182
135.2931,88.9182
Z" /> 
<path style="fill:#000000; fill-opacity:1.0000; stroke:none;fill-rule:evenodd;"
d="M 135.2931,92.9822
136.3091,92.9822
136.3091,93.9982
135.2931,93.9982
Z" /> 
<path style="fill:#000000; fill-opacity:1.0000; stroke:none;fill-rule:evenodd;"
d="M 135.2931,98.0622
136.3091,98.0622
136.3091,99.0782
135.2931,99.0782
Z" /> 
<path style="fill:#000000; fill-opacity:1.0000; stroke:none;fill-rule:evenodd;"
d="M 135.2931,103.1422
136.3091,103.1422
136.3091,104.1582
135.2931,104.1582
Z" /> 
<path style="fill:#000000; fill-opacity:1.0000; stroke:none;fill-rule:evenodd;"
d="M 135.2931,108.2222
136.3091,108.2222
136.3091,109.2382
135.2931,109.2382
Z" /> 
<path style="fill:#000000; fill-opacity:1.0000; stroke:none;fill-rule:evenodd;"
d="M 135.2931,113.3022
136.3091,113.3022
136.3091,114.3182
135.2931,114.3182
Z" /> 
<path style="fill:#000000; fill-opacity:1.0000; stroke:none;fill-rule:evenodd;"
d="M 135.2931,118.3822
136.3091,118.3822
136.3091,119.3982
135.2931,119.3982
Z" /> 
<path style="fill:#000000; fill-opacity:1.0000; stroke:none;fill-rule:evenodd;"
d="M 135.2931,123.4622
136.3091,123.4622
136.3091,124.4782
135.2931,124.4782
Z" /> 
</g>
<g style="fill:none; 
stroke:#000000; stroke-width:0.2000; stroke-opacity:1; 
stroke-linecap:round; stroke-linejoin:round;">
<path d="M146.9911 82.0802
L148.5911 82.0802
" />
<path d="M146.9911 85.2802
L146.9911 82.0802
" />
<path d="M148.5911 82.0802
L148.5911 85.2802
" />
<path d="M148.5911 85.2802
L146.9911 85.2802
" />
<path d="M156.3411 108.1302
L157.9411 108.1302
" />
<path d="M156.3411 109.3302
L156.3411 108.1302
" />
<path d="M156.8411 108.3302
L156.8411 109.1302
" />
<path d="M156.8411 108.7302
L156.6411 108.7302
" />
<path d="M156.8411 109.1302
L157.4411 108.7302
" />
<path d="M157.4411 108.3302
L157.4411 109.1302
" />
<path d="M157.4411 108.7302
L156.8411 108.3302
" />
<path d="M157.4411 108.7302
L157.6411 108.7302
" />
<path d="M157.9411 108.1302
L157.9411 109.3302
" />
<path d="M157.9411 109.3302
L156.3411 109.3302
" />
<path d="M139.0911 118.2802
L140.6911 118.2802
" />
<path d="M139.0911 119.4802
L139.0911 118.2802
" />
<path d="M139.5911 118.8802
L139.3911 118.8802
" />
<path d="M139.5911 118.8802
L140.1911 119.2802
" />
<path d="M139.5911 119.2802
L139.5911 118.4802
" />
<path d="M140.1911 118.4802
L139.5911 118.8802
" />
<path d="M140.1911 118.8802
L140.3911 118.8802
" />
<path d="M140.1911 119.2802
L140.1911 118.4802
" />
<path d="M140.6911 118.2802
L140.6911 119.4802
" />
<path d="M140.6911 119.4802
L139.0911 119.4802
" />
<path d="M139.0911 82.7302
L140.6911 82.7302
" />
<path d="M139.0911 83.9302
L139.0911 82.7302
" />
<path d="M139.5911 83.3302
L139.3911 83.3302
" />
<path d="M139.5911 83.3302
L140.1911 83.7302
" />
<path d="M139.5911 83.7302
L139.5911 82.9302
" />
<path d="M140.1911 82.9302
L139.5911 83.3302
" />
<path d="M140.1911 83.3302
L140.3911 83.3302
" />
<path d="M140.1911 83.7302
L140.1911 82.9302
" />
<path d="M140.6911 82.7302
L140.6911 83.9302
" />
<path d="M140.6911 83.9302
L139.0911 83.9302
" />
<path d="M139.0911 92.8802
L140.6911 92.8802
" />
<path d="M139.0911 94.0802
L139.0911 92.8802
" />
<path d="M139.5911 93.4802
L139.3911 93.4802
" />
<path d="M139.5911 93.4802
L140.1911 93.8802
" />
<path d="M139.5911 93.8802
L139.5911 93.0802
" />
<path d="M140.1911 93.0802
L139.5911 93.4802
" />
<path d="M140.1911 93.4802
L140.3911 93.4802
" />
<path d="M140.1911 93.8802
L140.1911 93.0802
" />
<path d="M140.6911 92.8802
L140.6911 94.0802
" />
<path d="M140.6911 94.0802
L139.0911 94.0802
" />
<path style="fill:none; 
stroke:#000000; stroke-width:0.2000; stroke-opacity:1; 
stroke-linecap:round; stroke-linejoin:round;fill:none"
d="M 149.2861,71.9502
147.6361,71.9502
147.6361,75.1502
149.2861,75.1502
Z" /> 
<path d="M139.0911 67.4802
L140.6911 67.4802
" />
<path d="M139.0911 68.6802
L139.0911 67.4802
" />
<path d="M139.5911 68.0802
L139.3911 68.0802
" />
<path d="M139.5911 68.0802
L140.1911 68.4802
" />
<path d="M139.5911 68.4802
L139.5911 67.6802
" />
<path d="M140.1911 67.6802
L139.5911 68.0802
" />
<path d="M140.1911 68.0802
L140.3911 68.0802
" />
<path d="M140.1911 68.4802
L140.1911 67.6802
" />
<path d="M140.6911 67.4802
L140.6911 68.6802
" />
<path d="M140.6911 68.6802
L139.0911 68.6802
" />
<path d="M156.3411 103.0302
L157.9411 103.0302
" />
<path d="M156.3411 104.2302
L156.3411 103.0302
" />
<path d="M156.8411 103.2302
L156.8411 104.0302
" />
<path d="M156.8411 103.6302
L156.6411 103.6302
" />
<path d="M156.8411 104.0302
L157.4411 103.6302
" />
<path d="M157.4411 103.2302
L157.4411 104.0302
" />
<path d="M157.4411 103.6302
L156.8411 103.2302
" />
<path d="M157.4411 103.6302
L157.6411 103.6302
" />
<path d="M157.9411 103.0302
L157.9411 104.2302
" />
<path d="M157.9411 104.2302
L156.3411 104.2302
" />
<path d="M156.3411 67.4802
L157.9411 67.4802
" />
<path d="M156.3411 68.6802
L156.3411 67.4802
" />
<path d="M156.8411 67.6802
L156.8411 68.4802
" />
<path d="M156.8411 68.0802
L156.6411 68.0802
" />
<path d="M156.8411 68.4802
L157.4411 68.0802
" />
<path d="M157.4411 67.6802
L157.4411 68.4802
" />
<path d="M157.4411 68.0802
L156.8411 67.6802
" />
<path d="M157.4411 68.0802
L157.6411 68.0802
" />
<path d="M157.9411 67.4802
L157.9411 68.6802
" />
<path d="M157.9411 68.6802
L156.3411 68.6802
" />
<path d="M139.0911 77.6802
L140.6911 77.6802
" />
<path d="M139.0911 78.8802
L139.0911 77.6802
" />
<path d="M139.5911 78.2802
L139.3911 78.2802
" />
<path d="M139.5911 78.2802
L140.1911 78.6802
" />
<path d="M139.5911 78.6802
L139.5911 77.8802
" />
<path d="M140.1911 77.8802
L139.5911 78.2802
" />
<path d="M140.1911 78.2802
L140.3911 78.2802
" />
<path d="M140.1911 78.6802
L140.1911 77.8802
" />
<path d="M140.6911 77.6802
L140.6911 78.8802
" />
<path d="M140.6911 78.8802
L139.0911 78.8802
" />
<path d="M139.0911 113.2302
L140.6911 113.2302
" />
<path d="M139.0911 114.4302
L139.0911 113.2302
" />
<path d="M139.5911 113.8302
L139.3911 113.8302
" />
<path d="M139.5911 113.8302
L140.1911 114.2302
" />
<path d="M139.5911 114.2302
L139.5911 113.4302
" />
<path d="M140.1911 113.4302
L139.5911 113.8302
" />
<path d="M140.1911 113.8302
L140.3911 113.8302
" />
<path d="M140.1911 114.2302
L140.1911 113.4302
" />
<path d="M140.6911 113.2302
L140.6911 114.4302
" />
<path d="M140.6911 114.4302
L139.0911 114.4302
" />
<path d="M139.0861 103.0802
L140.6861 103.0802
" />
<path d="M139.0861 104.2802
L139.0861 103.0802
" />
<path d="M139.5861 103.6802
L139.3861 103.6802
" />
<path d="M139.5861 103.6802
L140.1861 104.0802
" />
<path d="M139.5861 104.0802
L139.5861 103.2802
" />
<path d="M140.1861 103.2802
L139.5861 103.6802
" />
<path d="M140.1861 103.6802
L140.3861 103.6802
" />
<path d="M140.1861 104.0802
L140.1861 103.2802
" />
<path d="M140.6861 103.0802
L140.6861 104.2802
" />
<path d="M140.6861 104.2802
L139.0861 104.2802
" />
</g> 
</svg>
