<?xml version="1.0" standalone="no"?>
 <!DOCTYPE svg PUBLIC "-//W3C//DTD SVG 1.1//EN" 
 "http://www.w3.org/Graphics/SVG/1.1/DTD/svg11.dtd"> 
<svg
  xmlns:svg="http://www.w3.org/2000/svg"
  xmlns="http://www.w3.org/2000/svg"
  xmlns:xlink="http://www.w3.org/1999/xlink"
  version="1.1"
  width="297.0022mm" height="210.0072mm" viewBox="0.0000 0.0000 297.0022 210.0072">
<title>SVG Image created as txe8116-module-User_Drawings2.svg date 2026/03/24 20:18:09 </title>
  <desc>Image generated by PCBNEW </desc>
<g style="fill:#000000; fill-opacity:1.0000;stroke:#000000; stroke-opacity:1.0000;
stroke-linecap:round; stroke-linejoin:round;"
 transform="translate(0 0) scale(1 1)">
</g>
<g style="fill:none; 
stroke:#000000; stroke-width:0.3000; stroke-opacity:1; 
stroke-linecap:round; stroke-linejoin:round;">
<text x="148.5211" y="136.8302"
textLength="9.0714" font-size="2.6667" lengthAdjust="spacingAndGlyphs"
text-anchor="middle" opacity="0" stroke-opacity="0">12.72</text>
<g class="stroked-text"><desc>12.72</desc>
<path d="M145.7592 136.7398
L144.6163 136.7398
" />
<path d="M145.1878 136.7398
L145.1878 134.7398
" />
<path d="M145.1878 134.7398
L144.9973 135.0255
" />
<path d="M144.9973 135.0255
L144.8068 135.2160
" />
<path d="M144.8068 135.2160
L144.6163 135.3112
" />
<path d="M146.5211 134.9303
L146.6163 134.8351
" />
<path d="M146.6163 134.8351
L146.8068 134.7398
" />
<path d="M146.8068 134.7398
L147.2830 134.7398
" />
<path d="M147.2830 134.7398
L147.4735 134.8351
" />
<path d="M147.4735 134.8351
L147.5687 134.9303
" />
<path d="M147.5687 134.9303
L147.6640 135.1208
" />
<path d="M147.6640 135.1208
L147.6640 135.3112
" />
<path d="M147.6640 135.3112
L147.5687 135.5970
" />
<path d="M147.5687 135.5970
L146.4259 136.7398
" />
<path d="M146.4259 136.7398
L147.6640 136.7398
" />
<path d="M148.5211 136.5493
L148.6163 136.6446
" />
<path d="M148.6163 136.6446
L148.5211 136.7398
" />
<path d="M148.5211 136.7398
L148.4259 136.6446
" />
<path d="M148.4259 136.6446
L148.5211 136.5493
" />
<path d="M148.5211 136.5493
L148.5211 136.7398
" />
<path d="M149.2830 134.7398
L150.6163 134.7398
" />
<path d="M150.6163 134.7398
L149.7592 136.7398
" />
<path d="M151.2830 134.9303
L151.3782 134.8351
" />
<path d="M151.3782 134.8351
L151.5687 134.7398
" />
<path d="M151.5687 134.7398
L152.0449 134.7398
" />
<path d="M152.0449 134.7398
L152.2354 134.8351
" />
<path d="M152.2354 134.8351
L152.3306 134.9303
" />
<path d="M152.3306 134.9303
L152.4259 135.1208
" />
<path d="M152.4259 135.1208
L152.4259 135.3112
" />
<path d="M152.4259 135.3112
L152.3306 135.5970
" />
<path d="M152.3306 135.5970
L151.1878 136.7398
" />
<path d="M151.1878 136.7398
L152.4259 136.7398
" />
</g></g>
<g style="fill:none; 
stroke:#000000; stroke-width:0.1000; stroke-opacity:1; 
stroke-linecap:round; stroke-linejoin:round;">
<path d="M135.8011 124.9702
L135.8011 139.3030
" />
<path d="M161.2411 139.3030
L161.2411 122.8502
" />
<path d="M135.8011 138.1302
L161.2411 138.1302
" />
<path d="M135.8011 138.1302
L138.0541 136.9573
" />
<path d="M135.8011 138.1302
L138.0541 139.3030
" />
<path d="M161.2411 138.1302
L158.9881 139.3030
" />
<path d="M161.2411 138.1302
L158.9881 136.9573
" />
</g>
<g style="fill:none; 
stroke:#000000; stroke-width:0.2000; stroke-opacity:1; 
stroke-linecap:round; stroke-linejoin:round;">
<text x="148.5011" y="142.0742"
textLength="8.7714" font-size="2.6667" lengthAdjust="spacingAndGlyphs"
text-anchor="middle" opacity="0" stroke-opacity="0">15.24</text>
<g class="stroked-text"><desc>15.24</desc>
<path d="M145.7392 141.9890
L144.5963 141.9890
" />
<path d="M145.1678 141.9890
L145.1678 139.9890
" />
<path d="M145.1678 139.9890
L144.9773 140.2747
" />
<path d="M144.9773 140.2747
L144.7868 140.4652
" />
<path d="M144.7868 140.4652
L144.5963 140.5604
" />
<path d="M147.5487 139.9890
L146.5963 139.9890
" />
<path d="M146.5963 139.9890
L146.5011 140.9414
" />
<path d="M146.5011 140.9414
L146.5963 140.8462
" />
<path d="M146.5963 140.8462
L146.7868 140.7509
" />
<path d="M146.7868 140.7509
L147.2630 140.7509
" />
<path d="M147.2630 140.7509
L147.4535 140.8462
" />
<path d="M147.4535 140.8462
L147.5487 140.9414
" />
<path d="M147.5487 140.9414
L147.6440 141.1319
" />
<path d="M147.6440 141.1319
L147.6440 141.6081
" />
<path d="M147.6440 141.6081
L147.5487 141.7985
" />
<path d="M147.5487 141.7985
L147.4535 141.8938
" />
<path d="M147.4535 141.8938
L147.2630 141.9890
" />
<path d="M147.2630 141.9890
L146.7868 141.9890
" />
<path d="M146.7868 141.9890
L146.5963 141.8938
" />
<path d="M146.5963 141.8938
L146.5011 141.7985
" />
<path d="M148.5011 141.7985
L148.5963 141.8938
" />
<path d="M148.5963 141.8938
L148.5011 141.9890
" />
<path d="M148.5011 141.9890
L148.4059 141.8938
" />
<path d="M148.4059 141.8938
L148.5011 141.7985
" />
<path d="M148.5011 141.7985
L148.5011 141.9890
" />
<path d="M149.3582 140.1795
L149.4535 140.0843
" />
<path d="M149.4535 140.0843
L149.6440 139.9890
" />
<path d="M149.6440 139.9890
L150.1201 139.9890
" />
<path d="M150.1201 139.9890
L150.3106 140.0843
" />
<path d="M150.3106 140.0843
L150.4059 140.1795
" />
<path d="M150.4059 140.1795
L150.5011 140.3700
" />
<path d="M150.5011 140.3700
L150.5011 140.5604
" />
<path d="M150.5011 140.5604
L150.4059 140.8462
" />
<path d="M150.4059 140.8462
L149.2630 141.9890
" />
<path d="M149.2630 141.9890
L150.5011 141.9890
" />
<path d="M152.2154 140.6557
L152.2154 141.9890
" />
<path d="M151.7392 139.8938
L151.2630 141.3223
" />
<path d="M151.2630 141.3223
L152.5011 141.3223
" />
</g><path d="M133.2611 127.5102
L133.2611 144.4470
" />
<path d="M163.7411 144.4470
L163.7411 127.5102
" />
<path d="M133.2611 143.2742
L163.7411 143.2742
" />
<path d="M133.2611 143.2742
L135.5141 142.1013
" />
<path d="M133.2611 143.2742
L135.5141 144.4470
" />
<path d="M163.7411 143.2742
L161.4881 144.4470
" />
<path d="M163.7411 143.2742
L161.4881 142.1013
" />
</g> 
</svg>
