<?xml version="1.0" standalone="no"?>
 <!DOCTYPE svg PUBLIC "-//W3C//DTD SVG 1.1//EN" 
 "http://www.w3.org/Graphics/SVG/1.1/DTD/svg11.dtd"> 
<svg
  xmlns:svg="http://www.w3.org/2000/svg"
  xmlns="http://www.w3.org/2000/svg"
  xmlns:xlink="http://www.w3.org/1999/xlink"
  version="1.1"
  width="297.0022mm" height="210.0072mm" viewBox="0.0000 0.0000 297.0022 210.0072">
<title>SVG Image created as txe8116-module-F_Paste0.svg date 2026/03/24 20:18:09 </title>
  <desc>Image generated by PCBNEW </desc>
<g style="fill:#000000; fill-opacity:1.0000;stroke:#000000; stroke-opacity:1.0000;
stroke-linecap:round; stroke-linejoin:round;"
 transform="translate(0 0) scale(1 1)">
<path style="fill:#000000; fill-opacity:1.0000; stroke:none;fill-rule:evenodd;"
d="M 144.1411,86.1302
143.9689,86.0959
143.8229,85.9984
143.7254,85.8524
143.6911,85.6802
143.6911,84.7802
143.7254,84.6080
143.8229,84.4620
143.9689,84.3644
144.1411,84.3302
145.1411,84.3302
145.3133,84.3644
145.4593,84.4620
145.5568,84.6080
145.5911,84.7802
145.5911,85.6802
145.5568,85.8524
145.4593,85.9984
145.3133,86.0959
145.1411,86.1302
Z" /> 
<path style="fill:#000000; fill-opacity:1.0000; stroke:none;fill-rule:evenodd;"
d="M 144.1411,83.0302
143.9689,82.9959
143.8229,82.8984
143.7254,82.7524
143.6911,82.5802
143.6911,81.6802
143.7254,81.5080
143.8229,81.3620
143.9689,81.2644
144.1411,81.2302
145.1411,81.2302
145.3133,81.2644
145.4593,81.3620
145.5568,81.5080
145.5911,81.6802
145.5911,82.5802
145.5568,82.7524
145.4593,82.8984
145.3133,82.9959
145.1411,83.0302
Z" /> 
<path style="fill:#000000; fill-opacity:1.0000; stroke:none;fill-rule:evenodd;"
d="M 157.5711,83.2052
157.5806,83.1573
157.6077,83.1168
157.6483,83.0897
157.6961,83.0802
158.1661,83.0802
158.2139,83.0897
158.2545,83.1168
158.2816,83.1573
158.2911,83.2052
158.2911,83.4552
158.2816,83.5030
158.2545,83.5436
158.2139,83.5707
158.1661,83.5802
157.6961,83.5802
157.6483,83.5707
157.6077,83.5436
157.5806,83.5030
157.5711,83.4552
Z" /> 
<path style="fill:#000000; fill-opacity:1.0000; stroke:none;fill-rule:evenodd;"
d="M 155.8911,83.2052
155.9006,83.1573
155.9277,83.1168
155.9683,83.0897
156.0161,83.0802
156.4861,83.0802
156.5339,83.0897
156.5745,83.1168
156.6016,83.1573
156.6111,83.2052
156.6111,83.4552
156.6016,83.5030
156.5745,83.5436
156.5339,83.5707
156.4861,83.5802
156.0161,83.5802
155.9683,83.5707
155.9277,83.5436
155.9006,83.5030
155.8911,83.4552
Z" /> 
<path style="fill:#000000; fill-opacity:1.0000; stroke:none;fill-rule:evenodd;"
d="M 139.4111,73.3052
139.4016,73.3530
139.3745,73.3936
139.3339,73.4207
139.2861,73.4302
138.8161,73.4302
138.7683,73.4207
138.7277,73.3936
138.7006,73.3530
138.6911,73.3052
138.6911,73.0552
138.7006,73.0073
138.7277,72.9668
138.7683,72.9397
138.8161,72.9302
139.2861,72.9302
139.3339,72.9397
139.3745,72.9668
139.4016,73.0073
139.4111,73.0552
Z" /> 
<path style="fill:#000000; fill-opacity:1.0000; stroke:none;fill-rule:evenodd;"
d="M 141.0911,73.3052
141.0816,73.3530
141.0545,73.3936
141.0139,73.4207
140.9661,73.4302
140.4961,73.4302
140.4483,73.4207
140.4077,73.3936
140.3806,73.3530
140.3711,73.3052
140.3711,73.0552
140.3806,73.0073
140.4077,72.9668
140.4483,72.9397
140.4961,72.9302
140.9661,72.9302
141.0139,72.9397
141.0545,72.9668
141.0816,73.0073
141.0911,73.0552
Z" /> 
<path style="fill:#000000; fill-opacity:1.0000; stroke:none;fill-rule:evenodd;"
d="M 139.4111,98.7052
139.4016,98.7530
139.3745,98.7936
139.3339,98.8207
139.2861,98.8302
138.8161,98.8302
138.7683,98.8207
138.7277,98.7936
138.7006,98.7530
138.6911,98.7052
138.6911,98.4552
138.7006,98.4073
138.7277,98.3668
138.7683,98.3397
138.8161,98.3302
139.2861,98.3302
139.3339,98.3397
139.3745,98.3668
139.4016,98.4073
139.4111,98.4552
Z" /> 
<path style="fill:#000000; fill-opacity:1.0000; stroke:none;fill-rule:evenodd;"
d="M 141.0911,98.7052
141.0816,98.7530
141.0545,98.7936
141.0139,98.8207
140.9661,98.8302
140.4961,98.8302
140.4483,98.8207
140.4077,98.7936
140.3806,98.7530
140.3711,98.7052
140.3711,98.4552
140.3806,98.4073
140.4077,98.3668
140.4483,98.3397
140.4961,98.3302
140.9661,98.3302
141.0139,98.3397
141.0545,98.3668
141.0816,98.4073
141.0911,98.4552
Z" /> 
<path style="fill:#000000; fill-opacity:1.0000; stroke:none;fill-rule:evenodd;"
d="M 157.6211,73.0552
157.6306,73.0073
157.6577,72.9668
157.6983,72.9397
157.7461,72.9302
158.2161,72.9302
158.2639,72.9397
158.3045,72.9668
158.3316,73.0073
158.3411,73.0552
158.3411,73.3052
158.3316,73.3530
158.3045,73.3936
158.2639,73.4207
158.2161,73.4302
157.7461,73.4302
157.6983,73.4207
157.6577,73.3936
157.6306,73.3530
157.6211,73.3052
Z" /> 
<path style="fill:#000000; fill-opacity:1.0000; stroke:none;fill-rule:evenodd;"
d="M 155.9411,73.0552
155.9506,73.0073
155.9777,72.9668
156.0183,72.9397
156.0661,72.9302
156.5361,72.9302
156.5839,72.9397
156.6245,72.9668
156.6516,73.0073
156.6611,73.0552
156.6611,73.3052
156.6516,73.3530
156.6245,73.3936
156.5839,73.4207
156.5361,73.4302
156.0661,73.4302
156.0183,73.4207
155.9777,73.3936
155.9506,73.3530
155.9411,73.3052
Z" /> 
<path style="fill:#000000; fill-opacity:1.0000; stroke:none;fill-rule:evenodd;"
d="M 139.4111,88.5552
139.4016,88.6030
139.3745,88.6436
139.3339,88.6707
139.2861,88.6802
138.8161,88.6802
138.7683,88.6707
138.7277,88.6436
138.7006,88.6030
138.6911,88.5552
138.6911,88.3052
138.7006,88.2573
138.7277,88.2168
138.7683,88.1897
138.8161,88.1802
139.2861,88.1802
139.3339,88.1897
139.3745,88.2168
139.4016,88.2573
139.4111,88.3052
Z" /> 
<path style="fill:#000000; fill-opacity:1.0000; stroke:none;fill-rule:evenodd;"
d="M 141.0911,88.5552
141.0816,88.6030
141.0545,88.6436
141.0139,88.6707
140.9661,88.6802
140.4961,88.6802
140.4483,88.6707
140.4077,88.6436
140.3806,88.6030
140.3711,88.5552
140.3711,88.3052
140.3806,88.2573
140.4077,88.2168
140.4483,88.1897
140.4961,88.1802
140.9661,88.1802
141.0139,88.1897
141.0545,88.2168
141.0816,88.2573
141.0911,88.3052
Z" /> 
<path style="fill:#000000; fill-opacity:1.0000; stroke:none;fill-rule:evenodd;"
d="M 139.4111,108.8552
139.4016,108.9030
139.3745,108.9436
139.3339,108.9707
139.2861,108.9802
138.8161,108.9802
138.7683,108.9707
138.7277,108.9436
138.7006,108.9030
138.6911,108.8552
138.6911,108.6052
138.7006,108.5573
138.7277,108.5168
138.7683,108.4897
138.8161,108.4802
139.2861,108.4802
139.3339,108.4897
139.3745,108.5168
139.4016,108.5573
139.4111,108.6052
Z" /> 
<path style="fill:#000000; fill-opacity:1.0000; stroke:none;fill-rule:evenodd;"
d="M 141.0911,108.8552
141.0816,108.9030
141.0545,108.9436
141.0139,108.9707
140.9661,108.9802
140.4961,108.9802
140.4483,108.9707
140.4077,108.9436
140.3806,108.9030
140.3711,108.8552
140.3711,108.6052
140.3806,108.5573
140.4077,108.5168
140.4483,108.4897
140.4961,108.4802
140.9661,108.4802
141.0139,108.4897
141.0545,108.5168
141.0816,108.5573
141.0911,108.6052
Z" /> 
<path style="fill:#000000; fill-opacity:1.0000; stroke:none;fill-rule:evenodd;"
d="M 157.6211,113.7052
157.6306,113.6573
157.6577,113.6168
157.6983,113.5897
157.7461,113.5802
158.2161,113.5802
158.2639,113.5897
158.3045,113.6168
158.3316,113.6573
158.3411,113.7052
158.3411,113.9552
158.3316,114.0030
158.3045,114.0436
158.2639,114.0707
158.2161,114.0802
157.7461,114.0802
157.6983,114.0707
157.6577,114.0436
157.6306,114.0030
157.6211,113.9552
Z" /> 
<path style="fill:#000000; fill-opacity:1.0000; stroke:none;fill-rule:evenodd;"
d="M 155.9411,113.7052
155.9506,113.6573
155.9777,113.6168
156.0183,113.5897
156.0661,113.5802
156.5361,113.5802
156.5839,113.5897
156.6245,113.6168
156.6516,113.6573
156.6611,113.7052
156.6611,113.9552
156.6516,114.0030
156.6245,114.0436
156.5839,114.0707
156.5361,114.0802
156.0661,114.0802
156.0183,114.0707
155.9777,114.0436
155.9506,114.0030
155.9411,113.9552
Z" /> 
<path style="fill:#000000; fill-opacity:1.0000; stroke:none;fill-rule:evenodd;"
d="M 139.4111,124.1052
139.4016,124.1530
139.3745,124.1936
139.3339,124.2207
139.2861,124.2302
138.8161,124.2302
138.7683,124.2207
138.7277,124.1936
138.7006,124.1530
138.6911,124.1052
138.6911,123.8552
138.7006,123.8073
138.7277,123.7668
138.7683,123.7397
138.8161,123.7302
139.2861,123.7302
139.3339,123.7397
139.3745,123.7668
139.4016,123.8073
139.4111,123.8552
Z" /> 
<path style="fill:#000000; fill-opacity:1.0000; stroke:none;fill-rule:evenodd;"
d="M 141.0911,124.1052
141.0816,124.1530
141.0545,124.1936
141.0139,124.2207
140.9661,124.2302
140.4961,124.2302
140.4483,124.2207
140.4077,124.1936
140.3806,124.1530
140.3711,124.1052
140.3711,123.8552
140.3806,123.8073
140.4077,123.7668
140.4483,123.7397
140.4961,123.7302
140.9661,123.7302
141.0139,123.7397
141.0545,123.7668
141.0816,123.8073
141.0911,123.8552
Z" /> 
<path style="fill:#000000; fill-opacity:1.0000; stroke:none;fill-rule:evenodd;"
d="M 145.8111,71.1002
145.9642,71.1306
146.0939,71.2173
146.1807,71.3471
146.2111,71.5002
146.2111,72.3002
146.1807,72.4533
146.0939,72.5830
145.9642,72.6697
145.8111,72.7002
144.7111,72.7002
144.5580,72.6697
144.4283,72.5830
144.3415,72.4533
144.3111,72.3002
144.3111,71.5002
144.3415,71.3471
144.4283,71.2173
144.5580,71.1306
144.7111,71.1002
Z" /> 
<path style="fill:#000000; fill-opacity:1.0000; stroke:none;fill-rule:evenodd;"
d="M 145.8111,74.4002
145.9642,74.4306
146.0939,74.5173
146.1807,74.6471
146.2111,74.8002
146.2111,75.6002
146.1807,75.7533
146.0939,75.8830
145.9642,75.9697
145.8111,76.0002
144.7111,76.0002
144.5580,75.9697
144.4283,75.8830
144.3415,75.7533
144.3111,75.6002
144.3111,74.8002
144.3415,74.6471
144.4283,74.5173
144.5580,74.4306
144.7111,74.4002
Z" /> 
<path style="fill:#000000; fill-opacity:1.0000; stroke:none;fill-rule:evenodd;"
d="M 157.6211,78.1052
157.6306,78.0573
157.6577,78.0168
157.6983,77.9897
157.7461,77.9802
158.2161,77.9802
158.2639,77.9897
158.3045,78.0168
158.3316,78.0573
158.3411,78.1052
158.3411,78.3552
158.3316,78.4030
158.3045,78.4436
158.2639,78.4707
158.2161,78.4802
157.7461,78.4802
157.6983,78.4707
157.6577,78.4436
157.6306,78.4030
157.6211,78.3552
Z" /> 
<path style="fill:#000000; fill-opacity:1.0000; stroke:none;fill-rule:evenodd;"
d="M 155.9411,78.1052
155.9506,78.0573
155.9777,78.0168
156.0183,77.9897
156.0661,77.9802
156.5361,77.9802
156.5839,77.9897
156.6245,78.0168
156.6516,78.0573
156.6611,78.1052
156.6611,78.3552
156.6516,78.4030
156.6245,78.4436
156.5839,78.4707
156.5361,78.4802
156.0661,78.4802
156.0183,78.4707
155.9777,78.4436
155.9506,78.4030
155.9411,78.3552
Z" /> 
<path style="fill:#000000; fill-opacity:1.0000; stroke:none;fill-rule:evenodd;"
d="M 157.6261,98.4552
157.6356,98.4073
157.6627,98.3668
157.7033,98.3397
157.7511,98.3302
158.2211,98.3302
158.2689,98.3397
158.3095,98.3668
158.3366,98.4073
158.3461,98.4552
158.3461,98.7052
158.3366,98.7530
158.3095,98.7936
158.2689,98.8207
158.2211,98.8302
157.7511,98.8302
157.7033,98.8207
157.6627,98.7936
157.6356,98.7530
157.6261,98.7052
Z" /> 
<path style="fill:#000000; fill-opacity:1.0000; stroke:none;fill-rule:evenodd;"
d="M 155.9461,98.4552
155.9556,98.4073
155.9827,98.3668
156.0233,98.3397
156.0711,98.3302
156.5411,98.3302
156.5889,98.3397
156.6295,98.3668
156.6566,98.4073
156.6661,98.4552
156.6661,98.7052
156.6566,98.7530
156.6295,98.7936
156.5889,98.8207
156.5411,98.8302
156.0711,98.8302
156.0233,98.8207
155.9827,98.7936
155.9556,98.7530
155.9461,98.7052
Z" /> 
<path style="fill:#000000; fill-opacity:1.0000; stroke:none;fill-rule:evenodd;"
d="M 143.1411,87.7802
143.1525,87.7228
143.1850,87.6741
143.2337,87.6416
143.2911,87.6302
145.9911,87.6302
146.0485,87.6416
146.0972,87.6741
146.1297,87.7228
146.1411,87.7802
146.1411,88.0802
146.1297,88.1376
146.0972,88.1862
146.0485,88.2188
145.9911,88.2302
143.2911,88.2302
143.2337,88.2188
143.1850,88.1862
143.1525,88.1376
143.1411,88.0802
Z" /> 
<path style="fill:#000000; fill-opacity:1.0000; stroke:none;fill-rule:evenodd;"
d="M 143.1411,88.7802
143.1525,88.7228
143.1850,88.6741
143.2337,88.6416
143.2911,88.6302
145.9911,88.6302
146.0485,88.6416
146.0972,88.6741
146.1297,88.7228
146.1411,88.7802
146.1411,89.0802
146.1297,89.1376
146.0972,89.1862
146.0485,89.2188
145.9911,89.2302
143.2911,89.2302
143.2337,89.2188
143.1850,89.1862
143.1525,89.1376
143.1411,89.0802
Z" /> 
<path style="fill:#000000; fill-opacity:1.0000; stroke:none;fill-rule:evenodd;"
d="M 143.1411,89.7802
143.1525,89.7228
143.1850,89.6741
143.2337,89.6416
143.2911,89.6302
145.9911,89.6302
146.0485,89.6416
146.0972,89.6741
146.1297,89.7228
146.1411,89.7802
146.1411,90.0802
146.1297,90.1376
146.0972,90.1862
146.0485,90.2188
145.9911,90.2302
143.2911,90.2302
143.2337,90.2188
143.1850,90.1862
143.1525,90.1376
143.1411,90.0802
Z" /> 
<path style="fill:#000000; fill-opacity:1.0000; stroke:none;fill-rule:evenodd;"
d="M 143.1411,90.7802
143.1525,90.7228
143.1850,90.6741
143.2337,90.6416
143.2911,90.6302
145.9911,90.6302
146.0485,90.6416
146.0972,90.6741
146.1297,90.7228
146.1411,90.7802
146.1411,91.0802
146.1297,91.1376
146.0972,91.1862
146.0485,91.2188
145.9911,91.2302
143.2911,91.2302
143.2337,91.2188
143.1850,91.1862
143.1525,91.1376
143.1411,91.0802
Z" /> 
<path style="fill:#000000; fill-opacity:1.0000; stroke:none;fill-rule:evenodd;"
d="M 143.1411,91.7802
143.1525,91.7228
143.1850,91.6741
143.2337,91.6416
143.2911,91.6302
145.9911,91.6302
146.0485,91.6416
146.0972,91.6741
146.1297,91.7228
146.1411,91.7802
146.1411,92.0802
146.1297,92.1376
146.0972,92.1862
146.0485,92.2188
145.9911,92.2302
143.2911,92.2302
143.2337,92.2188
143.1850,92.1862
143.1525,92.1376
143.1411,92.0802
Z" /> 
<path style="fill:#000000; fill-opacity:1.0000; stroke:none;fill-rule:evenodd;"
d="M 143.1411,92.7802
143.1525,92.7228
143.1850,92.6741
143.2337,92.6416
143.2911,92.6302
145.9911,92.6302
146.0485,92.6416
146.0972,92.6741
146.1297,92.7228
146.1411,92.7802
146.1411,93.0802
146.1297,93.1376
146.0972,93.1862
146.0485,93.2188
145.9911,93.2302
143.2911,93.2302
143.2337,93.2188
143.1850,93.1862
143.1525,93.1376
143.1411,93.0802
Z" /> 
<path style="fill:#000000; fill-opacity:1.0000; stroke:none;fill-rule:evenodd;"
d="M 143.1411,93.7802
143.1525,93.7228
143.1850,93.6741
143.2337,93.6416
143.2911,93.6302
145.9911,93.6302
146.0485,93.6416
146.0972,93.6741
146.1297,93.7228
146.1411,93.7802
146.1411,94.0802
146.1297,94.1376
146.0972,94.1862
146.0485,94.2188
145.9911,94.2302
143.2911,94.2302
143.2337,94.2188
143.1850,94.1862
143.1525,94.1376
143.1411,94.0802
Z" /> 
<path style="fill:#000000; fill-opacity:1.0000; stroke:none;fill-rule:evenodd;"
d="M 143.1411,94.7802
143.1525,94.7228
143.1850,94.6741
143.2337,94.6416
143.2911,94.6302
145.9911,94.6302
146.0485,94.6416
146.0972,94.6741
146.1297,94.7228
146.1411,94.7802
146.1411,95.0802
146.1297,95.1376
146.0972,95.1862
146.0485,95.2188
145.9911,95.2302
143.2911,95.2302
143.2337,95.2188
143.1850,95.1862
143.1525,95.1376
143.1411,95.0802
Z" /> 
<path style="fill:#000000; fill-opacity:1.0000; stroke:none;fill-rule:evenodd;"
d="M 143.1411,95.7802
143.1525,95.7228
143.1850,95.6741
143.2337,95.6416
143.2911,95.6302
145.9911,95.6302
146.0485,95.6416
146.0972,95.6741
146.1297,95.7228
146.1411,95.7802
146.1411,96.0802
146.1297,96.1376
146.0972,96.1862
146.0485,96.2188
145.9911,96.2302
143.2911,96.2302
143.2337,96.2188
143.1850,96.1862
143.1525,96.1376
143.1411,96.0802
Z" /> 
<path style="fill:#000000; fill-opacity:1.0000; stroke:none;fill-rule:evenodd;"
d="M 143.1411,96.7802
143.1525,96.7228
143.1850,96.6741
143.2337,96.6416
143.2911,96.6302
145.9911,96.6302
146.0485,96.6416
146.0972,96.6741
146.1297,96.7228
146.1411,96.7802
146.1411,97.0802
146.1297,97.1376
146.0972,97.1862
146.0485,97.2188
145.9911,97.2302
143.2911,97.2302
143.2337,97.2188
143.1850,97.1862
143.1525,97.1376
143.1411,97.0802
Z" /> 
<path style="fill:#000000; fill-opacity:1.0000; stroke:none;fill-rule:evenodd;"
d="M 143.1411,97.7802
143.1525,97.7228
143.1850,97.6741
143.2337,97.6416
143.2911,97.6302
145.9911,97.6302
146.0485,97.6416
146.0972,97.6741
146.1297,97.7228
146.1411,97.7802
146.1411,98.0802
146.1297,98.1376
146.0972,98.1862
146.0485,98.2188
145.9911,98.2302
143.2911,98.2302
143.2337,98.2188
143.1850,98.1862
143.1525,98.1376
143.1411,98.0802
Z" /> 
<path style="fill:#000000; fill-opacity:1.0000; stroke:none;fill-rule:evenodd;"
d="M 143.1411,98.7802
143.1525,98.7228
143.1850,98.6741
143.2337,98.6416
143.2911,98.6302
145.9911,98.6302
146.0485,98.6416
146.0972,98.6741
146.1297,98.7228
146.1411,98.7802
146.1411,99.0802
146.1297,99.1376
146.0972,99.1862
146.0485,99.2188
145.9911,99.2302
143.2911,99.2302
143.2337,99.2188
143.1850,99.1862
143.1525,99.1376
143.1411,99.0802
Z" /> 
<path style="fill:#000000; fill-opacity:1.0000; stroke:none;fill-rule:evenodd;"
d="M 151.7411,98.7802
151.7525,98.7228
151.7850,98.6741
151.8337,98.6416
151.8911,98.6302
154.5911,98.6302
154.6485,98.6416
154.6972,98.6741
154.7297,98.7228
154.7411,98.7802
154.7411,99.0802
154.7297,99.1376
154.6972,99.1862
154.6485,99.2188
154.5911,99.2302
151.8911,99.2302
151.8337,99.2188
151.7850,99.1862
151.7525,99.1376
151.7411,99.0802
Z" /> 
<path style="fill:#000000; fill-opacity:1.0000; stroke:none;fill-rule:evenodd;"
d="M 151.7411,97.7802
151.7525,97.7228
151.7850,97.6741
151.8337,97.6416
151.8911,97.6302
154.5911,97.6302
154.6485,97.6416
154.6972,97.6741
154.7297,97.7228
154.7411,97.7802
154.7411,98.0802
154.7297,98.1376
154.6972,98.1862
154.6485,98.2188
154.5911,98.2302
151.8911,98.2302
151.8337,98.2188
151.7850,98.1862
151.7525,98.1376
151.7411,98.0802
Z" /> 
<path style="fill:#000000; fill-opacity:1.0000; stroke:none;fill-rule:evenodd;"
d="M 151.7411,96.7802
151.7525,96.7228
151.7850,96.6741
151.8337,96.6416
151.8911,96.6302
154.5911,96.6302
154.6485,96.6416
154.6972,96.6741
154.7297,96.7228
154.7411,96.7802
154.7411,97.0802
154.7297,97.1376
154.6972,97.1862
154.6485,97.2188
154.5911,97.2302
151.8911,97.2302
151.8337,97.2188
151.7850,97.1862
151.7525,97.1376
151.7411,97.0802
Z" /> 
<path style="fill:#000000; fill-opacity:1.0000; stroke:none;fill-rule:evenodd;"
d="M 151.7411,95.7802
151.7525,95.7228
151.7850,95.6741
151.8337,95.6416
151.8911,95.6302
154.5911,95.6302
154.6485,95.6416
154.6972,95.6741
154.7297,95.7228
154.7411,95.7802
154.7411,96.0802
154.7297,96.1376
154.6972,96.1862
154.6485,96.2188
154.5911,96.2302
151.8911,96.2302
151.8337,96.2188
151.7850,96.1862
151.7525,96.1376
151.7411,96.0802
Z" /> 
<path style="fill:#000000; fill-opacity:1.0000; stroke:none;fill-rule:evenodd;"
d="M 151.7411,94.7802
151.7525,94.7228
151.7850,94.6741
151.8337,94.6416
151.8911,94.6302
154.5911,94.6302
154.6485,94.6416
154.6972,94.6741
154.7297,94.7228
154.7411,94.7802
154.7411,95.0802
154.7297,95.1376
154.6972,95.1862
154.6485,95.2188
154.5911,95.2302
151.8911,95.2302
151.8337,95.2188
151.7850,95.1862
151.7525,95.1376
151.7411,95.0802
Z" /> 
<path style="fill:#000000; fill-opacity:1.0000; stroke:none;fill-rule:evenodd;"
d="M 151.7411,93.7802
151.7525,93.7228
151.7850,93.6741
151.8337,93.6416
151.8911,93.6302
154.5911,93.6302
154.6485,93.6416
154.6972,93.6741
154.7297,93.7228
154.7411,93.7802
154.7411,94.0802
154.7297,94.1376
154.6972,94.1862
154.6485,94.2188
154.5911,94.2302
151.8911,94.2302
151.8337,94.2188
151.7850,94.1862
151.7525,94.1376
151.7411,94.0802
Z" /> 
<path style="fill:#000000; fill-opacity:1.0000; stroke:none;fill-rule:evenodd;"
d="M 151.7411,92.7802
151.7525,92.7228
151.7850,92.6741
151.8337,92.6416
151.8911,92.6302
154.5911,92.6302
154.6485,92.6416
154.6972,92.6741
154.7297,92.7228
154.7411,92.7802
154.7411,93.0802
154.7297,93.1376
154.6972,93.1862
154.6485,93.2188
154.5911,93.2302
151.8911,93.2302
151.8337,93.2188
151.7850,93.1862
151.7525,93.1376
151.7411,93.0802
Z" /> 
<path style="fill:#000000; fill-opacity:1.0000; stroke:none;fill-rule:evenodd;"
d="M 151.7411,91.7802
151.7525,91.7228
151.7850,91.6741
151.8337,91.6416
151.8911,91.6302
154.5911,91.6302
154.6485,91.6416
154.6972,91.6741
154.7297,91.7228
154.7411,91.7802
154.7411,92.0802
154.7297,92.1376
154.6972,92.1862
154.6485,92.2188
154.5911,92.2302
151.8911,92.2302
151.8337,92.2188
151.7850,92.1862
151.7525,92.1376
151.7411,92.0802
Z" /> 
<path style="fill:#000000; fill-opacity:1.0000; stroke:none;fill-rule:evenodd;"
d="M 151.7411,90.7802
151.7525,90.7228
151.7850,90.6741
151.8337,90.6416
151.8911,90.6302
154.5911,90.6302
154.6485,90.6416
154.6972,90.6741
154.7297,90.7228
154.7411,90.7802
154.7411,91.0802
154.7297,91.1376
154.6972,91.1862
154.6485,91.2188
154.5911,91.2302
151.8911,91.2302
151.8337,91.2188
151.7850,91.1862
151.7525,91.1376
151.7411,91.0802
Z" /> 
<path style="fill:#000000; fill-opacity:1.0000; stroke:none;fill-rule:evenodd;"
d="M 151.7411,89.7802
151.7525,89.7228
151.7850,89.6741
151.8337,89.6416
151.8911,89.6302
154.5911,89.6302
154.6485,89.6416
154.6972,89.6741
154.7297,89.7228
154.7411,89.7802
154.7411,90.0802
154.7297,90.1376
154.6972,90.1862
154.6485,90.2188
154.5911,90.2302
151.8911,90.2302
151.8337,90.2188
151.7850,90.1862
151.7525,90.1376
151.7411,90.0802
Z" /> 
<path style="fill:#000000; fill-opacity:1.0000; stroke:none;fill-rule:evenodd;"
d="M 151.7411,88.7802
151.7525,88.7228
151.7850,88.6741
151.8337,88.6416
151.8911,88.6302
154.5911,88.6302
154.6485,88.6416
154.6972,88.6741
154.7297,88.7228
154.7411,88.7802
154.7411,89.0802
154.7297,89.1376
154.6972,89.1862
154.6485,89.2188
154.5911,89.2302
151.8911,89.2302
151.8337,89.2188
151.7850,89.1862
151.7525,89.1376
151.7411,89.0802
Z" /> 
<path style="fill:#000000; fill-opacity:1.0000; stroke:none;fill-rule:evenodd;"
d="M 151.7411,87.7802
151.7525,87.7228
151.7850,87.6741
151.8337,87.6416
151.8911,87.6302
154.5911,87.6302
154.6485,87.6416
154.6972,87.6741
154.7297,87.7228
154.7411,87.7802
154.7411,88.0802
154.7297,88.1376
154.6972,88.1862
154.6485,88.2188
154.5911,88.2302
151.8911,88.2302
151.8337,88.2188
151.7850,88.1862
151.7525,88.1376
151.7411,88.0802
Z" /> 
<path style="fill:#000000; fill-opacity:1.0000; stroke:none;fill-rule:evenodd;"
d="M 157.6211,118.7552
157.6306,118.7073
157.6577,118.6668
157.6983,118.6397
157.7461,118.6302
158.2161,118.6302
158.2639,118.6397
158.3045,118.6668
158.3316,118.7073
158.3411,118.7552
158.3411,119.0052
158.3316,119.0530
158.3045,119.0936
158.2639,119.1207
158.2161,119.1302
157.7461,119.1302
157.6983,119.1207
157.6577,119.0936
157.6306,119.0530
157.6211,119.0052
Z" /> 
<path style="fill:#000000; fill-opacity:1.0000; stroke:none;fill-rule:evenodd;"
d="M 155.9411,118.7552
155.9506,118.7073
155.9777,118.6668
156.0183,118.6397
156.0661,118.6302
156.5361,118.6302
156.5839,118.6397
156.6245,118.6668
156.6516,118.7073
156.6611,118.7552
156.6611,119.0052
156.6516,119.0530
156.6245,119.0936
156.5839,119.1207
156.5361,119.1302
156.0661,119.1302
156.0183,119.1207
155.9777,119.0936
155.9506,119.0530
155.9411,119.0052
Z" /> 
<path style="fill:#000000; fill-opacity:1.0000; stroke:none;fill-rule:evenodd;"
d="M 157.6211,88.3052
157.6306,88.2573
157.6577,88.2168
157.6983,88.1897
157.7461,88.1802
158.2161,88.1802
158.2639,88.1897
158.3045,88.2168
158.3316,88.2573
158.3411,88.3052
158.3411,88.5552
158.3316,88.6030
158.3045,88.6436
158.2639,88.6707
158.2161,88.6802
157.7461,88.6802
157.6983,88.6707
157.6577,88.6436
157.6306,88.6030
157.6211,88.5552
Z" /> 
<path style="fill:#000000; fill-opacity:1.0000; stroke:none;fill-rule:evenodd;"
d="M 155.9411,88.3052
155.9506,88.2573
155.9777,88.2168
156.0183,88.1897
156.0661,88.1802
156.5361,88.1802
156.5839,88.1897
156.6245,88.2168
156.6516,88.2573
156.6611,88.3052
156.6611,88.5552
156.6516,88.6030
156.6245,88.6436
156.5839,88.6707
156.5361,88.6802
156.0661,88.6802
156.0183,88.6707
155.9777,88.6436
155.9506,88.6030
155.9411,88.5552
Z" /> 
<path style="fill:#000000; fill-opacity:1.0000; stroke:none;fill-rule:evenodd;"
d="M 157.6211,93.3552
157.6306,93.3073
157.6577,93.2668
157.6983,93.2397
157.7461,93.2302
158.2161,93.2302
158.2639,93.2397
158.3045,93.2668
158.3316,93.3073
158.3411,93.3552
158.3411,93.6052
158.3316,93.6530
158.3045,93.6936
158.2639,93.7207
158.2161,93.7302
157.7461,93.7302
157.6983,93.7207
157.6577,93.6936
157.6306,93.6530
157.6211,93.6052
Z" /> 
<path style="fill:#000000; fill-opacity:1.0000; stroke:none;fill-rule:evenodd;"
d="M 155.9411,93.3552
155.9506,93.3073
155.9777,93.2668
156.0183,93.2397
156.0661,93.2302
156.5361,93.2302
156.5839,93.2397
156.6245,93.2668
156.6516,93.3073
156.6611,93.3552
156.6611,93.6052
156.6516,93.6530
156.6245,93.6936
156.5839,93.7207
156.5361,93.7302
156.0661,93.7302
156.0183,93.7207
155.9777,93.6936
155.9506,93.6530
155.9411,93.6052
Z" /> 
<path style="fill:#000000; fill-opacity:1.0000; stroke:none;fill-rule:evenodd;"
d="M 147.2911,86.1302
147.1189,86.0959
146.9729,85.9984
146.8754,85.8524
146.8411,85.6802
146.8411,84.7802
146.8754,84.6080
146.9729,84.4620
147.1189,84.3644
147.2911,84.3302
148.2911,84.3302
148.4633,84.3644
148.6093,84.4620
148.7068,84.6080
148.7411,84.7802
148.7411,85.6802
148.7068,85.8524
148.6093,85.9984
148.4633,86.0959
148.2911,86.1302
Z" /> 
<path style="fill:#000000; fill-opacity:1.0000; stroke:none;fill-rule:evenodd;"
d="M 147.2911,83.0302
147.1189,82.9959
146.9729,82.8984
146.8754,82.7524
146.8411,82.5802
146.8411,81.6802
146.8754,81.5080
146.9729,81.3620
147.1189,81.2644
147.2911,81.2302
148.2911,81.2302
148.4633,81.2644
148.6093,81.3620
148.7068,81.5080
148.7411,81.6802
148.7411,82.5802
148.7068,82.7524
148.6093,82.8984
148.4633,82.9959
148.2911,83.0302
Z" /> 
<path style="fill:#000000; fill-opacity:1.0000; stroke:none;fill-rule:evenodd;"
d="M 157.6211,108.6052
157.6306,108.5573
157.6577,108.5168
157.6983,108.4897
157.7461,108.4802
158.2161,108.4802
158.2639,108.4897
158.3045,108.5168
158.3316,108.5573
158.3411,108.6052
158.3411,108.8552
158.3316,108.9030
158.3045,108.9436
158.2639,108.9707
158.2161,108.9802
157.7461,108.9802
157.6983,108.9707
157.6577,108.9436
157.6306,108.9030
157.6211,108.8552
Z" /> 
<path style="fill:#000000; fill-opacity:1.0000; stroke:none;fill-rule:evenodd;"
d="M 155.9411,108.6052
155.9506,108.5573
155.9777,108.5168
156.0183,108.4897
156.0661,108.4802
156.5361,108.4802
156.5839,108.4897
156.6245,108.5168
156.6516,108.5573
156.6611,108.6052
156.6611,108.8552
156.6516,108.9030
156.6245,108.9436
156.5839,108.9707
156.5361,108.9802
156.0661,108.9802
156.0183,108.9707
155.9777,108.9436
155.9506,108.9030
155.9411,108.8552
Z" /> 
<path style="fill:#000000; fill-opacity:1.0000; stroke:none;fill-rule:evenodd;"
d="M 139.4111,119.0052
139.4016,119.0530
139.3745,119.0936
139.3339,119.1207
139.2861,119.1302
138.8161,119.1302
138.7683,119.1207
138.7277,119.0936
138.7006,119.0530
138.6911,119.0052
138.6911,118.7552
138.7006,118.7073
138.7277,118.6668
138.7683,118.6397
138.8161,118.6302
139.2861,118.6302
139.3339,118.6397
139.3745,118.6668
139.4016,118.7073
139.4111,118.7552
Z" /> 
<path style="fill:#000000; fill-opacity:1.0000; stroke:none;fill-rule:evenodd;"
d="M 141.0911,119.0052
141.0816,119.0530
141.0545,119.0936
141.0139,119.1207
140.9661,119.1302
140.4961,119.1302
140.4483,119.1207
140.4077,119.0936
140.3806,119.0530
140.3711,119.0052
140.3711,118.7552
140.3806,118.7073
140.4077,118.6668
140.4483,118.6397
140.4961,118.6302
140.9661,118.6302
141.0139,118.6397
141.0545,118.6668
141.0816,118.7073
141.0911,118.7552
Z" /> 
<path style="fill:#000000; fill-opacity:1.0000; stroke:none;fill-rule:evenodd;"
d="M 139.4111,83.4552
139.4016,83.5030
139.3745,83.5436
139.3339,83.5707
139.2861,83.5802
138.8161,83.5802
138.7683,83.5707
138.7277,83.5436
138.7006,83.5030
138.6911,83.4552
138.6911,83.2052
138.7006,83.1573
138.7277,83.1168
138.7683,83.0897
138.8161,83.0802
139.2861,83.0802
139.3339,83.0897
139.3745,83.1168
139.4016,83.1573
139.4111,83.2052
Z" /> 
<path style="fill:#000000; fill-opacity:1.0000; stroke:none;fill-rule:evenodd;"
d="M 141.0911,83.4552
141.0816,83.5030
141.0545,83.5436
141.0139,83.5707
140.9661,83.5802
140.4961,83.5802
140.4483,83.5707
140.4077,83.5436
140.3806,83.5030
140.3711,83.4552
140.3711,83.2052
140.3806,83.1573
140.4077,83.1168
140.4483,83.0897
140.4961,83.0802
140.9661,83.0802
141.0139,83.0897
141.0545,83.1168
141.0816,83.1573
141.0911,83.2052
Z" /> 
<path style="fill:#000000; fill-opacity:1.0000; stroke:none;fill-rule:evenodd;"
d="M 139.4111,93.6052
139.4016,93.6530
139.3745,93.6936
139.3339,93.7207
139.2861,93.7302
138.8161,93.7302
138.7683,93.7207
138.7277,93.6936
138.7006,93.6530
138.6911,93.6052
138.6911,93.3552
138.7006,93.3073
138.7277,93.2668
138.7683,93.2397
138.8161,93.2302
139.2861,93.2302
139.3339,93.2397
139.3745,93.2668
139.4016,93.3073
139.4111,93.3552
Z" /> 
<path style="fill:#000000; fill-opacity:1.0000; stroke:none;fill-rule:evenodd;"
d="M 141.0911,93.6052
141.0816,93.6530
141.0545,93.6936
141.0139,93.7207
140.9661,93.7302
140.4961,93.7302
140.4483,93.7207
140.4077,93.6936
140.3806,93.6530
140.3711,93.6052
140.3711,93.3552
140.3806,93.3073
140.4077,93.2668
140.4483,93.2397
140.4961,93.2302
140.9661,93.2302
141.0139,93.2397
141.0545,93.2668
141.0816,93.3073
141.0911,93.3552
Z" /> 
<path style="fill:#000000; fill-opacity:1.0000; stroke:none;fill-rule:evenodd;"
d="M 149.0111,71.1002
149.1642,71.1306
149.2939,71.2173
149.3807,71.3471
149.4111,71.5002
149.4111,72.3002
149.3807,72.4533
149.2939,72.5830
149.1642,72.6697
149.0111,72.7002
147.9111,72.7002
147.7580,72.6697
147.6283,72.5830
147.5415,72.4533
147.5111,72.3002
147.5111,71.5002
147.5415,71.3471
147.6283,71.2173
147.7580,71.1306
147.9111,71.1002
Z" /> 
<path style="fill:#000000; fill-opacity:1.0000; stroke:none;fill-rule:evenodd;"
d="M 149.0111,74.4002
149.1642,74.4306
149.2939,74.5173
149.3807,74.6471
149.4111,74.8002
149.4111,75.6002
149.3807,75.7533
149.2939,75.8830
149.1642,75.9697
149.0111,76.0002
147.9111,76.0002
147.7580,75.9697
147.6283,75.8830
147.5415,75.7533
147.5111,75.6002
147.5111,74.8002
147.5415,74.6471
147.6283,74.5173
147.7580,74.4306
147.9111,74.4002
Z" /> 
<path style="fill:#000000; fill-opacity:1.0000; stroke:none;fill-rule:evenodd;"
d="M 139.4111,68.2052
139.4016,68.2530
139.3745,68.2936
139.3339,68.3207
139.2861,68.3302
138.8161,68.3302
138.7683,68.3207
138.7277,68.2936
138.7006,68.2530
138.6911,68.2052
138.6911,67.9552
138.7006,67.9073
138.7277,67.8668
138.7683,67.8397
138.8161,67.8302
139.2861,67.8302
139.3339,67.8397
139.3745,67.8668
139.4016,67.9073
139.4111,67.9552
Z" /> 
<path style="fill:#000000; fill-opacity:1.0000; stroke:none;fill-rule:evenodd;"
d="M 141.0911,68.2052
141.0816,68.2530
141.0545,68.2936
141.0139,68.3207
140.9661,68.3302
140.4961,68.3302
140.4483,68.3207
140.4077,68.2936
140.3806,68.2530
140.3711,68.2052
140.3711,67.9552
140.3806,67.9073
140.4077,67.8668
140.4483,67.8397
140.4961,67.8302
140.9661,67.8302
141.0139,67.8397
141.0545,67.8668
141.0816,67.9073
141.0911,67.9552
Z" /> 
<path style="fill:#000000; fill-opacity:1.0000; stroke:none;fill-rule:evenodd;"
d="M 157.6211,103.5052
157.6306,103.4573
157.6577,103.4168
157.6983,103.3897
157.7461,103.3802
158.2161,103.3802
158.2639,103.3897
158.3045,103.4168
158.3316,103.4573
158.3411,103.5052
158.3411,103.7552
158.3316,103.8030
158.3045,103.8436
158.2639,103.8707
158.2161,103.8802
157.7461,103.8802
157.6983,103.8707
157.6577,103.8436
157.6306,103.8030
157.6211,103.7552
Z" /> 
<path style="fill:#000000; fill-opacity:1.0000; stroke:none;fill-rule:evenodd;"
d="M 155.9411,103.5052
155.9506,103.4573
155.9777,103.4168
156.0183,103.3897
156.0661,103.3802
156.5361,103.3802
156.5839,103.3897
156.6245,103.4168
156.6516,103.4573
156.6611,103.5052
156.6611,103.7552
156.6516,103.8030
156.6245,103.8436
156.5839,103.8707
156.5361,103.8802
156.0661,103.8802
156.0183,103.8707
155.9777,103.8436
155.9506,103.8030
155.9411,103.7552
Z" /> 
<path style="fill:#000000; fill-opacity:1.0000; stroke:none;fill-rule:evenodd;"
d="M 157.6211,67.9552
157.6306,67.9073
157.6577,67.8668
157.6983,67.8397
157.7461,67.8302
158.2161,67.8302
158.2639,67.8397
158.3045,67.8668
158.3316,67.9073
158.3411,67.9552
158.3411,68.2052
158.3316,68.2530
158.3045,68.2936
158.2639,68.3207
158.2161,68.3302
157.7461,68.3302
157.6983,68.3207
157.6577,68.2936
157.6306,68.2530
157.6211,68.2052
Z" /> 
<path style="fill:#000000; fill-opacity:1.0000; stroke:none;fill-rule:evenodd;"
d="M 155.9411,67.9552
155.9506,67.9073
155.9777,67.8668
156.0183,67.8397
156.0661,67.8302
156.5361,67.8302
156.5839,67.8397
156.6245,67.8668
156.6516,67.9073
156.6611,67.9552
156.6611,68.2052
156.6516,68.2530
156.6245,68.2936
156.5839,68.3207
156.5361,68.3302
156.0661,68.3302
156.0183,68.3207
155.9777,68.2936
155.9506,68.2530
155.9411,68.2052
Z" /> 
<path style="fill:#000000; fill-opacity:1.0000; stroke:none;fill-rule:evenodd;"
d="M 139.4111,78.4052
139.4016,78.4530
139.3745,78.4936
139.3339,78.5207
139.2861,78.5302
138.8161,78.5302
138.7683,78.5207
138.7277,78.4936
138.7006,78.4530
138.6911,78.4052
138.6911,78.1552
138.7006,78.1073
138.7277,78.0668
138.7683,78.0397
138.8161,78.0302
139.2861,78.0302
139.3339,78.0397
139.3745,78.0668
139.4016,78.1073
139.4111,78.1552
Z" /> 
<path style="fill:#000000; fill-opacity:1.0000; stroke:none;fill-rule:evenodd;"
d="M 141.0911,78.4052
141.0816,78.4530
141.0545,78.4936
141.0139,78.5207
140.9661,78.5302
140.4961,78.5302
140.4483,78.5207
140.4077,78.4936
140.3806,78.4530
140.3711,78.4052
140.3711,78.1552
140.3806,78.1073
140.4077,78.0668
140.4483,78.0397
140.4961,78.0302
140.9661,78.0302
141.0139,78.0397
141.0545,78.0668
141.0816,78.1073
141.0911,78.1552
Z" /> 
<path style="fill:#000000; fill-opacity:1.0000; stroke:none;fill-rule:evenodd;"
d="M 139.4111,113.9552
139.4016,114.0030
139.3745,114.0436
139.3339,114.0707
139.2861,114.0802
138.8161,114.0802
138.7683,114.0707
138.7277,114.0436
138.7006,114.0030
138.6911,113.9552
138.6911,113.7052
138.7006,113.6573
138.7277,113.6168
138.7683,113.5897
138.8161,113.5802
139.2861,113.5802
139.3339,113.5897
139.3745,113.6168
139.4016,113.6573
139.4111,113.7052
Z" /> 
<path style="fill:#000000; fill-opacity:1.0000; stroke:none;fill-rule:evenodd;"
d="M 141.0911,113.9552
141.0816,114.0030
141.0545,114.0436
141.0139,114.0707
140.9661,114.0802
140.4961,114.0802
140.4483,114.0707
140.4077,114.0436
140.3806,114.0030
140.3711,113.9552
140.3711,113.7052
140.3806,113.6573
140.4077,113.6168
140.4483,113.5897
140.4961,113.5802
140.9661,113.5802
141.0139,113.5897
141.0545,113.6168
141.0816,113.6573
141.0911,113.7052
Z" /> 
<path style="fill:#000000; fill-opacity:1.0000; stroke:none;fill-rule:evenodd;"
d="M 139.4061,103.8052
139.3966,103.8530
139.3695,103.8936
139.3289,103.9207
139.2811,103.9302
138.8111,103.9302
138.7633,103.9207
138.7227,103.8936
138.6956,103.8530
138.6861,103.8052
138.6861,103.5552
138.6956,103.5073
138.7227,103.4668
138.7633,103.4397
138.8111,103.4302
139.2811,103.4302
139.3289,103.4397
139.3695,103.4668
139.3966,103.5073
139.4061,103.5552
Z" /> 
<path style="fill:#000000; fill-opacity:1.0000; stroke:none;fill-rule:evenodd;"
d="M 141.0861,103.8052
141.0766,103.8530
141.0495,103.8936
141.0089,103.9207
140.9611,103.9302
140.4911,103.9302
140.4433,103.9207
140.4027,103.8936
140.3756,103.8530
140.3661,103.8052
140.3661,103.5552
140.3756,103.5073
140.4027,103.4668
140.4433,103.4397
140.4911,103.4302
140.9611,103.4302
141.0089,103.4397
141.0495,103.4668
141.0766,103.5073
141.0861,103.5552
Z" /> 
</g> 
</svg>
